# Blender 5.0.0
# www.blender.org
o shape15_timezone_b0.007
v -82.974014 -24.690094 31.897760
v -73.428246 -24.668055 32.382492
v -85.192360 -23.159525 34.997150
v -78.514450 -23.412470 34.897659
v -79.170219 -22.511179 35.382637
v -79.032875 0.000000 35.394970
v -85.387260 22.865005 35.081852
v -78.514450 23.412470 34.897659
v -82.974014 24.690100 31.897766
v -73.428246 24.668055 32.382496
v -85.627678 -22.365501 35.238487
v -85.727814 0.000000 35.452980
v -85.722984 22.130672 35.314682
v -73.569443 -23.846022 32.547585
v -78.879265 22.291466 35.207134
v -73.569450 23.846022 32.547588
vn -0.0225 -0.0097 0.9997
vn 0.0087 -0.0006 1.0000
vn 0.0087 0.0062 0.9999
vn 0.0155 0.0083 0.9998
vn -0.0580 0.8845 0.4630
vn -0.0190 0.9094 0.4155
vn -0.8375 -0.3259 -0.4385
vn -0.8341 0.2210 -0.5054
vn 0.0015 0.3016 0.9534
vn 0.0090 0.2634 0.9646
vn -0.9588 -0.0016 -0.2842
vn 0.4468 0.0045 0.8946
vn 0.4195 0.1089 0.9012
vn 0.4179 0.1129 0.9014
vn -0.7791 -0.0000 -0.6268
vn -0.7832 -0.0006 -0.6217
vn -0.0279 -0.9041 0.4265
vn -0.0050 -0.4766 0.8791
vn -0.0281 -0.3048 0.9520
vn 0.4510 -0.0032 0.8925
vn 0.4622 -0.0000 0.8868
vn 0.7600 -0.0000 0.6500
vn 0.7599 -0.0000 0.6500
vn -0.0190 -0.9094 0.4155
vn 0.3956 -0.1950 0.8975
vn 0.4287 -0.1065 0.8971
vn 0.0507 -0.0000 -0.9987
vt 0.969358 0.860832
vt 0.904088 0.857639
vt 0.969358 0.861854
vt 0.904088 0.858533
vt 0.965143 0.841034
vt 0.895786 0.837713
vt 0.939852 0.734125
vt 0.844439 0.751241
vt 0.968464 0.836819
vt 0.000000 0.000000
vt 0.901023 0.850742
vt 0.844439 0.757627
vt 0.844439 0.754434
vt 0.967953 0.853935
s 0
f 11/1/1 5/2/1 12/3/1
f 6/4/2 12/3/2 5/2/2
f 12/3/3 6/4/3 13/1/3
f 15/2/4 13/1/4 6/4/4
f 7/5/5 8/6/5 9/7/5
f 10/8/6 9/7/6 8/6/6
f 3/5/7 11/9/7 1/7/7
f 7/5/8 9/7/8 13/10/8
f 8/6/9 7/5/9 13/1/9
f 15/11/10 8/6/10 13/1/10
f 13/10/11 11/9/11 12/3/11
f 15/2/12 6/4/12 16/12/12
f 15/11/13 16/12/13 10/13/13
f 8/6/14 15/11/14 10/8/14
f 13/10/15 9/10/15 1/7/15
f 11/9/16 13/10/16 1/7/16
f 3/5/17 1/7/17 4/6/17
f 3/5/18 4/6/18 5/11/18
f 11/14/19 3/5/19 5/11/19
f 6/4/20 5/2/20 14/12/20
f 16/12/21 6/10/21 14/12/21
f 16/12/22 14/12/22 2/13/22
f 10/13/23 16/12/23 2/8/23
f 4/6/24 1/7/24 2/8/24
f 5/11/25 4/6/25 2/8/25
f 14/12/26 5/10/26 2/13/26
f 10/10/27 1/7/27 9/7/27
f 10/10/27 2/8/27 1/7/27
