# Blender 5.0.0
# www.blender.org
o shape10
v -93.178780 14.156087 5.961531
v -93.178780 10.754333 5.961531
v -93.158371 14.156087 9.257539
v -93.158371 10.754333 9.257539
v -93.178780 -14.156087 5.961531
v -93.158371 -14.156087 9.257539
v -93.178780 -10.754333 5.961531
v -93.158371 -10.754333 9.257539
v -93.178780 -10.830149 5.961531
v -93.158371 -10.830149 9.257539
v -93.178780 -7.428396 5.961531
v -93.158371 -7.428396 9.257539
v -93.178780 10.830149 5.961531
v -93.178780 7.428396 5.961531
v -93.158371 10.830149 9.257539
v -93.158371 7.428396 9.257539
vn -1.0000 -0.0000 0.0062
vt 0.843088 0.940266
vt 0.810920 0.940266
vt 0.843088 0.972435
vt 0.810920 0.972435
s 1
f 1/1/1 2/2/1 3/3/1
f 4/4/1 3/3/1 2/2/1
f 5/1/1 6/3/1 7/2/1
f 8/4/1 7/2/1 6/3/1
f 9/1/1 10/3/1 11/2/1
f 12/4/1 11/2/1 10/3/1
f 13/1/1 14/2/1 15/3/1
f 16/4/1 15/3/1 14/2/1
o shape10.001
v -83.857780 -12.359615 9.069125
v -93.097641 -12.325554 9.161550
v -83.867943 -13.946918 7.428918
v -93.108231 -13.980980 7.450948
v -83.878059 -12.399475 5.794497
v -93.117859 -12.356866 5.895749
v -83.867020 -10.674247 7.577223
v -93.107361 -10.716856 7.590425
v -83.857780 -12.359615 9.069125
v -93.097641 -12.325554 9.161550
v -93.097641 -8.894864 9.161550
v -83.857780 -8.928926 9.069125
v -93.107361 -7.286165 7.590425
v -83.867020 -7.243558 7.577223
v -93.117859 -8.926179 5.895749
v -83.878059 -8.968785 5.794497
v -93.108231 -10.550288 7.450948
v -83.867943 -10.516227 7.428918
v -93.097641 -8.894864 9.161550
v -83.857780 -8.928926 9.069125
v -83.867012 10.674248 7.577223
v -93.107361 10.716856 7.590425
v -83.878052 12.399475 5.794497
v -93.117859 12.356867 5.895749
v -83.867943 13.946918 7.428918
v -93.108231 13.980980 7.450948
v -83.857773 12.359615 9.069125
v -93.097641 12.325554 9.161550
v -83.867012 10.674248 7.577223
v -93.107361 10.716856 7.590425
v -83.857773 8.928925 9.069125
v -93.097641 8.894863 9.161550
v -83.867012 7.243559 7.577223
v -93.107361 7.286166 7.590425
v -83.878052 8.968785 5.794497
v -93.117859 8.926178 5.895749
v -83.867943 10.516228 7.428918
v -93.108231 10.550289 7.450948
v -83.857773 8.928925 9.069125
v -93.097641 8.894863 9.161550
vn 0.0057 -0.0263 0.9996
vn -0.0005 -1.0000 -0.0068
vn -0.0067 0.0068 -1.0000
vn -0.0003 0.9997 0.0264
vn 0.0057 -0.0264 0.9996
vn 0.0058 -0.0263 0.9996
vn -0.0004 -0.9997 0.0264
vn -0.0003 -0.9997 0.0264
vn -0.0067 -0.0067 -1.0000
vn -0.0067 -0.0068 -1.0000
vn -0.0005 1.0000 -0.0068
vn 0.0057 0.0264 0.9996
vn -0.0003 -0.9997 0.0263
vn 0.0058 0.0263 0.9996
vt 0.541357 0.994567
vt 0.403770 0.995255
vt 0.541220 0.963748
vt 0.403770 0.963060
vt 0.541357 0.932997
vt 0.403770 0.933753
vt 0.541357 0.966499
vt 0.403770 0.965674
s 1
f 17/5/2 18/6/2 19/7/3
f 20/8/3 19/7/3 18/6/2
f 19/7/3 20/8/3 21/9/4
f 22/10/4 21/9/4 20/8/3
f 21/9/4 22/10/4 23/11/5
f 24/12/5 23/11/5 22/10/4
f 23/11/5 24/12/5 25/5/6
f 26/6/6 25/5/6 24/12/5
f 27/6/6 28/5/6 29/12/5
f 30/11/5 29/12/5 28/5/6
f 29/12/5 30/11/5 31/10/4
f 32/9/4 31/10/4 30/11/5
f 31/10/4 32/9/4 33/8/3
f 34/7/3 33/8/3 32/9/4
f 33/8/3 34/7/3 35/6/7
f 36/5/2 35/6/7 34/7/3
f 37/11/8 38/12/9 39/9/10
f 40/10/11 39/9/10 38/12/9
f 39/9/10 40/10/11 41/7/12
f 42/8/12 41/7/12 40/10/11
f 41/7/12 42/8/12 43/5/13
f 44/6/13 43/5/13 42/8/12
f 43/5/13 44/6/13 45/11/14
f 46/12/14 45/11/14 44/6/13
f 47/5/13 48/6/13 49/11/14
f 50/12/9 49/11/14 48/6/13
f 49/11/14 50/12/9 51/9/10
f 52/10/11 51/9/10 50/12/9
f 51/9/10 52/10/11 53/7/12
f 54/8/12 53/7/12 52/10/11
f 53/7/12 54/8/12 55/5/15
f 56/6/15 55/5/15 54/8/12
