# Blender 5.0.0
# www.blender.org
o shape11.010
v 5.047817 21.617849 45.363480
v 29.850033 28.619143 30.798325
v 6.251319 10.676782 46.341976
v 35.236923 13.607367 31.340092
v 6.842374 -0.000000 46.622639
v 36.251671 -0.000000 31.972218
v 6.251319 -10.676782 46.341976
v 35.236923 -13.607367 31.340092
v 5.047817 -21.617849 45.363480
v 29.850033 -28.619143 30.798319
v 3.539574 -21.317755 46.111675
v 4.474752 -10.695486 47.110092
v 4.842638 -0.000000 47.363838
v 4.474752 10.695486 47.110092
v 3.539574 21.317755 46.111675
vn -0.3724 -0.0000 -0.9281
vn -0.4211 -0.1349 -0.8969
vn -0.4512 -0.1142 -0.8851
vn -0.2075 -0.3770 -0.9027
vn -0.2359 -0.0657 -0.9696
vn -0.2275 -0.0000 -0.9738
vn -0.4502 -0.0000 -0.8929
vn -0.4509 0.1144 -0.8852
vn -0.3922 -0.3263 -0.8600
vn -0.4513 -0.1660 -0.8768
vn -0.4513 0.1652 -0.8770
vn -0.4241 0.1348 -0.8955
vn -0.2359 0.0657 -0.9696
vn -0.2076 0.3771 -0.9026
vn -0.3928 0.3264 -0.8597
vt 0.002963 0.309089
vt 0.033351 0.309004
vt 0.042339 0.235645
vt 0.064680 0.313969
vt 0.033779 0.315167
vt 0.002963 0.316023
vt 0.002963 0.233163
vt 0.065365 0.308062
vt 0.086765 0.248913
s 1
f 5/1/1 3/2/2 4/3/3
f 15/4/4 3/2/2 14/5/5
f 3/2/2 13/6/6 14/5/5
f 5/1/1 6/7/7 8/3/8
f 15/4/4 1/8/9 3/2/2
f 3/2/2 1/8/9 2/9/10
f 10/9/11 7/2/12 8/3/8
f 3/2/2 5/1/1 13/6/6
f 13/6/6 7/2/12 12/5/13
f 3/2/2 2/9/10 4/3/3
f 11/4/14 7/2/12 9/8/15
f 13/6/6 5/1/1 7/2/12
f 10/9/11 9/8/15 7/2/12
f 11/4/14 12/5/13 7/2/12
f 7/2/12 5/1/1 8/3/8
f 6/7/7 5/1/1 4/3/3
o shape13
v -44.101955 21.162966 46.301224
v -56.350990 23.328241 40.699860
v -44.568283 18.585930 46.581741
v -57.891560 19.346201 41.337978
v -45.404236 12.451778 47.124195
v -58.979816 12.586783 41.805729
v -46.310989 -0.000238 47.689442
v -60.189262 0.000415 42.349907
v -45.404236 -12.451351 47.124241
v -58.979683 -12.587232 41.805740
v -44.570019 -18.588091 46.580696
v -57.891159 -19.346308 41.338120
v -44.106838 -21.160233 46.299778
v -56.349583 -23.326862 40.700844
v -67.387566 -24.970591 35.721264
v -70.047394 -20.303097 36.060753
v -72.516914 -11.273252 36.406563
v -73.449341 0.000926 36.619762
v -72.516029 11.271805 36.407070
v -70.047600 20.303671 36.060543
v -67.387253 24.970076 35.721550
vn -0.3562 0.2359 0.9041
vn -0.3593 0.2562 0.8974
vn -0.3582 0.1812 0.9159
vn -0.3658 0.1933 0.9104
vn -0.3600 0.0990 0.9277
vn -0.3720 0.0986 0.9230
vn -0.3607 0.0717 0.9299
vn -0.3731 0.0678 0.9253
vn -0.3600 -0.0990 0.9277
vn -0.3722 -0.0991 0.9228
vn -0.3583 -0.1813 0.9159
vn -0.3658 -0.1932 0.9104
vn -0.3565 -0.2357 0.9041
vn -0.3599 -0.2563 0.8971
vn -0.3625 -0.2766 0.8900
vn -0.3732 -0.2054 0.9047
vn -0.3839 -0.0985 0.9181
vn -0.3854 0.0638 0.9205
vn -0.3839 0.0986 0.9181
vn -0.3732 0.2054 0.9047
vn -0.3625 0.2766 0.8900
vt 0.243585 0.995744
vt 0.289691 0.869119
vt 0.214728 0.995412
vt 0.244581 0.862485
vt 0.170613 0.995412
vt 0.177579 0.861822
vt 0.019030 0.997070
vt 0.019030 0.865470
vt 0.333474 0.748051
vt 0.273769 0.717867
vt 0.152702 0.690005
vt 0.003108 0.685693
s 1
f 16/10/16 17/11/17 18/12/18
f 19/13/19 18/12/18 17/11/17
f 18/12/18 19/13/19 20/14/20
f 21/15/21 20/14/20 19/13/19
f 20/14/20 21/15/21 22/16/22
f 23/17/23 22/16/22 21/15/21
f 22/16/22 23/17/23 24/14/24
f 25/15/25 24/14/24 23/17/23
f 24/14/24 25/15/25 26/12/26
f 27/13/27 26/12/26 25/15/25
f 26/12/26 27/13/27 28/10/28
f 29/11/29 28/10/28 27/13/27
f 30/18/30 29/11/29 31/19/31
f 27/13/27 31/19/31 29/11/29
f 31/19/31 27/13/27 32/20/32
f 25/15/25 32/20/32 27/13/27
f 32/20/32 25/15/25 33/21/33
f 23/17/23 33/21/33 25/15/25
f 33/21/33 23/17/23 34/20/34
f 21/15/21 34/20/34 23/17/23
f 34/20/34 21/15/21 35/19/35
f 19/13/19 35/19/35 21/15/21
f 35/19/35 19/13/19 36/18/36
f 17/11/17 36/18/36 19/13/19
