# Blender 5.0.0
# www.blender.org
o shape11.017
v 80.268738 9.252324 17.368269
v 80.132866 10.169064 18.653864
v 80.729439 8.917338 18.417421
v 80.007957 10.784658 19.892672
v 80.748177 8.941874 19.889336
v 79.673065 10.992652 21.451519
v 80.459152 9.023500 21.614000
v 79.544434 10.758976 21.961578
v 79.305534 9.503500 22.641066
v 79.351265 8.681460 22.830050
v 80.056175 2.077594 22.955944
v 79.305534 9.503500 22.641066
v 80.990517 1.975386 21.869623
v 80.459152 9.023500 21.614000
v 81.357597 1.936016 19.863493
v 80.748177 8.941874 19.889336
v 81.375267 1.808662 18.309692
v 80.729439 8.917338 18.417421
v 81.133751 1.574937 16.826601
v 80.268738 9.252324 17.368269
v 80.369377 7.732472 16.933928
v 80.056175 2.077594 22.955944
v 80.163963 1.312041 22.829998
v 80.990517 1.975386 21.869623
v 80.624855 0.381656 21.933834
v 81.357597 1.936016 19.863493
v 81.103226 0.222423 19.859245
v 81.375267 1.808662 18.309692
v 81.207306 0.343817 18.288126
v 81.195274 0.574652 17.467440
v 81.133751 1.574937 16.826601
v 81.375267 1.808662 18.309692
v 81.195274 0.574652 17.467440
v 79.544441 -10.758976 21.961578
v 79.673073 -10.992652 21.451517
v 80.459152 -9.023500 21.614000
v 80.007942 -10.784658 19.892672
v 80.748184 -8.941874 19.889336
v 80.132851 -10.169064 18.653864
v 80.729446 -8.917338 18.417423
v 80.268745 -9.252324 17.368271
v 81.375259 -1.808662 18.309692
v 80.369377 -7.732472 16.933929
v 81.133766 -1.574937 16.826601
v 80.056190 -2.077594 22.955944
v 79.351265 -8.681460 22.830051
v 80.990524 -1.975386 21.869623
v 79.305527 -9.503500 22.641066
v 80.459152 -9.023500 21.614000
v 79.544441 -10.758976 21.961578
v 81.133766 -1.574937 16.826601
v 81.195251 -0.574652 17.467440
v 81.375259 -1.808662 18.309692
v 81.207306 -0.343817 18.288128
v 81.357582 -1.936016 19.863493
v 81.103218 -0.222423 19.859245
v 80.990524 -1.975386 21.869623
v 80.624840 -0.381656 21.933834
v 80.163971 -1.312041 22.829998
v 80.056190 -2.077594 22.955944
v 80.990524 -1.975386 21.869623
v 80.163971 -1.312041 22.829998
v 80.459152 -9.023500 21.614000
v 80.748184 -8.941874 19.889336
v 80.990524 -1.975386 21.869623
v 81.357582 -1.936016 19.863493
v 81.357582 -1.936016 19.863493
v 80.748184 -8.941874 19.889336
v 81.375259 -1.808662 18.309692
v 80.729446 -8.917338 18.417423
vn 0.9252 0.2872 -0.2481
vn 0.8915 0.4288 -0.1463
vn 0.9528 0.2690 -0.1409
vn 0.9206 0.3884 0.0416
vn 0.9687 0.2401 0.0630
vn 0.8889 0.3743 0.2642
vn 0.8727 0.2401 0.4252
vn 0.7853 0.3062 0.5381
vn 0.7207 0.1632 0.6738
vn 0.7386 0.0924 0.6678
vn 0.7492 0.0460 0.6607
vn 0.7207 0.1631 0.6738
vn 0.8806 -0.0337 0.4726
vn 0.8727 0.2400 0.4252
vn 0.9940 -0.0347 0.1042
vn 0.9687 0.2400 0.0631
vn 0.9962 -0.0169 -0.0854
vn 0.9779 0.0366 -0.2060
vn 0.9252 0.2871 -0.2481
vn 0.9604 0.1112 -0.2555
vn 0.7824 -0.0808 0.6176
vn 0.8806 -0.0338 0.4726
vn 0.8997 -0.1720 0.4012
vn 0.9939 -0.0348 0.1042
vn 0.9801 -0.1549 0.1239
vn 0.9924 -0.1226 -0.0038
vn 0.9920 -0.0760 -0.1007
vn 0.9779 0.0365 -0.2059
vn 0.9920 -0.0759 -0.1008
vn 0.7853 -0.3062 0.5380
vn 0.8889 -0.3743 0.2642
vn 0.8727 -0.2400 0.4252
vn 0.9206 -0.3884 0.0416
vn 0.9687 -0.2400 0.0630
vn 0.8915 -0.4288 -0.1463
vn 0.9528 -0.2690 -0.1409
vn 0.9252 -0.2872 -0.2481
vn 0.9962 0.0169 -0.0854
vn 0.9604 -0.1112 -0.2555
vn 0.9779 -0.0366 -0.2059
vn 0.7492 -0.0460 0.6607
vn 0.7386 -0.0924 0.6678
vn 0.8806 0.0337 0.4726
vn 0.7207 -0.1631 0.6738
vn 0.7853 -0.3061 0.5381
vn 0.9779 -0.0365 -0.2059
vn 0.9920 0.0759 -0.1007
vn 0.9924 0.1226 -0.0038
vn 0.9940 0.0348 0.1042
vn 0.9801 0.1549 0.1239
vn 0.8807 0.0338 0.4726
vn 0.8997 0.1720 0.4012
vn 0.7824 0.0808 0.6176
vn 0.8806 0.0338 0.4726
vn 0.9687 -0.2400 0.0631
vn 0.9939 0.0347 0.1042
vn 0.9940 0.0347 0.1042
vn 0.9528 -0.2690 -0.1408
vt 0.844691 0.424915
vt 0.837879 0.433050
vt 0.847175 0.431567
vt 0.833311 0.439701
vt 0.847015 0.439701
vt 0.831788 0.449599
vt 0.846374 0.450680
vt 0.833552 0.452844
vt 0.842848 0.458093
vt 0.848938 0.458694
vt 0.897904 0.459055
vt 0.898706 0.452323
vt 0.898946 0.439581
vt 0.899908 0.430926
vt 0.901671 0.421509
vt 0.855991 0.422151
vt 0.903594 0.458374
vt 0.910486 0.452684
vt 0.911929 0.439541
vt 0.910807 0.430766
vt 0.909044 0.425557
s 1
f 1/1/1 2/2/2 3/3/3
f 4/4/4 3/3/3 2/2/2
f 3/3/3 4/4/4 5/5/5
f 6/6/6 5/5/5 4/4/4
f 5/5/5 6/6/6 7/7/7
f 8/8/8 7/7/7 6/6/6
f 7/7/7 8/8/8 9/9/9
f 10/10/10 11/11/11 12/9/12
f 13/12/13 12/9/12 11/11/11
f 12/9/12 13/12/13 14/7/14
f 15/13/15 14/7/14 13/12/13
f 14/7/14 15/13/15 16/5/16
f 17/14/17 16/5/16 15/13/15
f 16/5/16 17/14/17 18/3/3
f 19/15/18 18/3/3 17/14/17
f 18/3/3 19/15/18 20/1/19
f 21/16/20 20/1/19 19/15/18
f 22/11/11 23/17/21 24/12/22
f 25/18/23 24/12/22 23/17/21
f 24/12/22 25/18/23 26/13/24
f 27/19/25 26/13/24 25/18/23
f 26/13/24 27/19/25 28/14/17
f 29/20/26 28/14/17 27/19/25
f 28/14/17 29/20/26 30/21/27
f 31/15/28 32/14/17 33/21/29
f 34/8/30 35/6/31 36/7/32
f 37/4/33 36/7/32 35/6/31
f 36/7/32 37/4/33 38/5/34
f 39/2/35 38/5/34 37/4/33
f 38/5/34 39/2/35 40/3/36
f 41/1/37 40/3/36 39/2/35
f 40/3/36 41/1/37 42/14/38
f 43/16/39 42/14/38 41/1/37
f 42/14/38 43/16/39 44/15/40
f 45/11/41 46/10/42 47/12/43
f 48/9/44 47/12/43 46/10/42
f 47/12/43 48/9/44 49/7/32
f 50/8/45 49/7/32 48/9/44
f 51/15/46 52/21/47 53/14/38
f 54/20/48 53/14/38 52/21/47
f 53/14/38 54/20/48 55/13/49
f 56/19/50 55/13/49 54/20/48
f 55/13/49 56/19/50 57/12/51
f 58/18/52 57/12/51 56/19/50
f 57/12/51 58/18/52 59/17/53
f 60/11/41 61/12/54 62/17/53
f 63/7/32 64/5/55 65/12/51
f 66/13/56 65/12/51 64/5/55
f 67/13/57 68/5/34 69/14/38
f 70/3/58 69/14/38 68/5/34
