# Blender 5.0.0
# www.blender.org
o shape8_timezone_b1.002
v 74.700874 14.298949 17.597879
v 74.700874 20.029398 17.597879
v 73.491959 17.239059 20.215134
v 74.733444 20.029398 22.856155
v 74.733444 14.298949 22.856155
v 74.700874 14.298949 17.597879
v 73.491959 17.239059 20.215134
v 74.733444 14.298949 22.856155
v 74.700874 -20.029398 17.597879
v 74.700874 -14.298949 17.597879
v 73.491959 -17.239059 20.215134
v 74.733444 -14.298949 22.856155
v 74.733444 -20.029398 22.856155
v 74.700874 -20.029398 17.597879
v 73.491959 -17.239059 20.215134
v 74.733444 -20.029398 22.856155
vn 0.9556 0.2007 0.2159
vn 0.9534 -0.2102 0.2163
vn 1.0000 -0.0048 -0.0048
vn 0.9514 -0.2101 -0.2253
vn 0.9535 0.2006 -0.2249
vn 0.9556 0.2008 0.2158
vn 1.0000 -0.0047 -0.0048
vn 0.9535 0.2006 -0.2248
vn 0.9534 0.2102 0.2163
vn 0.9556 -0.2008 0.2159
vn 1.0000 0.0047 -0.0048
vn 0.9535 -0.2006 -0.2249
vn 0.9514 0.2100 -0.2253
vn 1.0000 0.0048 -0.0048
vn 0.9514 0.2101 -0.2252
vt 0.556866 0.002930
vt 0.990379 0.002930
vt 0.779258 0.114126
vt 0.994150 0.221628
vt 0.783029 0.116284
vt 0.994150 0.005088
vt 0.779258 0.118396
vt 0.990379 0.223740
vt 0.556866 0.223740
vt 0.553228 0.005094
vt 0.775620 0.116290
vt 0.553228 0.221633
s 1
f 1/1/1 2/2/2 3/3/3
f 4/4/4 3/5/3 2/6/2
f 3/7/3 4/8/4 5/9/5
f 6/10/6 7/11/7 8/12/8
f 9/2/9 10/1/10 11/3/11
f 12/12/12 11/11/11 10/10/10
f 11/7/11 12/9/12 13/8/13
f 14/6/9 15/5/14 16/4/15
