# Blender 5.0.0
# www.blender.org
o shape8_timezone_b1
v 73.511253 20.206760 17.456921
v 73.511253 26.111019 17.456921
v 71.972961 23.236048 20.206860
v 73.544327 25.980785 22.797945
v 73.544327 20.206760 22.797945
v 73.511253 20.206760 17.456921
v 71.972961 23.236048 20.206860
v 73.544327 20.206760 22.797945
v 73.511253 -26.111019 17.456921
v 73.511253 -20.206760 17.456921
v 71.972961 -23.236048 20.206860
v 73.544327 -20.206760 22.797945
v 73.544327 -25.980785 22.797945
v 73.511253 -26.111019 17.456921
v 71.972961 -23.236048 20.206860
v 73.544327 -25.980785 22.797945
vn 0.9357 0.2425 0.2563
vn 0.9327 -0.2586 0.2514
vn 0.9999 -0.0080 -0.0152
vn 0.9228 -0.2585 -0.2858
vn 0.9290 0.2432 -0.2791
vn 0.9999 -0.0079 -0.0152
vn 0.9290 0.2432 -0.2790
vn 0.9327 0.2586 0.2514
vn 0.9357 -0.2425 0.2563
vn 0.9999 0.0079 -0.0152
vn 0.9290 -0.2432 -0.2791
vn 0.9228 0.2584 -0.2858
vn 0.9327 0.2586 0.2513
vn 0.9228 0.2585 -0.2858
vt 0.015006 0.713590
vt 0.480972 0.713590
vt 0.253930 0.820533
vt 0.479658 0.926957
vt 0.262801 0.825106
vt 0.489842 0.718163
vt 0.253933 0.829549
vt 0.470790 0.931400
vt 0.015009 0.931400
vt 0.006501 0.718055
vt 0.245426 0.824998
vt 0.006501 0.926849
vt 0.480972 0.713590
vt 0.015006 0.713590
s 1
f 1/1/1 2/2/2 3/3/3
f 4/4/4 3/5/3 2/6/2
f 3/7/3 4/8/4 5/9/5
f 6/10/1 7/11/6 8/12/7
f 9/13/8 10/14/9 11/3/10
f 12/12/11 11/11/10 10/10/9
f 11/7/10 12/9/11 13/8/12
f 14/6/13 15/5/10 16/4/14
o shape8_timezone_b1.002
v 74.700874 14.298949 17.597879
v 74.700874 20.029398 17.597879
v 73.491959 17.239059 20.215134
v 74.733444 20.029398 22.856155
v 74.733444 14.298949 22.856155
v 74.700874 14.298949 17.597879
v 73.491959 17.239059 20.215134
v 74.733444 14.298949 22.856155
v 74.700874 -20.029398 17.597879
v 74.700874 -14.298949 17.597879
v 73.491959 -17.239059 20.215134
v 74.733444 -14.298949 22.856155
v 74.733444 -20.029398 22.856155
v 74.700874 -20.029398 17.597879
v 73.491959 -17.239059 20.215134
v 74.733444 -20.029398 22.856155
vn 0.9556 0.2007 0.2159
vn 0.9534 -0.2102 0.2163
vn 1.0000 -0.0048 -0.0048
vn 0.9514 -0.2101 -0.2253
vn 0.9535 0.2006 -0.2249
vn 0.9556 0.2008 0.2158
vn 1.0000 -0.0047 -0.0048
vn 0.9535 0.2006 -0.2248
vn 0.9534 0.2102 0.2163
vn 0.9556 -0.2008 0.2159
vn 1.0000 0.0047 -0.0048
vn 0.9535 -0.2006 -0.2249
vn 0.9514 0.2100 -0.2253
vn 1.0000 0.0048 -0.0048
vn 0.9514 0.2101 -0.2252
vt 0.556866 0.002930
vt 0.990379 0.002930
vt 0.779258 0.114126
vt 0.994150 0.221628
vt 0.783029 0.116284
vt 0.994150 0.005088
vt 0.779258 0.118396
vt 0.990379 0.223740
vt 0.556866 0.223740
vt 0.553228 0.005094
vt 0.775620 0.116290
vt 0.553228 0.221633
s 1
f 17/15/15 18/16/16 19/17/17
f 20/18/18 19/19/17 18/20/16
f 19/21/17 20/22/18 21/23/19
f 22/24/20 23/25/21 24/26/22
f 25/16/23 26/15/24 27/17/25
f 28/26/26 27/25/25 26/24/24
f 27/21/25 28/23/26 29/22/27
f 30/20/23 31/19/28 32/18/29
o shape8_timezone_b1.003
v 79.187523 12.727859 18.249125
v 73.856293 13.251797 18.569757
v 79.240532 13.009444 19.698689
v 72.634102 25.998510 22.952576
v 71.384308 25.998508 22.959898
v 73.893875 25.979780 20.782398
v 71.991440 25.994289 20.750883
v 74.110405 25.762964 17.770613
v 72.264313 25.828234 17.970692
v 75.623482 22.103071 17.725992
v 73.119415 21.973555 17.954535
v 76.183769 20.512148 18.502909
v 73.604820 20.495256 18.684155
v 76.834091 18.717064 18.471476
v 74.291618 18.671446 18.651672
v 77.308563 17.541742 17.624058
v 74.675728 17.480064 17.827822
v 77.846809 16.198042 17.613359
v 74.114914 16.238182 17.837933
v 78.199684 15.125402 18.345688
v 73.908691 15.242240 18.591736
v 78.748764 13.615329 21.814592
v 73.852707 14.364570 21.761616
v 77.896805 14.901413 22.758541
v 73.990929 15.685554 22.885706
v 79.187538 -12.727857 18.249128
v 79.242409 -13.009006 19.697668
v 73.855125 -13.252470 18.569134
v 78.199936 -15.125301 18.345697
v 73.908386 -15.242100 18.591801
v 77.846680 -16.198603 17.613142
v 74.115051 -16.238752 17.837696
v 77.307831 -17.540720 17.623886
v 74.676315 -17.478994 17.827456
v 76.834312 -18.717381 18.471577
v 74.291527 -18.671637 18.651724
v 76.183708 -20.512051 18.502932
v 73.604851 -20.495211 18.684166
v 75.623093 -22.103373 17.725933
v 73.119843 -21.974276 17.954340
v 74.108818 -25.762213 17.770279
v 72.265976 -25.828592 17.971033
v 73.893112 -25.979752 20.781649
v 71.992096 -25.994272 20.750549
v 72.633789 -25.998505 22.951969
v 71.384666 -25.998505 22.959618
v 73.851646 -14.365271 21.762402
v 78.750977 -13.616089 21.816702
v 73.991051 -15.685453 22.885637
v 77.896606 -14.901268 22.758392
vn 0.0697 0.1346 0.9884
vn 0.0983 0.9621 -0.2543
vn 0.1300 0.9530 -0.2737
vn -0.0046 -1.0000 0.0033
vn -0.0143 -0.9994 0.0306
vn -0.0125 -0.9994 0.0338
vn 0.0503 -0.6799 0.7315
vn 0.0585 -0.6726 0.7377
vn 0.0809 0.2450 0.9662
vn 0.0826 0.2485 0.9651
vn 0.0655 0.2373 0.9692
vn 0.0663 0.2392 0.9687
vn 0.0746 -0.2892 0.9544
vn 0.0758 -0.2857 0.9553
vn 0.0738 -0.2912 0.9538
vn 0.0736 -0.2892 0.9544
vn 0.0660 0.3084 0.9490
vn 0.0664 0.3098 0.9485
vn 0.0610 0.2971 0.9529
vn 0.0617 0.3014 0.9515
vn 0.1184 0.8263 -0.5506
vn 0.1208 0.8237 -0.5540
vn 0.1045 0.6348 -0.7656
vn 0.1039 0.6365 -0.7643
vn 0.0760 -0.1977 0.9773
vn 0.1138 -0.9481 -0.2969
vn -0.0756 -0.0673 0.9949
vn 0.0616 -0.2974 0.9528
vn 0.0610 -0.3014 0.9515
vn 0.0664 -0.3085 0.9489
vn 0.0660 -0.3098 0.9485
vn 0.0746 0.2914 0.9537
vn 0.0729 0.2897 0.9543
vn 0.0762 0.2881 0.9546
vn 0.0742 0.2863 0.9553
vn 0.0668 -0.2382 0.9689
vn 0.0651 -0.2389 0.9689
vn 0.0829 -0.2445 0.9661
vn 0.0806 -0.2460 0.9659
vn 0.0557 0.6769 0.7339
vn 0.0530 0.6744 0.7365
vn -0.0122 0.9994 0.0335
vn -0.0144 0.9993 0.0357
vn -0.0047 1.0000 0.0033
vn -0.0046 1.0000 0.0033
vn 0.1196 -0.8248 -0.5526
vn 0.1215 -0.8277 -0.5479
vn 0.1046 -0.6357 -0.7648
vn 0.1032 -0.6335 -0.7668
vt 0.003750 0.002930
vt 0.023808 0.239718
vt 0.013779 0.026609
vt 0.543628 0.370370
vt 0.543628 0.424692
vt 0.543071 0.278162
vt 0.543628 0.360341
vt 0.532485 0.216039
vt 0.535828 0.299890
vt 0.382055 0.148903
vt 0.377040 0.261447
vt 0.318540 0.137481
vt 0.317425 0.252811
vt 0.248896 0.108510
vt 0.246110 0.222168
vt 0.200981 0.073409
vt 0.198195 0.190968
vt 0.144709 0.049730
vt 0.145823 0.215482
vt 0.101808 0.046666
vt 0.105709 0.236932
vt 0.004864 0.084831
vt 0.034393 0.296826
vt 0.057237 0.138317
vt 0.087880 0.310476
s 1
f 33/27/30 34/28/31 35/29/32
f 36/30/33 37/31/33 38/32/34
f 39/33/35 38/32/34 37/31/33
f 38/32/34 39/33/35 40/34/36
f 41/35/37 40/34/36 39/33/35
f 40/34/36 41/35/37 42/36/38
f 43/37/39 42/36/38 41/35/37
f 42/36/38 43/37/39 44/38/40
f 45/39/41 44/38/40 43/37/39
f 44/38/40 45/39/41 46/40/42
f 47/41/43 46/40/42 45/39/41
f 46/40/42 47/41/43 48/42/44
f 49/43/45 48/42/44 47/41/43
f 48/42/44 49/43/45 50/44/46
f 51/45/47 50/44/46 49/43/45
f 50/44/46 51/45/47 52/46/48
f 53/47/49 52/46/48 51/45/47
f 52/46/48 53/47/49 33/27/30
f 34/28/31 33/27/30 53/47/49
f 35/29/32 34/28/31 54/48/50
f 55/49/51 54/48/50 34/28/31
f 54/48/50 55/49/51 56/50/52
f 57/51/53 56/50/52 55/49/51
f 58/27/54 59/29/55 60/28/56
f 58/27/54 60/28/56 61/46/57
f 62/47/58 61/46/57 60/28/56
f 61/46/57 62/47/58 63/44/59
f 64/45/60 63/44/59 62/47/58
f 63/44/59 64/45/60 65/42/61
f 66/43/62 65/42/61 64/45/60
f 65/42/61 66/43/62 67/40/63
f 68/41/64 67/40/63 66/43/62
f 67/40/63 68/41/64 69/38/65
f 70/39/66 69/38/65 68/41/64
f 69/38/65 70/39/66 71/36/67
f 72/37/68 71/36/67 70/39/66
f 71/36/67 72/37/68 73/34/69
f 74/35/70 73/34/69 72/37/68
f 73/34/69 74/35/70 75/32/71
f 76/33/72 75/32/71 74/35/70
f 75/32/71 76/33/72 77/30/73
f 78/31/74 77/30/73 76/33/72
f 60/28/56 59/29/55 79/49/75
f 80/48/76 79/49/75 59/29/55
f 79/49/75 80/48/76 81/51/77
f 82/50/78 81/51/77 80/48/76
o shape20_timezone_b1.001
v -82.669930 28.576574 28.284155
v -82.966660 29.178667 23.651258
v -85.663368 26.668543 28.418720
v -86.317360 27.057741 23.555141
v -87.555252 20.855103 28.409107
v -88.754440 18.269171 23.651260
v -82.669930 -28.576574 28.284155
v -82.966660 -29.178667 23.651258
v -85.663368 -26.668543 28.418720
v -86.317360 -27.057741 23.555141
v -87.555252 -20.855103 28.409107
v -88.754440 -18.269171 23.651260
vn -0.5274 0.8375 0.1426
vn -0.5305 0.8360 0.1401
vn -0.7801 0.6062 0.1548
vn -0.7916 0.5943 0.1417
vn -0.9534 0.2793 0.1138
vn -0.9589 0.2669 0.0966
vn -0.5274 -0.8375 0.1426
vn -0.7801 -0.6062 0.1548
vn -0.5305 -0.8360 0.1401
vn -0.7916 -0.5943 0.1417
vn -0.9534 -0.2793 0.1138
vn -0.9589 -0.2669 0.0966
vt 0.036703 0.700558
vt 0.006251 0.436912
vt 0.158105 0.707731
vt 0.140916 0.430551
vt 0.458022 0.706378
vt 0.597695 0.435017
s 1
f 83/52/79 84/53/80 85/54/81
f 86/55/82 85/54/81 84/53/80
f 85/54/81 86/55/82 87/56/83
f 88/57/84 87/56/83 86/55/82
f 89/52/85 91/54/86 90/53/87
f 92/55/88 90/53/87 91/54/86
f 91/54/86 93/56/89 92/55/88
f 94/57/90 92/55/88 93/56/89
