# Blender 5.0.0
# www.blender.org
o shape13.006
v 71.919189 27.470617 23.159510
v 77.604172 15.242000 23.093525
v 73.656052 26.735550 20.865740
v 78.824776 13.820224 21.148397
v 73.943367 26.423885 19.716209
v 79.181084 13.054084 19.716312
v 74.569260 25.586998 16.622929
v 79.445259 11.580936 16.533476
v 72.975098 28.047991 16.697706
v 72.095322 28.461411 20.467251
v 70.238014 28.863796 22.549999
v 72.095474 -28.460630 20.468990
v 72.975098 -28.047991 16.697706
v 73.943336 -26.423946 19.716143
v 74.569260 -25.586998 16.622929
v 79.181107 -13.054026 19.716286
v 79.445259 -11.580936 16.533476
v 73.655800 -26.735851 20.865929
v 71.919235 -27.471577 23.157619
v 70.239830 -28.862728 22.549290
v 77.604172 -15.242000 23.093525
v 78.824806 -13.820095 21.148546
vn 0.5739 0.4761 0.6663
vn 0.7693 0.3609 0.5272
vn 0.8073 0.5536 0.2046
vn 0.8929 0.4073 0.1919
vn 0.8599 0.5070 0.0599
vn 0.9169 0.3991 -0.0067
vn 0.8998 0.4353 0.0275
vn 0.9076 0.4069 -0.1032
vn 0.6680 0.7389 0.0888
vn 0.6241 0.7666 0.1510
vn 0.4168 0.8126 0.4073
vn 0.6241 -0.7666 0.1511
vn 0.6679 -0.7389 0.0889
vn 0.8598 -0.5070 0.0599
vn 0.8998 -0.4354 0.0275
vn 0.9169 -0.3990 -0.0067
vn 0.9076 -0.4069 -0.1032
vn 0.8073 -0.5536 0.2046
vn 0.5739 -0.4763 0.6662
vn 0.4168 -0.8127 0.4072
vn 0.7693 -0.3609 0.5272
vn 0.8929 -0.4073 0.1919
vt 0.520747 0.737763
vt 0.123919 0.737314
vt 0.496504 0.625461
vt 0.078022 0.640864
vt 0.496505 0.625247
vt 0.123919 0.737093
vt 0.496510 0.625050
vt 0.078035 0.640672
vt 0.486244 0.567196
vt 0.052762 0.570021
vt 0.486238 0.567083
vt 0.078028 0.640558
vt 0.486237 0.567147
vt 0.052759 0.570088
vt 0.459135 0.411256
vt 0.004983 0.407931
vt 0.459105 0.411053
vt 0.052732 0.569885
vt 0.459269 0.411172
vt 0.533141 0.413974
vt 0.486379 0.567064
vt 0.554681 0.604847
vt 0.486460 0.567165
vt 0.533223 0.414076
vt 0.486478 0.567041
vt 0.554698 0.604724
vt 0.496740 0.624897
vt 0.565879 0.707770
vt 0.496725 0.625395
vt 0.554698 0.605237
vt 0.496815 0.625117
vt 0.565989 0.707488
vt 0.521089 0.737440
vt 0.554663 0.604936
vt 0.533223 0.414076
vt 0.486462 0.567161
vt 0.459269 0.411172
vt 0.486381 0.567061
vt 0.533142 0.413974
vt 0.486239 0.567144
vt 0.459135 0.411256
vt 0.052757 0.570086
vt 0.052730 0.569884
vt 0.459105 0.411054
vt 0.486479 0.567037
vt 0.496750 0.624907
vt 0.554681 0.604812
vt 0.521044 0.737475
vt 0.554696 0.605167
vt 0.496764 0.625255
vt 0.554767 0.605196
vt 0.521113 0.737503
vt 0.565955 0.707615
vt 0.520785 0.737683
vt 0.496514 0.625470
vt 0.123919 0.737314
vt 0.078017 0.640871
vt 0.123919 0.737093
vt 0.496515 0.625257
vt 0.078030 0.640560
vt 0.496516 0.624946
vt 0.052765 0.570014
vt 0.486238 0.567197
vt 0.052754 0.570139
vt 0.496513 0.625064
s 1
f 1/1/1 2/2/2 3/3/3
f 4/4/4 3/5/3 2/6/2
f 3/7/3 4/8/4 5/9/5
f 6/10/6 5/11/5 4/12/4
f 5/13/5 6/14/6 7/15/7
f 8/16/8 7/17/7 6/18/6
f 7/19/7 9/20/9 5/21/5
f 10/22/10 5/23/5 9/24/9
f 5/25/5 10/26/10 3/27/3
f 11/28/11 3/29/3 10/30/10
f 3/31/3 11/32/11 1/33/1
f 12/34/12 13/35/13 14/36/14
f 15/37/15 14/38/14 13/39/13
f 14/40/14 15/41/15 16/42/16
f 17/16/17 16/43/16 15/44/15
f 14/45/14 18/46/18 12/47/12
f 19/48/19 12/49/12 18/50/18
f 12/51/12 19/52/19 20/53/20
f 19/54/19 18/55/18 21/56/21
f 22/57/22 21/58/21 18/59/18
f 22/60/22 18/61/18 16/62/16
f 14/63/14 16/64/16 18/65/18
