# Blender 5.0.0
# www.blender.org
o shape0_callback_11_b0
v -3.642548 -3.147704 2.796779
v -3.642550 -3.147704 3.424610
v -3.642548 -3.521631 2.364047
v -3.642550 -4.325381 3.424610
v -3.642548 -4.325381 2.364047
v -4.035388 -4.325381 3.471274
v -4.035388 -4.325381 2.703944
v -4.035388 -3.147704 3.471274
v -4.035388 -3.521631 2.703944
v -4.035388 -3.147704 2.703944
v -4.029589 -3.521631 2.316150
v -4.224221 -3.147704 2.316150
v -4.460981 -3.521631 1.415628
v -4.915123 -3.147704 1.415628
v -4.782066 -3.521631 0.501103
v -5.236208 -3.147704 0.501103
v -4.813479 -3.521631 0.000000
v -5.267622 -3.147704 0.000000
v -4.782066 -3.521631 -0.501102
v -5.236208 -3.147704 -0.501102
v -4.460981 -3.521631 -1.415628
v -4.915123 -3.147704 -1.415628
v -4.029589 -3.521631 -2.316149
v -4.224221 -3.147704 -2.316149
v -4.035388 -3.521631 -2.703943
v -4.035388 -3.147704 -2.703943
v -4.035388 -4.325381 -2.703943
v -4.035388 -3.147704 -3.471273
v -4.035388 -4.325381 -3.471273
v -3.642550 -3.147704 -3.424609
v -3.642550 -4.325381 -3.424609
v -3.642549 -3.147704 -2.796779
v -3.642549 -4.325381 -2.364047
v -3.642549 -3.521631 -2.364047
v -4.035388 -4.325381 -2.703943
v -4.035388 -3.521631 -2.703943
v -4.035388 -4.325381 3.471274
v -3.642550 -4.325381 3.424610
v -4.035388 -3.147704 3.471274
v -3.642550 -3.147704 3.424610
v -4.035388 -3.147704 2.703944
v -3.642548 -3.147704 2.796779
v -4.224221 -3.147704 2.316150
v -4.050417 -3.147704 2.358213
v -4.915123 -3.147704 1.415628
v -4.726264 -3.147704 1.330352
v -5.236208 -3.147704 0.501103
v -4.978580 -3.147704 0.482881
v -5.267622 -3.147704 0.000000
v -5.001900 -3.147704 0.000001
v -5.236208 -3.147704 -0.501102
v -4.978580 -3.147704 -0.482880
v -4.915123 -3.147704 -1.415628
v -4.726264 -3.147704 -1.330351
v -4.224221 -3.147704 -2.316149
v -4.050417 -3.147704 -2.358213
v -4.035388 -3.147704 -2.703943
v -3.642549 -3.147704 -2.796779
v -4.035388 -3.147704 -3.471273
v -3.642550 -3.147704 -3.424609
v -3.642549 -4.325381 -2.364047
v -4.035388 -4.325381 -2.703943
v -3.642550 -4.325381 -3.424609
v -4.035388 -4.325381 -3.471273
v -3.642548 -3.521631 2.364047
v -3.642548 -4.325381 2.364047
v -4.035388 -3.521631 2.703944
v -4.035388 -4.325381 2.703944
v -3.642549 -3.147704 -2.796779
v -4.050417 -3.147704 -2.358213
v -3.642549 -3.521631 -2.364047
v -4.726264 -3.147704 -1.330351
v -4.290277 -3.521631 -1.155358
v -4.978580 -3.147704 -0.482880
v -4.459548 -3.521631 -0.482880
v -5.001900 -3.147704 0.000001
v -4.482868 -3.521631 0.000000
v -4.978580 -3.147704 0.482881
v -4.459548 -3.521631 0.482881
v -4.726264 -3.147704 1.330352
v -4.290277 -3.521631 1.155359
v -4.050417 -3.147704 2.358213
v -3.642548 -3.521631 2.364047
v -3.642548 -3.147704 2.796779
v -4.989043 -3.147704 -2.471267
v -4.989043 -3.736025 -2.471267
v -5.954244 -3.147704 -2.575559
v -5.954244 -5.134273 -2.575559
v -6.282888 -3.521631 -2.678882
v -6.462677 -5.134273 -2.740876
v -6.831812 -3.521631 -1.635773
v -7.006992 -5.134273 -1.635773
v -7.007826 -3.521631 -0.563663
v -7.183006 -5.134273 -0.563663
v -7.028492 -3.521631 0.000001
v -7.203672 -5.134273 0.000001
v -7.007826 -3.521631 0.563664
v -7.183006 -5.134273 0.563664
v -6.831813 -3.521631 1.635774
v -7.006992 -5.134273 1.635774
v -6.282888 -3.521631 2.678884
v -6.462677 -5.134273 2.740877
v -5.954244 -3.147704 2.575560
v -5.954244 -5.134273 2.575560
v -4.989044 -3.147704 2.471269
v -4.989044 -3.736025 2.471269
v -4.084290 -3.521631 2.440967
v -4.084290 -3.736025 2.440967
v -4.536666 -3.521631 1.613345
v -4.536666 -3.736025 1.613345
v -4.869296 -3.521631 0.872405
v -4.869296 -3.736025 0.872405
v -5.774050 -3.521631 0.821903
v -5.774050 -3.736025 0.821903
v -6.222894 -3.521631 0.563664
v -6.222894 -3.736025 0.563664
v -6.400877 -3.521631 0.000000
v -6.400877 -3.736025 0.000000
v -6.222894 -3.521631 -0.563663
v -6.222894 -3.736025 -0.563663
v -5.774050 -3.521631 -0.821902
v -5.774050 -3.736025 -0.821902
v -4.869296 -3.521631 -0.872404
v -4.869296 -3.736025 -0.872404
v -4.536666 -3.521631 -1.613343
v -4.536666 -3.736025 -1.613343
v -4.084290 -3.521631 -2.440967
v -4.084290 -3.736025 -2.440967
v -4.989043 -3.147704 -2.471267
v -4.989043 -3.736025 -2.471267
v -6.282888 -3.521631 2.678884
v -5.954244 -3.147704 2.575560
v -6.831813 -3.521631 1.635774
v -6.445962 -3.147704 1.635774
v -7.007826 -3.521631 0.563664
v -6.621975 -3.147704 0.676917
v -6.222894 -3.521631 0.563664
v -6.209514 -3.147704 0.665703
v -5.774050 -3.521631 0.821903
v -5.774050 -3.147704 0.821903
v -4.869296 -3.521631 0.872405
v -5.441420 -3.147704 1.613345
v -4.536666 -3.521631 1.613345
v -4.989044 -3.147704 2.471269
v -4.084290 -3.521631 2.440967
v -7.007826 -3.521631 0.563664
v -6.222894 -3.521631 0.563664
v -7.028492 -3.521631 0.000001
v -6.400877 -3.521631 0.000000
v -7.007826 -3.521631 -0.563663
v -6.222894 -3.521631 -0.563663
v -6.621975 -3.147704 -0.676916
v -6.209514 -3.147704 -0.665701
v -6.445962 -3.147704 -1.635773
v -5.774050 -3.147704 -0.821902
v -5.441420 -3.147704 -1.613343
v -4.869296 -3.521631 -0.872404
v -4.536666 -3.521631 -1.613343
v -4.536666 -3.521631 -1.613343
v -4.084290 -3.521631 -2.440967
v -5.441420 -3.147704 -1.613343
v -4.989043 -3.147704 -2.471267
v -6.445962 -3.147704 -1.635773
v -5.954244 -3.147704 -2.575559
v -6.831812 -3.521631 -1.635773
v -6.282888 -3.521631 -2.678882
v -6.445962 -3.147704 -1.635773
v -6.831812 -3.521631 -1.635773
v -6.621975 -3.147704 -0.676916
v -7.007826 -3.521631 -0.563663
v -5.954244 -3.147704 2.575560
v -4.989044 -3.147704 2.471269
v -6.445962 -3.147704 1.635774
v -5.441420 -3.147704 1.613345
v -6.621975 -3.147704 0.676917
v -5.774050 -3.147704 0.821903
v -6.209514 -3.147704 0.665703
v -6.209514 -3.147704 -0.665701
v -6.222894 -3.521631 -0.563663
v -5.774050 -3.147704 -0.821902
v -5.774050 -3.521631 -0.821902
v -4.869296 -3.521631 -0.872404
v -4.035388 -4.325381 3.471274
v -4.035388 -3.736025 3.471274
v -4.980455 -4.325381 3.907253
v -4.980455 -3.736025 3.907253
v -5.528310 -4.325381 3.913328
v -5.528310 -3.736025 3.913328
v -6.104998 -4.325381 3.360413
v -6.104998 -3.736025 3.360413
v -6.400877 -4.325381 2.400406
v -6.400877 -3.736025 2.400406
v -6.400877 -4.325381 0.000000
v -6.400877 -3.736025 0.000000
v -6.400877 -4.325381 -2.400404
v -6.400877 -3.736025 -2.400404
v -6.104999 -4.325381 -3.360413
v -6.104999 -3.736025 -3.360413
v -5.528311 -4.325381 -3.913328
v -5.528311 -3.736025 -3.913328
v -4.980456 -4.325381 -3.907252
v -4.980456 -3.736025 -3.907252
v -4.035388 -4.325381 -3.471273
v -4.035388 -3.736025 -3.471273
v -6.400877 -3.736025 2.400406
v -6.104998 -3.736025 3.360413
v -4.035389 -3.736025 2.400406
v -5.528310 -3.736025 3.913328
v -4.035388 -3.736025 3.471274
v -4.980455 -3.736025 3.907253
v -4.980456 -3.736025 -3.907252
v -5.528311 -3.736025 -3.913328
v -4.035388 -3.736025 -3.471273
v -6.104999 -3.736025 -3.360413
v -4.035389 -3.736025 -2.400404
v -6.400877 -3.736025 -2.400404
v -4.782066 -3.736025 0.000000
v -6.400877 -3.736025 0.000000
v -4.035389 -3.736025 2.400406
v -6.400877 -3.736025 2.400406
vn 0.5077 0.8441 -0.1724
vn 0.6215 0.5559 0.5520
vn 0.5778 0.5205 -0.6287
vn 0.6215 -0.5559 0.5521
vn 0.2658 -0.7689 -0.5815
vn -0.5305 -0.6015 0.5973
vn -0.7970 -0.4817 -0.3643
vn -0.5305 0.6015 0.5973
vn -0.9754 -0.0922 -0.2003
vn -0.7396 0.6677 0.0848
vn -0.8379 -0.4318 0.3340
vn -0.7742 0.5527 0.3086
vn -0.6579 -0.6794 0.3248
vn -0.8179 0.4100 0.4038
vn -0.6303 -0.7655 0.1294
vn -0.9185 0.3476 0.1884
vn -0.6356 -0.7720 -0.0000
vn -0.9409 0.3386 -0.0001
vn -0.6303 -0.7655 -0.1293
vn -0.9185 0.3476 -0.1885
vn -0.6579 -0.6794 -0.3248
vn -0.8178 0.4100 -0.4038
vn -0.8379 -0.4318 -0.3340
vn -0.7741 0.5527 -0.3086
vn -0.9754 -0.0922 0.2004
vn -0.7396 0.6677 -0.0847
vn -0.9754 -0.0922 0.2003
vn -0.7396 0.6677 -0.0848
vn -0.7970 -0.4818 0.3643
vn -0.5305 0.6015 -0.5973
vn -0.7970 -0.4818 0.3644
vn -0.5305 -0.6015 -0.5973
vn 0.6215 0.5559 -0.5520
vn 0.6215 -0.5559 -0.5520
vn 0.5077 0.8441 0.1724
vn 0.2658 -0.7689 0.5814
vn 0.5778 0.5206 0.6286
vn -0.9754 -0.0921 0.2003
vn 0.6215 -0.5559 0.5520
vn -0.5306 0.6015 0.5973
vn -0.7396 0.6677 0.0847
vn -0.7741 0.5527 0.3086
vn 0.3167 0.9175 -0.2406
vn -0.8178 0.4101 0.4038
vn 0.3125 0.9402 -0.1355
vn -0.9185 0.3477 0.1885
vn 0.3094 0.9496 -0.0505
vn -0.9409 0.3387 0.0001
vn 0.3070 0.9517 -0.0000
vn -0.9185 0.3477 -0.1884
vn 0.3094 0.9496 0.0506
vn -0.8178 0.4101 -0.4038
vn 0.3125 0.9402 0.1355
vn 0.3167 0.9175 0.2406
vn -0.5306 0.6015 -0.5972
vn 0.6215 0.5559 -0.5521
vn 0.2659 -0.7689 0.5815
vn -0.7969 -0.4818 0.3644
vn 0.5778 0.5206 -0.6286
vn 0.2657 -0.7689 -0.5815
vn -0.9754 -0.0921 -0.2003
vn -0.7970 -0.4818 -0.3643
vn 0.3167 0.9175 0.2407
vn 0.3126 0.9402 0.1356
vn 0.5888 0.7669 0.2554
vn 0.3095 0.9496 0.0505
vn 0.5883 0.8029 0.0961
vn 0.3071 0.9517 -0.0000
vn 0.5845 0.8114 -0.0000
vn 0.3095 0.9496 -0.0505
vn 0.5883 0.8029 -0.0961
vn 0.3126 0.9402 -0.1355
vn 0.5888 0.7669 -0.2554
vn 0.1920 0.7148 -0.6725
vn 0.0705 -0.0000 -0.9975
vn -0.0851 0.5880 -0.8043
vn 0.2074 0.0006 -0.9783
vn -0.5426 0.3426 -0.7670
vn -0.3817 0.0705 -0.9216
vn -0.8590 0.4238 -0.2871
vn -0.9447 0.1077 -0.3097
vn -0.7606 0.6233 0.1817
vn -0.9893 0.1075 -0.0985
vn -0.6676 0.7445 -0.0000
vn -0.9942 0.1080 -0.0000
vn -0.7605 0.6234 -0.1816
vn -0.9893 0.1075 0.0990
vn -0.8590 0.4238 0.2872
vn -0.9447 0.1077 0.3097
vn -0.5426 0.3427 0.7669
vn -0.3817 0.0705 0.9216
vn -0.0851 0.5881 0.8043
vn 0.2074 0.0006 0.9783
vn 0.1920 0.7147 0.6725
vn 0.0705 -0.0000 0.9975
vn 0.8000 0.5658 0.1999
vn 0.8685 -0.0000 0.4956
vn 0.7550 0.5396 -0.3724
vn 0.8956 -0.0000 -0.4449
vn 0.4578 0.2965 -0.8382
vn 0.5665 -0.0000 -0.8240
vn 0.2643 0.0295 -0.9640
vn 0.2849 -0.0000 -0.9586
vn 0.4882 0.3655 -0.7925
vn 0.7793 -0.0000 -0.6267
vn 0.6901 0.7237 -0.0000
vn 1.0000 -0.0000 -0.0000
vn 0.4882 0.3656 0.7925
vn 0.7793 -0.0000 0.6267
vn 0.2643 0.0295 0.9640
vn 0.2849 -0.0000 0.9585
vn 0.4577 0.2965 0.8382
vn 0.5665 -0.0000 0.8240
vn 0.7550 0.5396 0.3724
vn 0.8956 -0.0000 0.4449
vn 0.8000 0.5657 -0.1998
vn 0.8685 -0.0000 -0.4956
vn 0.1921 0.7147 -0.6725
vn -0.5426 0.3426 0.7670
vn -0.0851 0.5880 0.8044
vn -0.8590 0.4239 0.2871
vn -0.3693 0.9206 0.1268
vn -0.7606 0.6233 -0.1816
vn -0.3125 0.8751 -0.3696
vn 0.1747 0.5913 -0.7873
vn 0.2845 0.6715 -0.6842
vn 0.4577 0.2965 -0.8382
vn 0.1925 0.9768 -0.0933
vn 0.7551 0.5396 -0.3724
vn 0.1920 0.7147 0.6726
vn 0.8000 0.5657 0.2000
vn 0.4883 0.3656 -0.7924
vn -0.6677 0.7445 -0.0000
vn -0.7606 0.6233 0.1816
vn 0.4882 0.3655 0.7925
vn -0.3126 0.8751 0.3696
vn 0.1747 0.5913 0.7873
vn -0.3693 0.9206 -0.1267
vn 0.2845 0.6715 0.6842
vn 0.1925 0.9768 0.0933
vn 0.7551 0.5396 0.3724
vn 0.8000 0.5657 -0.2000
vn 0.1925 0.9769 0.0933
vn 0.1921 0.7147 -0.6726
vn -0.3694 0.9206 -0.1268
vn -0.0851 0.5880 -0.8044
vn -0.8590 0.4239 -0.2872
vn -0.5426 0.3426 -0.7669
vn -0.3125 0.8751 0.3696
vn -0.7606 0.6234 0.1816
vn 0.1921 0.7147 0.6726
vn -0.3693 0.9206 0.1267
vn 0.1924 0.9769 -0.0933
vn 0.1748 0.5913 0.7873
vn 0.2845 0.6716 0.6842
vn 0.4189 -0.0000 0.9080
vn 0.2962 0.7071 0.6421
vn 0.2198 -0.0000 0.9755
vn 0.1958 0.4552 0.8686
vn -0.3678 -0.0000 0.9299
vn -0.3236 0.4752 0.8182
vn -0.8511 -0.0000 0.5250
vn -0.7562 0.4589 0.4664
vn -0.9888 -0.0000 0.1489
vn -0.6953 0.7111 0.1047
vn -1.0000 -0.0000 -0.0000
vn -0.7071 0.7071 -0.0000
vn -0.9888 -0.0000 -0.1489
vn -0.6952 0.7111 -0.1047
vn -0.8511 -0.0000 -0.5250
vn -0.7562 0.4589 -0.4664
vn -0.3678 -0.0000 -0.9299
vn -0.3236 0.4752 -0.8182
vn 0.2198 -0.0000 -0.9755
vn 0.1958 0.4552 -0.8686
vn 0.4189 -0.0000 -0.9080
vn 0.2962 0.7071 -0.6421
vn -0.6953 0.7110 0.1047
vn -0.7562 0.4590 0.4664
vn -0.0000 1.0000 -0.0000
vn -0.3237 0.4753 0.8182
vn 0.1957 0.4553 0.8686
vn 0.1958 0.4553 -0.8686
vn -0.3235 0.4753 -0.8182
vn -0.7561 0.4590 -0.4665
vn -0.6953 0.7110 -0.1047
vt 0.105419 0.897868
vt 0.102337 0.897868
vt 0.107555 0.897868
vt 0.102090 0.899696
vt 0.105871 0.899696
vt 0.107802 0.899676
vt 0.107802 0.900580
vt 0.112240 0.901689
vt 0.112240 0.903805
vt 0.116760 0.903189
vt 0.116760 0.905305
vt 0.119266 0.903333
vt 0.119266 0.905469
vt 0.121732 0.903189
vt 0.121732 0.905305
vt 0.126252 0.901689
vt 0.126252 0.903805
vt 0.130690 0.899676
vt 0.130690 0.900580
vt 0.132621 0.899696
vt 0.136401 0.899696
vt 0.136155 0.897868
vt 0.133073 0.897868
vt 0.130936 0.897868
vt 0.107596 0.899778
vt 0.112692 0.902922
vt 0.116842 0.904113
vt 0.119266 0.904216
vt 0.121650 0.904113
vt 0.125800 0.902922
vt 0.130895 0.899778
vt 0.124937 0.900888
vt 0.121650 0.901689
vt 0.119266 0.901792
vt 0.116842 0.901689
vt 0.113555 0.900888
vt 0.131470 0.904154
vt 0.131963 0.908675
vt 0.132456 0.910215
vt 0.132785 0.911037
vt 0.127320 0.912763
vt 0.127320 0.913585
vt 0.122019 0.913585
vt 0.122019 0.914407
vt 0.119266 0.913688
vt 0.119266 0.914509
vt 0.116472 0.913585
vt 0.116472 0.914407
vt 0.111171 0.912763
vt 0.111171 0.913585
vt 0.106035 0.910215
vt 0.105706 0.911037
vt 0.106528 0.908675
vt 0.107021 0.904154
vt 0.107185 0.899922
vt 0.111295 0.902038
vt 0.114952 0.903600
vt 0.115198 0.907832
vt 0.116472 0.909928
vt 0.119266 0.910750
vt 0.122019 0.909928
vt 0.123293 0.907832
vt 0.123540 0.903600
vt 0.127197 0.902038
vt 0.131306 0.899922
vt 0.111171 0.910976
vt 0.115897 0.911797
vt 0.115938 0.909866
vt 0.111295 0.906271
vt 0.122595 0.911797
vt 0.122554 0.909866
vt 0.127320 0.910976
vt 0.127197 0.906271
vt 0.099953 0.904113
vt 0.099912 0.906682
vt 0.102665 0.909373
vt 0.107391 0.910750
vt 0.131100 0.910750
vt 0.135826 0.909373
vt 0.138579 0.906682
vt 0.138538 0.904113
vt 0.107391 0.899696
vt 0.131100 0.899696
vt 0.119266 0.903189
s 1
f 1/1/1 2/2/2 3/3/3
f 4/2/4 3/3/3 2/2/2
f 3/3/3 4/2/4 5/3/5
f 6/4/6 5/3/5 4/2/4
f 5/3/5 6/4/6 7/5/7
f 8/4/8 7/5/7 6/4/6
f 7/5/7 8/4/8 9/5/9
f 10/5/10 9/5/9 8/4/8
f 9/5/9 10/5/10 11/6/11
f 12/7/12 11/6/11 10/5/10
f 11/6/11 12/7/12 13/8/13
f 14/9/14 13/8/13 12/7/12
f 13/8/13 14/9/14 15/10/15
f 16/11/16 15/10/15 14/9/14
f 15/10/15 16/11/16 17/12/17
f 18/13/18 17/12/17 16/11/16
f 17/12/17 18/13/18 19/14/19
f 20/15/20 19/14/19 18/13/18
f 19/14/19 20/15/20 21/16/21
f 22/17/22 21/16/21 20/15/20
f 21/16/21 22/17/22 23/18/23
f 24/19/24 23/18/23 22/17/22
f 23/18/23 24/19/24 25/20/25
f 26/20/26 25/20/25 24/19/24
s 0
f 25/20/27 26/20/28 27/20/29
s 1
f 28/21/30 27/20/31 26/20/26
f 27/20/31 28/21/30 29/21/32
f 30/22/33 29/21/32 28/21/30
f 29/21/32 30/22/33 31/22/34
f 32/23/35 31/22/34 30/22/33
f 31/22/34 32/23/35 33/24/36
f 34/24/37 33/24/36 32/23/35
f 33/24/36 34/24/37 35/20/29
f 36/20/38 35/20/29 34/24/37
f 37/4/6 38/2/39 39/4/40
f 40/2/2 39/4/40 38/2/39
f 39/4/40 40/2/2 41/5/41
f 42/1/1 41/5/41 40/2/2
f 41/5/41 42/1/1 43/7/42
f 44/25/43 43/7/42 42/1/1
f 43/7/42 44/25/43 45/9/44
f 46/26/45 45/9/44 44/25/43
f 45/9/44 46/26/45 47/11/46
f 48/27/47 47/11/46 46/26/45
f 47/11/46 48/27/47 49/13/48
f 50/28/49 49/13/48 48/27/47
f 49/13/48 50/28/49 51/15/50
f 52/29/51 51/15/50 50/28/49
f 51/15/50 52/29/51 53/17/52
f 54/30/53 53/17/52 52/29/51
f 53/17/52 54/30/53 55/19/24
f 56/31/54 55/19/24 54/30/53
f 55/19/24 56/31/54 57/20/26
f 58/23/35 57/20/26 56/31/54
f 57/20/26 58/23/35 59/21/55
f 60/22/56 59/21/55 58/23/35
f 61/24/57 62/20/58 63/22/34
f 64/21/32 63/22/34 62/20/58
f 65/3/59 66/3/60 67/5/61
f 68/5/62 67/5/61 66/3/60
f 69/23/35 70/31/63 71/24/37
f 72/30/64 71/24/37 70/31/63
f 71/24/37 72/30/64 73/32/65
f 74/29/66 73/32/65 72/30/64
f 73/32/65 74/29/66 75/33/67
f 76/28/68 75/33/67 74/29/66
f 75/33/67 76/28/68 77/34/69
f 78/27/70 77/34/69 76/28/68
f 77/34/69 78/27/70 79/35/71
f 80/26/72 79/35/71 78/27/70
f 79/35/71 80/26/72 81/36/73
f 82/25/43 81/36/73 80/26/72
f 81/36/73 82/25/43 83/3/59
f 84/1/1 83/3/59 82/25/43
f 85/37/74 86/37/75 87/38/76
f 88/38/77 87/38/76 86/37/75
f 87/38/76 88/38/77 89/39/78
f 90/40/79 89/39/78 88/38/77
f 89/39/78 90/40/79 91/41/80
f 92/42/81 91/41/80 90/40/79
f 91/41/80 92/42/81 93/43/82
f 94/44/83 93/43/82 92/42/81
f 93/43/82 94/44/83 95/45/84
f 96/46/85 95/45/84 94/44/83
f 95/45/84 96/46/85 97/47/86
f 98/48/87 97/47/86 96/46/85
f 97/47/86 98/48/87 99/49/88
f 100/50/89 99/49/88 98/48/87
f 99/49/88 100/50/89 101/51/90
f 102/52/91 101/51/90 100/50/89
f 101/51/90 102/52/91 103/53/92
f 104/53/93 103/53/92 102/52/91
f 103/53/92 104/53/93 105/54/94
f 106/54/95 105/54/94 104/53/93
f 105/54/94 106/54/95 107/55/96
f 108/55/97 107/55/96 106/54/95
f 107/55/96 108/55/97 109/56/98
f 110/56/99 109/56/98 108/55/97
f 109/56/98 110/56/99 111/57/100
f 112/57/101 111/57/100 110/56/99
f 111/57/100 112/57/101 113/58/102
f 114/58/103 113/58/102 112/57/101
f 113/58/102 114/58/103 115/59/104
f 116/59/105 115/59/104 114/58/103
f 115/59/104 116/59/105 117/60/106
f 118/60/107 117/60/106 116/59/105
f 117/60/106 118/60/107 119/61/108
f 120/61/109 119/61/108 118/60/107
f 119/61/108 120/61/109 121/62/110
f 122/62/111 121/62/110 120/61/109
f 121/62/110 122/62/111 123/63/112
f 124/63/113 123/63/112 122/62/111
f 123/63/112 124/63/113 125/64/114
f 126/64/115 125/64/114 124/63/113
f 125/64/114 126/64/115 127/65/116
f 128/65/117 127/65/116 126/64/115
f 127/65/116 128/65/117 129/37/118
f 130/37/75 129/37/118 128/65/117
f 131/51/119 132/53/120 133/49/121
f 134/66/122 133/49/121 132/53/120
f 133/49/121 134/66/122 135/47/123
f 136/67/124 135/47/123 134/66/122
f 135/47/123 136/67/124 137/59/104
f 138/68/125 137/59/104 136/67/124
f 137/59/104 138/68/125 139/58/102
f 140/58/126 139/58/102 138/68/125
f 139/58/102 140/58/126 141/57/127
f 142/69/128 141/57/127 140/58/126
f 141/57/127 142/69/128 143/56/129
f 144/54/130 143/56/129 142/69/128
f 143/56/129 144/54/130 145/55/131
f 146/47/123 147/59/132 148/45/133
f 149/60/106 148/45/133 147/59/132
f 148/45/133 149/60/106 150/43/134
f 151/61/135 150/43/134 149/60/106
f 150/43/134 151/61/135 152/70/136
f 153/71/137 152/70/136 151/61/135
f 152/70/136 153/71/137 154/72/138
f 155/62/139 154/72/138 153/71/137
f 154/72/138 155/62/139 156/73/140
f 157/63/112 156/73/140 155/62/139
f 156/73/140 157/63/112 158/64/141
f 159/64/114 160/65/142 161/73/143
f 162/37/144 161/73/143 160/65/142
f 161/73/143 162/37/144 163/72/145
f 164/38/146 163/72/145 162/37/144
f 163/72/145 164/38/146 165/41/147
f 166/39/148 165/41/147 164/38/146
f 167/72/145 168/41/80 169/70/149
f 170/43/150 169/70/149 168/41/80
f 171/53/120 172/54/151 173/66/152
f 174/69/153 173/66/152 172/54/151
f 173/66/152 174/69/153 175/67/124
f 176/58/126 175/67/124 174/69/153
f 175/67/124 176/58/126 177/68/125
f 178/71/154 179/61/135 180/62/155
f 181/62/110 180/62/155 179/61/135
f 180/62/155 181/62/110 182/63/112
f 183/4/156 184/4/157 185/74/158
f 186/74/159 185/74/158 184/4/157
f 185/74/158 186/74/159 187/75/160
f 188/75/161 187/75/160 186/74/159
f 187/75/160 188/75/161 189/76/162
f 190/76/163 189/76/162 188/75/161
f 189/76/162 190/76/163 191/77/164
f 192/77/165 191/77/164 190/76/163
f 191/77/164 192/77/165 193/60/166
f 194/60/167 193/60/166 192/77/165
f 193/60/166 194/60/167 195/78/168
f 196/78/169 195/78/168 194/60/167
f 195/78/168 196/78/169 197/79/170
f 198/79/171 197/79/170 196/78/169
f 197/79/170 198/79/171 199/80/172
f 200/80/173 199/80/172 198/79/171
f 199/80/172 200/80/173 201/81/174
f 202/81/175 201/81/174 200/80/173
f 201/81/174 202/81/175 203/21/176
f 204/21/177 203/21/176 202/81/175
f 205/77/178 206/76/179 207/82/180
f 208/75/181 207/82/180 206/76/179
f 207/82/180 208/75/181 209/4/157
f 210/74/182 209/4/157 208/75/181
f 211/81/183 212/80/184 213/21/177
f 214/79/185 213/21/177 212/80/184
f 213/21/177 214/79/185 215/83/180
f 216/78/186 215/83/180 214/79/185
f 215/83/180 216/78/186 217/84/180
f 218/60/167 217/84/180 216/78/186
f 217/84/180 218/60/167 219/82/180
f 220/77/178 219/82/180 218/60/167
