# Blender 5.0.0
# www.blender.org
o shape2_callback_13_b0
v -4.412543 -3.979791 0.726096
v -5.660952 -3.979791 -0.155552
v -4.668160 -3.637134 0.679300
v -5.669716 -3.637134 -0.011472
v -4.012664 -3.637134 2.480262
v -4.335880 -3.637134 3.653211
v -3.846930 -3.979791 2.280107
v -4.236553 -3.979791 3.757950
v -5.660952 -3.979791 -0.155552
v -6.658062 -3.979791 0.001593
v -5.669716 -3.637134 -0.011472
v -6.647840 -3.637134 0.155794
v -6.658062 -3.979791 0.001593
v -6.881410 -3.979791 -0.257445
v -6.647840 -3.637134 0.155794
v -6.859027 -3.637134 -0.005396
v -6.881410 -3.979791 -0.257445
v -7.303938 -3.979791 0.198712
v -6.859027 -3.637134 -0.005396
v -7.043755 -3.637134 0.189407
v -4.335880 -3.637134 3.653211
v -5.192684 -3.637134 4.153805
v -4.236553 -3.979791 3.757950
v -5.101394 -3.979791 4.278500
v -5.101394 -3.979791 4.278500
v -5.192684 -3.637134 4.153805
v -5.105982 -3.979791 4.620500
v -5.250851 -3.637134 4.413033
v -5.517576 -3.637134 4.382545
v -5.722870 -3.979791 4.542660
v -5.250851 -3.637134 4.413033
v -5.105982 -3.979791 4.620500
v -4.412543 -3.979791 0.726096
v -4.668160 -3.637134 0.679300
v -5.624883 -3.979791 1.184384
v -5.696985 -3.637134 1.053762
v -5.890282 -3.979791 1.593634
v -6.018312 -3.637134 1.553285
v -5.835766 -3.979791 2.124046
v -5.979999 -3.637134 2.176542
v -5.536586 -3.979791 2.565407
v -5.608726 -3.637134 2.678612
v -5.070217 -3.979791 2.708315
v -5.041487 -3.637134 2.854723
v -3.846930 -3.979791 2.280107
v -4.012664 -3.637134 2.480262
v -4.668160 -3.637134 0.679300
v -5.669716 -3.637134 -0.011472
v -5.696985 -3.637134 1.053762
v -6.647840 -3.637134 0.155794
v -6.018312 -3.637134 1.553285
v -6.926359 -3.637134 1.153177
v -5.979999 -3.637134 2.176542
v -6.593916 -3.637134 2.399990
v -5.608726 -3.637134 2.678612
v -6.047146 -3.637134 3.568794
v -5.041487 -3.637134 2.854723
v -5.192684 -3.637134 4.153805
v -4.012664 -3.637134 2.480262
v -4.335880 -3.637134 3.653211
v -6.926359 -3.637134 1.153177
v -6.647840 -3.637134 0.155794
v -7.043755 -3.637134 0.189407
v -6.859027 -3.637134 -0.005396
v -5.192684 -3.637134 4.153805
v -6.047146 -3.637134 3.568794
v -5.250851 -3.637134 4.413033
v -5.517576 -3.637134 4.382545
v -7.043755 -3.637134 0.189407
v -7.303938 -3.979791 0.198712
v -6.926359 -3.637134 1.153177
v -7.192569 -3.979791 1.384455
v -6.593916 -3.637134 2.399990
v -6.859877 -3.979791 2.496792
v -6.047146 -3.637134 3.568794
v -6.399737 -3.979791 3.562741
v -5.517576 -3.637134 4.382545
v -5.722870 -3.979791 4.542660
v -7.303938 -5.421711 0.198712
v -7.303938 -3.979791 0.198712
v -6.881410 -5.421711 -0.257445
v -6.881410 -3.979791 -0.257445
v -6.807196 -5.421711 -0.385246
v -6.807196 -3.979791 -0.385246
v -6.380769 -5.421711 -0.540453
v -6.380769 -3.979791 -0.540453
v -6.348376 -5.421711 -0.451453
v -6.348376 -3.979791 -0.451453
v -6.039011 -5.421711 -0.513658
v -6.039011 -3.979791 -0.513658
v -4.208015 -5.421711 0.785318
v -4.208015 -3.979791 0.785318
v -4.025870 -5.421711 1.465298
v -4.025870 -3.979791 1.465298
v -3.728319 -5.421711 2.103273
v -3.728319 -3.979791 2.103273
v -4.295978 -5.421711 4.275286
v -4.295978 -3.979791 4.275286
v -4.572949 -5.421711 4.426492
v -4.572949 -3.979791 4.426492
v -4.540555 -5.421711 4.515491
v -4.540555 -3.979791 4.515491
v -4.966983 -5.421711 4.670698
v -4.966983 -3.979791 4.670698
v -5.105982 -5.421711 4.620500
v -5.105982 -3.979791 4.620500
v -5.722869 -5.421711 4.542660
v -5.722870 -3.979791 4.542660
v -6.399738 -5.421711 3.562741
v -6.399737 -3.979791 3.562741
v -6.859877 -5.421711 2.496792
v -6.859877 -3.979791 2.496792
v -7.192569 -5.421711 1.384455
v -7.192569 -3.979791 1.384455
v -7.303938 -5.421711 0.198712
v -7.303938 -3.979791 0.198712
v -4.966983 -3.979791 4.670698
v -4.540555 -3.979791 4.515491
v -5.105982 -3.979791 4.620500
v -4.572949 -3.979791 4.426492
v -5.722870 -3.979791 4.542660
v -4.295978 -3.979791 4.275286
v -6.399737 -3.979791 3.562741
v -3.728319 -3.979791 2.103273
v -6.859877 -3.979791 2.496792
v -4.025870 -3.979791 1.465298
v -7.192569 -3.979791 1.384455
v -4.208015 -3.979791 0.785318
v -7.303938 -3.979791 0.198712
v -6.039011 -3.979791 -0.513658
v -6.881410 -3.979791 -0.257445
v -6.348376 -3.979791 -0.451453
v -6.807196 -3.979791 -0.385246
v -6.380769 -3.979791 -0.540453
vn 0.5428 0.3196 -0.7767
vn 0.5428 0.3197 -0.7767
vn 0.9150 0.3196 0.2461
vn 0.9150 0.3197 0.2461
vn -0.1489 0.3949 -0.9066
vn 0.6470 0.3658 -0.6690
vn -0.6426 0.4773 -0.5994
vn -0.6426 0.4772 -0.5995
vn 0.4687 0.3949 0.7902
vn 0.9257 0.3658 0.0966
vn 0.9256 0.3658 0.0966
vn 0.9256 0.3658 0.0967
vn -0.1069 0.4773 0.8722
vn -0.1069 0.4772 0.8723
vn 0.3223 0.3788 0.8675
vn 0.5793 0.3842 0.7189
vn 0.8968 0.3800 0.2266
vn 0.8968 0.3799 0.2266
vn 0.8688 0.3811 -0.3162
vn 0.5414 0.3799 -0.7500
vn -0.0183 0.3842 -0.9231
vn -0.3107 0.3788 -0.8718
vn -0.3107 0.3787 -0.8718
vn -0.0000 1.0000 -0.0000
vn -0.7761 0.6251 0.0826
vn -0.7516 0.6438 0.1436
vn -0.7055 0.6605 0.2568
vn -0.6681 0.6438 0.3731
vn -0.6476 0.6251 0.4356
vn -0.6476 0.6252 0.4356
vn -0.9471 -0.0000 -0.3210
vn -0.8306 0.4804 -0.2815
vn -0.8041 -0.0000 -0.5945
vn -0.5668 0.7093 -0.4191
vn -0.6418 -0.0000 -0.7668
vn -0.5667 0.4696 -0.6771
vn 0.4226 -0.0000 -0.9063
vn 0.3450 0.5773 -0.7400
vn 0.4896 -0.0000 -0.8719
vn 0.2958 0.7968 -0.5269
vn 0.2078 -0.0000 -0.9782
vn 0.1824 0.4783 -0.8590
vn 0.8209 -0.0000 -0.5710
vn 0.7249 0.4693 -0.5042
vn 0.9397 -0.0000 -0.3420
vn 0.6632 0.7085 -0.2414
vn 0.9959 -0.0000 -0.0903
vn 0.8794 0.4693 -0.0797
vn 0.7879 -0.0000 0.6158
vn 0.6920 0.4783 0.5408
vn 0.9355 -0.0000 0.3532
vn 0.5653 0.7968 0.2134
vn 0.9063 -0.0000 0.4226
vn 0.7400 0.5774 0.3451
vn 0.0012 -0.0000 1.0000
vn 0.0011 0.4695 0.8829
vn -0.2339 -0.0000 0.9723
vn -0.1649 0.7093 0.6854
vn -0.5192 -0.0000 0.8546
vn -0.4554 0.4803 0.7496
vn -0.8747 -0.0000 0.4847
vn -0.7816 0.4489 0.4331
vn -0.9397 -0.0000 0.3420
vn -0.6639 0.7077 0.2417
vn -0.9816 -0.0000 0.1910
vn -0.8771 0.4489 0.1706
vn -0.9471 -0.0000 -0.3209
vn -0.8306 0.4804 -0.2816
vn 0.0010 0.4696 0.8829
vn 0.7400 0.5774 0.3450
vn -0.1649 0.7092 0.6854
vn -0.4554 0.4804 0.7495
vn 0.6919 0.4783 0.5408
vn -0.7815 0.4490 0.4331
vn 0.8794 0.4693 -0.0796
vn 0.6633 0.7084 -0.2414
vn -0.8771 0.4490 0.1707
vn 0.1825 0.4783 -0.8590
vn -0.5669 0.7092 -0.4191
vn 0.2959 0.7968 -0.5269
vn -0.5666 0.4696 -0.6771
vn 0.3450 0.5774 -0.7400
vt 0.116353 0.921634
vt 0.122798 0.926004
vt 0.117028 0.922764
vt 0.122123 0.926291
vt 0.107142 0.922764
vt 0.102047 0.926291
vt 0.107816 0.921634
vt 0.101372 0.926004
vt 0.123810 0.930964
vt 0.123034 0.931183
vt 0.125430 0.931571
vt 0.124181 0.931908
vt 0.123979 0.934338
vt 0.123574 0.933106
vt 0.101136 0.931183
vt 0.100360 0.930964
vt 0.098740 0.931571
vt 0.099988 0.931908
vt 0.100596 0.933106
vt 0.100191 0.934338
vt 0.116252 0.928129
vt 0.117028 0.928248
vt 0.114734 0.930086
vt 0.115172 0.930609
vt 0.112102 0.930728
vt 0.112102 0.931504
vt 0.109436 0.930086
vt 0.108997 0.930609
vt 0.107918 0.928129
vt 0.107142 0.928248
vt 0.118681 0.934203
vt 0.112102 0.934777
vt 0.105488 0.934203
vt 0.118040 0.935856
vt 0.112102 0.936194
vt 0.106129 0.935856
vt 0.125936 0.931014
vt 0.125936 0.928737
vt 0.125430 0.928737
vt 0.125193 0.927168
vt 0.115678 0.920774
vt 0.112102 0.920369
vt 0.108491 0.920774
vt 0.098976 0.927168
vt 0.098740 0.928737
vt 0.098234 0.928737
vt 0.098234 0.931014
s 1
f 1/1/1 2/2/1 3/3/2
f 4/4/2 3/3/2 2/2/1
f 5/5/3 6/6/3 7/7/3
f 8/8/4 7/7/3 6/6/3
f 9/2/5 10/9/5 11/4/5
f 12/10/5 11/4/5 10/9/5
f 13/9/6 14/11/6 15/10/6
f 16/12/6 15/10/6 14/11/6
f 17/11/7 18/13/7 19/12/8
f 20/14/7 19/12/8 18/13/7
f 21/6/9 22/15/9 23/8/9
f 24/16/9 23/8/9 22/15/9
f 25/16/10 26/15/11 27/17/10
f 28/18/12 27/17/10 26/15/11
f 29/19/13 30/20/13 31/18/13
f 32/17/14 31/18/13 30/20/13
f 33/1/15 34/3/15 35/21/16
f 36/22/16 35/21/16 34/3/15
f 35/21/16 36/22/16 37/23/17
f 38/24/18 37/23/17 36/22/16
f 37/23/17 38/24/18 39/25/19
f 40/26/19 39/25/19 38/24/18
f 39/25/19 40/26/19 41/27/20
f 42/28/20 41/27/20 40/26/19
f 41/27/20 42/28/20 43/29/21
f 44/30/21 43/29/21 42/28/20
f 43/29/21 44/30/21 45/7/22
f 46/5/23 45/7/22 44/30/21
f 47/3/24 48/4/24 49/22/24
f 50/10/24 49/22/24 48/4/24
f 49/22/24 50/10/24 51/24/24
f 52/31/24 51/24/24 50/10/24
f 51/24/24 52/31/24 53/26/24
f 54/32/24 53/26/24 52/31/24
f 53/26/24 54/32/24 55/28/24
f 56/33/24 55/28/24 54/32/24
f 55/28/24 56/33/24 57/30/24
f 58/15/24 57/30/24 56/33/24
f 57/30/24 58/15/24 59/5/24
f 60/6/24 59/5/24 58/15/24
f 61/31/24 62/10/24 63/14/24
f 64/12/24 63/14/24 62/10/24
f 65/15/24 66/33/24 67/18/24
f 68/19/24 67/18/24 66/33/24
f 69/14/25 70/13/25 71/31/26
f 72/34/26 71/31/26 70/13/25
f 71/31/26 72/34/26 73/32/27
f 74/35/27 73/32/27 72/34/26
f 73/32/27 74/35/27 75/33/28
f 76/36/28 75/33/28 74/35/27
f 75/33/28 76/36/28 77/19/29
f 78/20/30 77/19/29 76/36/28
f 79/13/31 80/13/32 81/11/33
f 82/11/34 81/11/33 80/13/32
f 81/11/33 82/11/34 83/37/35
f 84/37/36 83/37/35 82/11/34
f 83/37/35 84/37/36 85/38/37
f 86/38/38 85/38/37 84/37/36
f 85/38/37 86/38/38 87/39/39
f 88/39/40 87/39/39 86/38/38
f 87/39/39 88/39/40 89/40/41
f 90/40/42 89/40/41 88/39/40
f 89/40/41 90/40/42 91/41/43
f 92/41/44 91/41/43 90/40/42
f 91/41/43 92/41/44 93/42/45
f 94/42/46 93/42/45 92/41/44
f 93/42/45 94/42/46 95/43/47
f 96/43/48 95/43/47 94/42/46
f 95/43/47 96/43/48 97/44/49
f 98/44/50 97/44/49 96/43/48
f 97/44/49 98/44/50 99/45/51
f 100/45/52 99/45/51 98/44/50
f 99/45/51 100/45/52 101/46/53
f 102/46/54 101/46/53 100/45/52
f 101/46/53 102/46/54 103/47/55
f 104/47/56 103/47/55 102/46/54
f 103/47/55 104/47/56 105/17/57
f 106/17/58 105/17/57 104/47/56
f 105/17/57 106/17/58 107/20/59
f 108/20/60 107/20/59 106/17/58
f 107/20/59 108/20/60 109/36/61
f 110/36/62 109/36/61 108/20/60
f 109/36/61 110/36/62 111/35/63
f 112/35/64 111/35/63 110/36/62
f 111/35/63 112/35/64 113/34/65
f 114/34/66 113/34/65 112/35/64
f 113/34/65 114/34/66 115/13/67
f 116/13/68 115/13/67 114/34/66
f 117/47/69 118/46/70 119/17/71
f 120/45/52 119/17/71 118/46/70
f 119/17/71 120/45/52 121/20/72
f 122/44/73 121/20/72 120/45/52
f 121/20/72 122/44/73 123/36/74
f 124/43/75 123/36/74 122/44/73
f 123/36/74 124/43/75 125/35/64
f 126/42/76 125/35/64 124/43/75
f 125/35/64 126/42/76 127/34/77
f 128/41/44 127/34/77 126/42/76
f 127/34/77 128/41/44 129/13/68
f 130/40/78 129/13/68 128/41/44
f 129/13/68 130/40/78 131/11/79
f 132/39/80 131/11/79 130/40/78
f 131/11/79 132/39/80 133/37/81
f 134/38/82 133/37/81 132/39/80
