# Blender 5.0.0
# www.blender.org
o shape16_tail_lamp_on
v -61.412037 -12.767232 2.826522
v -61.203648 -12.767232 -0.798109
v -60.983852 -18.068907 2.826516
v -60.767139 -18.068907 -0.798109
v -61.203648 12.767232 -0.798109
v -61.412037 12.767232 2.826522
v -60.767139 18.068907 -0.798109
v -60.983852 18.068907 2.826516
v -56.933331 25.713739 -0.808514
v -58.622860 25.250450 -0.798109
v -57.177727 25.769417 2.779696
v -58.904922 25.337435 2.826516
v -59.884609 24.085094 2.826516
v -59.654770 24.087816 -0.798109
v -60.214622 22.501377 2.826516
v -59.988659 22.503078 -0.798109
v -57.177727 -25.769417 2.779696
v -58.904922 -25.337435 2.826516
v -56.933331 -25.713739 -0.808514
v -58.622860 -25.250450 -0.798109
v -59.654770 -24.087816 -0.798109
v -59.884609 -24.085094 2.826516
v -59.988659 -22.503078 -0.798109
v -60.214622 -22.501377 2.826516
vn -0.9951 -0.0800 -0.0584
vn -0.9951 -0.0799 -0.0584
vn -0.9951 -0.0800 -0.0583
vn -0.9951 0.0801 -0.0583
vn -0.9951 0.0800 -0.0583
vn -0.9951 0.0799 -0.0583
vn -0.9951 0.0800 -0.0584
vn -0.2566 0.9658 -0.0365
vn -0.5335 0.8443 -0.0506
vn -0.2527 0.9668 -0.0381
vn -0.5399 0.8399 -0.0552
vn -0.8993 0.4326 -0.0643
vn -0.8965 0.4388 -0.0612
vn -0.9770 0.2042 -0.0615
vn -0.9769 0.2048 -0.0613
vn -0.2514 -0.9672 -0.0362
vn -0.5386 -0.8410 -0.0510
vn -0.2551 -0.9662 -0.0383
vn -0.5321 -0.8449 -0.0545
vn -0.8974 -0.4366 -0.0643
vn -0.9004 -0.4306 -0.0614
vn -0.9769 -0.2048 -0.0613
vn -0.9769 -0.2046 -0.0613
vt 0.997070 0.997070
vt 0.997070 0.002930
vt 0.002930 0.996112
vt 0.002930 0.002930
vt 0.968554 0.008682
vt 0.756156 0.011558
vt 0.985270 0.984608
vt 0.782706 0.997070
vt 0.486725 0.997070
vt 0.487708 0.011558
vt 0.002930 0.997070
vt 0.002930 0.011558
s 1
f 1/1/1 2/2/2 3/3/3
f 4/4/3 3/3/3 2/2/2
f 5/2/4 6/1/5 7/4/6
f 8/3/7 7/4/6 6/1/5
f 9/5/8 10/6/9 11/7/10
f 12/8/11 11/7/10 10/6/9
f 12/8/11 10/6/9 13/9/12
f 14/10/13 13/9/12 10/6/9
f 13/9/12 14/10/13 15/11/14
f 16/12/15 15/11/14 14/10/13
f 17/7/16 18/8/17 19/5/18
f 20/6/19 19/5/18 18/8/17
f 20/6/19 18/8/17 21/10/20
f 22/9/21 21/10/20 18/8/17
f 21/10/20 22/9/21 23/12/22
f 24/11/23 23/12/22 22/9/21
