# Blender 5.0.0
# www.blender.org
o shape7.017
v -61.109791 0.481842 9.936942
v -61.109791 -0.481842 9.936942
v -60.459995 0.481842 10.648599
v -60.459995 -0.481842 10.648599
v -60.492989 0.006155 10.600894
v -60.095760 -0.002162 10.224170
v -60.835251 0.382684 10.229526
v -60.439121 0.370970 9.870574
v -61.041687 -0.004680 9.989772
v -60.673206 -0.013009 9.629746
v -60.823971 -0.402563 10.242793
v -60.429279 -0.414281 9.876128
v -60.492989 0.006155 10.600894
v -60.095760 -0.002162 10.224170
v -62.780029 -5.325143 -0.487118
v -62.143021 -5.325143 4.148990
v -62.823967 -5.002407 -0.806852
v -62.099083 -5.002407 4.468724
v -62.823967 5.002407 -0.806852
v -62.099083 5.002407 4.468724
v -62.780029 5.325143 -0.487118
v -62.143021 5.325143 4.148990
v 60.792522 5.789508 -12.001917
v 60.539516 5.789508 -6.920462
v 60.809971 5.438629 -12.352363
v 60.522068 5.438629 -6.570017
v 60.809971 -5.438629 -12.352363
v 60.522068 -5.438629 -6.570017
v 60.792522 -5.789508 -12.001917
v 60.539516 -5.789508 -6.920462
v 58.748039 9.496763 6.522813
v 58.748039 14.380433 6.217101
v 57.549175 9.496763 7.014808
v 57.549175 14.380433 6.671752
v 51.698952 -26.345802 4.459237
v 51.618362 -26.345802 3.367160
v 55.767593 -25.841602 4.195254
v 55.687016 -25.841602 3.103169
v 51.698952 26.345802 4.459237
v 55.767593 25.841602 4.195254
v 51.618362 26.345802 3.367160
v 55.687016 25.841602 3.103169
v 60.611893 -1.647577 4.296075
v 60.530426 -1.647577 1.000928
v 60.611893 1.647577 4.296075
v 60.530426 1.647577 1.000928
v -49.896797 -17.018337 -10.259422
v -60.093235 -17.018337 -10.259422
v -49.896797 -16.048296 -11.043229
v -60.093235 -16.048296 -11.043228
v -49.896797 -15.166628 -10.402679
v -60.093235 -15.166628 -10.402679
v -49.896797 -14.284975 -11.043232
v -60.093235 -14.284975 -11.043230
v -49.896797 -13.314932 -10.259422
v -60.093235 -13.314932 -10.259422
v -49.896797 -14.284975 -9.475615
v -60.093235 -14.284975 -9.475613
v -49.896797 -15.166628 -10.116165
v -60.093235 -15.166628 -10.116164
v -49.896797 -16.048296 -9.475616
v -60.093235 -16.048296 -9.475615
v -49.896797 -17.018337 -10.259422
v -60.093235 -17.018337 -10.259422
v -60.139130 -17.242371 -9.300006
v -60.139130 -13.166267 -9.300006
v -60.139130 -17.242371 -11.322510
v -60.139130 -13.166267 -11.322510
vn -0.7385 -0.0000 0.6743
vn 0.6824 0.0291 0.7304
vn -0.0653 0.9936 -0.0925
vn -0.6873 -0.0016 -0.7264
vn -0.6873 -0.0016 -0.7263
vn -0.0722 -0.9964 -0.0441
vn -0.0722 -0.9964 -0.0440
vn 0.6824 0.0292 0.7304
vn -0.9907 -0.0000 0.1361
vn 0.9988 -0.0000 0.0497
vn 0.3665 0.0617 0.9284
vn 0.1224 -0.9924 -0.0090
vn 0.1224 0.9924 -0.0090
vn 0.9997 -0.0000 -0.0247
vn -0.0000 -1.0000 -0.0000
vn -0.0000 -0.0257 -0.9997
vn -0.0000 -0.0256 -0.9997
vn -0.0000 -0.0000 -1.0000
vn -0.0000 0.0256 -0.9997
vn -0.0000 1.0000 -0.0000
vn -0.0000 0.0256 0.9997
vn -0.0000 -0.0000 1.0000
vn -0.0000 -0.0256 0.9997
vn -0.0000 -0.0257 0.9997
vn -1.0000 -0.0000 -0.0000
vt 0.005859 0.883411
vt 0.039784 0.883411
vt 0.005859 0.942009
vt 0.039784 0.942009
vt 0.047790 0.942009
vt 0.047790 0.883411
vt 0.055795 0.942009
vt 0.055795 0.883411
vt 0.064457 0.942009
vt 0.064457 0.883411
vt 0.054811 0.942009
vt 0.054811 0.883411
vt 0.526275 0.037116
vt 0.526275 0.495019
vt 0.510142 0.005859
vt 0.510142 0.526275
vt 0.021472 0.005859
vt 0.021472 0.526275
vt 0.005859 0.037116
vt 0.005859 0.495019
vt 0.005859 0.537994
vt 0.181620 0.537994
vt 0.005859 0.645559
vt 0.181620 0.645559
vt 0.005859 0.713754
vt 0.005859 0.644505
vt 0.181620 0.713754
vt 0.181620 0.644505
vt 0.005859 0.871692
vt 0.005859 0.725473
vt 0.152079 0.871692
vt 0.152079 0.725473
vt 0.537994 0.233933
vt 0.994141 0.233933
vt 0.537994 0.005859
vt 0.994141 0.005859
vt 0.537994 0.191967
vt 0.994141 0.191967
vt 0.537994 0.462006
vt 0.994141 0.462006
vt 0.537994 0.275442
vt 0.994141 0.275442
vt 0.537994 0.461550
vt 0.994141 0.461550
vt 0.319218 0.663873
vt 0.193339 0.663873
vt 0.319218 0.537994
vt 0.193339 0.537994
s 1
f 1/1/1 2/2/1 3/3/1
f 4/4/1 3/3/1 2/2/1
f 5/5/2 6/6/2 7/7/3
f 8/8/3 7/7/3 6/6/2
f 7/7/3 8/8/3 9/9/4
f 10/10/5 9/9/4 8/8/3
f 9/9/4 10/10/5 11/11/6
f 12/12/7 11/11/6 10/10/5
f 11/11/6 12/12/7 13/5/8
f 14/6/2 13/5/8 12/12/7
f 15/13/9 16/14/9 17/15/9
f 18/16/9 17/15/9 16/14/9
f 17/15/9 18/16/9 19/17/9
f 20/18/9 19/17/9 18/16/9
f 19/17/9 20/18/9 21/19/9
f 22/20/9 21/19/9 20/18/9
f 23/13/10 24/14/10 25/15/10
f 26/16/10 25/15/10 24/14/10
f 25/15/10 26/16/10 27/17/10
f 28/18/10 27/17/10 26/16/10
f 27/17/10 28/18/10 29/19/10
f 30/20/10 29/19/10 28/18/10
f 31/21/11 32/22/11 33/23/11
f 34/24/11 33/23/11 32/22/11
f 35/25/12 36/26/12 37/27/12
f 38/28/12 37/27/12 36/26/12
f 39/27/13 40/25/13 41/28/13
f 42/26/13 41/28/13 40/25/13
f 43/29/14 44/30/14 45/31/14
f 46/32/14 45/31/14 44/30/14
f 47/33/15 48/34/15 49/35/16
f 50/36/17 49/35/16 48/34/15
f 49/35/16 50/36/17 51/37/18
f 52/38/18 51/37/18 50/36/17
f 51/37/18 52/38/18 53/35/19
f 54/36/19 53/35/19 52/38/18
f 53/35/19 54/36/19 55/33/20
f 56/34/20 55/33/20 54/36/19
f 55/33/20 56/34/20 57/39/21
f 58/40/21 57/39/21 56/34/20
f 57/39/21 58/40/21 59/41/22
f 60/42/22 59/41/22 58/40/21
f 59/41/22 60/42/22 61/43/23
f 62/44/24 61/43/23 60/42/22
f 61/43/23 62/44/24 63/33/15
f 64/34/15 63/33/15 62/44/24
f 65/45/25 66/46/25 67/47/25
f 68/48/25 67/47/25 66/46/25
