# Blender 5.0.0
# www.blender.org
o shape7.026
v 19.668854 29.967136 30.072100
v 19.163939 31.648462 29.834009
v 20.815321 32.811207 30.405264
v 18.688290 32.904480 29.909544
v 20.125956 33.702557 30.533655
v 18.345026 34.054935 30.551203
v 20.815929 34.008583 31.609938
v 18.247196 34.404736 31.665104
v 19.984421 33.656296 32.533218
v 18.393143 33.942284 32.526264
v 18.721901 32.867928 33.079453
v 25.307976 29.222010 29.189753
v 19.668854 29.967136 30.072100
v 22.496866 29.827299 31.118664
v 20.815321 32.811207 30.405264
v 21.739937 32.730656 31.422125
v 20.125956 33.702557 30.533655
v 20.815929 34.008583 31.609938
v 20.815929 34.008583 31.609938
v 19.984421 33.656296 32.533218
v 21.739937 32.730656 31.422125
v 20.672239 32.543217 32.423470
v 22.496866 29.827299 31.118664
v 19.637907 29.810505 31.909925
v 25.307976 29.222010 29.189753
v 19.950394 27.870430 33.515739
v 19.637907 29.810505 31.909925
v 20.672239 32.543217 32.423470
v 19.327332 30.853937 32.619255
v 19.984421 33.656296 32.533218
v 18.721901 32.867928 33.079453
v 20.012608 -28.309397 29.516472
v 18.151754 -34.529442 29.602524
v 20.105532 -27.712688 33.297642
v 18.211422 -34.465229 33.385704
v 20.012608 28.309397 29.516472
v 20.105532 27.712688 33.297642
v 18.151754 34.529442 29.602524
v 18.211422 34.465229 33.385704
v -10.953776 -30.908615 28.970612
v -11.029669 -31.420809 27.404470
v -1.599142 -30.908615 28.550037
v -1.675035 -31.420809 26.983894
v -10.953776 30.908615 28.970612
v -1.599142 30.908615 28.550037
v -11.029669 31.420809 27.404470
v -1.675035 31.420809 26.983894
v -46.297997 -30.988884 30.779499
v -46.373890 -31.501078 29.213356
v -36.943970 -30.988884 30.358925
v -37.019863 -31.501078 28.792784
v -46.297997 30.988884 30.779499
v -36.943970 30.988884 30.358925
v -46.373890 31.501078 29.213356
v -37.019863 31.501078 28.792784
v -67.565804 -22.666470 34.780724
v -67.248436 -25.519960 34.455231
v -65.665977 -22.472761 34.867874
v -65.348610 -25.326803 34.525333
v -67.565804 22.666470 34.780724
v -65.665977 22.472761 34.867874
v -67.248444 25.519960 34.455231
v -65.348618 25.326803 34.525333
v 69.065331 -19.971716 25.359558
v 69.043488 -22.831446 25.045547
v 70.944511 -19.943027 24.967602
v 70.922668 -22.802757 24.653585
v 69.065331 19.971716 25.359558
v 70.944511 19.943027 24.967602
v 69.043488 22.831446 25.045547
v 70.922668 22.802757 24.653585
v -88.748940 -23.988024 30.109362
v -88.635475 -21.454058 31.467033
v -89.100662 -23.084471 28.452368
v -88.987183 -20.550505 29.810022
v -88.748940 23.988020 30.109362
v -89.100662 23.084471 28.452364
v -88.635468 21.454052 31.467031
v -88.987183 20.550499 29.810022
v -94.458511 -14.851864 13.654429
v -94.753792 -16.875776 13.658702
v -91.768333 -15.244200 13.713360
v -92.063599 -17.268114 13.717631
v -91.990898 -15.391970 13.716022
v -91.985931 -15.393192 13.480335
v -93.818016 -15.215172 13.676464
v -93.813034 -15.216392 13.440775
v -94.373627 -15.557184 13.666493
v -94.368645 -15.558412 13.430804
v -94.473312 -16.260777 13.668037
v -94.468330 -16.261999 13.432349
v -94.034149 -16.743793 13.679838
v -94.029167 -16.745024 13.444150
v -92.231758 -17.090548 13.719755
v -92.226753 -17.091780 13.484066
v 84.535706 12.349158 9.861209
v 84.211357 14.398860 9.865901
v 81.814148 11.918180 9.999856
v 81.489799 13.967880 10.004548
v 81.985207 12.128469 9.996817
v 81.973251 12.127121 9.757934
v 83.806625 12.508047 9.903513
v 83.794670 12.506702 9.664629
v 84.241127 13.006879 9.878955
v 84.229172 13.005533 9.640072
v 84.125580 13.718552 9.880732
v 84.113632 13.717206 9.641848
v 83.554924 14.054067 9.907405
v 83.542969 14.052719 9.668521
v 81.706268 13.846597 10.001103
v 81.694305 13.845252 9.762220
v -92.370193 -17.645361 14.002748
v -92.370193 -14.873917 14.002748
v -92.087791 -17.645365 13.283861
v -92.087791 -14.873917 13.283861
v 82.317444 11.421065 10.358265
v 82.202850 11.401242 9.490066
v 81.756737 14.306900 10.366377
v 81.642143 14.287077 9.498177
v -84.500984 8.528852 10.556918
v -84.500984 17.817663 10.556918
v -84.515694 8.528852 4.917389
v -84.515694 17.817663 4.917389
v -92.968864 9.584555 9.881804
v -92.968864 16.790474 9.881804
v -91.555214 9.584555 6.684317
v -91.555214 16.790474 6.684317
v -86.455154 13.219613 9.543716
v -92.861153 13.219613 9.804585
v -86.459984 10.735786 9.208717
v -92.729805 10.730679 9.495727
v -86.476448 9.774910 8.117188
v -92.245384 9.773073 8.381778
v -86.493019 10.747622 6.816474
v -91.691284 10.740031 7.138658
v -86.493019 15.691606 6.816474
v -91.691284 15.699196 7.138658
v -86.476448 16.664316 8.117188
v -92.245384 16.666153 8.381778
v -86.459984 15.703441 9.208717
v -92.729805 15.708549 9.495727
v -86.455154 13.219613 9.543716
v -92.861153 13.219613 9.804585
v -89.102783 2.526477 32.693569
v -89.501915 2.526477 27.665796
v -89.102783 -2.526477 32.693569
v -89.501915 -2.526477 27.665796
v 76.073509 -1.666405 29.202023
v 77.292694 -1.666405 25.733704
v 76.073509 1.666405 29.202023
v 77.292694 1.666405 25.733704
v 76.042999 -1.666405 29.167137
v 76.042999 1.666405 29.167137
v 77.262184 -1.666405 25.698816
v 77.262184 1.666405 25.698816
v 77.897743 -0.800826 25.298588
v 78.355499 -0.800826 23.763741
v 77.897743 0.800826 25.298588
v 78.355499 0.800826 23.763741
v 77.939041 -0.779423 25.475571
v 77.939041 0.779423 25.475571
v 76.524559 -0.779423 26.092812
v 76.524559 0.779423 26.092812
v 30.629461 1.413271 34.754456
v 13.313609 4.955856 46.346344
v 29.514177 1.287773 33.042652
v 12.198324 4.830358 44.634548
v 29.588871 0.606063 33.596828
v 29.866545 2.468320 33.478554
v 21.609871 2.269694 40.343685
v 21.887548 4.131948 40.225407
v 12.611996 3.938891 45.323898
v 12.889671 5.801144 45.205620
v 34.877895 0.599032 29.768476
v 35.443802 0.722552 30.412197
v 32.126648 1.920143 32.781021
v 32.692558 2.043665 33.424744
v 21.341967 2.799292 40.647156
v 32.814304 2.593533 33.325943
v 21.362091 3.084541 40.630829
v 32.302921 2.716285 32.637959
v 35.565544 1.272421 30.313393
v 32.814304 2.593533 33.325943
v 35.443802 0.722552 30.412197
v 32.692558 2.043665 33.424744
v 32.302921 2.716285 32.637959
v 32.814304 2.593533 33.325943
v 35.054169 1.395174 29.625416
v 35.565544 1.272421 30.313393
v 74.775604 14.186716 25.200733
v 75.653275 13.342919 24.695423
v 74.812119 14.854877 24.265797
v 76.022827 14.003421 23.680656
v 75.351158 14.805681 22.164038
v 76.760521 14.016920 20.432249
v 76.084221 14.470678 18.965427
v 77.168907 13.623251 17.793098
v 76.559837 13.607666 15.571683
v 77.578941 12.685859 14.367058
v 76.555725 13.262287 14.582826
v 76.555725 -13.262287 14.582826
v 77.578941 -12.685859 14.367058
v 76.559837 -13.607666 15.571683
v 77.168907 -13.623251 17.793098
v 76.084221 -14.470678 18.965427
v 76.760521 -14.016920 20.432249
v 75.351158 -14.805681 22.164038
v 76.022827 -14.003421 23.680656
v 74.812119 -14.854877 24.265797
v 75.653275 -13.342919 24.695423
v 74.775604 -14.186716 25.200733
v 75.653275 13.342919 24.695423
v 74.775604 14.186716 25.200733
v 76.837151 7.923849 25.057968
v 75.797882 7.965300 25.835443
v 77.813156 0.000000 25.303537
v 76.339455 0.000000 26.124643
v 76.837151 -7.923849 25.057968
v 75.797882 -7.965300 25.835443
v 75.653275 -13.342919 24.695423
v 74.775604 -14.186716 25.200733
v 76.022827 14.003421 23.680656
v 75.653275 13.342919 24.695423
v 76.760521 14.016920 20.432249
v 76.837151 7.923849 25.057968
v 78.300499 7.741688 19.125010
v 77.813156 0.000000 25.303537
v 79.322487 0.000000 19.070074
v 79.322487 0.000000 19.070074
v 79.714958 0.000000 14.227713
v 78.300499 7.741688 19.125010
v 78.747177 7.566205 14.289951
v 77.168907 13.623251 17.793098
v 77.578941 12.685859 14.367058
v 76.760521 14.016920 20.432249
v 78.300499 7.741688 19.125010
v 77.168907 13.623251 17.793098
v 77.578941 -12.685859 14.367058
v 78.747177 -7.566205 14.289951
v 77.168907 -13.623251 17.793098
v 78.300499 -7.741688 19.125010
v 76.760521 -14.016920 20.432249
v 76.837151 -7.923849 25.057968
v 76.022827 -14.003421 23.680656
v 75.653275 -13.342919 24.695423
v 76.837151 -7.923849 25.057968
v 78.300499 -7.741688 19.125010
v 77.813156 0.000000 25.303537
v 79.322487 0.000000 19.070074
v 79.322487 0.000000 19.070074
v 78.300499 -7.741688 19.125010
v 79.714958 0.000000 14.227713
v 78.747177 -7.566205 14.289951
vn 0.3362 0.3900 -0.8572
vn 0.2905 0.0939 -0.9523
vn 0.4835 0.2042 -0.8512
vn 0.1634 0.3656 -0.9163
vn 0.3048 0.6058 -0.7350
vn 0.1315 0.7669 -0.6282
vn 0.4989 0.8614 0.0951
vn 0.1653 0.9835 0.0738
vn 0.3234 0.4551 0.8296
vn 0.1206 0.7070 0.6969
vn 0.2054 0.2254 0.9524
vn 0.3259 0.8592 0.3944
vn 0.3363 0.3900 -0.8572
vn 0.8410 0.4840 0.2420
vn 0.4836 0.2042 -0.8511
vn 0.9029 0.4208 0.0875
vn 0.3049 0.6057 -0.7350
vn 0.4989 0.8614 0.0952
vn 0.3235 0.4551 0.8296
vn 0.9029 0.4208 0.0874
vn 0.5092 -0.0498 0.8592
vn 0.8409 0.4840 0.2421
vn 0.4445 -0.0718 0.8929
vn 0.3258 0.8593 0.3943
vn 0.4272 0.4229 0.7991
vn 0.4445 -0.0719 0.8929
vn 0.5092 -0.0499 0.8592
vn 0.4419 -0.2022 0.8740
vn 0.2055 0.2254 0.9524
vn -0.9606 0.2780 -0.0049
vn -0.9606 -0.2780 -0.0049
vn -0.3721 -0.6853 0.6260
vn -0.3895 -0.9141 -0.1127
vn 0.4013 -0.6852 0.6079
vn 0.3839 -0.9140 -0.1309
vn -0.3681 0.6853 0.6284
vn 0.4051 0.6852 0.6052
vn -0.3901 0.9141 -0.1102
vn 0.3830 0.9141 -0.1334
vn 0.4012 -0.6852 0.6078
vn -0.0289 -0.1194 0.9924
vn -0.0290 -0.1194 0.9924
vn -0.0289 0.1194 0.9924
vn 0.2046 -0.1084 0.9728
vn 0.2046 0.1084 0.9728
vn -0.9823 -0.0524 0.1799
vn -0.9823 0.0524 0.1799
vn -0.0211 0.0052 0.9998
vn 0.0964 0.9953 -0.0031
vn -0.2255 0.9742 -0.0098
vn -0.8363 0.5479 -0.0205
vn -0.9555 -0.2943 -0.0187
vn -0.4894 -0.8721 -0.0058
vn -0.4894 -0.8720 -0.0058
vn -0.1889 -0.9820 0.0011
vn 0.0500 0.0056 0.9987
vn 0.2038 -0.9790 -0.0047
vn 0.5046 -0.8631 -0.0204
vn 0.5045 -0.8631 -0.0204
vn 0.9604 -0.2747 -0.0465
vn 0.8240 0.5649 -0.0444
vn 0.2076 0.9781 -0.0159
vn -0.1115 0.9938 -0.0000
vn -0.9308 -0.0000 -0.3656
vn 0.9729 0.1894 -0.1327
vn -1.0000 -0.0000 0.0026
vn -0.8361 -0.0002 -0.5486
vn -0.8361 -0.0000 -0.5486
vn -0.9569 -0.0000 0.2905
vn -0.9795 -0.0000 -0.2016
vn 0.0432 -0.0000 0.9991
vn 0.0432 -0.0001 0.9991
vn 0.0393 -0.4693 0.8822
vn -0.0009 -0.9995 0.0320
vn -0.0009 -0.9995 0.0321
vn -0.0522 -0.4409 -0.8960
vn -0.0523 -0.4410 -0.8960
vn -0.0523 0.4410 -0.8960
vn -0.0009 0.9995 0.0320
vn -0.0008 0.9995 0.0321
vn 0.0393 0.4693 0.8822
vn -0.9969 -0.0000 0.0791
vn 0.9434 -0.0000 0.3316
vn -0.9434 -0.0000 -0.3316
vn 0.8230 -0.2490 0.5106
vn 0.9679 -0.2490 0.0341
vn 0.8230 0.2490 0.5106
vn 0.9679 0.2490 0.0342
vn 0.4904 -0.2219 0.8428
vn 0.4904 0.2219 0.8428
vn 0.0662 -0.2219 0.9728
vn 0.0662 0.2219 0.9728
vn -0.0000 -1.0000 0.0001
vn -0.0000 -1.0000 -0.0000
vn -0.0001 -1.0000 -0.0000
vn 0.6393 -0.0466 0.7675
vn 0.5634 -0.0316 0.8256
vn 0.5631 -0.0315 0.8258
vn 0.4819 -0.0162 0.8761
vn -0.1302 -0.9463 0.2960
vn 0.3961 -0.6512 0.6473
vn -0.0478 -0.9723 0.2286
vn 0.3889 -0.6460 0.6569
vn 0.3816 -0.6405 0.6664
vn 0.5750 0.6380 0.5122
vn 0.4216 0.6648 0.6167
vn 0.2292 0.9734 0.0033
vn 0.7087 0.5886 0.3890
vn 0.5750 0.6381 0.5121
vn 0.3475 0.9332 -0.0918
vn 0.7087 0.5886 0.3891
vn 0.6879 0.5251 0.5011
vn 0.6678 0.6680 0.3285
vn 0.6401 0.7265 0.2497
vn 0.5909 0.7986 0.1140
vn 0.5831 0.8118 0.0307
vn 0.5637 0.8252 -0.0373
vn 0.5586 0.8234 -0.1002
vn 0.5161 0.8390 -0.1724
vn 0.5161 0.8390 -0.1725
vn 0.5161 -0.8390 -0.1725
vn 0.5161 -0.8390 -0.1724
vn 0.5586 -0.8234 -0.1002
vn 0.5637 -0.8251 -0.0373
vn 0.5831 -0.8118 0.0307
vn 0.5909 -0.7986 0.1140
vn 0.6401 -0.7266 0.2497
vn 0.6678 -0.6680 0.3285
vn 0.6879 -0.5251 0.5011
vn 0.6033 0.1809 0.7767
vn 0.5710 0.1305 0.8105
vn 0.5377 -0.0000 0.8432
vn 0.5376 -0.0000 0.8432
vn 0.5710 -0.1305 0.8105
vn 0.6033 -0.1809 0.7767
vn 0.9504 0.1873 0.2481
vn 0.9504 0.1874 0.2481
vn 0.9623 0.2008 0.1836
vn 0.9578 0.1567 0.2410
vn 0.9730 0.1739 0.1518
vn 0.9641 0.1258 0.2337
vn 0.9790 0.1272 0.1590
vn 0.9791 0.1272 0.1590
vn 0.9883 0.1278 0.0834
vn 0.9730 0.1739 0.1517
vn 0.9823 0.1701 0.0780
vn 0.9724 0.2127 0.0954
vn 0.9746 0.2120 0.0725
vn 0.9746 -0.2120 0.0725
vn 0.9823 -0.1701 0.0780
vn 0.9724 -0.2127 0.0954
vn 0.9730 -0.1739 0.1517
vn 0.9623 -0.2008 0.1836
vn 0.9578 -0.1567 0.2411
vn 0.9504 -0.1874 0.2482
vn 0.9578 -0.1567 0.2410
vn 0.9730 -0.1739 0.1518
vn 0.9641 -0.1258 0.2337
vn 0.9790 -0.1272 0.1590
vn 0.9791 -0.1272 0.1590
vn 0.9883 -0.1278 0.0834
vn 0.9823 -0.1700 0.0780
vt 0.537298 0.667770
vt 0.589590 0.659196
vt 0.635096 0.685914
vt 0.639088 0.668169
vt 0.662041 0.690102
vt 0.675214 0.690102
vt 0.671222 0.727188
vt 0.686191 0.728185
vt 0.660644 0.758492
vt 0.671821 0.757694
vt 0.638090 0.776836
vt 0.497979 0.582830
vt 0.545481 0.710838
vt 0.632701 0.721007
vt 0.627113 0.754903
vt 0.542088 0.739749
vt 0.486802 0.782219
vt 0.574821 0.769857
vt 0.475030 0.582830
vt 0.269971 0.586839
vt 0.480943 0.789582
vt 0.272717 0.793802
vt 0.649457 0.950734
vt 0.649457 0.788079
vt 0.486802 0.950734
vt 0.486802 0.788079
vt 0.854700 0.745480
vt 0.854700 0.582830
vt 0.692051 0.745480
vt 0.692051 0.582830
vt 0.271765 0.799661
vt 0.438658 0.799661
vt 0.269971 0.968348
vt 0.436865 0.968348
vt 0.155987 0.957490
vt 0.155987 0.849872
vt 0.263605 0.957490
vt 0.263605 0.849872
vt 0.252017 0.866753
vt 0.228841 0.866226
vt 0.225530 0.859368
vt 0.225530 0.855675
vt 0.223874 0.860950
vt 0.250362 0.861478
vt 0.752031 0.968801
vt 0.692051 0.968801
vt 0.752031 0.910296
vt 0.692051 0.910296
vt 0.752031 0.969293
vt 0.752031 0.909313
vt 0.692959 0.969293
vt 0.692959 0.909313
vt 0.037226 0.843351
vt 0.034588 0.588120
vt 0.264112 0.844013
vt 0.264112 0.588120
vt 0.264112 0.843351
vt 0.264112 0.582830
vt 0.002930 0.843351
vt 0.002930 0.582830
vt 0.582830 0.288713
vt 0.868614 0.288713
vt 0.582830 0.256960
vt 0.868614 0.256960
vt 0.585746 0.151928
vt 0.868614 0.149485
vt 0.670315 0.002930
vt 0.716974 0.002930
vt 0.002930 0.997070
vt 0.002930 0.849872
vt 0.150128 0.997070
vt 0.150128 0.849872
vt 0.850024 0.895567
vt 0.850024 0.751339
vt 0.994251 0.895567
vt 0.994251 0.751339
vt 0.757890 0.952013
vt 0.757890 0.909313
vt 0.800591 0.952013
vt 0.800591 0.909313
vt 0.850024 0.942593
vt 0.891190 0.942593
vt 0.850024 0.901426
vt 0.891190 0.901426
vt 0.582830 0.378354
vt 0.852701 0.378628
vt 0.583102 0.294573
vt 0.852973 0.294847
vt 0.583102 0.497021
vt 0.582830 0.564441
vt 0.718038 0.497296
vt 0.717766 0.564716
vt 0.852973 0.497296
vt 0.852701 0.564716
vt 0.692051 0.903453
vt 0.692389 0.875189
vt 0.725553 0.833049
vt 0.725891 0.805299
vt 0.843657 0.799132
vt 0.725553 0.776007
vt 0.844164 0.758534
vt 0.725891 0.751339
vt 0.692051 0.826882
vt 0.692558 0.800674
vt 0.553243 0.530682
vt 0.525463 0.511587
vt 0.576392 0.477449
vt 0.549192 0.452569
vt 0.576971 0.392393
vt 0.546298 0.295185
vt 0.559609 0.223437
vt 0.535302 0.167311
vt 0.542826 0.054481
vt 0.512731 0.005244
vt 0.529515 0.012188
vt 0.308438 0.530103
vt 0.309595 0.562506
vt 0.002930 0.542833
vt 0.002930 0.576971
vt 0.300914 0.232695
vt 0.002930 0.230959
vt 0.002930 0.002930
vt 0.294548 0.005244
s 1
f 1/1/1 2/2/2 3/3/3
f 4/4/4 3/3/3 2/2/2
f 3/3/3 4/4/4 5/5/5
f 6/6/6 5/5/5 4/4/4
f 5/5/5 6/6/6 7/7/7
f 8/8/8 7/7/7 6/6/6
f 7/7/7 8/8/8 9/9/9
f 10/10/10 9/9/9 8/8/8
f 9/9/9 10/10/10 11/11/11
f 12/12/12 13/1/13 14/13/14
f 15/3/15 14/13/14 13/1/13
f 14/13/14 15/3/15 16/14/16
f 17/5/17 16/14/16 15/3/15
f 16/14/16 17/5/17 18/7/18
f 19/7/7 20/9/19 21/14/20
f 22/15/21 21/14/20 20/9/19
f 21/14/20 22/15/21 23/13/22
f 24/16/23 23/13/22 22/15/21
f 23/13/22 24/16/23 25/12/24
f 26/17/25 25/12/24 24/16/23
f 27/16/26 28/15/27 29/18/28
f 30/9/19 29/18/28 28/15/27
f 29/18/28 30/9/19 31/11/29
f 32/19/30 33/20/30 34/21/30
f 35/22/30 34/21/30 33/20/30
f 36/19/31 37/21/31 38/20/31
f 39/22/31 38/20/31 37/21/31
f 40/23/32 41/24/33 42/25/34
f 43/26/35 42/25/34 41/24/33
f 44/23/36 45/25/37 46/24/38
f 47/26/39 46/24/38 45/25/37
f 48/27/32 49/28/33 50/29/40
f 51/30/35 50/29/40 49/28/33
f 52/27/36 53/29/37 54/28/38
f 55/30/39 54/28/38 53/29/37
f 56/31/41 57/32/42 58/33/41
f 59/34/41 58/33/41 57/32/42
f 60/31/43 61/33/43 62/32/43
f 63/34/43 62/32/43 61/33/43
f 64/31/44 65/32/44 66/33/44
f 67/34/44 66/33/44 65/32/44
f 68/31/45 69/33/45 70/32/45
f 71/34/45 70/32/45 69/33/45
f 72/31/46 73/32/46 74/33/46
f 75/34/46 74/33/46 73/32/46
f 76/31/47 77/33/47 78/32/47
f 79/34/47 78/32/47 77/33/47
f 80/35/48 81/36/48 82/37/48
f 83/38/48 82/37/48 81/36/48
f 84/39/49 85/39/49 86/40/50
f 87/40/50 86/40/50 85/39/49
f 86/40/50 87/40/50 88/41/51
f 89/41/51 88/41/51 87/40/50
f 88/41/51 89/41/51 90/42/52
f 91/42/52 90/42/52 89/41/51
f 90/42/52 91/42/52 92/43/53
f 93/43/54 92/43/53 91/42/52
f 92/43/53 93/43/54 94/44/55
f 95/44/55 94/44/55 93/43/54
f 96/35/56 97/36/56 98/37/56
f 99/38/56 98/37/56 97/36/56
f 100/39/57 101/39/57 102/40/58
f 103/40/59 102/40/58 101/39/57
f 102/40/58 103/40/59 104/41/60
f 105/41/60 104/41/60 103/40/59
f 104/41/60 105/41/60 106/42/61
f 107/42/61 106/42/61 105/41/60
f 106/42/61 107/42/61 108/43/62
f 109/43/62 108/43/62 107/42/61
f 108/43/62 109/43/62 110/44/63
f 111/44/63 110/44/63 109/43/62
f 112/45/64 113/46/64 114/47/64
f 115/48/64 114/47/64 113/46/64
f 116/49/65 117/50/65 118/51/65
f 119/52/65 118/51/65 117/50/65
f 120/53/66 121/54/66 122/55/67
f 123/56/68 122/55/67 121/54/66
f 124/57/69 125/58/69 126/59/70
f 127/60/70 126/59/70 125/58/69
f 128/61/71 129/62/72 130/63/73
f 131/64/73 130/63/73 129/62/72
f 130/63/73 131/64/73 132/65/74
f 133/66/75 132/65/74 131/64/73
f 132/65/74 133/66/75 134/67/76
f 135/68/77 134/67/76 133/66/75
f 134/67/76 135/68/77 136/67/78
f 137/68/78 136/67/78 135/68/77
f 136/67/78 137/68/78 138/65/79
f 139/66/80 138/65/79 137/68/78
f 138/65/79 139/66/80 140/63/81
f 141/64/81 140/63/81 139/66/80
f 140/63/81 141/64/81 142/61/71
f 143/62/71 142/61/71 141/64/81
f 144/69/82 145/70/82 146/71/82
f 147/72/82 146/71/82 145/70/82
f 148/73/83 149/74/83 150/75/83
f 151/76/83 150/75/83 149/74/83
f 152/73/84 153/75/84 154/74/84
f 155/76/84 154/74/84 153/75/84
f 156/77/85 157/78/86 158/79/87
f 159/80/88 158/79/87 157/78/86
f 160/81/89 161/82/90 162/83/91
f 163/84/92 162/83/91 161/82/90
f 164/85/93 165/86/94 166/87/95
f 167/88/94 166/87/95 165/86/94
f 168/89/96 169/90/96 170/91/97
f 171/92/98 170/91/97 169/90/96
f 170/91/97 171/92/98 172/93/99
f 173/94/99 172/93/99 171/92/98
f 174/95/100 175/96/101 176/97/102
f 177/98/103 176/97/102 175/96/101
f 176/97/102 177/98/103 178/99/104
f 179/100/105 178/99/104 177/98/103
f 178/99/104 179/100/105 180/101/106
f 181/102/107 180/101/106 179/100/105
f 182/103/108 183/100/109 184/96/101
f 185/98/103 184/96/101 183/100/109
f 186/102/107 187/100/105 188/104/110
f 189/103/111 188/104/110 187/100/105
f 190/105/112 191/106/112 192/107/113
f 193/108/114 192/107/113 191/106/112
f 192/107/113 193/108/114 194/109/115
f 195/110/116 194/109/115 193/108/114
f 194/109/115 195/110/116 196/111/117
f 197/112/118 196/111/117 195/110/116
f 196/111/117 197/112/118 198/113/119
f 199/114/119 198/113/119 197/112/118
f 198/113/119 199/114/119 200/115/120
f 201/115/121 202/114/122 203/113/122
f 204/112/123 203/113/122 202/114/122
f 203/113/122 204/112/123 205/111/124
f 206/110/125 205/111/124 204/112/123
f 205/111/124 206/110/125 207/109/126
f 208/108/127 207/109/126 206/110/125
f 207/109/126 208/108/127 209/107/128
f 210/106/129 209/107/128 208/108/127
f 209/107/128 210/106/129 211/105/129
f 212/106/130 213/105/130 214/116/131
f 215/117/131 214/116/131 213/105/130
f 214/116/131 215/117/131 216/118/132
f 217/119/133 216/118/132 215/117/131
f 216/118/132 217/119/133 218/116/134
f 219/117/134 218/116/134 217/119/133
f 218/116/134 219/117/134 220/106/135
f 221/105/135 220/106/135 219/117/134
f 222/108/136 223/106/137 224/110/138
f 225/116/139 224/110/138 223/106/137
f 224/110/138 225/116/139 226/120/140
f 227/118/141 226/120/140 225/116/139
f 226/120/140 227/118/141 228/121/142
f 229/121/143 230/122/144 231/120/145
f 232/123/146 231/120/145 230/122/144
f 231/120/145 232/123/146 233/112/147
f 234/114/148 233/112/147 232/123/146
f 235/110/138 236/120/145 237/112/147
f 238/114/149 239/123/150 240/112/151
f 241/120/152 240/112/151 239/123/150
f 240/112/151 241/120/152 242/110/153
f 243/116/154 242/110/153 241/120/152
f 242/110/153 243/116/154 244/108/155
f 245/106/155 244/108/155 243/116/154
f 246/116/156 247/120/157 248/118/158
f 249/121/159 248/118/158 247/120/157
f 250/121/160 251/120/152 252/122/161
f 253/123/162 252/122/161 251/120/152
