# Blender 5.0.0
# www.blender.org
o shape7.035
v -49.836048 24.259363 13.169469
v 24.392239 25.089975 11.709939
v 24.392239 -25.089975 11.709939
v -49.836052 -24.259365 13.169469
v -52.970074 -22.308075 13.168479
v 27.186928 -21.756691 12.293206
v 30.019661 0.000000 12.995124
v 13.131755 17.187874 28.806187
v 9.316618 -20.667183 28.413555
v -39.101868 -19.339546 30.201515
v -39.101868 19.339546 30.201515
v 9.316618 20.667183 28.413555
v -39.789490 -18.276554 30.496670
v -54.519794 -17.142241 13.169080
v -55.206890 0.000000 13.169469
v -40.886944 0.000000 31.100338
v -54.519794 17.142241 13.169080
v -40.430370 15.954947 30.716568
v -52.970074 22.308075 13.168479
v -39.789490 18.276554 30.496670
v 28.967300 -14.108807 12.808347
v 27.186928 21.756691 12.293206
v 28.967300 14.108807 12.808347
v -40.430370 -15.954947 30.716568
v -13.422985 -20.182993 29.770607
v 6.738992 -19.542177 29.846519
v 11.442101 -20.082918 28.335968
v -25.618420 18.726955 31.085815
v -25.388109 0.000000 31.669746
v -25.618420 -18.726955 31.085815
v -13.422985 20.182993 29.770607
v 6.738992 19.542177 29.846519
v 11.442102 20.082918 28.335968
v -4.514257 -15.954526 30.966946
v -4.135586 0.000000 31.358532
v -4.514257 15.954526 30.966946
v 14.562412 0.000000 29.173801
v 13.131755 -17.187874 28.806187
v 8.667760 -17.638388 29.938820
v 10.609842 -12.420542 30.117687
v 11.552508 0.000000 30.133621
v 10.609842 12.420542 30.117687
v 8.667760 17.638388 29.938820
v -38.298737 -20.010473 29.474167
v -38.298737 20.010473 29.474167
vn -0.7810 0.0313 0.6237
vn -0.7780 0.0373 0.6272
vn -0.7521 0.2257 0.6192
vn -0.7376 0.2625 0.6221
vn -0.5987 0.5492 0.5831
vn -0.0491 0.2966 0.9537
vn -0.0447 0.1064 0.9933
vn -0.0296 0.0249 0.9993
vn -0.0367 0.0307 0.9989
vn -0.0491 -0.2966 0.9537
vn -0.0131 0.7422 0.6701
vn -0.0122 0.7248 0.6888
vn 0.0158 0.5939 0.8044
vn 0.0220 0.7668 0.6415
vn 0.1882 0.5792 0.7932
vn 0.0146 0.0313 0.9994
vn 0.0089 0.0247 0.9997
vn 0.0323 0.2041 0.9784
vn 0.2601 0.3008 0.9175
vn 0.2631 0.3108 0.9133
vn 0.3823 0.0516 0.9226
vn 0.3037 0.0243 0.9524
vn 0.2560 -0.1281 0.9581
vn 0.0630 0.1120 0.9917
vn 0.0700 0.0602 0.9957
vn 0.0778 -0.0072 0.9969
vn 0.0621 -0.0260 0.9977
vn 0.7147 -0.2113 0.6668
vn 0.7153 -0.0626 0.6960
vn 0.7210 -0.0747 0.6889
vn 0.6091 0.4604 0.6458
vn 0.5552 -0.5713 0.6045
vn 0.2516 -0.8550 0.4535
vn -0.4576 -0.7348 0.5007
vn -0.3084 -0.8443 0.4382
vn -0.0059 0.9680 0.2510
vn 0.0146 -0.0249 0.9996
vn 0.2043 -0.0000 -0.9789
vn -0.0059 -0.9680 0.2510
vn -0.0200 -0.0327 -0.9993
vn -0.0191 -0.0056 -0.9998
vn -0.0186 -0.0007 -0.9998
vn 0.0630 -0.1120 0.9917
vn -0.0191 0.0056 -0.9998
vn -0.0200 0.0327 -0.9993
vn -0.0183 -0.0000 -0.9998
vn -0.0057 -0.9682 0.2502
vn -0.0098 -0.9659 0.2586
vn -0.5987 -0.5492 0.5831
vn 0.2516 0.8550 0.4535
vn -0.0098 0.9659 0.2586
vn -0.0057 0.9682 0.2502
vn 0.0158 -0.5939 0.8044
vn 0.1882 -0.5792 0.7932
vn 0.0220 -0.7668 0.6415
vn -0.0122 -0.7248 0.6888
vn -0.0131 -0.7422 0.6701
vn -0.7376 -0.2625 0.6221
vn 0.7216 0.0630 0.6894
vn 0.2560 0.1281 0.9581
vn 0.2630 -0.3023 0.9162
vn 0.2405 -0.0000 -0.9706
vn 0.3236 -0.0116 -0.9461
vn 0.3035 -0.0456 0.9517
vn -0.4576 0.7348 0.5007
vn -0.0447 -0.1064 0.9933
vn -0.7808 -0.0373 0.6236
vn 0.7147 0.2113 0.6668
vn 0.3236 0.0116 -0.9461
vn 0.0323 -0.2041 0.9784
vn 0.0621 0.0260 0.9977
vn -0.0307 -0.0308 0.9991
vn 0.0097 -0.0313 0.9995
vn -0.0186 0.0007 -0.9998
vn 0.0700 -0.0602 0.9957
vn 0.5552 0.5713 0.6045
vn -0.7521 -0.2257 0.6192
vn 0.7159 0.0744 0.6943
vn 0.2589 -0.3067 0.9159
vn 0.6091 -0.4604 0.6458
vn 0.4122 -0.0325 0.9105
vn -0.3084 0.8443 0.4382
vn -0.7783 -0.0312 0.6271
vn 0.0778 0.0072 0.9969
vn -0.0367 -0.0251 0.9990
vt 0.981954 0.000000
vt 0.991253 0.043560
vt 0.253120 0.000000
vt 0.239365 0.109494
vt 0.033059 0.000000
vt 0.197000 0.975000
vt 0.152000 0.959000
vt 0.147117 0.142522
vt 0.124280 0.035720
vt 0.102941 0.290000
vt 0.991511 0.290000
vt 0.070492 0.048172
vt 0.102941 0.290000
vt 0.130762 0.112060
vt 0.277582 0.334745
vt 0.031170 0.501035
vt 0.058217 0.856647
vt 0.004635 0.901132
vt 0.037000 0.941000
vt 0.991511 0.665000
vt 0.235277 0.654528
vt 0.191246 0.968514
vt 0.160624 0.891756
vt 0.176793 0.968137
vt 0.391000 0.925430
vt 0.991511 1.000000
vt 0.991511 0.945962
vt 0.160624 0.891756
vt 0.235277 0.654528
vt 0.562000 0.062000
vt 0.672120 0.974634
vt 0.860868 0.031025
vt 0.008268 0.073000
vt 0.008268 1.000000
vt 0.696000 0.973000
vt 0.792000 0.952000
vt 0.759375 0.013748
vt 1.000000 0.000000
vt 0.831000 0.920000
vt 0.979738 0.079000
vt 0.955738 0.079000
vt 0.820467 0.961000
vt 0.000000 0.000000
vt 0.173341 0.875000
vt 0.470548 0.035473
vt 0.337591 0.970000
vt 0.239365 0.109495
vt 0.010335 0.073000
vt 0.974321 0.079000
s 0
f 15/1/1 16/2/1 17/3/1
f 18/4/2 17/3/2 16/2/2
f 17/3/3 18/4/3 19/5/3
f 20/6/4 19/5/4 18/4/4
f 11/7/5 19/5/5 20/6/5
f 11/8/6 20/9/6 28/10/6
f 18/4/7 28/10/7 20/9/7
f 16/2/8 28/10/8 18/4/8
f 28/10/9 16/2/9 29/11/9
f 10/12/10 30/13/10 13/14/10
f 45/15/11 11/8/11 31/16/11
f 28/10/12 31/16/12 11/8/12
f 32/17/13 31/16/13 28/10/13
f 31/16/14 32/17/14 12/18/14
f 33/19/15 12/18/15 32/17/15
f 29/11/16 35/20/16 28/10/16
f 36/21/17 28/10/17 35/20/17
f 32/17/18 28/10/18 36/21/18
f 33/19/19 32/17/19 8/22/19
f 43/23/20 8/22/20 32/17/20
f 8/24/21 42/25/21 37/26/21
f 41/27/22 37/26/22 42/25/22
f 39/28/23 38/24/23 40/25/23
f 36/21/24 43/23/24 32/17/24
f 43/23/25 36/21/25 42/25/25
f 41/27/26 35/20/26 40/25/26
f 34/29/27 40/25/27 35/20/27
f 21/30/28 38/31/28 6/32/28
f 7/33/29 38/31/29 21/30/29
f 38/31/30 7/33/30 37/34/30
f 8/35/31 22/32/31 33/36/31
f 6/37/32 27/36/32 3/38/32
f 9/39/33 3/38/33 27/36/33
f 5/40/34 4/41/34 10/42/34
f 44/15/35 10/42/35 4/41/35
f 2/43/36 1/41/36 12/44/36
f 29/11/37 34/29/37 35/20/37
f 2/38/38 22/32/38 6/43/38
f 2/38/38 6/43/38 3/38/38
f 9/39/39 4/41/39 3/43/39
f 4/41/40 5/40/40 3/43/40
f 5/45/41 14/3/41 3/43/41
f 14/3/42 15/1/42 3/43/42
f 34/29/43 26/17/43 39/28/43
f 17/3/44 19/5/44 2/38/44
f 19/40/45 1/41/45 2/43/45
f 15/1/46 2/38/46 3/38/46
f 25/46/47 4/41/47 9/39/47
f 25/16/48 44/15/48 4/41/48
f 13/14/49 5/45/49 10/7/49
f 33/36/50 2/38/50 12/18/50
f 45/15/51 31/43/51 1/41/51
f 31/16/52 12/44/52 1/41/52
f 30/13/53 25/16/53 26/17/53
f 26/17/54 9/18/54 27/19/54
f 9/18/55 26/17/55 25/16/55
f 30/13/56 10/12/56 25/16/56
f 10/12/57 44/15/57 25/16/57
f 24/47/58 5/45/58 13/14/58
f 23/30/59 37/34/59 7/33/59
f 42/25/60 8/22/60 43/23/60
f 39/28/61 27/19/61 38/24/61
f 22/32/62 7/48/62 6/32/62
f 7/33/63 21/30/63 6/32/63
f 41/27/64 38/24/64 37/26/64
f 11/8/65 1/41/65 19/49/65
f 13/14/66 30/13/66 24/47/66
f 15/1/67 24/47/67 16/2/67
f 22/32/68 8/22/68 23/30/68
f 7/48/69 22/32/69 23/30/69
f 30/13/70 26/17/70 34/29/70
f 35/20/71 42/25/71 36/21/71
f 29/11/72 24/47/72 30/13/72
f 29/11/73 30/13/73 34/29/73
f 15/1/74 17/3/74 2/38/74
f 39/28/75 40/25/75 34/29/75
f 33/36/76 22/32/76 2/38/76
f 24/47/77 14/3/77 5/45/77
f 23/30/78 8/24/78 37/34/78
f 39/28/79 26/17/79 27/19/79
f 38/24/80 27/19/80 6/32/80
f 41/27/81 40/25/81 38/24/81
f 11/8/82 45/15/82 1/41/82
f 15/1/83 14/3/83 24/47/83
f 35/20/84 41/27/84 42/25/84
f 29/11/85 16/2/85 24/47/85
