# Blender 5.0.0
# www.blender.org
o shape13.012
v 71.718452 -27.501091 23.344955
v 63.881638 -34.385551 19.929214
v 37.612423 -31.652157 0.661667
v 37.612423 31.652157 0.661667
v 46.410358 -35.211990 22.222040
v 57.924591 -34.838322 23.237059
v 63.881638 34.385551 19.929214
v 57.924591 34.838322 23.237059
v 46.410358 35.211990 22.222040
v -41.108654 35.228531 17.484957
v -57.737255 35.296070 22.544195
v -84.265533 25.873829 32.640182
v -60.506565 29.394295 33.041416
v -57.737255 -35.296070 22.544195
v -41.108654 -35.228531 17.484957
v 65.662704 28.652758 25.086615
v 55.973026 29.726925 26.871435
v 43.246582 30.765186 28.350863
v 27.591822 30.018536 30.607620
v -21.853472 31.704844 31.474722
v -73.777267 27.806372 32.949596
v -73.777267 -27.806372 32.949596
v -60.506565 -29.394295 33.041416
v -84.265533 -25.873829 32.640182
v -85.402519 -30.553923 19.435530
v -90.197830 -27.914539 19.343264
v -64.919884 -34.901318 18.664846
v -90.197830 27.914539 19.343264
v -85.402519 30.553923 19.435530
v -64.919884 34.901318 18.664846
v -68.469818 -33.994633 11.892814
v -21.853472 -31.704844 31.474722
v 27.591822 -30.018536 30.607620
v -68.469818 33.994633 11.892814
v -38.408009 -31.276676 2.226896
v -69.594597 30.485521 4.131467
v -88.814400 26.927452 7.581332
v -82.569107 26.040924 5.225842
v -85.298782 22.312496 5.154788
v -38.408009 31.276676 2.226896
v 71.718452 27.501091 23.344955
v -69.594597 -30.485521 4.131467
v -82.569107 -26.040924 5.225842
v -88.814400 -26.927452 7.581332
v -66.487015 26.334082 35.644825
v -83.930077 29.802122 11.378996
v -66.487015 -26.334082 35.644825
v -83.930077 -29.802122 11.378996
v -71.401558 17.858372 36.443974
v -73.511063 0.000000 36.830379
v -71.401558 -17.858372 36.443974
v -92.210960 23.626308 19.219910
v -93.969650 10.929906 19.741758
v -94.180687 0.000000 19.841427
v -93.969650 -10.929906 19.741758
v -92.210960 -23.626308 19.219910
v -92.021606 24.197924 7.887339
v -93.739685 10.635023 7.866131
v -85.995117 0.000000 5.040864
v -94.095078 0.000000 7.871800
v -85.298782 -22.312496 5.154788
v -93.739685 -10.635023 7.866131
v -92.021606 -24.197924 7.887339
v 76.523506 -14.609123 24.578276
v 61.914661 -6.318602 29.621088
v 61.832340 0.000000 29.972696
v 61.914661 6.318602 29.621088
v 46.915382 24.542315 29.854258
v 36.890881 15.190872 32.570511
v 36.890881 -15.190872 32.570511
v 63.229900 20.225552 27.819218
v 76.523506 14.609123 24.578276
v 76.487076 0.000000 25.499828
v 65.662704 -28.652758 25.086615
v 55.973026 -29.726925 26.871435
v 43.246582 -30.765186 28.350863
v 46.915382 -24.542315 29.854258
v 38.813053 0.000000 32.784142
v 63.229900 -20.225552 27.819218
v 69.330215 33.272675 1.276857
v 85.597801 -15.882418 14.330727
v 85.597801 15.882418 14.330727
v 81.383659 24.989319 14.333340
v 78.303062 29.191191 14.622401
v 81.383659 -24.989319 14.333340
v 78.303062 -29.191191 14.622401
v 77.320625 28.620722 1.167737
v 73.481400 31.783686 1.281603
v 77.320625 -28.620722 1.167737
v 73.481400 -31.783686 1.281603
v 69.330215 -33.272675 1.276857
v 74.616241 -31.493927 14.632418
v 74.616241 31.493927 14.632418
v 81.969994 17.681801 1.299675
v 84.524803 0.000000 3.209908
v 81.969994 -17.681801 1.299675
v 87.443932 -10.548062 14.370605
v 87.431953 -10.548062 12.435039
v 87.443909 10.548062 14.370605
v 87.431915 10.548062 12.435039
v 87.840240 -0.000000 14.368150
v 87.828270 -0.000000 12.432584
v 79.241447 0.000000 24.004833
v -87.626228 -22.572680 35.801556
v -87.626228 22.572680 35.801556
v -88.997070 12.470524 36.242367
v -88.997070 -12.470524 36.242367
v -89.574226 0.000000 36.403828
vn -0.3114 0.2455 -0.9180
vn -0.2331 0.8983 -0.3724
vn -0.2301 0.8952 -0.3817
vn -0.2301 -0.8952 -0.3817
vn -0.2331 -0.8983 -0.3724
vn -0.3027 0.2526 -0.9190
vn -0.3299 -0.0151 -0.9439
vn -0.3185 -0.0101 -0.9479
vn -0.3646 -0.0476 -0.9299
vn -0.3027 -0.2526 -0.9190
vn 0.0910 0.1866 0.9782
vn 0.0910 -0.1866 0.9782
vn 0.1220 0.3005 0.9459
vn 0.1212 0.0293 0.9922
vn 0.1212 -0.0293 0.9922
vn 0.1355 -0.0533 0.9893
vn 0.1355 0.0533 0.9893
vn 0.9993 -0.0375 -0.0062
vn -0.0172 0.9974 -0.0697
vn 0.9993 0.0375 -0.0062
vn 0.0018 -0.9448 0.3277
vn 0.0015 -0.9298 0.3680
vn -0.2084 -0.9778 -0.0217
vn -0.0937 -0.7450 0.6604
vn -0.1083 -0.8785 0.4653
vn -0.0088 -0.6579 0.7531
vn -0.1785 -0.9082 0.3785
vn -0.1960 -0.9188 0.3425
vn -0.1913 -0.9471 0.2578
vn -0.0172 -0.9974 -0.0697
vn 0.0008 -0.9999 -0.0108
vn 0.0370 -0.9980 -0.0520
vn 0.0373 -0.7591 0.6499
vn -0.1192 -0.6995 0.7046
vn 0.0308 -0.4408 0.8971
vn -0.1590 -0.7625 0.6272
vn -0.0197 0.9923 -0.1225
vn -0.0084 -0.9843 -0.1761
vn 0.0049 -0.9962 -0.0869
vn 0.0511 -0.9977 -0.0446
vn -0.0204 -0.9441 -0.3289
vn -0.0188 -0.6547 -0.7557
vn 0.0171 -0.0445 -0.9989
vn 0.3782 -0.7195 0.5825
vn 0.3236 -0.6188 0.7158
vn 0.2102 -0.5120 0.8329
vn 0.0758 -0.6624 0.7453
vn 0.1405 -0.5375 0.8314
vn 0.0465 -0.1597 0.9861
vn -0.8751 0.4031 0.2676
vn -0.4784 -0.8106 0.3378
vn 0.1220 -0.3005 0.9459
vn 0.4763 -0.0542 0.8776
vn 0.8908 -0.4123 -0.1911
vn -0.2551 -0.9573 -0.1360
vn -0.0479 -0.9127 -0.4057
vn 0.0170 -0.0566 -0.9982
vn 0.3376 0.9412 -0.0083
vn 0.6325 0.7706 -0.0789
vn 0.5295 -0.8479 -0.0266
vn 0.0362 0.0186 0.9992
vn 0.4622 0.7379 0.4919
vn 0.6688 -0.4496 0.5920
vn 0.0127 -0.0000 -0.9999
vn 0.1346 0.3070 0.9422
vn -0.3646 0.0476 -0.9299
vn 0.1523 0.1128 0.9819
vn 0.1810 -0.2335 0.9554
vn -0.9920 0.1257 -0.0102
vn -0.3114 -0.2455 -0.9180
vn -0.2420 -0.5019 -0.8304
vn -0.0607 0.0083 -0.9981
vn -0.0637 -0.0071 -0.9979
vn 0.8009 -0.5929 -0.0836
vn 0.0284 -0.0000 -0.9996
vn 0.8908 0.4123 -0.1911
vn 0.2699 -0.9627 0.0214
vn -0.9576 0.0480 0.2841
vn -0.0188 0.6547 -0.7557
vn 0.0171 0.0445 -0.9989
vn 0.0170 0.0566 -0.9982
vn 0.4763 0.0542 0.8776
vn 0.2954 0.0594 0.9535
vn 0.3072 -0.2121 0.9277
vn 0.7092 -0.2504 0.6591
vn -0.9515 0.1410 0.2736
vn 0.6896 0.3189 0.6502
vn 0.0360 -0.0174 0.9992
vn -0.0265 -0.0142 0.9995
vn -0.1197 -0.1065 -0.9871
vn -0.0607 -0.0083 -0.9981
vn -0.0479 0.9127 -0.4057
vn -0.9904 -0.1363 -0.0226
vn -0.3299 0.0105 -0.9440
vn 0.5988 -0.0000 -0.8009
vn 0.9029 -0.3811 -0.1987
vn -0.0204 0.9441 -0.3289
vn 0.0511 0.9977 -0.0446
vn 0.3376 -0.9412 -0.0083
vn -0.0084 0.9843 -0.1761
vn 0.0049 0.9962 -0.0869
vn 0.0370 0.9980 -0.0520
vn 0.2954 -0.0594 0.9535
vn 0.6993 -0.1023 0.7074
vn -0.0327 0.8749 0.4832
vn 0.2916 0.0494 0.9553
vn 0.2916 -0.0494 0.9553
vn -0.0590 -0.0000 -0.9983
vn -0.4729 0.8651 -0.1672
vn -0.9576 -0.0480 0.2841
vn -0.9515 -0.1410 0.2736
vn -0.9998 -0.0192 -0.0072
vn 0.4442 -0.7493 0.4911
vn -0.1197 0.1065 -0.9871
vn -0.2420 0.5019 -0.8304
vn -0.2551 0.9573 -0.1360
vn 0.1523 -0.1128 0.9819
vn -0.0188 0.0238 0.9995
vn 0.9029 0.3811 -0.1988
vn 0.9408 -0.0354 -0.3370
vn 0.2102 0.5120 0.8329
vn 0.3236 0.6188 0.7158
vn 0.3782 0.7195 0.5825
vn 0.1346 -0.3070 0.9422
vn 0.5295 0.8479 -0.0266
vn 0.0008 0.9999 -0.0108
vn 0.0018 0.9448 0.3277
vn 0.3128 -0.2053 0.9274
vn 0.7092 0.2504 0.6591
vn 0.6896 -0.3189 0.6502
vn -0.0206 -0.0000 -0.9998
vn 0.1810 0.2335 0.9554
vn 0.0465 0.1597 0.9861
vn 0.3072 0.2121 0.9277
vn 0.9450 -0.3270 -0.0058
vn -0.9053 -0.4248 0.0063
vn -0.4289 -0.8946 -0.1255
vn -0.9998 0.0192 -0.0072
vn -0.1960 0.9188 0.3425
vn -0.1913 0.9471 0.2578
vn 0.6688 0.4496 0.5920
vn 0.1405 0.5375 0.8314
vn 0.7459 0.0279 0.6655
vn -0.6495 0.7475 -0.1391
vn 0.0758 0.6624 0.7453
vn 0.2699 0.9627 0.0214
vn 0.0015 0.9298 0.3680
vn 0.0373 0.7591 0.6499
vn -0.0937 0.7450 0.6604
vn -0.1192 0.6995 0.7046
vn 0.0308 0.4408 0.8971
vn -0.0088 0.6579 0.7531
vn -0.4784 0.8106 0.3378
vn -0.1590 0.7625 0.6272
vn 0.9158 0.0900 -0.3915
vn -0.1785 0.9082 0.3785
vn -0.1083 0.8785 0.4653
vn 0.0374 -0.0723 0.9967
vn -0.2084 0.9778 -0.0217
vn 0.0374 0.0723 0.9967
vn -0.0104 0.0998 0.9949
vn 0.9070 -0.3834 -0.1742
vn 0.8009 0.5929 -0.0836
vn 0.0360 0.0174 0.9992
vn 0.4442 0.7493 0.4911
vn 0.1569 0.1166 0.9807
vn -0.0259 0.0471 0.9986
vn -0.9904 0.1363 -0.0226
vn 0.6325 -0.7706 -0.0789
vn 0.9070 0.3834 -0.1742
vn -0.9632 0.0210 0.2679
vn 0.3128 0.2053 0.9274
vn 0.2746 0.0980 0.9566
vn 0.9450 0.3270 -0.0059
vn -0.9516 0.1430 0.2722
vn 0.6893 0.3191 0.6504
vn 0.0362 -0.0186 0.9992
vn -0.0188 -0.0238 0.9995
vn 0.2021 0.2488 0.9472
vn -0.9920 -0.1257 -0.0102
vn -0.3245 0.0150 -0.9458
vn -0.8751 -0.4031 0.2676
vn 0.2746 -0.0980 0.9566
vn 0.7459 -0.0279 0.6655
vn -0.0637 0.0071 -0.9979
vn -0.4289 0.8946 -0.1255
vn -0.9632 -0.0210 0.2679
vn -0.0259 -0.0471 0.9986
vn -0.9516 -0.1430 0.2722
vn -0.9992 -0.0334 -0.0202
vn 0.4622 -0.7379 0.4919
vn -0.4598 0.8238 0.3316
vn 0.1569 -0.1166 0.9807
vn -0.0265 0.0142 0.9995
vn 0.9158 -0.0900 -0.3915
vn 0.6893 -0.3191 0.6504
vn -0.0197 -0.9923 -0.1225
vn 0.2021 -0.2488 0.9472
vn -0.0104 -0.0998 0.9949
vn -0.6495 -0.7475 -0.1391
vn -0.4729 -0.8651 -0.1672
vn -0.9992 0.0334 -0.0202
vn -0.4598 -0.8238 0.3316
vn 0.6993 0.1023 0.7074
vn -0.9053 0.4248 0.0063
vn -0.0327 -0.8749 0.4832
vn 0.9408 0.0354 -0.3370
vt 0.888300 0.026736
vt 0.907352 0.042047
vt 0.872818 0.026508
vt 0.800875 0.020116
vt 0.794474 0.069969
vt 0.881014 0.066806
vt 0.687894 0.496130
vt 0.795411 0.069993
vt 0.670780 0.537285
vt 0.709222 0.514502
vt 0.691912 0.539766
vt 0.709222 0.514502
vt 0.926929 0.539480
vt 0.926929 0.512165
vt 0.828246 0.539456
vt 0.661126 0.484761
vt 0.244133 0.852897
vt 0.051720 0.212551
vt 0.203400 0.764386
vt 0.244133 0.852897
vt 0.256992 0.782425
vt 0.101544 0.809748
vt 0.001512 0.805034
vt 0.001512 0.689107
vt 0.053221 0.689230
vt 0.403438 0.484433
vt 0.504523 0.484433
vt 0.504523 0.463653
vt 0.403438 0.463653
vt 0.908040 0.330364
vt 0.844605 0.304378
vt 0.933239 0.311193
vt 0.154586 0.140630
vt 0.091849 0.149586
vt 0.734834 0.140843
vt 0.000000 0.000000
vt 0.772787 0.113442
vt 0.889893 0.119658
vt 0.817818 0.211990
vt 0.747146 0.211375
vt 0.546891 0.201201
vt 0.884547 0.204142
vt 0.647362 0.103799
vt 0.267413 0.196517
vt 0.267011 0.330383
vt 0.647362 0.103799
vt 0.632401 0.065895
vt 0.059576 0.129997
vt 0.948564 0.280472
vt 0.627089 0.008728
vt 0.203475 0.001465
vt 0.408007 0.235602
vt 0.530924 0.232062
vt 0.709419 0.342950
vt 0.730423 0.342106
vt 0.023285 0.169717
vt 0.069540 0.218092
vt 0.119219 0.237209
vt 0.173423 0.183371
vt 0.782836 0.227118
vt 0.695821 0.651090
vt 0.033198 0.972176
vt 0.662232 0.656218
vt 0.916531 0.119036
vt 0.033198 0.972176
vt 0.256992 0.782425
vt 0.860259 0.837105
vt 0.921460 0.827570
vt 0.860259 0.827590
vt 0.554722 0.414085
vt 0.574908 0.342435
vt 0.953088 0.245243
vt 0.832102 0.237211
vt 0.681507 0.342009
vt 0.730423 0.342106
vt 0.661417 0.467722
vt 0.681507 0.342009
vt 0.688525 0.486894
vt 0.711990 0.486947
vt 0.817099 0.405974
vt 0.637228 0.990582
vt 0.250937 0.718619
vt 0.166242 0.683281
vt 0.652381 0.484088
vt 0.568848 0.344541
vt 0.046167 0.033214
vt 0.826379 0.656146
vt 0.217445 0.976844
vt 0.116554 0.975762
vt 0.315658 0.670423
vt 0.001512 0.612549
vt 0.563219 0.484542
vt 0.995191 0.395933
vt 0.091849 0.149586
vt 0.059576 0.129997
vt 0.130793 0.623173
vt 0.490914 0.182413
vt 0.916531 0.119036
vt 0.926929 0.656993
vt 0.066657 0.135574
vt 0.403438 0.364276
vt 0.102391 0.174265
vt 0.048661 0.163109
vt 0.031856 0.045016
vt 0.015461 0.151173
vt 0.220410 0.608598
vt 0.234182 0.640910
vt 0.243452 0.669912
vt 0.662312 0.652570
vt 0.102004 0.024541
vt 0.302366 0.067234
vt 0.522681 0.311327
vt 0.745672 0.418580
s 0
f 39/1/1 37/2/1 38/3/1
f 36/4/2 37/2/2 34/5/2
f 46/6/3 34/5/3 37/2/3
f 44/7/4 31/8/4 48/6/4
f 31/8/5 44/7/5 42/4/5
f 37/9/6 39/10/6 57/11/6
f 61/12/7 60/13/7 59/14/7
f 60/13/8 61/12/8 62/15/8
f 62/15/9 61/16/9 63/11/9
f 44/7/10 63/11/10 61/16/10
f 19/17/11 69/18/11 68/19/11
f 33/20/12 77/19/12 70/18/12
f 18/21/13 19/17/13 68/19/13
f 69/22/14 78/23/14 66/24/14
f 70/22/15 66/24/15 78/23/15
f 66/24/16 70/22/16 65/25/16
f 69/22/17 66/24/17 67/25/17
f 101/26/18 97/27/18 98/28/18
f 101/26/18 98/28/18 102/29/18
f 11/30/19 10/31/19 30/32/19
f 99/27/20 102/29/20 100/28/20
f 5/33/21 6/34/21 14/35/21
f 6/34/22 32/36/22 14/35/22
f 27/37/23 25/38/23 31/8/23
f 47/36/24 22/39/24 23/40/24
f 22/39/25 14/35/25 23/36/25
f 32/41/26 47/36/26 23/40/26
f 22/39/27 24/42/27 14/35/27
f 24/42/28 25/36/28 14/35/28
f 25/36/29 27/37/29 14/35/29
f 27/37/30 15/36/30 14/35/30
f 5/36/31 14/35/31 15/43/31
f 91/36/32 6/36/32 5/33/32
f 33/44/33 32/41/33 6/34/33
f 104/36/34 22/39/34 47/36/34
f 32/41/35 33/45/35 47/36/35
f 104/36/36 24/42/36 22/39/36
f 34/5/37 30/32/37 10/46/37
f 31/47/38 91/36/38 15/43/38
f 91/36/39 5/33/39 15/43/39
f 2/48/40 6/34/40 91/36/40
f 31/49/41 35/36/41 91/36/41
f 35/50/42 3/51/42 91/52/42
f 3/53/43 90/54/43 91/55/43
f 2/48/44 1/36/44 6/34/44
f 1/56/45 74/57/45 6/34/45
f 74/57/46 75/58/46 6/34/46
f 76/59/47 33/44/47 6/34/47
f 75/58/48 76/59/48 6/34/48
f 33/20/49 70/18/49 47/60/49
f 52/61/50 105/62/50 28/63/50
f 26/64/51 24/42/51 104/65/51
f 76/66/52 77/19/52 33/20/52
f 73/67/53 64/68/53 103/69/53
f 85/70/54 96/71/54 81/36/54
f 48/6/55 31/8/55 25/38/55
f 42/72/56 35/73/56 31/8/56
f 3/53/57 89/74/57 90/54/57
f 88/54/58 80/75/58 93/36/58
f 84/76/59 87/77/59 88/54/59
f 86/78/60 92/79/60 90/54/60
f 49/80/61 78/23/61 69/22/61
f 93/36/62 41/36/62 84/76/62
f 86/78/63 85/70/63 1/81/63
f 3/53/64 87/36/64 89/36/64
f 17/82/65 18/21/65 68/19/65
f 39/10/66 58/15/66 57/11/66
f 68/19/67 67/25/67 71/83/67
f 75/58/68 79/83/68 77/19/68
f 58/15/69 52/61/69 57/11/69
f 61/1/70 43/3/70 44/2/70
f 43/3/71 42/4/71 44/2/71
f 42/72/72 61/16/72 35/73/72
f 61/12/73 59/14/73 35/73/73
f 86/36/74 89/74/74 85/84/74
f 87/77/75 94/85/75 96/86/75
f 87/77/75 96/86/75 89/74/75
f 94/36/76 83/36/76 82/36/76
f 2/36/77 91/55/77 92/79/77
f 53/87/78 108/88/78 106/89/78
f 40/50/79 80/52/79 4/53/79
f 80/75/80 88/54/80 4/53/80
f 88/54/81 87/77/81 4/36/81
f 72/90/82 73/91/82 103/69/82
f 72/90/83 67/36/83 73/91/83
f 79/83/84 74/57/84 1/56/84
f 97/36/85 64/36/85 81/36/85
f 105/62/86 53/36/86 106/89/86
f 83/84/87 72/90/87 82/92/87
f 51/80/88 78/23/88 50/93/88
f 107/89/89 50/36/89 108/88/89
f 42/4/90 43/3/90 61/1/90
f 39/10/91 36/72/91 40/73/91
f 36/4/92 34/5/92 40/73/92
f 62/15/93 56/61/93 55/87/93
f 58/15/94 59/14/94 60/13/94
f 94/85/95 95/36/95 96/86/95
f 98/36/96 81/36/96 96/71/96
f 34/5/97 80/52/97 40/50/97
f 8/94/98 7/95/98 80/36/98
f 91/55/99 90/54/99 92/79/99
f 34/5/100 10/46/100 80/52/100
f 10/46/101 9/36/101 80/52/101
f 9/33/102 8/94/102 80/36/102
f 65/36/103 64/96/103 73/91/103
f 97/27/104 103/69/104 64/68/104
f 20/97/105 11/35/105 13/36/105
f 67/25/106 66/24/106 73/91/106
f 66/24/107 65/25/107 73/91/107
f 59/14/108 40/36/108 35/36/108
f 46/6/109 28/98/109 29/38/109
f 108/88/110 55/36/110 107/89/110
f 55/87/111 104/65/111 107/89/111
f 60/36/112 55/87/112 54/99/112
f 92/36/113 1/81/113 2/100/113
f 39/1/114 38/3/114 36/4/114
f 38/3/115 37/2/115 36/4/115
f 46/6/116 29/38/116 34/5/116
f 65/25/117 77/19/117 79/83/117
f 106/89/118 50/36/118 49/80/118
f 100/28/119 94/36/119 82/36/119
f 98/36/120 95/101/120 102/29/120
f 17/102/121 16/103/121 8/104/121
f 16/103/122 41/105/122 8/104/122
f 41/105/123 7/95/123 8/94/123
f 76/66/124 75/58/124 77/19/124
f 93/79/125 84/76/125 88/54/125
f 10/46/126 11/35/126 9/36/126
f 11/35/127 8/104/127 9/33/127
f 79/83/128 1/106/128 64/96/128
f 99/36/129 82/92/129 72/90/129
f 64/36/130 85/70/130 81/36/130
f 3/51/131 40/36/131 4/36/131
f 71/83/132 17/36/132 68/19/132
f 19/17/133 45/36/133 69/18/133
f 41/107/134 16/108/134 71/83/134
f 97/36/135 81/92/135 98/28/135
f 63/11/136 26/109/136 56/61/136
f 48/36/137 26/64/137 44/7/137
f 53/87/138 60/36/138 54/99/138
f 12/110/139 11/36/139 29/38/139
f 11/35/140 30/37/140 29/38/140
f 41/36/141 83/84/141 84/76/141
f 8/104/142 18/59/142 17/102/142
f 99/27/143 103/69/143 101/26/143
f 57/11/144 28/36/144 37/9/144
f 19/44/145 18/59/145 8/104/145
f 93/36/146 80/75/146 7/95/146
f 20/97/147 8/104/147 11/35/147
f 20/97/148 19/44/148 8/104/148
f 13/40/149 21/39/149 45/36/149
f 21/39/150 105/36/150 45/60/150
f 19/44/151 20/36/151 45/60/151
f 20/97/152 13/40/152 45/36/152
f 12/111/153 28/98/153 105/36/153
f 21/39/154 12/111/154 105/36/154
f 100/28/155 95/101/155 94/112/155
f 21/39/156 11/36/156 12/110/156
f 21/39/157 13/40/157 11/35/157
f 99/27/20 101/26/20 102/29/20
f 70/18/158 51/80/158 47/60/158
f 30/37/159 34/5/159 29/38/159
f 45/113/160 49/80/160 69/18/160
f 49/80/161 45/60/161 105/62/161
f 85/70/162 89/74/162 96/71/162
f 84/76/163 83/84/163 87/77/163
f 49/80/164 50/36/164 78/23/164
f 93/36/165 7/95/165 41/36/165
f 3/53/64 4/36/64 87/36/64
f 68/19/166 69/22/166 67/25/166
f 105/62/167 106/89/167 49/80/167
f 58/15/168 53/87/168 52/61/168
f 86/36/169 90/54/169 89/74/169
f 94/36/170 87/77/170 83/36/170
f 53/87/171 54/99/171 108/88/171
f 71/83/172 72/90/172 41/107/172
f 72/90/173 71/83/173 67/36/173
f 99/27/174 100/28/174 82/92/174
f 105/62/175 52/61/175 53/36/175
f 83/84/176 41/36/176 72/90/176
f 51/80/177 70/22/177 78/23/177
f 107/89/178 51/80/178 50/36/178
f 16/108/179 17/82/179 71/83/179
f 62/15/180 63/36/180 56/61/180
f 58/15/181 39/10/181 59/14/181
f 56/61/182 26/109/182 104/65/182
f 65/36/183 79/83/183 64/96/183
f 97/27/184 101/26/184 103/69/184
f 59/14/185 39/10/185 40/36/185
f 46/6/186 37/9/186 28/98/186
f 108/88/187 54/99/187 55/36/187
f 51/80/188 107/89/188 104/36/188
f 55/87/189 56/61/189 104/65/189
f 60/36/190 62/15/190 55/87/190
f 92/36/191 86/36/191 1/81/191
f 12/110/192 29/38/192 28/98/192
f 65/25/193 70/18/193 77/19/193
f 106/89/194 108/88/194 50/36/194
f 98/36/195 96/86/195 95/101/195
f 64/36/196 1/81/196 85/70/196
f 3/51/131 35/36/131 40/36/131
f 31/49/197 15/43/197 27/37/197
f 79/83/198 75/58/198 74/57/198
f 104/65/199 47/113/199 51/80/199
f 63/11/200 44/7/200 26/109/200
f 48/36/201 25/38/201 26/64/201
f 53/87/202 58/15/202 60/36/202
f 26/64/203 25/36/203 24/42/203
f 99/27/204 72/90/204 103/69/204
f 57/11/205 52/61/205 28/36/205
f 32/41/206 23/36/206 14/35/206
f 100/28/207 102/29/207 95/101/207
