# Blender 5.0.0
# www.blender.org
o shape11.050
v 17.837473 30.119511 31.294142
v 18.221560 29.325241 32.925297
v 16.788300 31.325235 31.796347
v 17.123741 30.264914 32.893372
v 19.592615 29.255585 33.151024
v 21.682953 29.320356 32.581566
v 23.030016 29.801825 31.184324
v 16.941971 30.845053 34.852806
v 19.010414 31.537088 34.796932
v 16.665522 31.836922 35.628548
v 18.562695 33.374737 35.199711
v 16.149815 33.561089 35.768608
v 17.658136 36.232353 34.672722
v 15.287736 36.489944 35.008408
v 17.491663 37.040462 33.889404
v 14.952791 37.470512 34.025307
v 17.568651 37.063576 33.011677
v 14.957771 37.453812 33.113312
v 18.003838 36.316368 31.976755
v 15.259715 36.440468 32.150681
v 19.346645 32.645885 31.547926
v 16.344877 32.741394 31.742645
v 19.529037 36.000465 33.184204
v 20.933409 32.644199 33.307903
vn 0.3168 -0.1288 0.9397
vn 0.2287 -0.0107 0.9734
vn 0.2404 0.2491 0.9382
vn 0.1652 0.2931 0.9417
vn 0.1740 0.7036 0.6889
vn 0.1587 0.7256 0.6696
vn 0.1690 0.9848 0.0408
vn 0.1471 0.9890 -0.0173
vn 0.1020 0.8264 -0.5538
vn -0.0151 0.6863 -0.7272
vn 0.5224 0.6465 0.5559
vn 0.6129 0.3267 0.7195
vn 0.6498 0.2977 0.6994
vn 0.6196 -0.0210 0.7846
vn -0.9580 -0.2865 0.0093
vn 0.4665 0.7985 -0.3804
vn 0.4713 0.8796 0.0645
vn -0.9582 -0.2855 0.0178
vn -0.9536 -0.3010 0.0007
vn -0.9571 -0.2885 0.0278
vn -0.6444 -0.7474 0.1615
vn -0.1334 -0.8194 0.5575
vn -0.0196 -0.9827 -0.1839
vn -0.0587 0.0946 -0.9938
vn -0.0368 -0.9334 -0.3571
vn -0.0118 0.1118 -0.9937
vn -0.0144 0.1084 -0.9940
vn -0.0642 -0.9031 -0.4246
vn 0.7182 0.0099 0.6958
vn 0.2216 -0.5327 0.8168
vn -0.9617 -0.2672 0.0611
vn 0.8595 0.3725 0.3499
vn -0.6316 -0.7452 -0.2141
vn -0.6164 -0.2217 -0.7556
vn 0.6863 -0.3022 0.6616
vn -0.9597 -0.2810 -0.0053
vn 0.1659 -0.5784 0.7987
vn -0.2148 0.0446 -0.9756
vn 0.5911 0.5300 -0.6080
vn -0.9543 -0.2988 0.0010
vn -0.9593 -0.2824 -0.0001
vn -0.0346 0.1203 -0.9921
vn -0.7782 -0.5534 -0.2970
vn 0.2642 -0.1487 0.9529
vt 0.888657 0.966700
vt 0.891070 0.972332
vt 0.900167 0.961317
vt 0.879993 0.974126
vt 0.870216 0.959522
vt 0.861305 0.963854
vt 0.865265 0.949002
vt 0.854931 0.950611
vt 0.865451 0.937183
vt 0.855055 0.938358
vt 0.870897 0.923321
vt 0.861552 0.925425
vt 0.877456 0.939720
vt 0.900229 0.941452
vt 0.000000 0.000000
vt 0.897382 0.961936
vt 0.894350 0.920784
vt 0.901157 0.935574
vt 0.911368 0.940091
vt 0.916628 0.943866
vt 0.923682 0.934831
vt 0.895216 0.917690
vt 0.925539 0.912306
vt 0.905179 0.913544
vt 0.885191 0.920041
s 0
f 11/1/1 10/2/1 9/3/1
f 10/2/2 11/1/2 12/4/2
f 13/5/3 12/4/3 11/1/3
f 12/4/4 13/5/4 14/6/4
f 15/7/5 14/6/5 13/5/5
f 14/6/6 15/7/6 16/8/6
f 17/9/7 16/8/7 15/7/7
f 16/8/8 17/9/8 18/10/8
f 19/11/9 18/10/9 17/9/9
f 18/10/10 19/11/10 20/12/10
f 15/7/11 13/5/11 23/13/11
f 11/1/12 23/13/12 13/5/12
f 23/13/13 11/1/13 24/14/13
f 9/3/14 24/14/14 11/1/14
f 16/8/15 22/15/15 8/16/15
f 23/13/16 19/11/16 17/9/16
f 15/7/17 23/13/17 17/9/17
f 12/4/18 16/15/18 8/16/18
f 3/17/19 4/18/19 8/16/19
f 10/2/20 12/4/20 8/16/20
f 8/16/21 4/18/21 2/19/21
f 5/20/22 8/15/22 2/19/22
f 5/20/23 2/19/23 6/21/23
f 21/22/24 20/12/24 19/11/24
f 6/21/25 2/15/25 7/23/25
f 21/22/26 19/11/26 7/23/26
f 1/24/27 21/15/27 7/23/27
f 2/19/28 1/24/28 7/23/28
f 24/15/29 6/21/29 7/23/29
f 10/2/30 5/20/30 9/3/30
f 14/6/31 16/8/31 12/4/31
f 23/13/32 24/14/32 7/23/32
f 4/18/33 1/24/33 2/19/33
f 3/17/34 22/25/34 1/24/34
f 5/20/35 24/15/35 9/3/35
f 18/10/36 20/12/36 22/25/36
f 10/2/37 8/16/37 5/20/37
f 22/25/38 20/12/38 1/24/38
f 19/11/39 23/13/39 7/23/39
f 22/25/40 3/17/40 8/16/40
f 16/8/41 18/10/41 22/15/41
f 21/22/42 1/24/42 20/12/42
f 4/18/43 3/17/43 1/24/43
f 5/20/44 6/21/44 24/15/44
o shape11.029
v 17.123741 -30.264914 32.893372
v 16.788296 -31.325237 31.796347
v 18.221560 -29.325241 32.925297
v 19.592615 -29.255585 33.151024
v 16.941969 -30.845051 34.852806
v 23.030016 -29.801825 31.184324
v 21.682953 -29.320356 32.581566
v 19.010414 -31.537088 34.796932
v 20.933407 -32.644199 33.307907
v 19.346645 -32.645885 31.547926
v 16.344881 -32.741394 31.742647
v 15.259716 -36.440468 32.150681
v 18.003839 -36.316368 31.976755
v 14.957771 -37.453815 33.113316
v 17.568653 -37.063576 33.011673
v 19.529036 -36.000462 33.184204
v 17.658133 -36.232353 34.672722
v 17.491667 -37.040462 33.889404
v 14.952789 -37.470512 34.025307
v 15.287734 -36.489944 35.008408
v 16.149815 -33.561085 35.768608
v 18.562695 -33.374737 35.199711
v 16.665518 -31.836922 35.628548
v 17.837473 -30.119511 31.294142
vn 0.1020 -0.8264 -0.5538
vn -0.0151 -0.6863 -0.7272
vn 0.4665 -0.7985 -0.3804
vn 0.5224 -0.6465 0.5559
vn 0.4713 -0.8796 0.0645
vn 0.1690 -0.9848 0.0408
vn 0.1587 -0.7256 0.6696
vn 0.1740 -0.7036 0.6889
vn 0.1652 -0.2931 0.9417
vn 0.2404 -0.2491 0.9382
vn 0.2287 0.0107 0.9734
vn 0.3168 0.1288 0.9397
vn 0.6196 0.0210 0.7846
vn 0.1471 -0.9890 -0.0173
vn -0.9593 0.2824 -0.0001
vn -0.0642 0.9031 -0.4246
vn -0.0368 0.9334 -0.3571
vn 0.7182 -0.0099 0.6958
vn 0.8595 -0.3725 0.3499
vn 0.5911 -0.5300 -0.6080
vn -0.0118 -0.1118 -0.9937
vn -0.0144 -0.1084 -0.9940
vn -0.7782 0.5534 -0.2970
vn -0.2148 -0.0446 -0.9756
vn -0.6164 0.2217 -0.7556
vn -0.6444 0.7474 0.1615
vn -0.1334 0.8194 0.5575
vn -0.0196 0.9827 -0.1839
vn -0.0587 -0.0946 -0.9938
vn 0.6863 0.3022 0.6616
vn -0.9536 0.3010 0.0007
vn -0.9597 0.2810 -0.0053
vn 0.6498 -0.2977 0.6994
vn -0.9543 0.2988 0.0010
vn -0.9582 0.2855 0.0178
vn -0.9571 0.2885 0.0278
vn 0.1659 0.5784 0.7987
vn 0.2216 0.5327 0.8168
vn -0.9617 0.2672 0.0611
vn -0.9580 0.2865 0.0093
vn -0.6316 0.7452 -0.2141
vn -0.0346 -0.1203 -0.9921
vn 0.2642 0.1487 0.9529
vn 0.6129 -0.3267 0.7195
vt 0.865451 0.937183
vt 0.855055 0.938358
vt 0.870897 0.923321
vt 0.861552 0.925425
vt 0.877456 0.939720
vt 0.865265 0.949002
vt 0.870216 0.959522
vt 0.854931 0.950611
vt 0.861305 0.963854
vt 0.879993 0.974126
vt 0.888657 0.966700
vt 0.891070 0.972332
vt 0.900167 0.961317
vt 0.900229 0.941452
vt 0.885191 0.920041
vt 0.905179 0.913544
vt 0.911368 0.940091
vt 0.925539 0.912306
vt 0.923682 0.934831
vt 0.000000 0.000000
vt 0.895216 0.917690
vt 0.901157 0.935574
vt 0.894350 0.920784
vt 0.897382 0.961936
vt 0.916628 0.943866
s 0
f 39/26/45 38/27/45 37/28/45
f 36/29/46 37/28/46 38/27/46
f 37/28/47 40/30/47 39/26/47
f 42/31/48 40/30/48 41/32/48
f 42/31/49 39/26/49 40/30/49
f 42/31/50 43/33/50 39/26/50
f 43/33/51 42/31/51 44/34/51
f 41/32/52 44/34/52 42/31/52
f 44/34/53 41/32/53 45/35/53
f 46/36/54 45/35/54 41/32/54
f 45/35/55 46/36/55 47/37/55
f 32/38/56 47/37/56 46/36/56
f 32/38/57 46/36/57 33/39/57
f 38/27/58 39/26/58 43/33/58
f 43/33/59 35/40/59 38/27/59
f 48/41/60 27/42/60 30/43/60
f 27/42/61 31/44/61 30/43/61
f 31/44/62 33/45/62 30/43/62
f 33/39/63 40/30/63 30/43/63
f 40/30/64 37/28/64 30/43/64
f 37/28/65 34/46/65 30/43/65
f 34/46/66 48/41/66 30/43/66
f 25/47/67 48/41/67 26/48/67
f 36/29/68 35/40/68 48/41/68
f 35/40/69 26/48/69 48/41/69
f 25/47/70 29/49/70 27/42/70
f 29/49/71 28/50/71 27/42/71
f 28/50/72 31/44/72 27/42/72
f 36/29/73 34/46/73 37/28/73
f 33/39/74 28/50/74 32/38/74
f 26/48/75 29/49/75 25/47/75
f 38/27/76 35/40/76 36/29/76
f 46/36/77 40/30/77 33/39/77
f 29/49/78 26/48/78 35/40/78
f 43/33/79 45/45/79 29/45/79
f 45/35/80 47/37/80 29/49/80
f 47/37/81 28/50/81 29/49/81
f 47/37/82 32/38/82 28/50/82
f 44/34/83 45/35/83 43/33/83
f 43/33/84 29/45/84 35/40/84
f 25/47/85 27/42/85 48/41/85
f 36/29/86 48/41/86 34/46/86
f 33/39/87 31/44/87 28/50/87
f 46/36/88 41/32/88 40/30/88
