# Blender 5.0.0
# www.blender.org
o shape4_callback_47_b0.002
v -82.625328 20.581705 40.677410
v -79.031563 29.190252 32.829193
v -90.001114 18.995308 40.355251
v -87.718353 26.892250 33.366322
v -89.883118 18.066368 40.331886
v -87.637276 25.955505 33.126907
v -82.740723 19.562969 40.548450
v -79.064949 28.335785 32.553791
vn -0.0440 -0.0308 0.9986
vn 0.0465 -0.0704 0.9964
vn -0.0214 -0.0314 0.9993
vn 0.9468 -0.1353 0.2919
vn 0.9536 -0.1423 0.2653
vn 0.9475 -0.1336 0.2904
vn 0.9502 -0.1398 0.2786
vn 0.9432 -0.1341 0.3038
vn 0.9496 -0.1411 0.2800
vn 0.1581 -0.6966 -0.6998
vn 0.1459 -0.6914 -0.7076
vn 0.1402 -0.6881 -0.7119
vn 0.1531 -0.6941 -0.7034
vn 0.1660 -0.6990 -0.6956
vn 0.1711 -0.7025 -0.6908
vn -0.1492 0.6776 0.7202
vn -0.1834 0.6991 0.6911
vn -0.1727 0.6779 0.7145
vn -0.9630 -0.0451 -0.2657
vn -0.9335 -0.0699 -0.3518
vn -0.9655 0.0281 -0.2591
vn -0.8685 -0.1525 -0.4717
vn -0.8682 -0.1474 -0.4739
vn -0.8976 -0.0853 -0.4325
vn -0.1499 0.2526 -0.9559
vn -0.1205 0.2467 -0.9616
vn -0.0892 0.2725 -0.9580
vn -0.0283 -0.1077 0.9938
vn -0.0012 -0.0984 0.9951
vn 0.0647 -0.1103 0.9918
vn -0.1327 0.6789 0.7222
vn -0.1453 0.7006 0.6986
vn -0.1672 0.7025 0.6918
vn -0.1673 0.3052 -0.9375
vn -0.1359 0.3056 -0.9424
vn -0.1253 0.3063 -0.9437
vt 0.297492 0.700090
vt 0.353706 0.700828
vt 0.354034 0.702221
vt 0.266681 0.612081
vt 0.296590 0.698615
vt 0.266353 0.612081
vt 0.334613 0.622488
vt 0.334777 0.621505
s 0
f 7/1/1 3/2/2 5/3/3
f 7/1/4 8/4/5 1/5/6
f 2/6/7 1/5/8 8/4/9
f 6/7/10 8/4/11 5/3/12
f 7/1/13 5/3/14 8/4/15
f 1/5/16 4/8/17 3/2/18
f 6/7/19 5/3/20 4/8/21
f 5/3/22 3/2/23 4/8/24
f 4/8/25 8/4/26 6/7/27
f 7/1/28 1/5/29 3/2/30
f 1/5/31 2/6/32 4/8/33
f 4/8/34 2/6/35 8/4/36
o shape4_callback_47_b0.003
v -81.988525 -22.760168 38.038776
v -86.373657 -21.132500 38.072731
v -87.134918 -12.376065 38.303761
v -87.699677 0.000000 38.486286
v -87.134918 12.376065 38.303764
v -81.988525 22.760168 38.038776
v -86.373657 21.132500 38.072731
v -87.603996 19.360971 39.665371
v -88.269279 12.470524 39.971054
v -88.972206 0.000000 40.090675
v -88.269279 -12.470524 39.971054
v -87.603996 -19.360971 39.665371
v -86.370110 -20.710806 38.644581
v -86.370110 20.710806 38.644581
vn -0.8250 0.0411 -0.5636
vn -0.7832 0.0266 -0.6212
vn -0.8241 -0.0546 -0.5638
vn -0.8194 -0.0562 -0.5705
vn -0.8257 -0.0294 -0.5634
vn -0.2819 -0.7714 0.5706
vn -0.2454 -0.7174 0.6520
vn 0.2688 -0.0168 0.9630
vn 0.1678 -0.0000 0.9858
vn -0.8241 0.0546 -0.5638
vn -0.2904 -0.0000 -0.9569
vn -0.3608 0.7495 0.5549
vn -0.8194 0.0562 -0.5705
vn 0.2940 -0.0000 0.9558
vn 0.2688 0.0168 0.9630
vn -0.2454 0.7174 0.6520
vn -0.2819 0.7714 0.5706
vn -0.3075 -0.0000 -0.9515
vn -0.3608 -0.7495 0.5549
vn -0.0077 -0.0000 -1.0000
vn -0.7829 -0.0382 -0.6210
vt 0.820476 0.863351
vt 0.823760 0.871139
vt 0.938800 0.862600
vt 0.938800 0.868183
vt 0.755168 0.864899
vt 0.753573 0.870998
vt 0.747192 0.895442
vt 0.000000 0.000000
s 0
f 17/9/37 13/10/37 18/11/37
f 12/12/38 18/11/38 13/10/38
f 19/9/39 11/10/39 20/13/39
f 10/14/40 20/13/40 11/10/40
f 19/9/41 12/12/41 11/10/41
f 21/14/42 10/14/42 9/15/42
f 20/13/43 21/14/43 9/15/43
f 19/9/44 20/13/44 9/16/44
f 18/11/45 19/9/45 17/16/45
f 13/10/46 17/9/46 16/13/46
f 10/14/47 13/16/47 15/14/47
f 10/14/47 11/10/47 13/16/47
f 16/13/48 22/14/48 15/14/48
f 13/10/49 16/13/49 15/14/49
f 17/16/50 9/16/50 14/15/50
f 17/16/50 19/16/50 9/16/50
f 16/13/51 17/9/51 14/15/51
f 22/14/52 16/13/52 14/15/52
f 15/14/53 22/14/53 14/15/53
f 11/10/54 12/12/54 13/10/54
f 21/14/55 20/13/55 10/14/55
f 14/15/56 10/14/56 15/16/56
f 19/9/57 18/11/57 12/12/57
f 14/15/56 9/15/56 10/14/56
o shape4_callback_47_b0.004
v -87.383545 -10.578451 35.271988
v -87.481575 -10.174920 38.799404
v -87.334038 -9.526853 35.290840
v -87.483757 -9.170536 38.736588
v -83.321228 -10.062760 35.568340
v -84.541084 -9.601748 38.749401
v -83.370445 -11.051266 35.526894
v -84.647377 -10.524904 38.798077
vn 0.1644 0.9817 -0.0963
vn 0.1532 0.9836 -0.0950
vn 0.0619 0.9764 -0.2070
vn 0.1980 0.9648 -0.1730
vn 0.0156 0.9918 -0.1265
vn 0.1559 0.9847 -0.0772
vn 0.8952 0.0432 0.4435
vn 0.9499 -0.1247 0.2866
vn 0.9160 -0.0737 0.3943
vn 0.9316 -0.0117 0.3632
vn 0.9115 -0.1098 0.3964
vn 0.8986 -0.1836 0.3986
vn 0.0117 -0.1069 -0.9942
vn 0.0927 -0.6405 -0.7624
vn 0.0674 -0.0117 -0.9977
vn -0.0960 0.0546 0.9939
vn -0.3833 0.5008 0.7761
vn -0.0676 0.0672 0.9954
vn -0.9999 0.0006 -0.0170
vn -0.7940 -0.6058 -0.0496
vn -0.9984 0.0026 -0.0560
vn -0.0994 -0.9943 0.0388
vn -0.1667 -0.7707 -0.6150
vn -0.1467 -0.9855 0.0858
vn 0.1595 -0.0602 -0.9854
vn 0.0914 0.0629 -0.9938
vn -0.2990 -0.5197 -0.8003
vn -0.0896 0.1029 0.9906
vn -0.0041 0.0503 0.9987
vn -0.5924 -0.0339 0.8049
vn -0.9990 0.0450 -0.0069
vn -0.7477 -0.6602 0.0715
vn -0.8320 -0.4482 0.3270
vn -0.1709 -0.9840 0.0514
vn -0.1402 -0.7161 0.6838
vn 0.3566 -0.8167 -0.4537
vt 0.745597 0.863726
vt 0.767836 0.909376
vt 0.667809 0.857768
vt 0.703091 0.908156
vt 0.667434 0.857768
vt 0.702059 0.907312
vt 0.745785 0.863163
vt 0.767460 0.908579
s 0
f 25/17/58 26/18/59 27/19/60
f 28/20/61 27/19/62 26/18/63
f 27/19/64 28/20/65 29/21/66
f 30/22/67 29/21/68 28/20/69
f 27/19/70 23/23/71 25/17/72
f 28/20/73 24/24/74 30/22/75
f 25/17/76 24/24/77 26/18/78
f 30/22/79 23/23/80 29/21/81
f 27/19/82 29/21/83 23/23/84
f 28/20/85 26/18/86 24/24/87
f 25/17/88 23/23/89 24/24/90
f 30/22/91 24/24/92 23/23/93
o shape4_callback_47_b0.005
v -87.470352 10.192442 38.795826
v -87.388519 10.562164 35.234138
v -87.490448 9.187762 38.750687
v -87.323296 9.511328 35.269691
v -84.542030 9.594678 38.743618
v -83.317757 10.069684 35.539120
v -84.640610 10.516694 38.801285
v -83.375107 11.058372 35.502930
vn -0.9996 0.0209 -0.0208
vn -0.9965 -0.0637 -0.0538
vn 0.0708 -0.0324 -0.9970
vn -0.1133 0.9865 0.1185
vn -0.1287 0.9867 0.0995
vn 0.0052 -0.0619 0.9981
vn 0.9276 0.0763 0.3657
vn 0.1435 -0.9854 -0.0912
vn 0.0712 -0.0293 -0.9970
vn 0.0086 -0.0451 0.9989
vn 0.9278 0.0672 0.3670
vn 0.1360 -0.9870 -0.0852
vt 0.767460 0.908579
vt 0.745785 0.863163
vt 0.767836 0.909376
vt 0.745597 0.863726
vt 0.667809 0.857768
vt 0.667434 0.857768
vt 0.702059 0.907312
vt 0.703091 0.908156
s 0
f 31/25/94 32/26/94 33/27/94
f 34/28/95 33/27/95 32/26/95
f 36/29/96 32/26/96 38/30/96
f 37/31/97 38/30/97 31/25/97
f 32/26/98 31/25/98 38/30/98
f 31/25/99 35/32/99 37/31/99
f 36/29/100 37/31/100 35/32/100
f 35/32/101 34/28/101 36/29/101
f 36/29/102 34/28/102 32/26/102
f 31/25/103 33/27/103 35/32/103
f 36/29/104 38/30/104 37/31/104
f 35/32/105 33/27/105 34/28/105
o shape4_callback_47_b0.006
v -82.625328 -20.581703 40.677410
v -90.001114 -18.995308 40.355251
v -79.031563 -29.190252 32.829193
v -87.718353 -26.892250 33.366322
v -89.883118 -18.066368 40.331886
v -87.637276 -25.955505 33.126907
v -79.064949 -28.335785 32.553791
v -82.740723 -19.562965 40.548450
vn 0.0465 0.0704 0.9964
vn -0.0440 0.0308 0.9986
vn -0.1071 0.0167 0.9941
vn 0.9502 0.1398 0.2786
vn 0.9496 0.1411 0.2800
vn 0.9432 0.1341 0.3039
vn 0.9468 0.1353 0.2919
vn 0.9475 0.1336 0.2905
vn 0.9536 0.1423 0.2653
vn 0.1531 0.6941 -0.7034
vn 0.1711 0.7025 -0.6908
vn 0.1659 0.6990 -0.6956
vn 0.1581 0.6966 -0.6998
vn 0.1401 0.6881 -0.7120
vn 0.1459 0.6914 -0.7076
vn -0.1327 -0.6789 0.7222
vn -0.1672 -0.7025 0.6918
vn -0.1453 -0.7006 0.6986
vn -0.8682 0.1474 -0.4739
vn -0.8684 0.1525 -0.4718
vn -0.8976 0.0853 -0.4325
vn -0.9335 0.0699 -0.3518
vn -0.9562 -0.0484 -0.2886
vn -0.9655 -0.0281 -0.2591
vn -0.1205 -0.2467 -0.9616
vn -0.1499 -0.2526 -0.9559
vn -0.1195 -0.2506 -0.9607
vn 0.0647 0.1103 0.9918
vn -0.0035 0.1179 0.9930
vn -0.0283 0.1077 0.9938
vn -0.1492 -0.6776 0.7202
vn -0.1726 -0.6779 0.7146
vn -0.1834 -0.6991 0.6911
vn -0.1253 -0.3063 -0.9436
vn -0.1539 -0.3135 -0.9371
vn -0.1673 -0.3052 -0.9375
vt 0.353706 0.700828
vt 0.297492 0.700090
vt 0.354034 0.702221
vt 0.266353 0.612081
vt 0.266681 0.612081
vt 0.296590 0.698615
vt 0.334613 0.622488
vt 0.334777 0.621505
s 0
f 40/33/106 46/34/107 43/35/108
f 41/36/109 45/37/110 39/38/111
f 46/34/112 39/38/113 45/37/114
f 46/34/115 45/37/116 43/35/117
f 44/39/118 43/35/119 45/37/120
f 39/38/121 42/40/122 41/36/123
f 40/33/124 43/35/125 42/40/126
f 43/35/127 44/39/128 42/40/129
f 45/37/130 42/40/131 44/39/132
f 40/33/133 39/38/134 46/34/135
f 39/38/136 40/33/137 42/40/138
f 45/37/139 41/36/140 42/40/141
