# Blender 5.0.0
# www.blender.org
o shape4_callback_47_b0.002
v -82.625328 20.581705 40.677410
v -79.031563 29.190252 32.829193
v -90.001114 18.995308 40.355251
v -87.718353 26.892250 33.366322
v -89.883118 18.066368 40.331886
v -87.637276 25.955505 33.126907
v -82.740723 19.562969 40.548450
v -79.064949 28.335785 32.553791
vn 0.9468 -0.1353 0.2919
vn 0.9536 -0.1423 0.2653
vn 0.9475 -0.1336 0.2904
vn 0.9502 -0.1398 0.2786
vn 0.9432 -0.1341 0.3038
vn 0.9496 -0.1411 0.2800
vn -0.1672 0.7025 0.6918
vn -0.1327 0.6789 0.7222
vn -0.1453 0.7006 0.6986
vn -0.9630 -0.0451 -0.2657
vn -0.9335 -0.0699 -0.3518
vn -0.9655 0.0281 -0.2591
vn -0.8685 -0.1525 -0.4717
vn -0.8682 -0.1474 -0.4739
vn -0.8976 -0.0853 -0.4325
vn 0.1469 -0.6970 -0.7019
vn 0.1504 -0.6998 -0.6983
vn 0.1628 -0.7064 -0.6888
vn 0.0647 -0.1104 0.9918
vn -0.0283 -0.1077 0.9938
vn -0.0012 -0.0984 0.9951
vn -0.1253 0.3063 -0.9437
vn -0.1673 0.3052 -0.9375
vn -0.1359 0.3057 -0.9424
vn -0.1834 0.6991 0.6911
vn -0.1727 0.6779 0.7145
vn -0.1492 0.6776 0.7202
vn 0.1630 -0.6898 -0.7054
vn 0.1507 -0.6832 -0.7145
vn 0.1665 -0.6926 -0.7018
vn 0.0465 -0.0703 0.9964
vn -0.0214 -0.0314 0.9993
vn -0.0440 -0.0308 0.9986
vn -0.1205 0.2467 -0.9616
vn -0.0893 0.2725 -0.9580
vn -0.1499 0.2526 -0.9559
vt 0.297492 0.700090
vt 0.266681 0.612081
vt 0.296590 0.698615
vt 0.266353 0.612081
vt 0.334777 0.621505
vt 0.334613 0.622488
vt 0.354034 0.702221
vt 0.353706 0.700828
s 0
f 7/1/1 8/2/2 1/3/3
f 2/4/4 1/3/5 8/2/6
f 4/5/7 1/3/8 2/4/9
f 6/6/10 5/7/11 4/5/12
f 5/7/13 3/8/14 4/5/15
f 7/1/16 6/6/17 8/2/18
f 3/8/19 7/1/20 1/3/21
f 8/2/22 4/5/23 2/4/24
f 4/5/25 3/8/26 1/3/27
f 7/1/28 5/7/29 6/6/30
f 3/8/31 5/7/32 7/1/33
f 8/2/34 6/6/35 4/5/36
o shape4_callback_47_b0.003
v -81.988525 -22.760168 38.038776
v -86.373657 -21.132500 38.072731
v -87.134918 -12.376065 38.303761
v -87.699677 0.000000 38.486286
v -87.134918 12.376065 38.303764
v -81.988525 22.760168 38.038776
v -86.373657 21.132500 38.072731
v -87.603996 19.360971 39.665371
v -88.269279 12.470524 39.971054
v -88.972206 0.000000 40.090675
v -88.269279 -12.470524 39.971054
v -87.603996 -19.360971 39.665371
v -86.370110 -20.710806 38.644581
v -86.370110 20.710806 38.644581
vn -0.8250 0.0411 -0.5636
vn -0.7832 0.0266 -0.6212
vn -0.8241 -0.0546 -0.5638
vn -0.8194 -0.0562 -0.5705
vn -0.8257 -0.0294 -0.5634
vn -0.2819 -0.7714 0.5706
vn -0.2454 -0.7174 0.6520
vn 0.2688 -0.0168 0.9630
vn 0.1678 -0.0000 0.9858
vn -0.8241 0.0546 -0.5638
vn -0.2904 -0.0000 -0.9569
vn -0.3608 0.7495 0.5549
vn -0.8194 0.0562 -0.5705
vn 0.2940 -0.0000 0.9558
vn 0.2688 0.0168 0.9630
vn -0.2454 0.7174 0.6520
vn -0.2819 0.7714 0.5706
vn -0.3075 -0.0000 -0.9515
vn -0.3608 -0.7495 0.5549
vn -0.0077 -0.0000 -1.0000
vn -0.7829 -0.0382 -0.6210
vt 0.820476 0.863351
vt 0.823760 0.871139
vt 0.938800 0.862600
vt 0.938800 0.868183
vt 0.755168 0.864899
vt 0.753573 0.870998
vt 0.747192 0.895442
vt 0.000000 0.000000
s 0
f 17/9/37 13/10/37 18/11/37
f 12/12/38 18/11/38 13/10/38
f 19/9/39 11/10/39 20/13/39
f 10/14/40 20/13/40 11/10/40
f 19/9/41 12/12/41 11/10/41
f 21/14/42 10/14/42 9/15/42
f 20/13/43 21/14/43 9/15/43
f 19/9/44 20/13/44 9/16/44
f 18/11/45 19/9/45 17/16/45
f 13/10/46 17/9/46 16/13/46
f 10/14/47 13/16/47 15/14/47
f 10/14/47 11/10/47 13/16/47
f 16/13/48 22/14/48 15/14/48
f 13/10/49 16/13/49 15/14/49
f 17/16/50 9/16/50 14/15/50
f 17/16/50 19/16/50 9/16/50
f 16/13/51 17/9/51 14/15/51
f 22/14/52 16/13/52 14/15/52
f 15/14/53 22/14/53 14/15/53
f 11/10/54 12/12/54 13/10/54
f 21/14/55 20/13/55 10/14/55
f 14/15/56 10/14/56 15/16/56
f 19/9/57 18/11/57 12/12/57
f 14/15/56 9/15/56 10/14/56
o shape4_callback_47_b0.004
v -87.383545 -10.578451 35.271988
v -87.481575 -10.174920 38.799404
v -87.334038 -9.526853 35.290840
v -87.483757 -9.170536 38.736588
v -83.321228 -10.062760 35.568340
v -84.541084 -9.601748 38.749401
v -83.370445 -11.051266 35.526894
v -84.647377 -10.524904 38.798077
vn 0.3567 -0.8166 -0.4538
vn -0.1708 -0.9840 0.0514
vn -0.1402 -0.7160 0.6839
vn 0.1074 0.9761 -0.1890
vn 0.1643 0.9830 -0.0814
vn 0.1597 0.9839 -0.0803
vn -0.8319 -0.4483 0.3271
vn -0.9990 0.0450 -0.0069
vn -0.7475 -0.6604 0.0715
vn -0.2991 -0.5198 -0.8002
vn 0.1594 -0.0601 -0.9854
vn 0.0913 0.0629 -0.9938
vn 0.9319 -0.0247 0.3618
vn 0.9102 0.0474 0.4115
vn 0.8972 -0.1959 0.3958
vn -0.5925 -0.0339 0.8048
vn -0.0895 0.1028 0.9907
vn -0.0041 0.0503 0.9987
vn -0.1667 -0.7706 -0.6151
vn -0.1467 -0.9855 0.0858
vn -0.0994 -0.9943 0.0388
vn 0.1992 0.9655 -0.1675
vn 0.0593 0.9771 -0.2043
vn 0.1614 0.9823 -0.0947
vn -0.7939 -0.6060 -0.0496
vn -0.9984 0.0026 -0.0560
vn -0.9999 0.0006 -0.0170
vn 0.0927 -0.6406 -0.7623
vn 0.0674 -0.0117 -0.9977
vn 0.0117 -0.1067 -0.9942
vn 0.9483 -0.0537 0.3129
vn 0.9162 -0.0615 0.3960
vn 0.8839 0.0358 0.4663
vn -0.3833 0.5009 0.7760
vn -0.0676 0.0672 0.9954
vn -0.0958 0.0546 0.9939
vt 0.745785 0.863163
vt 0.702059 0.907312
vt 0.767460 0.908579
vt 0.703091 0.908156
vt 0.745597 0.863726
vt 0.767836 0.909376
vt 0.667809 0.857768
vt 0.667434 0.857768
s 0
f 23/17/58 30/18/59 24/19/60
f 28/20/61 25/21/62 26/22/63
f 24/19/64 25/21/65 23/17/66
f 23/17/67 27/23/68 29/24/69
f 30/18/70 27/23/71 28/20/72
f 24/19/73 28/20/74 26/22/75
f 23/17/76 29/24/77 30/18/78
f 28/20/79 27/23/80 25/21/81
f 24/19/82 26/22/83 25/21/84
f 23/17/85 25/21/86 27/23/87
f 30/18/88 29/24/89 27/23/90
f 24/19/91 30/18/92 28/20/93
o shape4_callback_47_b0.005
v -87.470352 10.192442 38.795826
v -87.388519 10.562164 35.234138
v -87.490448 9.187762 38.750687
v -87.323296 9.511328 35.269691
v -84.542030 9.594678 38.743618
v -83.317757 10.069684 35.539120
v -84.640610 10.516694 38.801285
v -83.375107 11.058372 35.502930
vn 0.1360 -0.9870 -0.0852
vn 0.0086 -0.0451 0.9989
vn 0.9278 0.0672 0.3670
vn -0.9976 -0.0629 -0.0295
vn -0.1293 0.9852 0.1122
vn 0.0712 -0.0293 -0.9970
vn 0.1435 -0.9854 -0.0912
vn 0.0052 -0.0619 0.9981
vn 0.9276 0.0763 0.3657
vn -0.9987 0.0220 -0.0459
vn -0.1135 0.9885 0.1000
vn 0.0708 -0.0324 -0.9970
vt 0.745597 0.863726
vt 0.703091 0.908156
vt 0.767836 0.909376
vt 0.767460 0.908579
vt 0.702059 0.907312
vt 0.667809 0.857768
vt 0.667434 0.857768
vt 0.745785 0.863163
s 0
f 34/25/94 35/26/94 33/27/94
f 35/26/95 31/28/95 33/27/95
f 37/29/96 36/30/96 38/31/96
f 34/25/97 31/28/97 32/32/97
f 32/32/98 37/29/98 38/31/98
f 32/32/99 36/30/99 34/25/99
f 34/25/100 36/30/100 35/26/100
f 35/26/101 37/29/101 31/28/101
f 37/29/102 35/26/102 36/30/102
f 34/25/103 33/27/103 31/28/103
f 32/32/104 31/28/104 37/29/104
f 32/32/105 38/31/105 36/30/105
o shape4_callback_47_b0.006
v -82.625328 -20.581703 40.677410
v -90.001114 -18.995308 40.355251
v -79.031563 -29.190252 32.829193
v -87.718353 -26.892250 33.366322
v -89.883118 -18.066368 40.331886
v -87.637276 -25.955505 33.126907
v -79.064949 -28.335785 32.553791
v -82.740723 -19.562965 40.548450
vn 0.9502 0.1398 0.2786
vn 0.9496 0.1411 0.2800
vn 0.9432 0.1341 0.3039
vn 0.9468 0.1353 0.2919
vn 0.9475 0.1336 0.2905
vn 0.9536 0.1423 0.2653
vn -0.1834 -0.6991 0.6911
vn -0.1492 -0.6776 0.7202
vn -0.1726 -0.6779 0.7146
vn -0.8682 0.1474 -0.4739
vn -0.8684 0.1525 -0.4718
vn -0.8976 0.0853 -0.4325
vn -0.9335 0.0699 -0.3518
vn -0.9562 -0.0484 -0.2886
vn -0.9655 -0.0281 -0.2591
vn 0.1504 0.6998 -0.6983
vn 0.1469 0.6970 -0.7019
vn 0.1377 0.6953 -0.7054
vn -0.0283 0.1077 0.9938
vn 0.0647 0.1104 0.9918
vn -0.0035 0.1179 0.9930
vn -0.1673 -0.3052 -0.9375
vn -0.1254 -0.3063 -0.9436
vn -0.1539 -0.3135 -0.9370
vn -0.1672 -0.7025 0.6918
vn -0.1453 -0.7006 0.6986
vn -0.1327 -0.6789 0.7222
vn 0.1665 0.6926 -0.7018
vn 0.1762 0.6939 -0.6982
vn 0.1630 0.6898 -0.7054
vn -0.0440 0.0308 0.9986
vn -0.1070 0.0167 0.9941
vn 0.0465 0.0704 0.9964
vn -0.1499 -0.2526 -0.9559
vn -0.1195 -0.2506 -0.9607
vn -0.1206 -0.2467 -0.9616
vt 0.266353 0.612081
vt 0.266681 0.612081
vt 0.296590 0.698615
vt 0.297492 0.700090
vt 0.334777 0.621505
vt 0.353706 0.700828
vt 0.354034 0.702221
vt 0.334613 0.622488
s 0
f 41/33/106 45/34/107 39/35/108
f 46/36/109 39/35/110 45/34/111
f 42/37/112 39/35/113 40/38/114
f 40/38/115 43/39/116 42/37/117
f 43/39/118 44/40/119 42/37/120
f 44/40/121 46/36/122 45/34/123
f 46/36/124 40/38/125 39/35/126
f 42/37/127 45/34/128 41/33/129
f 42/37/130 41/33/131 39/35/132
f 44/40/133 43/39/134 46/36/135
f 46/36/136 43/39/137 40/38/138
f 42/37/139 44/40/140 45/34/141
