# Blender 5.0.0
# www.blender.org
o shape2_callback_13_b0.001
v -5.787679 -3.149600 -2.622040
v -6.269103 -3.149600 -1.034730
v -4.911836 -3.149600 -4.030662
v -6.323296 -3.149600 0.623095
v -3.701254 -3.149600 -5.164598
v -5.946568 -3.149600 2.238455
v -2.238441 -3.149600 -5.946579
v -5.164586 -3.149600 3.701271
v -0.623079 -3.149600 -6.323308
v -4.030647 -3.149600 4.911849
v 1.034746 -3.149600 -6.269112
v -2.622027 -3.149600 5.787693
v 2.622056 -3.149600 -5.787691
v -1.034718 -3.149600 6.269119
v 4.030678 -3.149600 -4.911848
v 0.623107 -3.149600 6.323310
v 5.164614 -3.149600 -3.701268
v 2.238467 -3.149600 5.946579
v 5.946596 -3.149600 -2.238453
v 3.701282 -3.149600 5.164602
v 6.323324 -3.149600 -0.623090
v 4.911864 -3.149600 4.030664
v 6.269131 -3.149600 1.034735
v 5.787707 -3.149600 2.622042
v 3.701282 -3.874682 5.164602
v 3.701282 -3.149600 5.164602
v 2.238467 -3.874682 5.946579
v 2.238467 -3.149600 5.946579
v 0.623107 -3.874682 6.323310
v 0.623107 -3.149600 6.323310
v -1.034718 -3.874682 6.269119
v -1.034718 -3.149600 6.269119
v -2.622027 -3.874682 5.787693
v -2.622027 -3.149600 5.787693
v -4.030647 -3.874682 4.911849
v -4.030647 -3.149600 4.911849
v -5.164586 -3.874682 3.701271
v -5.164586 -3.149600 3.701271
v -5.946568 -3.874682 2.238455
v -5.946568 -3.149600 2.238455
v -6.323296 -3.874682 0.623095
v -6.323296 -3.149600 0.623095
v -6.269103 -3.874682 -1.034730
v -6.269103 -3.149600 -1.034730
v -5.787679 -3.874682 -2.622040
v -5.787679 -3.149600 -2.622040
v -4.911836 -3.874682 -4.030662
v -4.911836 -3.149600 -4.030662
v -3.701254 -3.874682 -5.164598
v -3.701254 -3.149600 -5.164598
v -2.238441 -3.874682 -5.946579
v -2.238441 -3.149600 -5.946579
v -0.623079 -3.874682 -6.323308
v -0.623079 -3.149600 -6.323308
v 1.034746 -3.874682 -6.269112
v 1.034746 -3.149600 -6.269112
v 2.622056 -3.874682 -5.787691
v 2.622056 -3.149600 -5.787691
v 4.030678 -3.874682 -4.911848
v 4.030678 -3.149600 -4.911848
v 5.164614 -3.874682 -3.701268
v 5.164614 -3.149600 -3.701268
v 5.946596 -3.874682 -2.238453
v 5.946596 -3.149600 -2.238453
v 6.323324 -3.874682 -0.623090
v 6.323324 -3.149600 -0.623090
v 6.269131 -3.874682 1.034735
v 6.269131 -3.149600 1.034735
v 5.787707 -3.874682 2.622042
v 5.787707 -3.149600 2.622042
v 4.911864 -3.874682 4.030664
v 4.911864 -3.149600 4.030664
v 3.701282 -3.874682 5.164602
v 3.701282 -3.149600 5.164602
v -1.113612 -2.331925 1.297982
v -2.887644 -2.896117 3.365755
v -0.602520 -2.331925 1.600574
v -1.562345 -2.896117 4.150402
v -0.018757 -2.331925 1.710118
v -0.048604 -2.896117 4.434452
v 0.567266 -2.331925 1.613393
v 1.470997 -2.896117 4.183637
v 1.084866 -2.331925 1.322068
v 2.813171 -2.896117 3.428213
v 1.471613 -2.331925 0.871286
v 3.816033 -2.896117 2.259300
v 1.680858 -2.331925 0.315414
v 4.358621 -2.896117 0.817884
v 1.687365 -2.331925 -0.278503
v 4.375495 -2.896117 -0.722186
v 1.490348 -2.331925 -0.838826
v 3.864615 -2.896117 -2.175145
v 1.113571 -2.331925 -1.297974
v 2.887605 -2.896117 -3.365752
v 0.602478 -2.331925 -1.600567
v 1.562302 -2.896117 -4.150394
v 0.018715 -2.331925 -1.710108
v 0.048562 -2.896117 -4.434443
v -0.567307 -2.331925 -1.613382
v -1.471035 -2.896117 -4.183630
v -1.084907 -2.331925 -1.322059
v -2.813209 -2.896117 -3.428205
v -1.471653 -2.331925 -0.871276
v -3.816072 -2.896117 -2.259292
v -1.680898 -2.331925 -0.315405
v -4.358658 -2.896117 -0.817876
v -1.687406 -2.331925 0.278511
v -4.375535 -2.896117 0.722192
v -1.490389 -2.331925 0.838835
v -3.864655 -2.896117 2.175152
v -1.113612 -2.331925 1.297982
v -2.887644 -2.896117 3.365755
v 3.816033 -2.896117 2.259300
v 3.816033 -3.149600 2.259300
v 4.358621 -2.896117 0.817884
v 4.358621 -3.149600 0.817884
v 4.375495 -2.896117 -0.722186
v 4.375495 -3.149600 -0.722186
v 3.864615 -2.896117 -2.175145
v 3.864616 -3.149600 -2.175145
v 2.887605 -2.896117 -3.365752
v 2.887605 -3.149600 -3.365752
v 1.562302 -2.896117 -4.150394
v 1.562302 -3.149600 -4.150394
v 0.048562 -2.896117 -4.434443
v 0.048562 -3.149600 -4.434443
v -1.471035 -2.896117 -4.183630
v -1.471035 -3.149600 -4.183630
v -2.813209 -2.896117 -3.428205
v -2.813209 -3.149600 -3.428205
v -3.816072 -2.896117 -2.259292
v -3.816072 -3.149600 -2.259292
v -4.358658 -2.896117 -0.817876
v -4.358661 -3.149600 -0.817876
v -4.375535 -2.896117 0.722192
v -4.375535 -3.149600 0.722192
v -3.864655 -2.896117 2.175152
v -3.864655 -3.149600 2.175152
v -2.887644 -2.896117 3.365755
v -2.887644 -3.149600 3.365755
v -1.562345 -2.896117 4.150402
v -1.562345 -3.149600 4.150402
v -0.048604 -2.896117 4.434452
v -0.048604 -3.149600 4.434452
v 1.470997 -2.896117 4.183637
v 1.470997 -3.149600 4.183637
v 2.813171 -2.896117 3.428213
v 2.813171 -3.149600 3.428213
v 3.816033 -2.896117 2.259300
v 3.816033 -3.149600 2.259300
v 1.798719 -1.508976 0.337525
v 1.805683 -1.508976 -0.298032
v 1.574803 -1.508976 0.932370
v 1.594851 -1.508976 -0.897641
v 1.160941 -1.508976 1.414758
v 1.191660 -1.508976 -1.388980
v 0.607052 -1.508976 1.726506
v 0.644732 -1.508976 -1.712786
v -0.020058 -1.508976 1.830013
v 0.020041 -1.508976 -1.830008
v -0.644750 -1.508976 1.712790
v -0.607068 -1.508976 -1.726503
v -1.191675 -1.508976 1.388981
v -1.160958 -1.508976 -1.414753
v -1.594868 -1.508976 0.897643
v -1.574820 -1.508976 -0.932366
v -1.805698 -1.508976 0.298035
v -1.798734 -1.508976 -0.337521
v -1.594868 -3.088837 0.897643
v -1.594868 -1.508976 0.897643
v -1.805698 -3.088837 0.298035
v -1.805698 -1.508976 0.298035
v -1.798734 -3.088837 -0.337521
v -1.798734 -1.508976 -0.337521
v -1.574820 -3.088837 -0.932366
v -1.574820 -1.508976 -0.932366
v -1.160958 -3.088837 -1.414753
v -1.160958 -1.508976 -1.414753
v -0.607068 -3.088837 -1.726503
v -0.607068 -1.508976 -1.726503
v 0.020041 -3.088837 -1.830008
v 0.020041 -1.508976 -1.830008
v 0.644732 -3.088837 -1.712786
v 0.644732 -1.508976 -1.712786
v 1.191660 -3.088837 -1.388980
v 1.191660 -1.508976 -1.388980
v 1.594853 -3.088837 -0.897641
v 1.594851 -1.508976 -0.897641
v 1.805683 -3.088837 -0.298032
v 1.805683 -1.508976 -0.298032
v 1.798719 -3.088837 0.337525
v 1.798719 -1.508976 0.337525
v 1.574803 -3.088837 0.932370
v 1.574803 -1.508976 0.932370
v 1.160941 -3.088837 1.414758
v 1.160941 -1.508976 1.414758
v 0.607052 -3.088837 1.726506
v 0.607052 -1.508976 1.726506
v -0.020058 -3.088837 1.830013
v -0.020058 -1.508976 1.830013
v -0.644750 -3.088837 1.712790
v -0.644750 -1.508976 1.712790
v -1.191675 -3.088837 1.388981
v -1.191675 -1.508976 1.388981
v -1.594868 -3.088837 0.897643
v -1.594868 -1.508976 0.897643
vn -0.0000 1.0000 -0.0000
vn 0.5825 -0.0000 0.8128
vn 0.3523 -0.0000 0.9359
vn 0.0981 -0.0000 0.9952
vn -0.1629 -0.0000 0.9867
vn -0.1628 -0.0000 0.9867
vn -0.4127 -0.0000 0.9109
vn -0.6344 -0.0000 0.7730
vn -0.8128 -0.0000 0.5825
vn -0.9359 -0.0000 0.3523
vn -0.9952 -0.0000 0.0981
vn -0.9867 -0.0000 -0.1629
vn -0.9867 -0.0000 -0.1628
vn -0.9109 -0.0000 -0.4127
vn -0.7730 -0.0000 -0.6344
vn -0.5825 -0.0000 -0.8128
vn -0.3523 -0.0000 -0.9359
vn -0.0981 -0.0000 -0.9952
vn 0.1629 -0.0000 -0.9867
vn 0.1628 -0.0000 -0.9867
vn 0.4127 -0.0000 -0.9109
vn 0.6344 -0.0000 -0.7730
vn 0.8128 -0.0000 -0.5825
vn 0.9359 -0.0000 -0.3523
vn 0.9952 -0.0000 -0.0981
vn 0.9867 -0.0000 0.1629
vn 0.9867 -0.0000 0.1628
vn 0.9109 -0.0000 0.4127
vn 0.7730 -0.0000 0.6344
vn -0.1320 0.9792 0.1539
vn -0.0714 0.9792 0.1898
vn -0.0022 0.9792 0.2028
vn 0.0673 0.9792 0.1913
vn 0.1286 0.9792 0.1568
vn 0.1745 0.9792 0.1033
vn 0.1993 0.9792 0.0374
vn 0.2001 0.9792 -0.0330
vn 0.1767 0.9792 -0.0995
vn 0.1320 0.9792 -0.1539
vn 0.0714 0.9792 -0.1898
vn 0.0022 0.9792 -0.2028
vn -0.0673 0.9792 -0.1913
vn -0.1286 0.9792 -0.1568
vn -0.1745 0.9792 -0.1033
vn -0.1993 0.9792 -0.0374
vn -0.2001 0.9792 0.0330
vn -0.1767 0.9792 0.0995
vn -0.1321 0.9792 0.1539
vn 0.8605 -0.0000 0.5094
vn 0.9828 -0.0000 0.1844
vn 0.9867 -0.0000 -0.1628
vn 0.8715 -0.0000 -0.4905
vn 0.6511 -0.0000 -0.7590
vn 0.3523 -0.0000 -0.9359
vn 0.0110 -0.0000 -0.9999
vn -0.3317 -0.0000 -0.9434
vn -0.6344 -0.0000 -0.7730
vn -0.8605 -0.0000 -0.5095
vn -0.9828 -0.0000 -0.1844
vn -0.9867 -0.0000 0.1628
vn -0.8714 -0.0000 0.4905
vn -0.8715 -0.0000 0.4905
vn -0.6511 -0.0000 0.7590
vn -0.3523 -0.0000 0.9359
vn -0.0110 -0.0000 0.9999
vn 0.3317 -0.0000 0.9434
vn 0.6344 -0.0000 0.7730
vn 0.8605 -0.0000 0.5095
vn -0.9867 -0.0000 0.1629
vn 0.8714 -0.0000 -0.4905
vn 0.9867 -0.0000 -0.1629
vt 0.032946 0.211577
vt 0.005858 0.301625
vt 0.082728 0.132511
vt 0.002930 0.395333
vt 0.150813 0.068086
vt 0.024160 0.486113
vt 0.233540 0.024160
vt 0.068086 0.568840
vt 0.324320 0.002930
vt 0.132511 0.636925
vt 0.418028 0.005858
vt 0.211577 0.686707
vt 0.508076 0.032946
vt 0.301625 0.713795
vt 0.587142 0.082728
vt 0.395333 0.716723
vt 0.651566 0.150813
vt 0.486113 0.695492
vt 0.695492 0.233540
vt 0.568840 0.651566
vt 0.716723 0.324320
vt 0.636925 0.587142
vt 0.713795 0.418028
vt 0.686707 0.508076
vt 0.297232 0.433402
vt 0.196935 0.549805
vt 0.325784 0.450240
vt 0.271609 0.593731
vt 0.358728 0.456097
vt 0.357264 0.609837
vt 0.391672 0.450972
vt 0.442919 0.595927
vt 0.420956 0.434134
vt 0.518325 0.553466
vt 0.442919 0.409243
vt 0.575428 0.487577
vt 0.454633 0.377763
vt 0.605444 0.406314
vt 0.455365 0.344086
vt 0.606909 0.319195
vt 0.443651 0.312606
vt 0.577625 0.237200
vt 0.422421 0.286251
vt 0.522718 0.169847
vt 0.393869 0.269413
vt 0.448044 0.125922
vt 0.360924 0.263556
vt 0.362389 0.109816
vt 0.327980 0.268680
vt 0.276733 0.123725
vt 0.298696 0.285519
vt 0.201328 0.166187
vt 0.276733 0.310410
vt 0.144224 0.232076
vt 0.265020 0.341890
vt 0.114208 0.313338
vt 0.264288 0.375566
vt 0.112744 0.400458
vt 0.276001 0.407046
vt 0.142028 0.482452
vt 0.461222 0.379227
vt 0.461954 0.343354
vt 0.448776 0.412171
vt 0.449508 0.308946
vt 0.425349 0.439991
vt 0.426813 0.281126
vt 0.393869 0.457561
vt 0.396065 0.263556
vt 0.358728 0.463418
vt 0.360924 0.256235
vt 0.323588 0.456097
vt 0.325784 0.262092
vt 0.292840 0.438527
vt 0.294304 0.279662
vt 0.270145 0.410707
vt 0.270877 0.307481
vt 0.257699 0.376298
vt 0.258431 0.340426
s 1
f 1/1/1 2/2/1 3/3/1
f 4/4/1 3/3/1 2/2/1
f 3/3/1 4/4/1 5/5/1
f 6/6/1 5/5/1 4/4/1
f 5/5/1 6/6/1 7/7/1
f 8/8/1 7/7/1 6/6/1
f 7/7/1 8/8/1 9/9/1
f 10/10/1 9/9/1 8/8/1
f 9/9/1 10/10/1 11/11/1
f 12/12/1 11/11/1 10/10/1
f 11/11/1 12/12/1 13/13/1
f 14/14/1 13/13/1 12/12/1
f 13/13/1 14/14/1 15/15/1
f 16/16/1 15/15/1 14/14/1
f 15/15/1 16/16/1 17/17/1
f 18/18/1 17/17/1 16/16/1
f 17/17/1 18/18/1 19/19/1
f 20/20/1 19/19/1 18/18/1
f 19/19/1 20/20/1 21/21/1
f 22/22/1 21/21/1 20/20/1
f 21/21/1 22/22/1 23/23/1
f 24/24/1 23/23/1 22/22/1
f 25/20/2 26/20/2 27/18/3
f 28/18/3 27/18/3 26/20/2
f 27/18/3 28/18/3 29/16/4
f 30/16/4 29/16/4 28/18/3
f 29/16/4 30/16/4 31/14/5
f 32/14/6 31/14/5 30/16/4
f 31/14/5 32/14/6 33/12/7
f 34/12/7 33/12/7 32/14/6
f 33/12/7 34/12/7 35/10/8
f 36/10/8 35/10/8 34/12/7
f 35/10/8 36/10/8 37/8/9
f 38/8/9 37/8/9 36/10/8
f 37/8/9 38/8/9 39/6/10
f 40/6/10 39/6/10 38/8/9
f 39/6/10 40/6/10 41/4/11
f 42/4/11 41/4/11 40/6/10
f 41/4/11 42/4/11 43/2/12
f 44/2/13 43/2/12 42/4/11
f 43/2/12 44/2/13 45/1/14
f 46/1/14 45/1/14 44/2/13
f 45/1/14 46/1/14 47/3/15
f 48/3/15 47/3/15 46/1/14
f 47/3/15 48/3/15 49/5/16
f 50/5/16 49/5/16 48/3/15
f 49/5/16 50/5/16 51/7/17
f 52/7/17 51/7/17 50/5/16
f 51/7/17 52/7/17 53/9/18
f 54/9/18 53/9/18 52/7/17
f 53/9/18 54/9/18 55/11/19
f 56/11/20 55/11/19 54/9/18
f 55/11/19 56/11/20 57/13/21
f 58/13/21 57/13/21 56/11/20
f 57/13/21 58/13/21 59/15/22
f 60/15/22 59/15/22 58/13/21
f 59/15/22 60/15/22 61/17/23
f 62/17/23 61/17/23 60/15/22
f 61/17/23 62/17/23 63/19/24
f 64/19/24 63/19/24 62/17/23
f 63/19/24 64/19/24 65/21/25
f 66/21/25 65/21/25 64/19/24
f 65/21/25 66/21/25 67/23/26
f 68/23/27 67/23/26 66/21/25
f 67/23/26 68/23/27 69/24/28
f 70/24/28 69/24/28 68/23/27
f 69/24/28 70/24/28 71/22/29
f 72/22/29 71/22/29 70/24/28
f 71/22/29 72/22/29 73/20/2
f 74/20/2 73/20/2 72/22/29
f 75/25/30 76/26/30 77/27/31
f 78/28/31 77/27/31 76/26/30
f 77/27/31 78/28/31 79/29/32
f 80/30/32 79/29/32 78/28/31
f 79/29/32 80/30/32 81/31/33
f 82/32/33 81/31/33 80/30/32
f 81/31/33 82/32/33 83/33/34
f 84/34/34 83/33/34 82/32/33
f 83/33/34 84/34/34 85/35/35
f 86/36/35 85/35/35 84/34/34
f 85/35/35 86/36/35 87/37/36
f 88/38/36 87/37/36 86/36/35
f 87/37/36 88/38/36 89/39/37
f 90/40/37 89/39/37 88/38/36
f 89/39/37 90/40/37 91/41/38
f 92/42/38 91/41/38 90/40/37
f 91/41/38 92/42/38 93/43/39
f 94/44/39 93/43/39 92/42/38
f 93/43/39 94/44/39 95/45/40
f 96/46/40 95/45/40 94/44/39
f 95/45/40 96/46/40 97/47/41
f 98/48/41 97/47/41 96/46/40
f 97/47/41 98/48/41 99/49/42
f 100/50/42 99/49/42 98/48/41
f 99/49/42 100/50/42 101/51/43
f 102/52/43 101/51/43 100/50/42
f 101/51/43 102/52/43 103/53/44
f 104/54/44 103/53/44 102/52/43
f 103/53/44 104/54/44 105/55/45
f 106/56/45 105/55/45 104/54/44
f 105/55/45 106/56/45 107/57/46
f 108/58/46 107/57/46 106/56/45
f 107/57/46 108/58/46 109/59/47
f 110/60/47 109/59/47 108/58/46
f 109/59/47 110/60/47 111/25/48
f 112/26/48 111/25/48 110/60/47
f 113/36/49 114/36/49 115/38/50
f 116/38/50 115/38/50 114/36/49
f 115/38/50 116/38/50 117/40/51
f 118/40/51 117/40/51 116/38/50
f 117/40/51 118/40/51 119/42/52
f 120/42/52 119/42/52 118/40/51
f 119/42/52 120/42/52 121/44/53
f 122/44/53 121/44/53 120/42/52
f 121/44/53 122/44/53 123/46/54
f 124/46/54 123/46/54 122/44/53
f 123/46/54 124/46/54 125/48/55
f 126/48/55 125/48/55 124/46/54
f 125/48/55 126/48/55 127/50/56
f 128/50/56 127/50/56 126/48/55
f 127/50/56 128/50/56 129/52/57
f 130/52/57 129/52/57 128/50/56
f 129/52/57 130/52/57 131/54/58
f 132/54/58 131/54/58 130/52/57
f 131/54/58 132/54/58 133/56/59
f 134/56/59 133/56/59 132/54/58
f 133/56/59 134/56/59 135/58/60
f 136/58/60 135/58/60 134/56/59
f 135/58/60 136/58/60 137/60/61
f 138/60/62 137/60/61 136/58/60
f 137/60/61 138/60/62 139/26/63
f 140/26/63 139/26/63 138/60/62
f 139/26/63 140/26/63 141/28/64
f 142/28/64 141/28/64 140/26/63
f 141/28/64 142/28/64 143/30/65
f 144/30/65 143/30/65 142/28/64
f 143/30/65 144/30/65 145/32/66
f 146/32/66 145/32/66 144/30/65
f 145/32/66 146/32/66 147/34/67
f 148/34/67 147/34/67 146/32/66
f 147/34/67 148/34/67 149/36/68
f 150/36/68 149/36/68 148/34/67
f 151/61/1 152/62/1 153/63/1
f 154/64/1 153/63/1 152/62/1
f 153/63/1 154/64/1 155/65/1
f 156/66/1 155/65/1 154/64/1
f 155/65/1 156/66/1 157/67/1
f 158/68/1 157/67/1 156/66/1
f 157/67/1 158/68/1 159/69/1
f 160/70/1 159/69/1 158/68/1
f 159/69/1 160/70/1 161/71/1
f 162/72/1 161/71/1 160/70/1
f 161/71/1 162/72/1 163/73/1
f 164/74/1 163/73/1 162/72/1
f 163/73/1 164/74/1 165/75/1
f 166/76/1 165/75/1 164/74/1
f 165/75/1 166/76/1 167/77/1
f 168/78/1 167/77/1 166/76/1
f 169/75/62 170/75/62 171/77/60
f 172/77/69 171/77/60 170/75/62
f 171/77/60 172/77/69 173/78/59
f 174/78/59 173/78/59 172/77/69
f 173/78/59 174/78/59 175/76/58
f 176/76/58 175/76/58 174/78/59
f 175/76/58 176/76/58 177/74/57
f 178/74/57 177/74/57 176/76/58
f 177/74/57 178/74/57 179/72/56
f 180/72/56 179/72/56 178/74/57
f 179/72/56 180/72/56 181/70/55
f 182/70/55 181/70/55 180/72/56
f 181/70/55 182/70/55 183/68/54
f 184/68/54 183/68/54 182/70/55
f 183/68/54 184/68/54 185/66/53
f 186/66/53 185/66/53 184/68/54
f 185/66/53 186/66/53 187/64/52
f 188/64/70 187/64/52 186/66/53
f 187/64/52 188/64/70 189/62/51
f 190/62/71 189/62/51 188/64/70
f 189/62/51 190/62/71 191/61/50
f 192/61/50 191/61/50 190/62/71
f 191/61/50 192/61/50 193/63/68
f 194/63/68 193/63/68 192/61/50
f 193/63/68 194/63/68 195/65/67
f 196/65/67 195/65/67 194/63/68
f 195/65/67 196/65/67 197/67/66
f 198/67/66 197/67/66 196/65/67
f 197/67/66 198/67/66 199/69/65
f 200/69/65 199/69/65 198/67/66
f 199/69/65 200/69/65 201/71/64
f 202/71/64 201/71/64 200/69/65
f 201/71/64 202/71/64 203/73/63
f 204/73/63 203/73/63 202/71/64
f 203/73/63 204/73/63 205/75/61
f 206/75/61 205/75/61 204/73/63
