# Blender 5.0.0
# www.blender.org
o shape29_tail_lamp_brake
v -88.870338 16.635866 22.237736
v -89.350929 16.673407 27.072479
v -88.841499 20.474192 22.237736
v -89.322090 20.474192 27.072479
v -89.668556 20.445734 26.888084
v -89.668556 20.445734 26.061468
v -89.697395 16.663717 26.888084
v -89.687782 16.663717 26.061468
v -89.586861 20.445734 24.100040
v -89.606079 16.663717 24.100040
v -89.596466 20.445734 25.022776
v -89.625305 16.663717 25.032387
v -88.856361 20.445734 25.070835
v -88.856361 16.663717 25.070835
v -89.482231 20.445734 22.267817
v -89.501457 16.663717 22.267817
v -89.491844 20.445734 23.132879
v -89.520683 16.663717 23.132879
v -88.780571 20.445734 23.200163
v -88.799797 16.663717 23.200163
v -88.870338 -16.635866 22.237736
v -89.350929 -16.673407 27.072479
v -88.841499 -20.474192 22.237736
v -89.322090 -20.474192 27.072479
v -89.668556 -20.445734 26.888084
v -89.668556 -20.445734 26.061468
v -89.697395 -16.663717 26.888084
v -89.687782 -16.663717 26.061468
v -89.586861 -20.445734 24.100040
v -89.606079 -16.663717 24.100040
v -89.596466 -20.445734 25.022776
v -89.625305 -16.663717 25.032387
v -88.856361 -20.445734 25.070835
v -88.856361 -16.663717 25.070835
v -89.482231 -20.445734 22.267817
v -89.501457 -16.663717 22.267817
v -89.491844 -20.445734 23.132879
v -89.520683 -16.663717 23.132879
v -88.780571 -20.445734 23.200163
v -88.799797 -16.663717 23.200163
vn -0.9951 0.0075 -0.0990
vn -0.9951 0.0075 -0.0989
vn -1.0000 0.0076 -0.0000
vn -1.0000 0.0073 -0.0016
vn -0.9999 0.0054 -0.0100
vn -0.9999 0.0051 -0.0116
vn -0.9999 0.0051 -0.0104
vn -0.9998 0.0072 -0.0191
vn -0.7327 0.0059 0.6805
vn -0.7332 0.0055 0.6800
vn -0.0629 0.0026 0.9980
vn -0.0499 -0.0000 0.9988
vn -0.9999 0.0051 -0.0111
vn -0.9998 0.0073 -0.0206
vn -0.7424 0.0042 0.6699
vn -0.7482 0.0056 0.6635
vn -0.0940 0.0007 0.9956
vn -0.0929 0.0005 0.9957
vn -0.9951 -0.0075 -0.0990
vn -0.9951 -0.0075 -0.0989
vn -1.0000 -0.0076 -0.0000
vn -0.9999 -0.0054 -0.0100
vn -1.0000 -0.0073 -0.0016
vn -0.9999 -0.0051 -0.0116
vn -0.9999 -0.0051 -0.0104
vn -0.7327 -0.0059 0.6805
vn -0.9998 -0.0072 -0.0191
vn -0.7332 -0.0055 0.6800
vn -0.0629 -0.0026 0.9980
vn -0.9999 -0.0051 -0.0111
vn -0.7424 -0.0042 0.6699
vn -0.9998 -0.0073 -0.0206
vn -0.7482 -0.0056 0.6635
vn -0.0940 -0.0007 0.9956
vn -0.0929 -0.0005 0.9957
vt 0.997070 0.004873
vt 0.994875 0.997070
vt 0.002930 0.004873
vt 0.002930 0.997070
vt 0.018050 0.976177
vt 0.018050 0.804899
vt 0.989998 0.976177
vt 0.989998 0.804899
vt 0.018050 0.394075
vt 0.989998 0.394075
vt 0.018050 0.581144
vt 0.989998 0.581144
vt 0.018050 0.595964
vt 0.989998 0.595964
vt 0.017075 0.002930
vt 0.989998 0.002930
vt 0.017075 0.175179
vt 0.989998 0.175179
vt 0.018050 0.197045
vt 0.989998 0.197045
s 1
f 1/1/1 2/2/2 3/3/2
f 4/4/2 3/3/2 2/2/2
f 5/5/3 6/6/4 7/7/5
f 8/8/6 7/7/5 6/6/4
f 9/9/7 10/10/8 11/11/9
f 12/12/10 11/11/9 10/10/8
f 11/11/9 12/12/10 13/13/11
f 14/14/12 13/13/11 12/12/10
f 15/15/13 16/16/14 17/17/15
f 18/18/16 17/17/15 16/16/14
f 17/17/15 18/18/16 19/19/17
f 20/20/18 19/19/17 18/18/16
f 21/1/19 23/3/20 22/2/20
f 24/4/20 22/2/20 23/3/20
f 25/5/21 27/7/22 26/6/23
f 28/8/24 26/6/23 27/7/22
f 29/9/25 31/11/26 30/10/27
f 32/12/28 30/10/27 31/11/26
f 31/11/26 33/13/29 32/12/28
f 34/14/12 32/12/28 33/13/29
f 35/15/30 37/17/31 36/16/32
f 38/18/33 36/16/32 37/17/31
f 37/17/31 39/19/34 38/18/33
f 40/20/35 38/18/33 39/19/34
