# Blender 5.0.0
# www.blender.org
o shape7.001
v -88.864601 -14.010441 22.297089
v -88.864578 -16.629015 22.305277
v -89.051796 -14.009160 26.918968
v -89.051796 -16.626453 26.918404
v -88.864601 14.010441 22.297089
v -89.051796 14.009160 26.918968
v -88.864578 16.629015 22.305277
v -89.051796 16.626453 26.918404
v -89.711060 -14.009231 26.840096
v -89.709190 -14.009300 26.037064
v -89.642029 -16.626595 26.827799
v -89.640007 -16.626738 26.037611
v -89.709190 14.009300 26.037064
v -89.711060 14.009231 26.840096
v -89.640007 16.626738 26.037611
v -89.642029 16.626595 26.827799
v -89.612648 -16.627592 24.995962
v -89.681717 -14.009727 24.995117
v -89.598198 -16.627878 24.133003
v -89.667160 -14.009871 24.135784
v -89.598198 16.627878 24.133003
v -89.667160 14.009871 24.135788
v -89.612648 16.627592 24.995962
v -89.681717 14.009727 24.995117
v -89.509270 16.628733 23.115469
v -89.493896 16.629015 22.316202
v -89.577980 14.010298 23.126265
v -89.562828 14.010441 22.308195
v -89.493896 -16.629015 22.316202
v -89.509270 -16.628733 23.115469
v -89.562828 -14.010441 22.308195
v -89.577980 -14.010298 23.126265
v -88.911446 -14.009160 26.919189
v -89.711060 -14.009231 26.840096
v -88.842232 -16.626453 26.918203
v -89.642029 -16.626595 26.827799
v -89.711060 14.009231 26.840096
v -88.911446 14.009160 26.919189
v -89.642029 16.626595 26.827799
v -88.842232 16.626453 26.918203
v -88.733086 -16.627308 25.057877
v -88.802177 -14.009587 25.057745
v -89.612648 -16.627592 24.995962
v -89.681717 -14.009727 24.995117
v -89.612648 16.627592 24.995962
v -89.681717 14.009727 24.995117
v -88.733086 16.627308 25.057877
v -88.802177 14.009587 25.057745
v -88.679451 16.628448 23.205091
v -89.509270 16.628733 23.115469
v -88.748451 14.010158 23.199266
v -89.577980 14.010298 23.126265
v -89.509270 -16.628733 23.115469
v -88.679451 -16.628448 23.205091
v -89.577980 -14.010298 23.126265
v -88.748451 -14.010158 23.199266
v -89.051796 -16.626453 26.918404
v -88.864578 -16.629015 22.305277
v -89.051796 -23.564127 26.917160
v -88.864578 -23.564125 22.304794
v -89.051796 23.564127 26.917160
v -88.864578 23.564125 22.304794
v -89.051796 16.626453 26.918404
v -88.864578 16.629015 22.305277
v -88.628601 10.259271 22.348330
v -87.615631 10.354005 26.794672
v -88.864609 10.507709 22.293743
v -89.051788 10.530639 26.919828
v -88.864601 14.010441 22.297089
v -89.051796 14.009160 26.918968
v -88.864601 -14.010441 22.297089
v -89.051796 -14.009160 26.918968
v -88.864609 -10.507709 22.293743
v -89.051788 -10.530639 26.919828
v -88.628601 -10.259271 22.348330
v -87.615631 -10.354005 26.794672
v -88.798004 -23.564127 26.917521
v -88.842232 -16.626453 26.918203
v -89.597763 -23.564127 26.827122
v -89.642029 -16.626595 26.827799
v -88.798004 23.564127 26.917521
v -89.597763 23.564127 26.827122
v -88.842232 16.626453 26.918203
v -89.642029 16.626595 26.827799
v -88.738747 23.564125 25.057943
v -89.568085 23.564125 24.995319
v -88.733086 16.627308 25.057877
v -89.612648 16.627592 24.995962
v -89.612648 -16.627592 24.995962
v -89.568085 -23.564125 24.995319
v -88.733086 -16.627308 25.057877
v -88.738747 -23.564125 25.057943
v -89.464401 23.564125 23.114861
v -89.509270 16.628733 23.115469
v -88.634666 23.564125 23.204500
v -88.679451 16.628448 23.205091
v -88.634666 -23.564125 23.204500
v -88.679451 -16.628448 23.205091
v -89.464401 -23.564125 23.114861
v -89.509270 -16.628733 23.115469
v -87.588600 -10.271056 24.992485
v -89.716240 -10.507353 24.994690
v -88.836723 -10.530852 25.057684
v -89.681717 -14.009727 24.995117
v -88.802177 -14.009587 25.057745
v -87.137589 -10.354005 26.793232
v -89.745583 -10.507104 26.846241
v -88.946060 -10.530639 26.919676
v -89.711060 -14.009231 26.840096
v -88.911446 -14.009160 26.919189
v -87.137589 10.354005 26.793232
v -88.946060 10.530639 26.919676
v -89.745575 10.507104 26.846241
v -88.911446 14.009160 26.919189
v -89.711060 14.009231 26.840096
v -88.039680 -10.271056 23.191399
v -89.612343 -10.507638 23.131664
v -88.732811 -10.531137 23.195631
v -89.577980 -14.010298 23.126265
v -88.748451 -14.010158 23.199266
v -88.802177 14.009587 25.057745
v -89.681717 14.009727 24.995117
v -88.836723 10.530852 25.057684
v -89.716240 10.507353 24.994690
v -87.588600 10.271056 24.992485
v -89.577980 14.010298 23.126265
v -89.612343 10.507638 23.131664
v -88.748451 14.010158 23.199266
v -88.732811 10.531137 23.195631
v -88.732811 10.531137 23.195631
v -89.612343 10.507638 23.131664
v -88.039680 10.271056 23.191397
v -89.051796 -23.564127 26.917160
v -88.864578 -23.564125 22.304794
v -89.051819 -25.455158 26.913879
v -88.864594 -25.448097 22.302444
v -87.739777 -27.294809 26.815346
v -87.588615 -27.294809 22.293259
v -88.864578 23.564125 22.304794
v -89.051796 23.564127 26.917160
v -88.864594 25.448097 22.302444
v -89.051819 25.455158 26.913879
v -88.864594 25.448097 22.302444
v -89.051819 25.455158 26.913879
v -87.588615 27.294809 22.293259
v -87.739777 27.294809 26.815346
v -83.888756 -28.776360 22.226419
v -85.693542 -28.134954 26.762064
v -87.588615 -27.294809 22.293259
v -87.739777 -27.294809 26.815346
v -83.888756 28.776360 22.226419
v -87.588615 27.294809 22.293259
v -85.693542 28.134954 26.762064
v -87.739777 27.294809 26.815346
v -89.597763 -23.564127 26.827122
v -89.595688 -23.564125 26.036938
v -89.589111 -25.454767 26.824898
v -89.587135 -25.454374 26.034698
v -87.717041 -27.294386 26.815094
v -87.737511 -27.294386 26.005322
v -87.717041 27.294386 26.815094
v -87.737511 27.294386 26.005322
v -89.589111 25.454767 26.824898
v -89.587135 25.454374 26.034698
v -89.597763 23.564127 26.827122
v -89.595688 23.564125 26.036938
v -89.553551 23.564125 24.132370
v -89.568085 23.564125 24.995319
v -89.545792 25.451235 24.129955
v -89.560127 25.452021 24.992926
v -87.650253 27.294386 24.103407
v -87.646912 27.294386 24.976149
v -89.464401 23.564125 23.114861
v -89.457199 25.448883 23.112511
v -89.448952 23.564125 22.315603
v -89.441940 25.448097 22.313236
v -89.441940 25.448097 22.313236
v -89.457199 25.448883 23.112511
v -87.565880 27.294386 22.293005
v -87.563492 27.294386 23.099228
v -87.565880 -27.294386 22.293005
v -87.563492 -27.294386 23.099228
v -89.441940 -25.448097 22.313236
v -89.457199 -25.448883 23.112511
v -89.448952 -23.564125 22.315603
v -89.464401 -23.564125 23.114861
v -89.568085 -23.564125 24.995319
v -89.553551 -23.564125 24.132368
v -89.560127 -25.452021 24.992926
v -89.545792 -25.451235 24.129955
v -87.646912 -27.294386 24.976149
v -87.650253 -27.294386 24.103407
v -87.717041 -27.294386 26.815094
v -88.697868 -25.455158 26.913980
v -89.589111 -25.454767 26.824898
v -88.798004 -23.564127 26.917521
v -89.597763 -23.564127 26.827122
v -87.646912 27.294386 24.976149
v -89.560127 25.452021 24.992926
v -88.638931 25.452803 25.073078
v -89.568085 23.564125 24.995319
v -88.738747 23.564125 25.057943
v -89.464401 23.564125 23.114861
v -88.634666 23.564125 23.204500
v -89.457199 25.448883 23.112511
v -88.535675 25.449667 23.215090
v -87.563492 27.294386 23.099228
v -89.597763 23.564127 26.827122
v -88.798004 23.564127 26.917521
v -89.589111 25.454767 26.824898
v -88.697868 25.455158 26.913980
v -87.717041 27.294386 26.815094
v -89.589111 25.454767 26.824898
v -88.697868 25.455158 26.913980
v -87.646912 -27.294386 24.976149
v -88.638931 -25.452803 25.073078
v -89.560127 -25.452021 24.992926
v -88.738747 -23.564125 25.057943
v -89.568085 -23.564125 24.995319
v -88.634666 -23.564125 23.204500
v -89.464401 -23.564125 23.114861
v -88.535675 -25.449667 23.215090
v -89.457199 -25.448883 23.112511
v -87.563492 -27.294386 23.099228
v -89.597763 -23.564127 26.827122
v -89.642029 -16.626595 26.827799
v -89.595688 -23.564125 26.036938
v -89.640007 -16.626738 26.037611
v -89.597763 23.564127 26.827122
v -89.595688 23.564125 26.036938
v -89.642029 16.626595 26.827799
v -89.640007 16.626738 26.037611
v -89.568085 23.564125 24.995319
v -89.553551 23.564125 24.132370
v -89.612648 16.627592 24.995962
v -89.598198 16.627878 24.133003
v -89.598198 -16.627878 24.133003
v -89.553551 -23.564125 24.132368
v -89.612648 -16.627592 24.995962
v -89.568085 -23.564125 24.995319
v -89.448952 23.564125 22.315603
v -89.493896 16.629015 22.316202
v -89.464401 23.564125 23.114861
v -89.509270 16.628733 23.115469
v -89.464401 -23.564125 23.114861
v -89.509270 -16.628733 23.115469
v -89.448952 -23.564125 22.315603
v -89.493896 -16.629015 22.316202
v -89.667160 -14.009871 24.135784
v -89.681717 -14.009727 24.995117
v -89.701645 -10.507424 24.137178
v -89.716240 -10.507353 24.994690
v -87.820961 -10.271056 24.064720
v -87.588600 -10.271056 24.992485
v -87.820961 10.271056 24.064718
v -87.588600 10.271056 24.992485
v -89.701645 10.507424 24.137178
v -89.716240 10.507353 24.994690
v -89.667160 14.009871 24.135788
v -89.681717 14.009727 24.995117
v -89.577980 14.010298 23.126265
v -89.562828 14.010441 22.308195
v -89.612343 10.507638 23.131664
v -89.597305 10.507709 22.304192
v -88.039680 10.271056 23.191397
v -88.150566 10.259271 22.346888
v -89.709190 -14.009300 26.037064
v -89.711060 -14.009231 26.840096
v -89.743774 -10.507139 26.036791
v -89.745583 -10.507104 26.846241
v -87.356125 -10.271056 25.920692
v -87.137589 -10.354005 26.793232
v -89.711060 14.009231 26.840096
v -89.709190 14.009300 26.037064
v -89.745575 10.507104 26.846241
v -89.743774 10.507139 26.036791
v -87.137589 10.354005 26.793232
v -87.356125 10.271056 25.920694
v -88.039680 -10.271056 23.191399
v -88.150566 -10.259271 22.346888
v -89.612343 -10.507638 23.131664
v -89.597305 -10.507709 22.304192
v -89.577980 -14.010298 23.126265
v -89.562828 -14.010441 22.308195
v 72.392204 27.851288 22.443592
v 73.033577 27.749102 19.023218
v 71.171829 30.068983 22.369043
v 71.895226 30.023222 19.059731
v 68.013191 30.961897 21.677338
v 68.244904 31.226934 19.061056
v 73.033577 27.749102 19.023218
v 73.282112 27.650845 15.684937
v 71.895226 30.023222 19.059731
v 72.187820 29.565926 15.703472
v 68.244904 31.226934 19.061056
v 69.123276 30.918230 15.990879
v 69.123276 -30.918230 15.990879
v 72.187820 -29.565926 15.703472
v 68.244904 -31.226934 19.061056
v 71.895226 -30.023222 19.059731
v 68.013191 -30.961897 21.677338
v 71.171829 -30.068983 22.369043
v 71.171829 -30.068983 22.369043
v 71.895226 -30.023222 19.059731
v 72.392204 -27.851288 22.443592
v 73.033577 -27.749102 19.023218
v 73.033577 -27.749102 19.023218
v 71.895226 -30.023222 19.059731
v 73.282112 -27.650845 15.684937
v 72.187820 -29.565926 15.703472
v 76.559830 -13.764841 15.571683
v 76.084221 -14.470678 18.965427
v 71.648911 -16.899714 19.485167
v 75.351158 -14.805681 22.164038
v 74.250999 -19.594002 22.268887
v 74.250999 -19.594002 22.268887
v 74.624474 -19.436342 18.885492
v 71.648911 -16.899714 19.485167
v 75.222527 -19.298832 15.614715
v 76.559830 -13.764841 15.571683
v 74.250999 19.594002 22.268887
v 75.351158 14.805681 22.164038
v 71.648911 16.899714 19.485167
v 76.084221 14.470678 18.965427
v 76.559830 13.764841 15.571683
v 76.559830 13.764841 15.571683
v 75.222527 19.298832 15.614715
v 71.648911 16.899714 19.485167
v 74.624474 19.436342 18.885492
v 74.250999 19.594002 22.268887
vn -0.9992 0.0002 -0.0405
vn -0.9992 -0.0001 -0.0405
vn -0.9992 -0.0000 -0.0405
vn -0.9992 -0.0002 -0.0405
vn -0.9992 0.0001 -0.0405
vn -0.9998 -0.0182 -0.0024
vn -0.9998 -0.0181 -0.0024
vn -0.9999 -0.0164 -0.0025
vn -0.9998 0.0181 -0.0024
vn -0.9999 0.0164 -0.0025
vn -0.9997 -0.0164 -0.0167
vn -0.9997 -0.0181 -0.0169
vn -0.9997 -0.0164 -0.0168
vn -0.9997 0.0164 -0.0167
vn -0.9997 0.0181 -0.0169
vn -0.9997 0.0164 -0.0168
vn -0.9997 0.0164 -0.0191
vn -0.9997 0.0180 -0.0186
vn -0.9997 0.0181 -0.0186
vn -0.9997 -0.0164 -0.0191
vn -0.9997 -0.0164 -0.0190
vn -0.9997 -0.0180 -0.0186
vn -0.9997 -0.0181 -0.0186
vn -0.1002 -0.0036 0.9950
vn -0.1089 -0.0031 0.9941
vn -0.1088 -0.0031 0.9941
vn -0.1002 0.0036 0.9950
vn -0.1089 0.0031 0.9941
vn -0.1088 0.0031 0.9941
vn -0.0717 -0.0010 0.9974
vn -0.0709 -0.0010 0.9975
vn -0.0717 -0.0009 0.9974
vn -0.0709 -0.0012 0.9975
vn -0.0716 0.0010 0.9974
vn -0.0709 0.0011 0.9975
vn -0.0717 0.0010 0.9974
vn -0.0709 0.0012 0.9975
vn -0.1025 0.0021 0.9947
vn -0.0887 0.0020 0.9961
vn -0.1025 -0.0022 0.9947
vn -0.0887 -0.0020 0.9961
vn -0.9992 -0.0000 -0.0406
vn -0.2448 -0.9689 0.0348
vn -0.7889 -0.6145 -0.0035
vn -0.7889 -0.6145 -0.0036
vn -0.9992 -0.0000 -0.0404
vn -0.7889 0.6145 -0.0035
vn -0.2448 0.9689 0.0348
vn -0.1089 -0.0027 0.9940
vn -0.1089 -0.0030 0.9941
vn -0.1089 0.0027 0.9940
vn -0.1089 0.0030 0.9941
vn -0.0770 -0.0004 0.9970
vn -0.0770 0.0004 0.9970
vn -0.1083 0.0008 0.9941
vn -0.1083 -0.0008 0.9941
vn -0.1025 -0.0021 0.9947
vn -0.0508 0.4659 0.8834
vn -0.0629 0.2396 0.9688
vn -0.0629 0.2397 0.9688
vn -0.0710 -0.0010 0.9975
vn -0.0709 -0.0013 0.9975
vn -0.0336 0.7859 0.6175
vn -0.0715 0.4360 0.8971
vn -0.0715 0.4361 0.8971
vn -0.0336 -0.7859 0.6175
vn -0.0715 -0.4361 0.8971
vn -0.0715 -0.4360 0.8971
vn -0.0661 0.1920 0.9792
vn -0.0733 0.0962 0.9927
vn -0.0629 -0.2397 0.9688
vn -0.0629 -0.2396 0.9688
vn -0.0508 -0.4659 0.8834
vn -0.0886 0.0020 0.9961
vn -0.0733 -0.0962 0.9927
vn -0.0733 -0.0963 0.9926
vn -0.0733 -0.0963 0.9927
vn -0.0661 -0.1920 0.9792
vn -0.9992 0.0001 -0.0406
vn -0.9530 -0.3008 -0.0374
vn -0.9530 -0.3007 -0.0374
vn -0.6223 -0.7824 -0.0240
vn -0.9992 -0.0001 -0.0406
vn -0.9530 0.3007 -0.0374
vn -0.9530 0.3008 -0.0374
vn -0.6223 0.7824 -0.0240
vn -0.6222 0.7825 -0.0240
vn -0.3749 -0.9270 -0.0153
vn -0.6222 -0.7825 -0.0240
vn -0.3749 0.9270 -0.0153
vn -1.0000 -0.0055 -0.0026
vn -1.0000 -0.0054 -0.0026
vn -0.9219 -0.3874 0.0029
vn -0.7030 -0.7111 0.0080
vn -0.7030 -0.7111 0.0079
vn -0.7030 0.7111 0.0080
vn -0.7030 0.7111 0.0079
vn -0.9219 0.3874 0.0029
vn -1.0000 0.0053 -0.0026
vn -1.0000 0.0054 -0.0026
vn -0.9998 0.0053 -0.0168
vn -0.9198 0.3922 -0.0117
vn -0.9198 0.3922 -0.0116
vn -0.6954 0.7186 -0.0047
vn -0.9998 0.0051 -0.0192
vn -0.9211 0.3892 -0.0136
vn -0.9211 0.3892 -0.0137
vn -0.9210 0.3892 -0.0136
vn -0.9210 0.3893 -0.0136
vn -0.6997 0.7144 -0.0060
vn -0.6997 0.7144 -0.0059
vn -0.6997 -0.7144 -0.0060
vn -0.6997 -0.7144 -0.0059
vn -0.9210 -0.3892 -0.0136
vn -0.9210 -0.3892 -0.0137
vn -0.9998 -0.0051 -0.0192
vn -0.9998 -0.0053 -0.0168
vn -0.9198 -0.3921 -0.0117
vn -0.9198 -0.3922 -0.0116
vn -0.6954 -0.7186 -0.0047
vn -0.0989 -0.1060 0.9894
vn -0.1024 -0.0553 0.9932
vn -0.0863 0.0987 0.9914
vn -0.0839 0.0489 0.9953
vn -0.1082 0.0008 0.9941
vn -0.1097 0.0605 0.9921
vn -0.1099 0.1199 0.9867
vn -0.1024 0.0553 0.9932
vn -0.0989 0.1060 0.9894
vn -0.1024 0.0554 0.9932
vn -0.0863 -0.0987 0.9914
vn -0.0839 -0.0489 0.9953
vn -0.1083 -0.0009 0.9941
vn -0.1082 -0.0010 0.9941
vn -0.1097 -0.0605 0.9921
vn -0.1099 -0.1199 0.9867
vn -1.0000 -0.0056 -0.0026
vn -0.9999 -0.0164 -0.0026
vn -1.0000 0.0056 -0.0026
vn -1.0000 0.0055 -0.0026
vn -0.9999 0.0164 -0.0026
vn -0.9998 0.0052 -0.0168
vn -0.9998 -0.0052 -0.0168
vn -0.9998 0.0050 -0.0192
vn -0.9997 0.0163 -0.0191
vn -0.9998 -0.0052 -0.0192
vn -0.7505 0.6608 -0.0018
vn -0.7505 0.6608 -0.0019
vn -0.1168 0.9930 0.0142
vn -0.1168 0.9931 0.0142
vn -0.1168 -0.9931 0.0142
vn -0.1168 -0.9930 0.0142
vn -0.7505 -0.6608 -0.0019
vn -0.7645 -0.6447 -0.0015
vn -0.1591 -0.9871 0.0160
vn -0.7367 0.6751 0.0387
vn -0.0755 0.9954 0.0588
vn -0.7367 -0.6751 0.0387
vn -0.0756 -0.9954 0.0588
vn -0.1591 0.9871 0.0160
vn -0.7645 0.6447 -0.0015
vn 0.8902 0.3489 0.2930
vn 0.9310 0.3463 0.1153
vn 0.5795 0.7841 0.2223
vn 0.5783 0.8129 0.0689
vn 0.1625 0.9681 0.1906
vn 0.1882 0.9819 0.0208
vn 0.9351 0.3543 0.0095
vn 0.5783 0.8129 0.0688
vn 0.6669 0.7451 -0.0050
vn 0.1684 0.9824 -0.0812
vn 0.1684 -0.9824 -0.0812
vn 0.6669 -0.7451 -0.0050
vn 0.1882 -0.9819 0.0208
vn 0.5783 -0.8129 0.0688
vn 0.1625 -0.9681 0.1906
vn 0.5795 -0.7841 0.2223
vn 0.5795 -0.7841 0.2224
vn 0.5783 -0.8129 0.0689
vn 0.8902 -0.3489 0.2930
vn 0.9310 -0.3463 0.1153
vn 0.9351 -0.3543 0.0095
vn 0.6899 -0.6251 0.3650
vn 0.4753 -0.8784 -0.0493
vn 0.9860 -0.1627 0.0353
vn 0.6604 -0.6131 -0.4335
vn 0.8300 0.3737 -0.4141
vn 0.6583 0.7416 0.1294
vn 0.9860 -0.1628 0.0353
vn 0.7865 0.3417 0.5144
vn 0.8300 -0.3737 -0.4141
vn 0.6604 0.6131 -0.4335
vn 0.9860 0.1627 0.0353
vn 0.4753 0.8784 -0.0493
vn 0.6899 0.6251 0.3650
vn 0.6899 0.6252 0.3650
vn 0.7865 -0.3417 0.5144
vn 0.9860 0.1628 0.0353
vn 0.6583 -0.7416 0.1294
vt 0.944281 0.745174
vt 0.692384 0.745677
vt 0.944281 0.996818
vt 0.692384 0.997070
vt 0.944281 0.992032
vt 0.944281 0.948202
vt 0.692384 0.991529
vt 0.692384 0.948454
vt 0.692384 0.891777
vt 0.944281 0.891526
vt 0.692384 0.844673
vt 0.944281 0.844673
vt 0.692384 0.789255
vt 0.944281 0.789759
vt 0.692384 0.895808
vt 0.944281 0.895556
vt 0.692384 0.794797
vt 0.944281 0.794293
vt 0.231361 0.453485
vt 0.231361 0.003831
vt 0.002930 0.453034
vt 0.002930 0.003831
vt 0.453485 0.003831
vt 0.449881 0.447628
vt 0.444474 0.002930
vt 0.437716 0.453034
vt 0.325978 0.002930
vt 0.325978 0.453034
vt 0.002930 0.443573
vt 0.231361 0.443573
vt 0.002930 0.272362
vt 0.002930 0.265153
vt 0.231361 0.272362
vt 0.231361 0.265153
vt 0.002930 0.081777
vt 0.231361 0.081777
vt 0.002930 0.091689
vt 0.231361 0.091689
vt 0.449881 0.267856
vt 0.444474 0.264702
vt 0.437716 0.271911
vt 0.325978 0.264702
vt 0.325978 0.271911
vt 0.444474 0.444924
vt 0.325978 0.444474
vt 0.449881 0.088085
vt 0.444474 0.083579
vt 0.437716 0.090788
vt 0.325978 0.082678
vt 0.325978 0.090788
vt 0.366178 0.822593
vt 0.366178 0.459709
vt 0.231957 0.822593
vt 0.231957 0.459709
vt 0.160941 0.819314
vt 0.160941 0.459709
vt 0.002930 0.459344
vt 0.061873 0.818950
vt 0.366178 0.814578
vt 0.366178 0.752639
vt 0.231957 0.814578
vt 0.231957 0.752639
vt 0.160941 0.748267
vt 0.366178 0.602531
vt 0.366178 0.670663
vt 0.231957 0.602531
vt 0.231957 0.670663
vt 0.160941 0.597430
vt 0.160941 0.674306
vt 0.366178 0.522740
vt 0.231957 0.522740
vt 0.160941 0.527841
vt 0.231957 0.677949
vt 0.366178 0.676492
vt 0.366178 0.530391
vt 0.231957 0.531484
vt 0.692384 0.736761
vt 0.834329 0.736761
vt 0.692384 0.688256
vt 0.834329 0.688256
vt 0.692384 0.624433
vt 0.692384 0.571389
vt 0.834329 0.624433
vt 0.834329 0.571389
vt 0.692384 0.459912
vt 0.834329 0.459912
vt 0.692384 0.508984
vt 0.834329 0.508984
vt 0.893122 0.571389
vt 0.893122 0.624149
vt 0.966754 0.571673
vt 0.966754 0.624149
vt 0.970114 0.567985
vt 0.970114 0.626135
vt 0.893122 0.509552
vt 0.893122 0.459344
vt 0.966754 0.510119
vt 0.966754 0.459344
vt 0.970114 0.512956
vt 0.972354 0.459912
vt 0.893122 0.687972
vt 0.893122 0.737329
vt 0.966754 0.687972
vt 0.966754 0.737612
vt 0.970114 0.684568
vt 0.970114 0.739314
vt 0.450031 0.770616
vt 0.399713 0.614658
vt 0.533684 0.773831
vt 0.503808 0.617231
vt 0.686525 0.714021
vt 0.672687 0.605976
vt 0.372038 0.467705
vt 0.485568 0.460952
vt 0.619853 0.459344
vt 0.459344 0.002930
vt 0.494567 0.196818
vt 0.668918 0.220866
vt 0.522745 0.377555
vt 0.836225 0.379810
vt 0.826538 0.191182
vt 0.817733 0.005936
s 1
f 1/1/1 2/2/2 3/3/3
f 4/4/3 3/3/3 2/2/2
f 5/1/4 6/3/3 7/2/5
f 8/4/3 7/2/5 6/3/3
f 9/5/6 10/6/7 11/7/8
f 12/8/8 11/7/8 10/6/7
f 13/6/9 14/5/9 15/8/10
f 16/7/10 15/8/10 14/5/9
f 17/9/11 18/10/12 19/11/13
f 20/12/12 19/11/13 18/10/12
f 21/11/14 22/12/15 23/9/16
f 24/10/15 23/9/16 22/12/15
f 25/13/17 26/2/17 27/14/18
f 28/1/19 27/14/18 26/2/17
f 29/2/20 30/13/21 31/1/22
f 32/14/23 31/1/22 30/13/21
f 33/3/24 34/5/24 35/4/25
f 36/7/26 35/4/25 34/5/24
f 37/5/27 38/3/27 39/7/28
f 40/4/29 39/7/28 38/3/27
f 41/15/30 42/16/31 43/9/32
f 44/10/33 43/9/32 42/16/31
f 45/9/34 46/10/35 47/15/36
f 48/16/37 47/15/36 46/10/35
f 49/17/38 50/13/38 51/18/39
f 52/14/39 51/18/39 50/13/38
f 53/13/40 54/17/40 55/14/41
f 56/18/41 55/14/41 54/17/40
f 57/19/3 58/20/42 59/21/42
f 60/22/42 59/21/42 58/20/42
f 61/21/42 62/22/42 63/19/42
f 64/20/3 63/19/42 62/22/42
f 65/23/43 66/24/43 67/25/44
f 68/26/45 67/25/44 66/24/43
f 67/25/44 68/26/45 69/27/46
f 70/28/3 69/27/46 68/26/45
f 71/27/3 72/28/46 73/25/47
f 74/26/47 73/25/47 72/28/46
f 73/25/47 74/26/47 75/23/48
f 76/24/48 75/23/48 74/26/47
f 77/21/49 78/19/26 79/29/49
f 80/30/50 79/29/49 78/19/26
f 81/21/51 82/29/51 83/19/29
f 84/30/52 83/19/29 82/29/51
f 85/31/53 86/32/53 87/33/36
f 88/34/34 87/33/36 86/32/53
f 89/34/30 90/32/54 91/33/30
f 92/31/54 91/33/30 90/32/54
f 93/35/55 94/36/38 95/37/55
f 96/38/38 95/37/55 94/36/38
f 97/37/56 98/38/57 99/35/56
f 100/36/57 99/35/56 98/38/57
f 101/39/58 102/40/59 103/41/60
f 104/42/61 103/41/60 102/40/59
f 103/41/60 104/42/61 105/43/62
f 106/24/63 107/44/64 108/26/65
f 109/45/24 108/26/65 107/44/64
f 108/26/65 109/45/24 110/28/24
f 111/24/66 112/26/67 113/44/68
f 114/28/27 113/44/68 112/26/67
f 113/44/68 114/28/27 115/45/27
f 116/46/69 117/47/70 118/48/70
f 119/49/41 118/48/70 117/47/70
f 118/48/70 119/49/41 120/50/41
f 121/43/37 122/42/35 123/41/71
f 124/40/72 123/41/71 122/42/35
f 123/41/71 124/40/72 125/39/73
f 126/49/74 127/47/75 128/50/39
f 129/48/75 128/50/39 127/47/75
f 130/48/76 131/47/77 132/46/78
f 133/51/79 134/52/79 135/53/80
f 136/54/81 135/53/80 134/52/79
f 135/53/80 136/54/81 137/55/82
f 138/56/82 137/55/82 136/54/81
f 139/52/83 140/51/83 141/54/84
f 142/53/84 141/54/84 140/51/83
f 143/54/85 144/53/85 145/56/86
f 146/55/87 145/56/86 144/53/85
f 147/57/88 148/58/88 149/56/89
f 150/55/89 149/56/89 148/58/88
f 151/57/90 152/56/87 153/58/90
f 154/55/87 153/58/90 152/56/87
f 155/59/91 156/60/92 157/61/93
f 158/62/93 157/61/93 156/60/92
f 157/61/93 158/62/93 159/55/94
f 160/63/95 159/55/94 158/62/93
f 161/55/96 162/63/97 163/61/98
f 164/62/98 163/61/98 162/63/97
f 163/61/98 164/62/98 165/59/99
f 166/60/100 165/59/99 164/62/98
f 167/64/101 168/65/101 169/66/102
f 170/67/103 169/66/102 168/65/101
f 169/66/102 170/67/103 171/68/104
f 172/69/104 171/68/104 170/67/103
f 173/70/105 174/71/106 175/52/105
f 176/54/107 175/52/105 174/71/106
f 177/54/108 178/71/109 179/56/110
f 180/72/111 179/56/110 178/71/109
f 181/56/112 182/72/113 183/54/114
f 184/71/115 183/54/114 182/72/113
f 183/54/114 184/71/115 185/52/116
f 186/70/116 185/52/116 184/71/115
f 187/65/117 188/64/117 189/67/118
f 190/66/119 189/67/118 188/64/117
f 189/67/118 190/66/119 191/69/120
f 192/68/120 191/69/120 190/66/119
f 193/55/121 194/53/122 195/61/122
f 196/51/49 195/61/122 194/53/122
f 195/61/122 196/51/49 197/59/49
f 198/69/123 199/67/124 200/73/124
f 201/65/53 200/73/124 199/67/124
f 200/73/124 201/65/53 202/74/53
f 203/70/55 204/75/125 205/71/126
f 206/76/126 205/71/126 204/75/125
f 205/71/126 206/76/126 207/72/127
f 208/59/51 209/51/51 210/61/128
f 211/53/128 210/61/128 209/51/51
f 212/55/129 213/61/130 214/53/130
f 215/69/131 216/73/132 217/67/132
f 218/74/54 217/67/132 216/73/132
f 217/67/132 218/74/54 219/65/54
f 220/75/133 221/70/134 222/76/135
f 223/71/135 222/76/135 221/70/134
f 222/76/135 223/71/135 224/72/136
f 225/77/137 226/78/8 227/79/91
f 228/80/138 227/79/91 226/78/8
f 229/77/139 230/79/140 231/78/141
f 232/80/10 231/78/141 230/79/140
f 233/81/142 234/82/142 235/83/16
f 236/84/16 235/83/16 234/82/142
f 237/84/11 238/82/143 239/83/13
f 240/81/117 239/83/13 238/82/143
f 241/85/144 242/86/17 243/87/105
f 244/88/145 243/87/105 242/86/17
f 245/87/116 246/88/20 247/85/146
f 248/86/20 247/85/146 246/88/20
f 249/89/12 250/90/12 251/91/147
f 252/92/148 251/91/147 250/90/12
f 251/91/147 252/92/148 253/93/149
f 254/94/150 253/93/149 252/92/148
f 255/93/151 256/94/152 257/91/153
f 258/92/153 257/91/153 256/94/152
f 257/91/153 258/92/153 259/89/15
f 260/90/15 259/89/15 258/92/153
f 261/95/18 262/96/18 263/97/154
f 264/98/154 263/97/154 262/96/18
f 263/97/154 264/98/154 265/99/155
f 266/100/155 265/99/155 264/98/154
f 267/101/7 268/102/7 269/103/156
f 270/104/156 269/103/156 268/102/7
f 269/103/156 270/104/156 271/105/157
f 272/106/157 271/105/157 270/104/156
f 273/102/9 274/101/9 275/104/158
f 276/103/158 275/104/158 274/101/9
f 275/104/158 276/103/158 277/106/159
f 278/105/159 277/106/159 276/103/158
f 279/99/160 280/100/160 281/97/161
f 282/98/161 281/97/161 280/100/160
f 281/97/161 282/98/161 283/95/22
f 284/96/23 283/95/22 282/98/161
f 285/107/162 286/108/163 287/109/164
f 288/110/165 287/109/164 286/108/163
f 287/109/164 288/110/165 289/111/166
f 290/112/167 289/111/166 288/110/165
f 291/108/163 292/113/168 293/110/169
f 294/114/170 293/110/169 292/113/168
f 293/110/169 294/114/170 295/112/167
f 296/115/171 295/112/167 294/114/170
f 297/115/172 298/114/173 299/112/174
f 300/110/175 299/112/174 298/114/173
f 299/112/174 300/110/175 301/111/176
f 302/109/177 301/111/176 300/110/175
f 303/109/178 304/110/179 305/107/180
f 306/108/181 305/107/180 304/110/179
f 307/108/181 308/110/179 309/113/182
f 310/114/173 309/113/182 308/110/179
f 311/116/183 312/117/184 313/118/185
f 314/119/186 313/118/185 312/117/184
f 313/118/185 314/119/186 315/120/187
f 316/120/187 317/121/188 318/118/189
f 319/122/190 318/118/189 317/121/188
f 318/118/189 319/122/190 320/116/183
f 321/120/191 322/119/192 323/118/193
f 324/117/194 323/118/193 322/119/192
f 323/118/193 324/117/194 325/116/195
f 326/116/196 327/122/197 328/118/198
f 329/121/199 328/118/198 327/122/197
f 328/118/198 329/121/199 330/120/191
