# Blender 5.0.0
# www.blender.org
o shape9.001
v 73.282112 -27.650845 15.684937
v 76.559837 -13.607666 15.571683
v 73.033577 -27.749102 19.023218
v 76.084221 -14.470678 18.965427
v 72.392204 -27.851288 22.443592
v 75.351158 -14.805681 22.164038
v 72.392204 27.851288 22.443592
v 75.351158 14.805681 22.164038
v 73.033577 27.749102 19.023218
v 76.084221 14.470678 18.965427
v 76.559837 13.607666 15.571683
v 73.282112 27.650845 15.684937
v 76.084221 14.470678 18.965427
v 73.033577 27.749102 19.023218
vn 0.9351 -0.3542 0.0095
vn 0.9741 -0.2259 0.0039
vn 0.9310 -0.3462 0.1153
vn 0.9667 -0.2209 0.1288
vn 0.8902 -0.3489 0.2930
vn 0.9274 -0.2053 0.3127
vn 0.8902 0.3488 0.2930
vn 0.9274 0.2053 0.3127
vn 0.9310 0.3462 0.1153
vn 0.9667 0.2209 0.1288
vn 0.9741 0.2259 0.0039
vn 0.9351 0.3542 0.0095
vt 0.983398 0.003929
vt 0.002930 0.002930
vt 0.990234 0.493506
vt 0.040039 0.497502
vt 0.997070 0.997070
vt 0.071289 0.993074
s 1
f 1/1/1 2/2/2 3/3/3
f 4/4/4 3/3/3 2/2/2
f 3/3/3 4/4/4 5/5/5
f 6/6/6 5/5/5 4/4/4
f 7/5/7 8/6/8 9/3/9
f 10/4/10 9/3/9 8/6/8
f 11/2/11 12/1/12 13/4/10
f 14/3/9 13/4/10 12/1/12
