# Blender 5.0.0
# www.blender.org
o shape29_tail_lamp_reverse
v -88.870338 13.965800 22.237736
v -89.350929 13.992095 27.072479
v -88.841499 16.654530 22.237736
v -89.322090 16.654530 27.072479
v -89.714249 16.631163 26.888084
v -89.714249 16.631163 26.061468
v -89.743088 13.981875 26.888084
v -89.733475 13.981875 26.061468
v -89.677956 16.631163 24.100040
v -89.697174 13.981875 24.100040
v -89.687569 16.631163 25.022776
v -89.716400 13.981875 25.032387
v -88.947456 16.631163 25.070835
v -88.947456 13.981875 25.070835
v -89.573334 16.631163 22.267817
v -89.592552 13.981875 22.267817
v -89.582947 16.631163 23.132879
v -89.611778 13.981875 23.132879
v -88.871666 16.631163 23.200163
v -88.890892 13.981875 23.200163
v -88.870338 -13.965800 22.237736
v -89.350929 -13.992095 27.072479
v -88.841499 -16.654530 22.237736
v -89.322090 -16.654530 27.072479
v -89.714249 -16.631163 26.888084
v -89.714249 -16.631163 26.061468
v -89.743088 -13.981875 26.888084
v -89.733475 -13.981875 26.061468
v -89.677956 -16.631163 24.100040
v -89.697174 -13.981875 24.100040
v -89.687569 -16.631163 25.022776
v -89.716400 -13.981875 25.032387
v -88.947456 -16.631163 25.070835
v -88.947456 -13.981875 25.070835
v -89.573334 -16.631163 22.267817
v -89.592552 -13.981875 22.267817
v -89.582947 -16.631163 23.132879
v -89.611778 -13.981875 23.132879
v -88.871666 -16.631163 23.200163
v -88.890892 -13.981875 23.200163
vn -0.9950 0.0107 -0.0990
vn -0.9950 0.0107 -0.0989
vn -0.9950 0.0108 -0.0989
vn -0.9999 0.0109 -0.0000
vn -0.9999 0.0102 -0.0022
vn -0.9999 0.0080 -0.0094
vn -0.9999 0.0073 -0.0116
vn -0.9999 0.0073 -0.0104
vn -0.9998 0.0100 -0.0184
vn -0.7325 0.0085 0.6807
vn -0.7339 0.0081 0.6792
vn -0.0621 0.0035 0.9981
vn -0.0499 -0.0000 0.9988
vn -0.9999 0.0073 -0.0111
vn -0.9997 0.0102 -0.0200
vn -0.7420 0.0061 0.6704
vn -0.7488 0.0080 0.6627
vn -0.0940 0.0010 0.9956
vn -0.0929 0.0007 0.9957
vn -0.9950 -0.0107 -0.0990
vn -0.9950 -0.0107 -0.0989
vn -0.9950 -0.0108 -0.0989
vn -0.9999 -0.0109 -0.0000
vn -0.9999 -0.0080 -0.0094
vn -0.9999 -0.0102 -0.0022
vn -0.9999 -0.0073 -0.0116
vn -0.9999 -0.0073 -0.0104
vn -0.7325 -0.0085 0.6807
vn -0.9998 -0.0100 -0.0184
vn -0.7339 -0.0081 0.6792
vn -0.0621 -0.0035 0.9981
vn -0.9999 -0.0073 -0.0111
vn -0.7420 -0.0061 0.6704
vn -0.9997 -0.0102 -0.0200
vn -0.7488 -0.0080 0.6627
vn -0.0940 -0.0010 0.9956
vn -0.0929 -0.0007 0.9957
vt 0.997070 0.004873
vt 0.994771 0.997070
vt 0.002930 0.004873
vt 0.002930 0.997070
vt 0.018766 0.976177
vt 0.018766 0.804899
vt 0.989663 0.976177
vt 0.989663 0.804899
vt 0.018766 0.394075
vt 0.989663 0.394075
vt 0.018766 0.581144
vt 0.989663 0.581144
vt 0.018766 0.595964
vt 0.989663 0.595964
vt 0.017745 0.002930
vt 0.989663 0.002930
vt 0.017745 0.175179
vt 0.989663 0.175179
vt 0.018766 0.197045
vt 0.989663 0.197045
s 1
f 1/1/1 2/2/2 3/3/2
f 4/4/3 3/3/2 2/2/2
f 5/5/4 6/6/5 7/7/6
f 8/8/7 7/7/6 6/6/5
f 9/9/8 10/10/9 11/11/10
f 12/12/11 11/11/10 10/10/9
f 11/11/10 12/12/11 13/13/12
f 14/14/13 13/13/12 12/12/11
f 15/15/14 16/16/15 17/17/16
f 18/18/17 17/17/16 16/16/15
f 17/17/16 18/18/17 19/19/18
f 20/20/19 19/19/18 18/18/17
f 21/1/20 23/3/21 22/2/21
f 24/4/22 22/2/21 23/3/21
f 25/5/23 27/7/24 26/6/25
f 28/8/26 26/6/25 27/7/24
f 29/9/27 31/11/28 30/10/29
f 32/12/30 30/10/29 31/11/28
f 31/11/28 33/13/31 32/12/30
f 34/14/13 32/12/30 33/13/31
f 35/15/32 37/17/33 36/16/34
f 38/18/35 36/16/34 37/17/33
f 37/17/33 39/19/36 38/18/35
f 40/20/37 38/18/35 39/19/36
