# Blender 5.0.0
# www.blender.org
o shape10_timezone_b1.001
v 77.115547 -26.928308 6.304758
v 78.677406 -22.705053 6.304758
v 80.510132 -22.705053 9.350663
v 78.960480 -26.928308 9.350663
v 77.063828 -26.928308 5.789258
v 78.626541 -22.705053 5.789258
v 77.115547 26.928308 6.304758
v 78.677406 22.705053 6.304758
v 80.510132 22.705053 9.350663
v 78.960480 26.928308 9.350663
v 77.063828 26.928308 5.789258
v 78.626541 22.705053 5.789258
vn 0.8702 -0.3574 -0.3393
vn 0.8049 -0.2648 -0.5310
vn 0.9169 -0.2981 -0.2653
vn 0.9362 -0.3483 -0.0470
vn 0.8702 0.3574 -0.3393
vn 0.8049 0.2648 -0.5310
vn 0.7828 0.3272 -0.5294
vn 0.9169 0.2981 -0.2653
vn 0.9362 0.3483 -0.0470
vn 0.9484 0.3034 -0.0918
vn 0.7828 -0.3272 -0.5294
vn 0.9484 -0.3034 -0.0918
vt 0.731680 0.546147
vt 0.950319 0.733172
vt 0.950319 0.546147
vt 0.731680 0.514533
vt 0.731680 0.733172
vt 0.950319 0.514533
s 1
f 2/1/1 4/2/2 1/3/3
f 1/3/3 6/4/4 2/1/1
f 8/1/5 10/2/6 9/5/7
f 7/3/8 12/4/9 11/6/10
f 2/1/1 3/5/11 4/2/2
f 1/3/3 5/6/12 6/4/4
f 8/1/5 7/3/8 10/2/6
f 7/3/8 8/1/5 12/4/9
