# Blender 5.0.0
# www.blender.org
o shape10_timezone_b1
v 76.947182 -27.103621 16.514492
v 79.662003 -20.353706 16.514492
v 77.998116 -20.353706 16.514492
v 81.163940 -12.478410 16.514492
v 81.163940 12.478410 16.514492
v 79.662003 20.353706 16.514492
v 77.998116 20.353706 16.514492
v 76.947182 27.103621 16.514492
v 77.998116 -20.353706 16.514492
v 81.163940 -12.478410 16.514492
v 77.388382 -20.560154 18.779921
v 80.677528 -12.430408 18.779921
v 76.173744 -20.947298 21.703512
v 79.515488 -13.379818 21.194971
v 79.081810 -14.367398 21.703512
v 76.173744 -20.947298 21.703512
v 75.204536 -27.348169 21.703512
v 77.388382 -20.560154 18.779921
v 76.463646 -27.157440 18.779921
v 77.998116 -20.353706 16.514492
v 76.947182 -27.103621 16.514492
v 76.463646 27.157440 18.779921
v 75.204536 27.348169 21.703512
v 77.388382 20.560154 18.779921
v 76.173744 20.947298 21.703512
v 80.677528 12.430408 18.779921
v 79.081810 14.367398 21.703512
v 79.515488 13.379818 21.194971
v 80.677528 12.430408 18.779921
v 81.163940 12.478410 16.514492
v 77.388382 20.560154 18.779921
v 77.998116 20.353706 16.514492
v 76.463646 27.157440 18.779921
v 76.947182 27.103621 16.514492
v 74.736084 -19.746370 18.039848
v 74.736084 -19.066645 18.040293
v 74.736084 -20.085810 18.628187
v 74.736084 -18.727184 18.628187
v 74.736084 -19.746370 19.216509
v 74.736084 -19.067089 19.216509
v 74.736084 19.746370 19.216509
v 74.736084 19.067089 19.216509
v 74.736084 20.085810 18.628187
v 74.736084 18.727184 18.628187
v 74.736084 19.746370 18.039848
v 74.736084 19.066645 18.040293
v 77.839714 -16.907356 21.916193
v 75.863739 -21.950232 21.916195
v 73.061279 -19.428793 18.574617
v 76.733910 -24.471670 18.574617
v 77.486923 -23.776339 16.165478
v 77.486923 -23.776339 16.165478
v 80.060204 -15.081250 16.165476
v 73.061279 -19.428793 18.574617
v 79.927139 -14.385921 18.574617
v 77.839714 -16.907356 21.916193
v 80.060204 15.081250 16.165476
v 77.486923 23.776339 16.165478
v 73.061279 19.428793 18.574617
v 76.733910 24.471670 18.574617
v 75.863739 21.950232 21.916195
v 75.863739 21.950232 21.916195
v 77.839714 16.907356 21.916193
v 73.061279 19.428793 18.574617
v 79.927139 14.385921 18.574617
v 80.060204 15.081250 16.165476
vn -0.0000 -0.0000 1.0000
vn 0.9401 -0.2643 0.2155
vn 0.9250 -0.3149 0.2128
vn 0.9246 -0.2618 0.2766
vn 0.9129 -0.3142 0.2605
vn 0.9055 -0.2583 0.3367
vn 0.8986 -0.3128 0.3076
vn 0.9089 -0.2028 0.3645
vn 0.9335 -0.2084 0.2919
vn 0.9401 -0.2642 0.2155
vn 0.9526 -0.2128 0.2176
vn 0.9334 0.2084 0.2919
vn 0.9089 0.2028 0.3645
vn 0.9246 0.2618 0.2766
vn 0.9055 0.2583 0.3367
vn 0.9129 0.3142 0.2605
vn 0.8986 0.3128 0.3076
vn 0.8986 0.3127 0.3077
vn 0.9250 0.3149 0.2128
vn 0.9401 0.2642 0.2155
vn 0.9335 0.2084 0.2919
vn 0.9526 0.2128 0.2176
vn 0.5744 -0.8178 0.0350
vn 0.5744 -0.8178 0.0349
vn 0.9806 -0.1832 0.0697
vn 0.6295 -0.5123 -0.5842
vn 0.7115 -0.2474 -0.6577
vn 0.9806 0.1832 0.0697
vn 0.7115 0.2474 -0.6577
vn 0.6295 0.5123 -0.5842
vn 0.5744 0.8178 0.0350
vn 0.5744 0.8178 0.0349
vn 0.6296 -0.5123 -0.5842
vn 0.7116 0.2473 -0.6576
vn 0.9806 -0.1833 0.0697
vn 0.7689 0.6389 0.0247
vn 0.5832 0.2651 0.7678
vn 0.5832 0.2651 0.7679
vn 0.5043 -0.4929 0.7091
vn 0.6296 -0.5123 -0.5841
vn 0.5043 0.4928 0.7091
vn 0.5832 -0.2651 0.7678
vn 0.9806 0.1833 0.0696
vn 0.7689 -0.6389 0.0247
vn 0.7116 -0.2474 -0.6576
vn 0.6296 0.5123 -0.5841
vt 0.500670 0.003474
vt 0.271930 0.003474
vt 0.004729 0.003474
vt 0.271930 0.003474
vt 0.271665 0.003033
vt 0.004464 0.003033
vt 0.278244 0.223516
vt 0.002943 0.223533
vt 0.278241 0.223533
vt 0.004462 0.003050
vt 0.278258 0.223313
vt 0.002960 0.223313
vt 0.291416 0.508019
vt 0.034829 0.458535
vt 0.291403 0.508093
vt 0.002947 0.223386
vt 0.291369 0.508674
vt 0.034796 0.459115
vt 0.068196 0.508674
vt 0.291563 0.507890
vt 0.508663 0.507890
vt 0.278405 0.223184
vt 0.502601 0.223145
vt 0.278415 0.223145
vt 0.508674 0.507852
vt 0.278406 0.223413
vt 0.502591 0.223413
vt 0.271827 0.002930
vt 0.500552 0.003021
vt 0.271812 0.003021
vt 0.502577 0.223505
vt 0.508674 0.507852
vt 0.291415 0.508019
vt 0.002960 0.223313
vt 0.068212 0.508200
vt 0.002930 0.223494
vt 0.291385 0.508200
vt 0.003052 0.223218
vt 0.068334 0.507925
vt 0.034934 0.458366
vt 0.004462 0.003050
vt 0.278241 0.223533
vt 0.271665 0.003033
vt 0.278244 0.223516
vt 0.004464 0.003033
vt 0.271827 0.002930
vt 0.502591 0.223413
vt 0.500552 0.003021
vt 0.771017 0.159911
vt 0.738654 0.160394
vt 0.787439 0.209662
vt 0.722232 0.209662
vt 0.771017 0.258930
vt 0.738654 0.258930
vt 0.634805 0.485467
vt 0.876315 0.485467
vt 0.755560 0.204832
vt 0.997070 0.204832
vt 0.964225 0.002930
vt 0.547378 0.002930
vt 0.514533 0.204832
s 1
f 1/1/1 2/2/1 3/2/1
f 4/3/1 3/2/1 2/4/1
f 5/3/1 6/4/1 7/2/1
f 8/1/1 7/2/1 6/2/1
f 9/5/2 10/6/3 11/7/4
f 12/8/5 11/9/4 10/10/3
f 11/11/4 12/12/5 13/13/6
f 14/14/7 13/15/6 12/16/5
f 13/17/6 14/18/7 15/19/7
f 16/20/6 17/21/8 18/22/4
f 19/23/9 18/24/4 17/25/8
f 18/26/4 19/27/9 20/28/10
f 21/29/11 20/30/10 19/31/9
f 22/23/12 23/32/13 24/24/14
f 25/20/15 24/22/14 23/21/13
f 24/11/14 25/33/15 26/34/16
f 27/35/17 26/36/16 25/37/15
f 26/38/16 27/39/17 28/40/18
f 29/8/16 30/41/19 31/42/14
f 32/43/20 31/44/14 30/45/19
f 31/26/14 32/46/20 33/47/21
f 34/48/22 33/31/21 32/30/20
f 35/49/23 36/50/24 37/51/25
f 38/52/26 37/51/25 36/50/24
f 37/51/25 38/52/26 39/53/27
f 40/54/28 39/53/27 38/52/26
f 41/53/29 42/54/25 43/51/28
f 44/52/30 43/51/28 42/54/25
f 43/51/28 44/52/30 45/49/31
f 46/50/32 45/49/31 44/52/30
f 47/55/33 48/56/34 49/57/35
f 50/58/36 49/57/35 48/56/34
f 49/57/35 50/58/36 51/59/37
f 52/59/38 53/60/39 54/57/25
f 55/61/23 54/57/25 53/60/39
f 54/57/25 55/61/23 56/55/40
f 57/60/41 58/59/42 59/57/43
f 60/58/44 59/57/43 58/59/42
f 59/57/43 60/58/44 61/56/27
f 62/56/45 63/55/46 64/57/28
f 65/61/31 64/57/28 63/55/46
f 64/57/28 65/61/31 66/60/41
