# Blender 5.0.0
# www.blender.org
o shape24_callback_47_b0
v -85.044746 -6.953825 34.798923
v -85.905579 -6.953825 35.268200
v -85.040344 0.000000 34.798923
v -85.901176 0.000000 35.268200
v -85.044746 6.953826 34.798927
v -85.905579 6.953826 35.268200
v -85.827484 6.953826 35.506332
v -85.905579 6.953826 35.268200
v -85.823082 0.000000 35.506332
v -85.901176 0.000000 35.268200
v -85.827484 -6.953826 35.506332
v -85.905579 -6.953825 35.268200
vn -0.4786 0.0003 -0.8780
vn -0.9296 0.0006 -0.3685
vn -0.4786 -0.0000 -0.8780
vn -0.9296 -0.0000 -0.3685
vn -0.4786 -0.0003 -0.8780
vn -0.9296 -0.0006 -0.3685
vn -0.9502 -0.0006 0.3116
vn -0.9502 -0.0000 0.3116
vn -0.9502 0.0006 0.3116
vn -0.9296 0.0005 -0.3685
vt 0.708587 0.297272
vt 0.708587 0.457681
vt 0.965653 0.297272
vt 0.965653 0.457681
vt 0.708587 0.554338
vt 0.965653 0.554338
s 1
f 1/1/1 2/2/2 3/3/3
f 4/4/4 3/3/3 2/2/2
f 3/3/3 4/4/4 5/1/5
f 6/2/6 5/1/5 4/4/4
f 7/5/7 8/2/6 9/6/8
f 10/4/4 9/6/8 8/2/6
f 9/6/8 10/4/4 11/5/9
f 12/2/10 11/5/9 10/4/4
