# Blender 5.0.0
# www.blender.org
o shape33_timezone_b1.001
v -85.526588 20.747385 26.232531
v -85.633537 20.728201 24.352762
v -86.077660 15.433576 26.335461
v -86.249756 14.710382 24.468157
v -85.526588 -20.747385 26.232531
v -85.633537 -20.728201 24.352762
v -86.077660 -15.433576 26.335461
v -86.249756 -14.710382 24.468157
vn -0.9946 0.1026 0.0174
vn -0.9872 0.1543 0.0392
vn -0.9947 0.1012 0.0164
vn -0.9872 -0.1543 0.0392
vn -0.9946 -0.1026 0.0174
vn -0.9947 -0.1012 0.0164
vn -0.9871 0.1548 0.0402
vn -0.9871 -0.1548 0.0402
vt 0.753717 0.291413
vt 0.996396 0.002930
vt 0.708587 0.002930
vt 0.997070 0.291413
s 1
f 3/1/1 2/2/2 4/3/3
f 6/2/4 7/1/5 8/3/6
f 3/1/1 1/4/7 2/2/2
f 6/2/4 5/4/8 7/1/5
