# Blender 5.0.0
# www.blender.org
o shape29.003
v 11.480248 8.981154 46.169376
v 11.786966 0.000022 46.278088
v 24.239971 -10.426870 39.302982
v 11.480098 -8.981026 46.169468
v 10.733406 -16.252914 45.743240
v 20.662907 -24.673643 38.985764
v 9.665243 -21.397820 45.128475
v 20.661894 24.673719 38.986286
v 9.665244 21.397820 45.128475
v 10.733209 16.253931 45.743080
v 34.536514 28.087790 30.434374
v 22.970818 18.296118 39.173061
v 37.882046 21.085424 29.580271
v 24.240089 10.426845 39.302902
v 39.520180 12.291274 29.682322
v 24.582952 0.000152 39.421970
v 40.327656 0.000233 29.814625
v 39.520508 -12.291449 29.682106
v 22.970152 -18.297663 39.173157
v 37.882141 -21.085556 29.580193
v 34.536514 -28.087790 30.434374
v -60.802540 -25.723103 32.850487
v -64.840515 -21.269968 33.213730
v -39.808300 -20.672506 45.492428
v -68.664925 -11.354463 33.420559
v -43.205311 0.029866 46.582306
v -70.050659 -0.000003 33.466881
v -68.661850 11.376850 33.419937
v -60.802540 25.723097 32.850483
v -39.802143 20.676811 45.494579
v -64.846008 21.278568 33.208607
v -43.205261 -0.053363 46.585007
v -68.680855 11.330978 33.416969
v 9.563835 -21.342449 44.809948
v 11.680341 0.037058 45.960239
v 20.547977 -24.617960 38.674587
v 24.468740 0.038511 39.108475
v 34.291592 -28.028904 30.007542
v 37.644115 -21.026331 29.149426
v 11.679653 -0.038116 45.960720
v 9.562747 21.343449 44.810413
v 24.468826 -0.038019 39.108372
v 20.548225 24.618460 38.674389
v 34.283291 28.033216 30.011902
v 37.635891 -21.033209 29.153109
v 24.454670 0.025691 39.115433
v 39.268665 -12.251337 29.256916
v 40.066219 0.017812 29.393787
v 37.644115 21.026327 29.149429
v 24.472918 -0.048172 39.107372
v 34.300545 28.024343 30.003164
v 37.635895 21.033205 29.153111
v 39.273758 12.243507 29.254814
v 24.464695 -0.041293 39.111053
v 39.258858 12.266983 29.261690
v 40.066219 -0.017816 29.393787
v 24.449793 -0.017817 39.117931
v -48.077473 -23.072283 41.006283
v -39.881588 -20.750387 45.770634
v -51.696445 -18.180880 41.080688
v -41.503559 -16.061544 46.358841
v -42.501781 -9.172421 46.752819
v -43.282097 0.000056 46.865475
v -42.501839 9.172374 46.752808
v -41.503567 16.060781 46.358921
v -51.696526 18.180365 41.080803
v -39.881588 20.750387 45.770634
v -60.971947 -25.906170 33.217602
v -58.972965 -25.704206 33.893841
v -65.026375 -21.390139 33.598728
v -68.856918 -11.404390 33.818195
v -54.767673 -10.043109 41.008076
v -70.246124 0.000005 33.865955
v -56.055065 0.000025 41.008274
v -54.767563 10.043421 41.008068
v -68.856880 11.405185 33.818035
v -65.024239 21.390133 33.599815
v -48.077473 23.072283 41.006283
v -58.971840 25.702555 33.894829
v -60.971943 25.906172 33.217606
vn 0.4977 0.1711 0.8503
vn 0.4509 0.1930 0.8715
vn 0.4846 0.1450 0.8627
vn 0.4455 0.1582 0.8812
vn 0.4957 0.0648 0.8661
vn 0.4667 0.0600 0.8824
vn 0.4988 -0.0000 0.8667
vn 0.4721 0.0002 0.8816
vn 0.4957 -0.0648 0.8661
vn 0.4667 -0.0600 0.8824
vn 0.4845 -0.1450 0.8627
vn 0.4455 -0.1582 0.8812
vn 0.4509 -0.1929 0.8715
vn 0.4333 -0.1951 0.8799
vn 0.4333 0.1951 0.8799
vn 0.5196 0.1234 0.8455
vn 0.5241 0.0695 0.8488
vn 0.5252 -0.0000 0.8510
vn 0.5241 -0.0696 0.8488
vn 0.5196 -0.1233 0.8455
vn 0.4977 -0.1711 0.8503
vn 0.3284 0.5495 -0.7682
vn 0.4100 0.2816 -0.8675
vn 0.2713 0.3723 -0.8876
vn 0.4293 0.0971 -0.8979
vn 0.2435 -0.0001 -0.9699
vn 0.4390 -0.0000 -0.8985
vn 0.4294 -0.0972 -0.8979
vn 0.3282 -0.5497 -0.7682
vn 0.2713 -0.3724 -0.8875
vn 0.4099 -0.2816 -0.8676
vn 0.2433 -0.0001 -0.9700
vn 0.4294 -0.0971 -0.8979
vn -0.2662 0.2442 -0.9325
vn -0.2040 -0.0000 -0.9790
vn -0.4160 0.3396 -0.8436
vn -0.4967 -0.0000 -0.8679
vn -0.4448 0.3041 -0.8425
vn -0.4814 0.1100 -0.8696
vn -0.2663 -0.2443 -0.9324
vn -0.4968 -0.0000 -0.8679
vn -0.4160 -0.3396 -0.8436
vn -0.4448 -0.3041 -0.8424
vn -0.4814 0.1101 -0.8696
vn -0.5101 0.0728 -0.8571
vn -0.5286 -0.0000 -0.8489
vn -0.4814 -0.1100 -0.8696
vn -0.4449 -0.3041 -0.8424
vn -0.4814 -0.1101 -0.8696
vn -0.5101 -0.0728 -0.8571
vn -0.5101 -0.0727 -0.8571
vn -0.4030 -0.3755 0.8346
vn -0.4064 -0.2829 0.8688
vn -0.4227 -0.2306 0.8765
vn -0.4166 -0.1722 0.8926
vn -0.4302 -0.1063 0.8965
vn -0.4166 -0.0812 0.9054
vn -0.4345 -0.0000 0.9007
vn -0.4189 0.0002 0.9080
vn -0.4302 0.1063 0.8965
vn -0.4170 0.0810 0.9053
vn -0.4166 0.1722 0.8926
vn -0.4226 0.2306 0.8765
vn -0.4064 0.2828 0.8688
vn -0.4030 0.3755 0.8346
vn -0.2739 -0.3224 0.9061
vn -0.3341 -0.4109 0.8483
vn -0.3822 -0.3328 0.8621
vn -0.4445 -0.1352 0.8855
vn -0.4497 0.0001 0.8932
vn -0.4445 0.1352 0.8855
vn -0.3821 0.3328 0.8621
vn -0.3341 0.4107 0.8483
vn -0.2742 0.3228 0.9059
vt 0.974273 0.005859
vt 0.750279 0.005859
vt 0.768588 0.273417
vt 0.582381 0.228430
vt 0.767420 0.298448
vt 0.582381 0.316037
vt 0.764693 0.417619
vt 0.582381 0.417619
vt 0.582381 0.005859
vt 0.994141 0.321787
vt 0.991803 0.276123
vt 0.988687 0.417619
vt 0.570662 0.090902
vt 0.439368 0.091361
vt 0.570662 0.551662
vt 0.158336 0.091514
vt 0.020833 0.551662
vt 0.020833 0.091821
vt 0.562810 0.570662
vt 0.182075 0.570662
vt 0.562810 0.044780
vt 0.070502 0.031755
vt 0.562810 0.005859
vt 0.401386 0.005859
vt 0.284335 0.005859
vt 0.005859 0.005859
vt 0.227512 0.603058
vt 0.005859 0.603058
vt 0.225730 0.723889
vt 0.005859 0.762336
vt 0.227512 0.837613
vt 0.005859 0.848274
vt 0.227512 0.962967
vt 0.005859 0.962967
vt 0.357720 0.582381
vt 0.386446 0.758459
vt 0.112195 0.582381
vt 0.118824 0.758459
vt 0.386446 0.820490
vt 0.118824 0.837613
vt 0.386446 0.962967
vt 0.118824 0.962967
s 1
f 11/1/1 8/2/2 12/3/3
f 10/4/4 12/3/3 8/2/2
f 12/3/3 10/4/4 14/5/5
f 1/6/6 14/5/5 10/4/4
f 14/5/5 1/6/6 16/7/7
f 2/8/8 16/7/7 1/6/6
f 16/7/7 2/8/8 3/5/9
f 4/6/10 3/5/9 2/8/8
f 3/5/9 4/6/10 19/3/11
f 5/4/12 19/3/11 4/6/10
f 19/3/11 5/4/12 6/2/13
f 7/9/14 6/2/13 5/4/12
f 8/2/2 9/9/15 10/4/4
f 11/1/1 12/3/3 13/10/16
f 14/5/5 13/10/16 12/3/3
f 13/10/16 14/5/5 15/11/17
f 16/7/7 15/11/17 14/5/5
f 15/11/17 16/7/7 17/12/18
f 3/5/9 17/12/18 16/7/7
f 17/12/18 3/5/9 18/11/19
f 19/3/11 18/11/19 3/5/9
f 18/11/19 19/3/11 20/10/20
f 21/1/21 20/10/20 19/3/11
f 6/2/13 21/1/21 19/3/11
f 22/13/22 23/14/23 24/15/24
f 25/16/25 24/15/24 23/14/23
f 24/15/24 25/16/25 26/17/26
f 27/18/27 26/17/26 25/16/25
f 26/17/26 27/18/27 28/16/28
f 29/13/29 30/15/30 31/14/31
f 32/17/32 31/14/31 30/15/30
f 31/14/31 32/17/32 33/16/33
f 34/19/34 35/20/35 36/21/36
f 37/22/37 36/21/36 35/20/35
f 36/21/36 37/22/37 38/23/38
f 39/24/39 38/23/38 37/22/37
f 40/20/35 41/19/40 42/22/41
f 43/21/42 42/22/41 41/19/40
f 42/22/41 43/21/42 44/23/43
f 45/24/44 46/22/37 47/25/45
f 48/26/46 47/25/45 46/22/37
f 49/24/47 50/22/41 51/23/48
f 52/24/49 53/25/50 54/22/41
f 55/25/51 56/26/46 57/22/41
f 58/27/52 59/28/53 60/29/54
f 61/30/55 60/29/54 59/28/53
f 60/29/54 61/30/55 72/31/56
f 62/32/57 72/31/56 61/30/55
f 72/31/56 62/32/57 74/33/58
f 63/34/59 74/33/58 62/32/57
f 74/33/58 63/34/59 75/31/60
f 64/32/61 75/31/60 63/34/59
f 75/31/60 64/32/61 65/30/62
f 75/31/60 65/30/62 66/29/63
f 67/28/64 66/29/63 65/30/62
f 66/29/63 67/28/64 78/27/65
f 68/35/66 69/35/67 70/36/68
f 58/37/52 70/36/68 69/35/67
f 70/36/68 58/37/52 60/38/54
f 70/36/68 60/38/54 71/39/69
f 72/40/56 71/39/69 60/38/54
f 71/39/69 72/40/56 73/41/70
f 74/42/58 73/41/70 72/40/56
f 73/41/70 74/42/58 76/39/71
f 75/40/60 76/39/71 74/42/58
f 76/39/71 75/40/60 66/38/63
f 76/39/71 66/38/63 77/36/72
f 78/37/65 77/36/72 66/38/63
f 77/36/72 78/37/65 79/35/73
f 80/35/74 77/36/72 79/35/73
