# Blender 5.0.0
# www.blender.org
o shape7.009
v -86.571716 -26.146048 32.682121
v -66.158325 29.451111 32.849709
v -62.355690 27.011303 34.079540
v -63.870529 25.609232 34.481236
v -87.266907 23.196938 33.877010
v -66.634041 21.469364 34.937115
v -67.297409 12.057427 35.200085
v -67.670746 0.000000 35.330624
v -87.336090 -10.710228 34.067139
v 77.539650 -28.695580 13.201927
v 75.415024 31.018435 13.232655
v 77.539650 28.695580 13.201927
v 83.209290 0.000000 13.177652
v 76.209709 -31.077393 11.672327
v 82.512505 -7.366657 13.187735
v 82.512505 7.366657 13.187735
v 76.132370 -31.067440 10.058197
v 78.284706 -28.776581 11.657111
v 83.265633 -7.347654 11.645877
v 83.947906 0.000000 11.619579
v 83.265633 7.347654 11.645877
v 78.284706 28.776581 11.657111
v -87.084084 -25.262287 33.518002
v -87.972145 -25.242403 32.720230
v -88.324142 0.000000 32.733864
v -87.512520 27.074017 28.942461
v -86.571716 26.146048 32.682121
v -87.336090 10.710228 34.067139
v -87.972145 25.242403 32.720230
v -87.084084 25.262287 33.518002
v 66.260689 -32.256863 2.408059
v 66.260689 32.256863 2.408059
v -48.355377 33.861099 23.606396
v -54.710003 33.159939 26.575914
v -54.654545 33.861099 24.454256
v -61.812653 32.758175 25.384800
v 52.823448 -32.490139 25.325224
v -70.816284 31.751219 23.089327
v -48.680988 33.404312 26.378345
v -70.816284 -31.751219 23.089327
v -61.812653 -32.758175 25.384800
v -54.710003 -33.159939 26.575914
v -64.435028 33.633820 18.916698
v -91.016975 28.973055 17.849440
v -65.021095 33.696369 17.964624
v -67.033875 33.580460 13.645422
v -67.033875 -33.580460 13.645422
v -60.771957 -33.633820 22.326448
v -54.654545 -33.861099 24.454256
v -48.680988 -33.404312 26.378345
v -50.499924 30.526793 32.235085
v 64.779648 30.179098 24.786648
v -50.499924 -30.526793 32.235085
v -66.158325 -29.451111 32.849709
v -87.512520 -27.074017 28.942461
v -68.031281 32.587559 4.032172
v -36.904655 30.867723 1.986029
v -60.771957 33.633820 22.326448
v 38.115898 32.360455 1.700040
v 66.564804 33.268959 10.095423
v 54.872013 33.673260 23.734724
v 61.961372 33.422939 20.157927
v -64.435028 -33.633820 18.916698
v -65.021095 -33.696369 17.964624
v -91.016975 -28.973055 17.849440
v 76.209709 31.077393 11.672327
v 76.132370 31.067440 10.058197
v 57.375381 32.432163 24.499445
v 52.823448 32.490139 25.325224
v 69.542412 30.087862 23.842724
v 70.435669 30.039373 23.409788
v 69.542412 -30.087862 23.842724
v -48.355377 -33.861099 23.606396
v 64.779648 -30.179098 24.786648
v 65.215355 33.125328 15.284173
v 65.215355 -33.125328 15.284173
v 61.961372 -33.422939 20.157927
v 37.835327 -31.376516 0.377523
v 57.375381 -32.432163 24.499445
v 75.415024 -31.018435 13.232655
v 66.564804 -33.268959 10.095423
v 54.872013 -33.673260 23.734724
v -68.031281 -32.587559 4.032172
v -90.215210 -28.899540 7.318170
v 70.435669 -30.039373 23.409788
v 71.171829 -30.068983 22.369043
v 29.957354 27.441162 29.770176
v 74.775604 14.186716 25.200733
v 65.393692 28.122852 25.208120
v 53.652832 -28.235807 26.772602
v 52.834194 -30.297478 26.400360
v 56.432583 -10.086397 28.859768
v 70.318237 0.000000 27.500736
v 56.432583 10.086397 28.859768
v 68.577980 15.336369 26.444363
v 52.834194 30.297478 26.400360
v 53.652832 28.235807 26.772602
v 71.563438 27.946871 23.944210
v 69.653664 8.667926 27.081659
v 75.797882 7.965300 25.835443
v 71.171829 30.068983 22.369043
v 35.237415 12.396300 31.658237
v 32.049412 22.770458 30.648438
v -92.353996 27.578892 15.629207
v -92.807884 25.584930 17.870537
v -92.173828 27.572975 17.867170
v -91.218239 28.899540 15.614693
v -90.215210 28.899540 7.318169
v -91.680817 25.584927 7.679191
v -92.879158 0.000000 15.590250
v -92.879044 25.584930 15.634799
v -92.741882 0.000000 18.152525
v 76.339455 0.000000 26.124643
v 75.797882 -7.965300 25.835443
v 69.653664 -8.667926 27.081659
v 74.775604 -14.186716 25.200733
v 32.049412 -22.770458 30.648438
v 29.957354 -27.441162 29.770176
v 71.563438 -27.946871 23.944210
v 65.393692 -28.122852 25.208120
v 35.237415 -12.396300 31.658237
v 68.577980 -15.336369 26.444363
v 36.642220 0.000000 32.201984
v 57.069267 0.000000 29.371237
v -67.297409 -12.057427 35.200085
v -66.634041 -21.469364 34.937115
v -87.266907 -23.196938 33.877010
v -63.870529 -25.609232 34.481236
v -62.355690 -27.011303 34.079540
v -91.680817 -25.584927 7.679190
v -92.807884 -25.584930 17.870537
v -92.879044 -25.584930 15.634799
v -92.353996 -27.578892 15.629207
v -91.218239 -28.899540 15.614693
v -92.173828 -27.572975 17.867170
v 85.142754 -7.174233 1.920121
v 85.830032 0.000000 1.912221
v 80.275726 -28.562004 1.989985
v 78.544815 -30.316078 2.045299
v 73.571053 -31.339651 2.138186
v 74.146126 -31.078060 1.427251
v 78.270500 -30.312395 1.304756
v 79.688675 -28.546349 1.265286
v 84.661057 -7.167109 1.277441
v 85.357658 0.000000 1.258494
v 85.142754 7.174233 1.920121
v 84.661057 7.167109 1.277441
v 80.275726 28.562004 1.989985
v 79.688675 28.546349 1.265286
v 78.544815 30.316078 2.045299
v 78.270500 30.312395 1.304756
v 73.571053 31.339651 2.138186
v 74.146126 31.078060 1.427251
v -36.904655 -30.867723 1.986029
v 38.115898 -32.360455 1.700040
v 37.835327 31.376516 0.377523
vn -0.0395 0.1354 0.9900
vn -0.1054 0.9450 0.3096
vn -0.0395 -0.1354 0.9900
vn 0.7973 0.0791 -0.5984
vn 0.7860 0.1808 -0.5911
vn 0.7629 0.1771 -0.6218
vn 0.1995 0.9767 -0.0788
vn 0.1721 0.9614 -0.2145
vn -0.0215 -0.0000 -0.9998
vn -0.0282 -0.9493 0.3130
vn 0.1176 0.2215 0.9680
vn -0.0634 -0.9951 0.0761
vn -0.0028 -0.9998 -0.0209
vn 0.0018 -0.9999 0.0134
vn 0.0031 -0.9751 0.2218
vn -0.0222 -0.9000 0.4353
vn 0.0090 -0.8964 0.4432
vn -0.1110 -0.9310 0.3478
vn -0.1623 0.9337 0.3191
vn -0.1734 -0.9489 0.2637
vn -0.1636 -0.9618 0.2197
vn -0.1679 -0.9691 0.1804
vn -0.1402 -0.9786 0.1506
vn -0.1743 -0.9697 0.1710
vn -0.1769 -0.9698 0.1680
vn 0.2241 -0.9744 -0.0167
vn -0.0009 -0.9997 -0.0264
vn 0.0015 -0.9995 -0.0310
vn 0.0019 -0.9996 -0.0280
vn 0.0358 -0.9994 0.0011
vn 0.2181 -0.9035 0.3690
vn 0.1791 -0.7521 0.6342
vn 0.1355 -0.7034 0.6978
vn 0.0264 -0.7855 0.6183
vn 0.0421 -0.3492 0.9361
vn 0.0463 -0.5336 0.8445
vn -0.1219 -0.7184 0.6848
vn -0.0484 -0.3885 0.9202
vn -0.4614 -0.7360 0.4953
vn -0.5064 -0.7985 0.3255
vn -0.5543 -0.7734 0.3075
vn -0.1895 -0.9561 0.2235
vn 0.6975 0.5056 0.5078
vn -0.7328 -0.6093 0.3029
vn -0.1912 -0.9814 -0.0151
vn -0.1054 -0.9450 0.3096
vn -0.0004 -0.9947 -0.1027
vn 0.1185 -0.9838 -0.1342
vn 0.2001 -0.9779 -0.0609
vn 0.2241 -0.9743 -0.0239
vn 0.2082 0.9747 0.0811
vn 0.2120 -0.9738 0.0821
vn -0.0002 -0.9943 -0.1068
vn 0.0069 0.9914 -0.1308
vn 0.2076 -0.9750 0.0791
vn 0.2558 -0.9523 0.1663
vn 0.2841 -0.9311 0.2287
vn 0.2845 -0.9313 0.2277
vn 0.2236 -0.9058 0.3599
vn 0.4129 -0.4279 0.8040
vn 0.0069 -0.9914 -0.1308
vn 0.1625 -0.6307 0.7588
vn 0.1507 -0.5958 0.7889
vn 0.1246 -0.4373 0.8906
vn 0.0770 -0.4393 0.8951
vn 0.0451 -0.2041 0.9779
vn 0.0443 -0.2306 0.9720
vn 0.7078 -0.6943 0.1304
vn -0.0441 -0.3188 0.9468
vn -0.0434 -0.1748 0.9836
vn -0.6590 -0.1851 0.7290
vn -0.8435 -0.0128 0.5370
vn -0.8474 -0.0121 0.5308
vn -0.9666 -0.2546 0.0308
vn -0.9080 -0.2901 0.3024
vn -0.9498 0.3031 0.0773
vn -0.7697 0.6366 0.0484
vn -0.7555 -0.6487 -0.0913
vn -0.9570 0.2516 -0.1441
vn -0.2392 -0.0000 -0.9710
vn -0.1918 0.9812 -0.0232
vn 0.8081 -0.0781 -0.5839
vn -0.0215 -0.5801 -0.8143
vn -0.0114 -0.8034 -0.5953
vn 0.1105 -0.9584 -0.2632
vn 0.0256 -0.7351 -0.6775
vn 0.1721 -0.9614 -0.2145
vn 0.1995 -0.9767 -0.0788
vn 0.2434 -0.9698 -0.0176
vn 0.6065 0.6144 -0.5046
vn 0.7078 0.6943 0.1304
vn 0.6870 0.6234 0.3734
vn 0.7544 0.4753 0.4528
vn -0.9570 -0.2516 -0.1441
vn 0.2025 -0.1441 0.9686
vn 0.0215 0.0045 -0.9998
vn 0.7457 -0.6050 -0.2792
vn 0.1317 -0.1716 0.9763
vn 0.1420 0.1302 0.9813
vn 0.8805 -0.2044 0.4276
vn -0.8034 -0.0000 0.5954
vn 0.8410 0.2406 0.4846
vn -0.8474 0.0121 0.5308
vn -0.9570 -0.0135 0.2899
vn -0.9737 -0.0000 0.2279
vn -0.9995 -0.0000 0.0318
vn -0.9888 -0.0003 -0.1489
vn -0.9887 -0.0000 -0.1498
vn 0.6922 -0.6218 0.3664
vn -0.7555 0.6487 -0.0913
vn -0.1918 -0.9812 -0.0232
vn -0.0004 0.9947 -0.1027
vn -0.0002 0.9943 -0.1068
vn -0.0114 0.8034 -0.5953
vn -0.0215 0.5801 -0.8143
vn -0.9508 0.0010 0.3097
vn -0.1787 0.9823 0.0569
vn 0.0215 -0.0045 -0.9998
vn 0.0240 -0.0416 -0.9988
vn 0.0300 -0.3135 -0.9491
vn -0.1465 -0.0000 -0.9892
vn -0.0575 0.0155 0.9982
vn 0.8805 0.2044 0.4276
vn 0.1326 0.2269 0.9649
vn 0.2111 -0.1267 0.9692
vn 0.1447 -0.1172 0.9825
vn 0.1429 -0.1213 0.9823
vn 0.8709 -0.1894 0.4534
vn 0.9006 0.0821 0.4269
vn 0.0344 0.0255 0.9991
vn 0.1370 0.0588 0.9888
vn 0.1379 -0.1378 0.9808
vn 0.0300 -0.0099 0.9995
vn -0.8435 0.0128 0.5370
vn -0.0573 0.0126 0.9983
vn -0.0487 -0.0313 0.9983
vn 0.0300 0.0099 0.9995
vn -0.6590 0.1851 0.7290
vn -0.4614 0.7360 0.4953
vn -0.5064 0.7985 0.3255
vn -0.5543 0.7734 0.3075
vn -0.7328 0.6093 0.3029
vn -0.9080 0.2901 0.3024
vn 0.9782 0.0902 0.1872
vn -0.9888 0.0003 -0.1489
vn 0.8821 0.0768 0.4647
vn -0.1912 0.9814 -0.0151
vn -0.1787 -0.9823 0.0569
vn -0.0009 0.9997 -0.0264
vn 0.0015 0.9995 -0.0310
vn 0.0358 0.9994 0.0011
vn 0.2120 0.9738 0.0821
vn -0.1559 -0.9488 0.2747
vn 0.2241 0.9743 -0.0239
vn 0.2001 0.9779 -0.0609
vn 0.1185 0.9838 -0.1342
vn -0.1687 0.8397 0.5162
vn 0.0019 0.9996 -0.0280
vn 0.0256 0.7351 -0.6775
vn 0.0300 0.3135 -0.9491
vn 0.0240 0.0416 -0.9988
vn 0.9591 0.2177 0.1812
vn 0.0237 -0.0049 -0.9997
vn 0.0237 0.0049 -0.9997
vn 0.8081 0.0781 -0.5839
vn -0.7564 -0.6512 0.0626
vn -0.0656 -0.0000 -0.9978
vn 0.1396 0.0585 0.9885
vn 0.9006 -0.0821 0.4269
vn 0.8803 -0.0826 0.4671
vn 0.2225 -0.0505 0.9736
vn 0.2225 0.0505 0.9736
vn 0.0343 -0.0477 0.9983
vn 0.1370 -0.0588 0.9888
vn -0.0434 0.1748 0.9836
vn -0.1219 0.7184 0.6848
vn -0.0441 0.3188 0.9468
vn -0.0484 0.3885 0.9202
vn 0.6843 -0.6209 0.3823
vn -0.1734 0.9489 0.2637
vn -0.1895 0.9561 0.2235
vn -0.1769 0.9698 0.1680
vn -0.1743 0.9697 0.1710
vn -0.1402 0.9786 0.1506
vn -0.0634 0.9951 0.0761
vn -0.0028 0.9998 -0.0209
vn 0.0018 0.9999 0.0134
vn 0.0031 0.9751 0.2218
vn 0.0090 0.8964 0.4432
vn 0.0264 0.7855 0.6183
vn 0.1355 0.7034 0.6978
vn 0.1791 0.7521 0.6342
vn 0.2181 0.9035 0.3690
vn 0.2236 0.9058 0.3599
vn 0.2845 0.9313 0.2277
vn 0.2841 0.9311 0.2287
vn 0.2558 0.9523 0.1663
vn 0.2076 0.9750 0.0791
vn -0.0573 -0.0126 0.9983
vn 0.2434 0.9698 -0.0176
vn 0.1928 0.2520 0.9483
vn 0.1105 0.9584 -0.2632
vn 0.9774 -0.0934 0.1895
vn 0.9591 -0.2177 0.1812
vn 0.1396 -0.0585 0.9885
vn 0.8716 -0.2029 0.4462
vn 0.8709 0.1894 0.4534
vn 0.2111 0.1267 0.9692
vn 0.1447 0.1172 0.9825
vn 0.0429 -0.1099 0.9930
vn 0.1429 0.1213 0.9823
vn 0.7629 -0.1771 -0.6218
vn 0.0451 0.2041 0.9779
vn 0.0443 0.2306 0.9720
vn -0.1687 -0.8397 0.5162
vn -0.1110 0.9310 0.3478
vn 0.0421 0.3492 0.9361
vn -0.1179 0.9646 0.2360
vn -0.1636 0.9618 0.2197
vn -0.1679 0.9691 0.1804
vn -0.0282 0.9493 0.3130
vn -0.0222 0.9000 0.4353
vn 0.0463 0.5336 0.8445
vn 0.1246 0.4373 0.8906
vn 0.1507 0.5958 0.7889
vn 0.0770 0.4393 0.8951
vn 0.1625 0.6307 0.7588
vn 0.4129 0.4279 0.8040
vn 0.2015 -0.2353 0.9508
vn 0.6975 -0.5056 0.5078
vn 0.0429 0.1099 0.9930
vn 0.2025 0.1441 0.9686
vn 0.1317 0.1716 0.9763
vn 0.1176 -0.2215 0.9680
vn 0.1306 -0.2364 0.9629
vn 0.2196 -0.1394 0.9656
vn 0.2189 -0.1346 0.9664
vn -1.0000 -0.0000 0.0025
vn 0.2189 0.1346 0.9664
vn 0.2196 0.1394 0.9656
vn 0.1133 0.2324 0.9660
vn -0.1559 0.9488 0.2747
vn 0.2082 -0.9747 0.0811
vn -0.1179 -0.9646 0.2360
vn 0.2241 0.9744 -0.0167
vn 0.0180 0.8003 -0.5993
vn 0.0180 -0.8003 -0.5993
vn 0.7371 -0.6639 0.1263
vn -0.9498 -0.3031 0.0773
vn -0.9666 0.2546 0.0308
vn -0.7564 0.6512 0.0626
vn -0.9076 0.3825 -0.1728
vn -0.1754 0.9810 -0.0831
vn 0.7973 -0.0791 -0.5984
vn 0.7457 0.6050 -0.2792
vn 0.7371 0.6639 0.1263
vn 0.6922 0.6218 0.3664
vn 0.6843 0.6209 0.3823
vn -0.9076 -0.3825 -0.1728
vn 0.0185 -0.0000 -0.9998
vn 0.6065 -0.6144 -0.5046
vn 0.1379 0.1378 0.9808
vn 0.8775 -0.2043 0.4339
vn 0.8716 0.2029 0.4462
vn -0.9508 -0.0010 0.3097
vn 0.6870 -0.6234 0.3734
vn -0.1754 -0.9810 -0.0831
vn -0.9570 0.0135 0.2899
vn -0.0487 0.0313 0.9983
vn 0.8775 0.2043 0.4339
vn 0.1306 0.2364 0.9629
vn 0.8958 0.0841 0.4365
vn 0.0343 0.0477 0.9983
vn 0.1370 0.0589 0.9888
vn 0.1420 -0.1302 0.9813
vn -0.0575 -0.0155 0.9982
vn 0.9774 0.0934 0.1895
vn 0.8803 0.0826 0.4671
vn -0.1623 -0.9337 0.3191
vn 0.1864 0.6582 0.7294
vn 0.9559 0.2221 0.1920
vn -0.7697 -0.6366 0.0484
vn 0.1393 0.0589 0.9885
vn 0.8958 -0.0841 0.4365
vn 0.8821 -0.0768 0.4647
vn 0.2053 -0.0630 0.9767
vn 0.2053 0.0630 0.9767
vn 0.0344 -0.0255 0.9991
vn 0.1370 -0.0589 0.9888
vn 0.7544 -0.4753 0.4528
vn -0.0641 -0.0000 0.9979
vn 0.2015 0.2353 0.9508
vn 0.9782 -0.0902 0.1872
vn 0.9559 -0.2221 0.1920
vn 0.1393 -0.0589 0.9885
vn 0.8410 -0.2406 0.4846
vn 0.0395 -0.0833 0.9957
vn 0.7860 -0.1808 -0.5911
vn 0.1864 -0.6582 0.7294
vn 0.1928 -0.2520 0.9483
vn 0.0395 0.0833 0.9957
vn 0.1133 -0.2324 0.9660
vn 0.1326 -0.2269 0.9649
vt 0.125000 0.961000
vt 0.222000 0.185000
vt 0.266000 0.869000
vt 0.780000 0.774000
vt 0.780000 0.719000
vt 0.822000 0.737000
vt 0.386000 0.621000
vt 0.434000 0.604000
vt 0.000000 0.000000
vt 0.921000 0.250000
vt 0.475000 0.072000
vt 0.816000 0.645000
vt 0.849000 1.000000
vt 0.060000 0.789000
vt 0.874000 0.658000
vt 0.837000 0.530000
vt 0.841000 0.498000
vt 0.124000 0.973000
vt 0.125000 0.932000
vt 0.036000 0.720000
vt 1.000000 0.968000
vt 0.943000 0.765000
vt 0.004000 0.366000
vt 0.061000 0.293000
vt 0.068000 0.472000
vt 0.087000 0.632000
vt 0.005000 0.000000
vt 0.089000 0.000000
vt 0.964000 0.087000
vt 0.086000 1.000000
vt 0.888000 0.716000
vt 0.097000 0.378000
vt 0.043000 0.361000
vt 0.042000 0.283000
vt 0.097000 -0.001000
vt 0.097000 0.283000
vt 0.015502 0.502000
vt 0.925000 0.759000
vt 0.233000 0.760000
vt 0.097000 0.361000
vt 0.675000 0.030000
vt 0.858000 0.072000
vt 1.000000 0.491000
vt 0.588000 0.847000
vt 0.488000 0.002000
vt 0.011000 0.737000
vt 0.143000 0.714000
vt 0.027000 0.545000
vt 0.005859 0.759000
vt 0.984498 0.834000
vt 0.093000 0.931000
vt 0.008750 0.974197
vt 0.852000 0.354000
vt 0.130000 0.748000
vt 0.003000 0.290000
vt 0.000000 0.283000
vt 0.000000 0.886000
vt 0.742000 0.694000
vt 0.142000 0.799000
vt 0.115000 0.774000
vt 0.041000 0.725000
vt 0.634000 0.183000
vt 0.756000 0.992000
vt 0.855000 0.591000
s 0
f 4/1/1 5/2/1 6/3/1
f 34/4/2 35/5/2 36/6/2
f 126/3/3 127/2/3 128/1/3
f 147/7/4 146/8/4 145/7/4
f 146/8/5 147/7/5 148/8/5
f 149/7/6 148/8/6 147/7/6
f 150/8/7 151/7/7 152/8/7
f 153/7/8 152/8/8 151/7/8
f 154/9/9 156/9/9 78/9/9
f 50/9/10 42/9/10 49/9/10
f 96/9/11 103/10/11 97/11/11
f 48/12/12 64/9/12 49/5/12
f 64/9/13 73/9/13 49/5/13
f 73/9/14 82/9/14 49/5/14
f 82/9/15 50/9/15 49/9/15
f 53/9/16 42/9/16 50/9/16
f 82/9/17 53/9/17 50/9/17
f 54/13/18 41/6/18 42/4/18
f 26/14/19 2/9/19 36/9/19
f 55/9/20 40/15/20 41/6/20
f 40/15/21 48/12/21 41/6/21
f 40/15/22 63/9/22 48/12/22
f 63/16/23 64/17/23 48/12/23
f 63/9/24 40/15/24 64/17/24
f 40/15/25 65/9/25 64/17/25
f 14/9/26 81/9/26 17/9/26
f 47/9/27 73/9/27 64/9/27
f 47/9/28 81/9/28 73/9/28
f 81/9/29 82/9/29 73/9/29
f 81/9/30 77/9/30 82/9/30
f 77/9/31 72/9/31 82/9/31
f 72/9/32 79/9/32 82/9/32
f 79/9/33 37/9/33 82/9/33
f 37/9/34 53/9/34 82/9/34
f 118/9/35 129/9/35 53/9/35
f 37/9/36 118/9/36 53/9/36
f 23/9/37 1/9/37 54/13/37
f 129/9/38 23/9/38 54/13/38
f 23/18/39 24/19/39 1/9/39
f 24/19/40 55/9/40 1/9/40
f 24/19/41 65/9/41 55/9/41
f 65/9/42 40/15/42 55/9/42
f 98/9/43 101/9/43 71/20/43
f 24/19/44 135/9/44 65/9/44
f 65/9/45 134/9/45 47/9/45
f 41/6/46 49/9/46 42/4/46
f 83/9/47 81/9/47 47/9/47
f 31/9/48 140/9/48 81/9/48
f 140/21/49 139/22/49 81/9/49
f 139/22/50 17/9/50 81/9/50
f 66/23/51 60/24/51 75/9/51
f 76/25/52 77/26/52 81/9/52
f 83/9/53 155/9/53 81/9/53
f 32/9/54 59/9/54 60/9/54
f 76/9/55 14/9/55 77/26/55
f 14/9/56 80/9/56 77/26/56
f 80/9/57 86/9/57 77/26/57
f 86/27/58 85/28/58 77/26/58
f 85/28/59 72/9/59 77/9/59
f 85/28/60 119/9/60 72/9/60
f 155/9/61 31/9/61 81/9/61
f 74/9/62 79/9/62 72/9/62
f 74/9/63 37/9/63 79/9/63
f 74/9/64 91/9/64 37/9/64
f 91/9/65 118/9/65 37/9/65
f 117/10/66 128/9/66 118/29/66
f 128/1/67 129/30/67 118/9/67
f 18/9/68 139/22/68 138/31/68
f 128/1/69 23/9/69 129/9/69
f 128/1/70 127/2/70 23/9/70
f 127/2/71 24/19/71 23/18/71
f 127/2/72 9/9/72 24/19/72
f 9/9/73 25/9/73 24/19/73
f 133/9/74 131/9/74 132/9/74
f 131/32/75 135/33/75 24/19/75
f 104/9/76 105/9/76 106/9/76
f 107/9/77 106/9/77 44/9/77
f 133/34/78 84/9/78 134/9/78
f 104/9/79 109/35/79 111/36/79
f 130/9/80 109/35/80 108/9/80
f 130/9/80 108/9/80 84/9/80
f 46/9/81 108/9/81 107/9/81
f 136/9/82 145/9/82 137/37/82
f 154/9/83 78/9/83 83/9/83
f 78/9/84 155/9/84 83/9/84
f 141/9/85 140/9/85 31/9/85
f 78/9/86 141/9/86 31/9/86
f 141/7/87 142/7/87 140/9/87
f 142/7/88 139/22/88 140/21/88
f 14/9/89 17/9/89 139/22/89
f 149/7/90 150/8/90 148/8/90
f 150/8/91 22/9/91 148/8/91
f 12/9/92 66/9/92 11/9/92
f 12/9/93 101/9/93 98/9/93
f 130/9/94 133/34/94 132/9/94
f 122/9/95 120/9/95 119/9/95
f 145/9/96 156/9/96 149/7/96
f 143/7/97 139/22/97 142/7/97
f 90/11/98 120/9/98 117/10/98
f 89/9/99 102/9/99 95/9/99
f 15/9/100 18/38/100 19/39/100
f 28/9/101 25/9/101 9/9/101
f 88/9/102 12/9/102 98/9/102
f 28/9/103 29/9/103 25/9/103
f 112/9/104 24/19/104 25/9/104
f 112/9/105 105/9/105 131/9/105
f 105/40/106 132/9/106 131/9/106
f 132/9/107 110/9/107 130/9/107
f 110/9/108 109/35/108 130/9/108
f 10/9/109 14/9/109 18/9/109
f 104/9/110 107/9/110 108/9/110
f 84/9/111 47/9/111 134/9/111
f 46/9/112 60/9/112 56/9/112
f 60/9/113 59/9/113 56/9/113
f 59/9/114 156/9/114 56/9/114
f 156/9/115 57/41/115 56/42/115
f 112/9/116 29/9/116 105/9/116
f 44/43/117 45/17/117 46/9/117
f 145/9/118 143/9/118 78/9/118
f 143/7/119 142/7/119 78/9/119
f 142/7/120 141/7/120 78/9/120
f 84/9/121 56/9/121 83/9/121
f 7/44/122 5/9/122 28/9/122
f 22/9/123 16/9/123 21/39/123
f 97/11/124 52/9/124 96/45/124
f 114/46/125 115/47/125 122/9/125
f 115/47/126 92/9/126 122/9/126
f 92/9/127 121/9/127 122/9/127
f 15/9/128 114/46/128 116/48/128
f 21/39/129 13/9/129 20/49/129
f 7/44/130 102/9/130 6/3/130
f 94/9/131 123/9/131 124/9/131
f 120/9/132 121/9/132 117/10/132
f 123/9/133 8/50/133 125/44/133
f 5/9/134 29/9/134 28/9/134
f 8/50/135 7/44/135 28/9/135
f 125/44/136 127/2/136 126/3/136
f 123/9/137 7/44/137 8/50/137
f 5/9/138 30/18/138 29/19/138
f 30/18/139 27/9/139 29/19/139
f 27/51/140 26/14/140 29/19/140
f 26/14/141 44/9/141 29/19/141
f 44/9/142 106/9/142 29/19/142
f 106/9/143 105/9/143 29/9/143
f 20/49/144 146/8/144 21/39/144
f 111/36/145 109/35/145 110/9/145
f 113/52/146 16/9/146 100/9/146
f 44/9/147 46/9/147 107/9/147
f 65/9/148 47/9/148 64/17/148
f 45/17/149 33/9/149 46/53/149
f 33/9/150 60/9/150 46/9/150
f 61/54/151 62/26/151 60/24/151
f 62/26/152 75/9/152 60/24/152
f 55/9/153 54/13/153 1/9/153
f 67/55/154 150/9/154 60/24/154
f 150/8/155 152/8/155 60/24/155
f 152/8/156 32/9/156 60/24/156
f 34/9/157 3/30/157 51/9/157
f 33/9/158 61/54/158 60/24/158
f 32/9/159 153/9/159 156/9/159
f 153/7/160 151/7/160 156/9/160
f 151/7/161 149/7/161 156/9/161
f 148/9/162 21/9/162 146/8/162
f 144/7/163 143/7/163 145/9/163
f 149/7/164 147/7/164 145/7/164
f 146/8/165 137/37/165 145/9/165
f 134/56/166 135/9/166 133/34/166
f 83/9/167 57/41/167 154/9/167
f 99/9/168 124/9/168 93/9/168
f 13/9/169 19/39/169 20/49/169
f 113/52/170 15/9/170 13/9/170
f 93/9/171 114/46/171 113/52/171
f 100/46/172 93/9/172 113/52/172
f 125/44/173 121/9/173 123/9/173
f 123/9/174 92/9/174 124/9/174
f 4/1/175 30/18/175 5/9/175
f 2/9/176 27/9/176 30/18/176
f 4/1/177 3/30/177 30/18/177
f 3/30/178 2/57/178 30/18/178
f 10/9/179 86/9/179 80/9/179
f 36/9/180 38/9/180 26/14/180
f 38/9/181 44/9/181 26/14/181
f 38/9/182 45/17/182 44/43/182
f 38/9/183 43/16/183 45/17/183
f 43/16/184 58/9/184 45/17/184
f 58/9/185 35/9/185 45/17/185
f 35/5/186 33/58/186 45/17/186
f 35/5/187 61/54/187 33/9/187
f 35/5/188 39/9/188 61/54/188
f 39/9/189 51/9/189 61/54/189
f 51/9/190 69/9/190 61/54/190
f 69/59/191 68/60/191 61/54/191
f 68/60/192 70/9/192 61/54/192
f 70/9/193 62/26/193 61/54/193
f 70/61/194 71/20/194 62/26/194
f 71/20/195 101/9/195 62/26/195
f 101/9/196 11/9/196 62/26/196
f 11/9/197 66/9/197 62/26/197
f 66/9/198 75/9/198 62/26/198
f 8/50/199 9/62/199 125/44/199
f 150/9/200 67/55/200 66/23/200
f 89/9/201 70/61/201 52/9/201
f 153/9/202 32/9/202 152/8/202
f 20/49/203 136/9/203 137/37/203
f 19/39/204 138/31/204 136/9/204
f 124/9/205 115/47/205 93/9/205
f 116/9/206 10/9/206 15/9/206
f 88/9/207 100/9/207 16/9/207
f 95/9/208 99/47/208 100/46/208
f 95/9/209 94/9/209 99/9/209
f 121/9/210 128/9/210 117/10/210
f 94/9/211 95/9/211 102/9/211
f 144/7/212 138/31/212 143/7/212
f 103/10/213 87/9/213 4/9/213
f 87/9/214 3/30/214 4/1/214
f 129/9/215 42/9/215 53/63/215
f 34/4/216 36/6/216 2/9/216
f 87/9/217 51/9/217 3/30/217
f 35/9/218 58/9/218 36/6/218
f 58/9/219 38/9/219 36/9/219
f 58/9/220 43/16/220 38/9/220
f 34/4/221 39/9/221 35/5/221
f 34/9/222 51/9/222 39/9/222
f 87/9/223 69/9/223 51/9/223
f 96/9/224 52/9/224 69/9/224
f 52/9/225 68/60/225 69/59/225
f 87/9/226 96/9/226 69/9/226
f 52/9/227 70/9/227 68/60/227
f 98/9/228 71/20/228 70/61/228
f 120/9/229 72/9/229 119/9/229
f 119/9/230 85/28/230 86/27/230
f 4/1/231 102/64/231 103/10/231
f 89/9/232 95/9/232 98/9/232
f 89/9/233 97/9/233 103/10/233
f 117/10/234 91/9/234 90/11/234
f 90/11/235 74/9/235 120/9/235
f 116/48/236 122/9/236 119/9/236
f 116/48/237 114/46/237 122/9/237
f 105/9/106 111/36/106 132/9/106
f 111/36/238 110/9/238 132/9/238
f 88/9/239 95/9/239 100/9/239
f 88/9/240 98/9/240 95/9/240
f 154/9/9 57/41/9 156/9/9
f 96/9/241 87/9/241 103/10/241
f 26/14/242 27/9/242 2/9/242
f 14/9/243 76/9/243 81/9/243
f 41/6/244 48/12/244 49/9/244
f 66/23/245 67/55/245 60/24/245
f 32/9/246 156/9/246 59/9/246
f 155/9/247 78/9/247 31/9/247
f 18/9/248 14/9/248 139/22/248
f 133/9/249 135/33/249 131/9/249
f 104/9/250 111/36/250 105/9/250
f 107/9/251 104/9/251 106/9/251
f 104/9/252 108/9/252 109/35/252
f 46/9/253 56/9/253 108/9/253
f 136/9/254 144/7/254 145/9/254
f 149/7/255 151/7/255 150/8/255
f 150/8/256 66/9/256 22/9/256
f 12/9/257 22/9/257 66/9/257
f 12/9/258 11/9/258 101/9/258
f 130/9/259 84/9/259 133/34/259
f 145/9/260 78/9/260 156/9/260
f 143/7/261 138/31/261 139/22/261
f 89/9/262 103/10/262 102/9/262
f 15/9/263 10/9/263 18/38/263
f 88/9/264 16/9/264 12/9/264
f 112/9/265 131/9/265 24/19/265
f 10/9/266 80/9/266 14/9/266
f 84/9/267 83/9/267 47/9/267
f 112/9/268 25/9/268 29/9/268
f 84/9/121 108/9/121 56/9/121
f 7/44/269 6/3/269 5/9/269
f 22/9/270 12/9/270 16/9/270
f 97/11/271 89/9/271 52/9/271
f 21/39/272 16/9/272 13/9/272
f 7/44/273 123/9/273 102/9/273
f 94/9/274 102/9/274 123/9/274
f 120/9/275 122/9/275 121/9/275
f 125/44/276 9/9/276 127/2/276
f 20/49/277 137/37/277 146/8/277
f 113/52/278 13/9/278 16/9/278
f 55/9/279 41/6/279 54/13/279
f 34/9/280 2/57/280 3/30/280
f 148/9/281 22/9/281 21/9/281
f 134/56/282 65/9/282 135/9/282
f 83/9/167 56/42/167 57/41/167
f 99/9/283 94/9/283 124/9/283
f 13/9/284 15/9/284 19/39/284
f 113/52/285 114/46/285 15/9/285
f 93/9/286 115/47/286 114/46/286
f 100/46/287 99/47/287 93/9/287
f 125/44/288 126/3/288 121/9/288
f 123/9/289 121/9/289 92/9/289
f 10/9/290 119/9/290 86/9/290
f 8/50/291 28/9/291 9/62/291
f 89/9/292 98/9/292 70/61/292
f 20/49/293 19/9/293 136/9/293
f 19/39/294 18/38/294 138/31/294
f 124/9/295 92/9/295 115/47/295
f 116/9/296 119/9/296 10/9/296
f 121/9/297 126/3/297 128/9/297
f 144/7/298 136/9/298 138/31/298
f 129/9/299 54/13/299 42/9/299
f 120/9/300 74/9/300 72/9/300
f 4/1/301 6/3/301 102/64/301
f 117/10/302 118/29/302 91/9/302
f 90/11/303 91/9/303 74/9/303
