# Blender 5.0.0
# www.blender.org
o shape9
v 4.758878 22.774097 46.716797
v 17.399801 26.180283 38.672348
v -41.326149 26.140644 41.032063
v -13.635972 22.805037 47.700104
v -13.635972 -22.805037 47.700104
v 8.366467 -23.407564 45.389668
v -41.326149 -26.140644 41.032063
v 4.920201 -22.044313 47.272980
v 8.065329 -21.412569 46.680321
v 7.736820 -22.272894 46.527328
v 9.969894 -22.952103 45.219135
v 8.065329 21.412569 46.680321
v 4.920201 22.044313 47.272980
v -13.637968 21.783730 48.188240
v 9.889123 0.000000 47.108303
v 8.946840 14.183911 46.710938
v -13.677105 13.713204 48.691048
v -34.196545 13.322148 48.972454
v 5.825648 13.816167 47.662495
v -13.684430 20.973480 48.283646
v 5.147282 21.151243 47.368572
v -13.637968 -21.783730 48.188240
v -42.942059 -21.011436 47.430695
v 10.320745 22.054337 45.361946
v -34.180676 21.160536 48.484459
v 7.736820 22.272894 46.527328
v 8.366467 23.436998 45.389668
v 18.610472 25.629971 38.733402
v 30.785946 28.977905 28.551096
v 4.758877 -22.774097 46.716785
v -33.948212 -22.420643 48.106682
v -42.140213 -22.243551 47.062763
v -66.158325 29.451111 32.849709
v -50.499924 30.526793 32.235085
v -11.775808 30.480818 30.112545
v 28.214540 30.460934 27.830425
v -66.158325 -29.451111 32.849709
v -50.499924 -30.526793 32.235085
v -11.775808 -30.480818 30.112545
v 28.214540 -30.460934 27.830425
v 17.399799 -26.180283 38.672348
v 30.785946 -28.977905 28.551096
v -33.948219 22.420643 48.106693
v -34.196545 -13.322148 48.972454
v -43.957394 -17.374460 47.584019
v -13.684430 -20.973480 48.283646
v 5.825648 -13.816167 47.662495
v 5.147282 -21.151243 47.368572
v 8.946840 -14.183911 46.710938
v 6.595349 0.000000 48.062778
v -13.669335 0.000000 49.106178
v -34.192711 0.000000 49.236542
v -13.677105 -13.713204 48.691048
v -34.180676 -21.160536 48.484459
v 10.320745 -22.024902 45.361946
v 18.610472 -25.629971 38.733402
v 31.415958 -27.879898 28.777424
v 9.969894 22.981535 45.219135
v 31.415958 27.879898 28.777424
v 19.037857 -24.536716 38.803638
v 19.037857 24.536716 38.803638
v -42.942059 21.011436 47.430695
v -42.140213 22.243551 47.062763
v -52.234657 23.091114 42.278610
v -53.749691 19.191172 43.391590
v -54.515713 12.607089 43.952976
v -47.754978 18.141478 46.499866
v -55.173927 0.000000 44.412575
v -54.515713 -12.607089 43.952976
v -47.754978 -18.141478 46.499866
v -53.749691 -19.191172 43.391590
v -52.234657 -23.091114 42.278610
v -49.727608 0.000000 46.678684
v -44.801502 0.000000 48.005009
v -43.957394 17.374460 47.584019
vn 0.2282 -0.2543 0.9398
vn -0.4390 0.1269 0.8895
vn -0.3903 0.0539 0.9191
vn -0.4390 -0.1269 0.8895
vn -0.0531 -0.0000 -0.9986
vn -0.0414 -0.8763 0.4800
vn -0.0541 -0.2333 -0.9709
vn 0.0172 -0.9561 0.2925
vn 0.0223 -0.9218 0.3871
vn 0.0202 -0.9143 0.4045
vn 0.0183 -0.9112 0.4115
vn 0.0005 -0.8951 0.4458
vn -0.0524 -0.8604 0.5070
vn -0.0073 -0.8819 0.4713
vn -0.3602 -0.4349 0.8253
vn -0.3880 -0.3892 0.8355
vn -0.5739 -0.1356 0.8076
vn -0.6409 -0.0614 0.7651
vn -0.7250 -0.0000 0.6887
vn 0.0131 -0.0303 0.9995
vn -0.0900 -0.8187 0.5672
vn -0.3426 -0.4665 0.8155
vn 0.3065 0.7405 0.5981
vn 0.0225 -0.9220 0.3865
vn 0.2821 -0.6941 0.6624
vn 0.2702 -0.7060 0.6547
vn 0.2534 -0.6112 0.7498
vn 0.1572 -0.6544 0.7397
vn 0.0277 -0.8707 0.4909
vn -0.1153 0.0197 0.9931
vn 0.0051 0.2863 0.9581
vn -0.2520 -0.1109 0.9613
vn -0.3792 -0.3594 0.8527
vn -0.3793 -0.3872 0.8404
vn 0.2773 -0.7639 0.5827
vn 0.2016 0.2456 0.9482
vn -0.3903 -0.0539 0.9191
vn -0.3837 -0.0508 0.9221
vn -0.3837 0.0508 0.9221
vn -0.6409 0.0614 0.7651
vn -0.0541 0.2333 -0.9709
vn -0.5739 0.1356 0.8076
vn -0.3880 0.3892 0.8355
vn -0.3602 0.4349 0.8253
vn -0.3426 0.4665 0.8155
vn -0.0900 0.8187 0.5672
vn -0.0524 0.8604 0.5070
vn -0.0414 0.8763 0.4800
vn 0.0225 0.9220 0.3865
vn 0.2699 -0.0000 -0.9629
vn 0.0172 0.9561 0.2925
vn 0.3381 -0.0000 -0.9411
vn 0.0099 -0.4312 0.9022
vn 0.5060 0.3151 0.8029
vn 0.4126 0.3099 0.8566
vn 0.1533 -0.6202 0.7693
vn 0.2133 -0.1574 0.9642
vn 0.5718 0.2732 0.7736
vn 0.0108 0.1163 0.9932
vn -0.1153 0.0620 0.9914
vn 0.0471 0.1181 0.9919
vn 0.4154 -0.3107 0.8549
vn -0.2598 -0.0360 0.9650
vn -0.2520 0.1109 0.9613
vn -0.3792 0.3594 0.8527
vn 0.0005 0.8951 0.4458
vn 0.0173 0.9104 0.4134
vn 0.0205 0.9156 0.4016
vn 0.0223 0.9218 0.3871
vn -0.3793 0.3872 0.8404
vn -0.1203 -0.0753 0.9899
vn 0.0489 0.4306 0.9012
vn -0.0073 0.8819 0.4713
vn 0.2704 0.7077 0.6527
vn 0.2828 0.6954 0.6607
vn 0.4917 -0.4374 0.7529
vn 0.6483 -0.0000 0.7614
vn 0.6239 -0.0316 0.7808
vn 0.5907 -0.0523 0.8052
vn 0.5111 -0.0580 0.8576
vn 0.4907 -0.0635 0.8690
vn 0.2749 -0.0431 0.9605
vn 0.2241 -0.0597 0.9727
vn 0.3932 -0.0518 0.9180
vn 0.2781 -0.0429 0.9596
vn 0.0479 0.0560 0.9973
vn 0.0131 0.0303 0.9995
vn -0.1153 -0.0197 0.9931
vn 0.0305 -0.6101 0.7917
vn 0.0286 0.8610 0.5078
vn 0.1562 0.6458 0.7473
vn 0.2518 0.6033 0.7567
vn 0.0103 -0.0560 0.9984
vn -0.2598 0.0360 0.9650
vn 0.0471 -0.1181 0.9919
vn 0.0525 -0.0302 0.9982
vn 0.0108 -0.1163 0.9932
vn 0.6239 0.0316 0.7808
vn 0.5105 0.0579 0.8580
vn 0.3932 0.0518 0.9180
vn 0.2781 0.0429 0.9596
vn 0.5908 0.0522 0.8051
vn 0.2749 0.0431 0.9605
vn 0.0524 -0.0448 0.9976
vn 0.0525 0.0302 0.9982
vn 0.0125 0.0621 0.9980
vn -0.1176 -0.3537 0.9280
vn 0.1533 0.6202 0.7693
vn 0.5317 -0.2596 0.8062
vn 0.2241 0.0597 0.9727
vn 0.4901 0.0634 0.8693
vn -0.1268 0.3062 0.9435
vn 0.0064 -0.0198 0.9998
vn 0.2773 0.7639 0.5827
vn -0.1284 0.0303 0.9913
vn 0.0099 0.4312 0.9022
vn 0.3065 -0.7405 0.5981
vn 0.2401 0.1635 0.9569
vn 0.0051 -0.2863 0.9581
vn 0.5322 0.2598 0.8058
vn 0.4138 0.2895 0.8631
vn 0.4917 0.4374 0.7529
vn -0.1203 0.0753 0.9899
vn 0.0473 0.1141 0.9923
vn 0.4164 -0.2903 0.8616
vn -0.2671 -0.0385 0.9629
vn -0.1153 -0.0620 0.9914
vn 0.0305 0.6101 0.7917
vn 0.5718 -0.2732 0.7736
vn 0.0524 0.0448 0.9976
vn 0.0064 0.0198 0.9998
vn -0.1284 -0.0303 0.9913
vn 0.0489 -0.4306 0.9012
vn 0.0125 -0.0621 0.9980
vn -0.2671 0.0385 0.9629
vn 0.0473 -0.1141 0.9923
vn 0.0514 -0.0318 0.9982
vn 0.0479 -0.0560 0.9973
vn 0.0514 0.0318 0.9982
vn 0.0103 0.0560 0.9984
vn -0.1268 -0.3062 0.9435
vn 0.5054 -0.3150 0.8033
vn -0.1176 0.3537 0.9280
vt 0.283000 0.009000
vt 0.269000 0.071000
vt 0.364000 0.009000
vt 0.271000 0.561000
vt 0.526000 0.562000
vt 0.284000 0.818000
vt 0.993848 0.561000
vt 1.000000 0.205000
vt 0.000000 0.000000
vt 0.837000 0.186000
vt 0.022000 0.000000
vt 0.436000 0.108000
vt 0.233000 0.865000
vt 0.457000 0.972000
vt 0.092000 0.980314
vt 0.710000 0.415000
vt 0.092000 0.405000
vt 0.671000 0.983000
vt 0.752000 0.929000
vt 0.123000 0.544000
vt 0.154000 0.009000
vt 0.710000 0.980314
vt 0.000000 0.035000
vt 0.242000 0.913000
vt 0.358000 0.077000
vt 0.049000 0.559000
vt 0.050000 0.983000
vt 0.006651 0.984000
vt 0.244000 0.983000
vt 0.927000 0.077000
vt 1.005000 0.234000
vt 0.993848 0.983000
vt 0.743000 0.633000
vt 0.925000 0.009000
vt 0.337000 0.402000
vt 0.993848 0.782000
vt 0.243000 0.386000
vt 0.214000 0.780314
vt 0.135000 0.540000
s 0
f 10/1/1 9/2/1 8/3/1
f 65/4/2 66/5/2 67/6/2
f 68/7/3 67/6/3 66/5/3
f 71/4/4 70/6/4 69/5/4
f 37/8/5 36/9/5 40/9/5
f 7/9/6 37/8/6 38/10/6
f 37/8/7 40/9/7 38/10/7
f 40/11/8 39/12/8 38/10/8
f 39/12/9 41/9/9 38/10/9
f 41/9/10 6/9/10 38/10/10
f 6/13/11 5/14/11 38/10/11
f 5/14/12 7/9/12 38/10/12
f 31/9/13 37/8/13 7/9/13
f 5/14/14 31/9/14 7/9/14
f 23/9/15 72/9/15 37/9/15
f 72/9/16 71/9/16 37/9/16
f 71/4/17 69/5/17 37/9/17
f 69/5/18 68/7/18 37/9/18
f 68/7/19 33/9/19 37/9/19
f 51/15/20 44/16/20 53/17/20
f 31/18/21 32/19/21 37/8/21
f 32/19/22 23/9/22 37/9/22
f 28/20/23 36/9/23 2/9/23
f 41/9/24 39/12/24 40/11/24
f 56/9/25 11/9/25 41/9/25
f 11/9/26 6/9/26 41/9/26
f 11/21/27 10/1/27 6/9/27
f 10/1/28 30/9/28 6/9/28
f 30/9/29 5/14/29 6/13/29
f 18/9/30 74/9/30 52/22/30
f 14/9/31 43/9/31 25/9/31
f 45/9/32 70/9/32 23/9/32
f 70/6/33 71/4/33 23/9/33
f 71/9/34 72/9/34 23/9/34
f 56/9/35 40/9/35 42/23/35
f 26/24/36 21/25/36 12/9/36
f 70/6/37 68/7/37 69/5/37
f 70/6/38 73/9/38 68/7/38
f 73/9/39 67/6/39 68/7/39
f 66/5/40 33/9/40 68/7/40
f 34/10/41 36/9/41 33/9/41
f 66/5/42 65/4/42 33/9/42
f 65/4/43 64/9/43 33/9/43
f 64/26/44 62/27/44 33/9/44
f 62/27/45 63/28/45 33/9/45
f 63/28/46 43/9/46 33/9/46
f 43/9/47 3/9/47 33/9/47
f 3/9/48 34/10/48 33/8/48
f 35/12/49 2/9/49 36/11/49
f 40/9/50 29/9/50 42/9/50
f 34/10/51 35/12/51 36/11/51
f 29/9/52 59/9/52 57/9/52
f 29/9/52 57/9/52 42/9/52
f 22/9/53 31/9/53 5/14/53
f 24/9/54 28/9/54 58/9/54
f 24/9/55 26/24/55 12/9/55
f 8/9/56 30/9/56 10/1/56
f 9/2/57 48/9/57 8/3/57
f 61/9/58 29/9/58 28/20/58
f 20/9/59 14/9/59 25/9/59
f 25/9/60 75/29/60 18/9/60
f 13/3/61 20/30/61 21/25/61
f 10/1/62 55/9/62 9/2/62
f 73/9/63 45/31/63 74/32/63
f 75/29/64 62/9/64 67/6/64
f 62/9/65 65/4/65 67/6/65
f 3/33/66 4/14/66 34/10/66
f 4/14/67 27/9/67 34/10/67
f 27/9/68 2/9/68 34/10/68
f 2/9/69 35/12/69 34/10/69
f 62/27/70 64/26/70 65/4/70
f 54/9/71 45/9/71 23/9/71
f 14/34/72 1/9/72 4/9/72
f 4/14/73 3/33/73 43/9/73
f 27/9/74 58/9/74 2/9/74
f 58/9/75 28/9/75 2/9/75
f 60/9/76 42/23/76 57/9/76
f 59/9/77 15/9/77 57/9/77
f 15/9/78 60/9/78 57/9/78
f 60/9/79 15/9/79 55/9/79
f 15/9/80 49/9/80 55/9/80
f 49/9/81 9/9/81 55/9/81
f 50/9/82 47/9/82 9/9/82
f 47/35/83 48/25/83 9/2/83
f 49/9/84 15/9/84 9/9/84
f 15/9/85 50/9/85 9/9/85
f 17/9/86 21/25/86 20/30/86
f 18/9/87 51/9/87 17/9/87
f 74/9/88 44/16/88 52/22/88
f 22/9/89 30/9/89 8/9/89
f 1/9/90 27/9/90 4/14/90
f 1/9/91 26/24/91 27/13/91
f 26/24/92 58/9/92 27/9/92
f 53/9/93 54/9/93 46/9/93
f 75/29/94 73/36/94 74/32/94
f 46/30/95 8/9/95 48/25/95
f 47/35/96 51/15/96 53/9/96
f 46/9/97 54/9/97 22/9/97
f 61/9/98 15/9/98 59/9/98
f 24/9/99 16/37/99 15/38/99
f 16/37/100 12/9/100 15/38/100
f 12/9/101 50/9/101 15/9/101
f 61/9/102 24/9/102 15/38/102
f 12/9/103 19/9/103 50/9/103
f 53/9/104 48/25/104 47/35/104
f 51/9/105 19/9/105 17/9/105
f 17/9/106 25/9/106 18/9/106
f 32/19/107 54/9/107 23/9/107
f 26/24/108 1/9/108 13/9/108
f 55/9/109 56/9/109 60/9/109
f 19/9/110 12/9/110 21/25/110
f 16/37/111 24/9/111 12/9/111
f 63/28/112 25/9/112 43/9/112
f 37/8/5 33/9/5 36/9/5
f 51/15/113 52/22/113 44/16/113
f 28/20/114 29/9/114 36/9/114
f 18/9/115 75/29/115 74/9/115
f 14/9/116 4/9/116 43/9/116
f 56/9/117 41/39/117 40/9/117
f 26/24/118 13/3/118 21/25/118
f 40/9/50 36/9/50 29/9/50
f 22/9/119 54/9/119 31/9/119
f 24/9/120 61/9/120 28/9/120
f 24/9/121 58/9/121 26/24/121
f 61/9/122 59/9/122 29/9/122
f 25/9/123 62/9/123 75/29/123
f 13/3/124 14/9/124 20/30/124
f 10/1/125 11/9/125 55/9/125
f 73/9/126 70/6/126 45/31/126
f 54/9/127 44/16/127 45/9/127
f 14/34/128 13/9/128 1/9/128
f 60/9/129 56/9/129 42/23/129
f 17/9/130 19/9/130 21/25/130
f 18/9/131 52/22/131 51/9/131
f 74/9/132 45/31/132 44/16/132
f 22/9/133 5/14/133 30/9/133
f 53/9/134 44/16/134 54/9/134
f 75/29/135 67/6/135 73/36/135
f 46/30/136 22/9/136 8/9/136
f 47/35/137 50/9/137 51/15/137
f 53/9/138 46/30/138 48/25/138
f 51/9/139 50/9/139 19/9/139
f 17/9/140 20/9/140 25/9/140
f 32/19/141 31/18/141 54/9/141
f 55/9/142 11/9/142 56/9/142
f 63/28/143 62/9/143 25/9/143
