# Blender 5.0.0
# www.blender.org
o shape15_timezone_b0.002
v 73.730583 -28.102247 22.982729
v -50.733864 33.001949 24.072954
v -82.501167 -29.410404 25.066229
v -82.564674 29.307894 25.281237
v -57.832958 29.897043 30.590641
v 54.334660 33.046200 22.051996
v 34.655609 29.645193 30.081858
v 73.730583 28.102247 22.982729
v 34.655609 -29.645193 30.081858
v 59.246239 33.397209 17.945362
v -57.832958 -29.897043 30.590641
v 59.246239 -33.397209 17.945362
v -53.184486 -33.386204 17.248356
v -50.733864 -33.001949 24.072954
v 78.398819 17.086752 22.468908
v 79.398613 0.000000 22.683214
v 78.398819 -17.086752 22.468908
v 67.804291 18.816700 25.812857
v 67.804291 -18.816700 25.812857
v 56.868137 0.000000 28.328262
v -82.153534 -28.766308 5.801888
v 61.994411 -31.933748 2.821370
v 61.994411 31.933748 2.821370
v -82.153534 28.766308 5.801888
v -57.992695 30.737146 2.872087
v 75.159721 -30.709354 12.355192
v 75.696396 -29.475172 2.765018
v 75.696396 29.475172 2.765018
v 75.159721 30.709354 12.355192
v -57.992695 -30.737146 2.872087
v -53.184486 33.386204 17.248356
v -85.052895 29.831718 13.010813
v -85.052895 -29.831718 13.010813
v 79.743088 -27.808739 13.014813
v 83.545135 -16.308201 12.419831
v 81.913002 0.000000 2.732230
v 83.545135 16.308201 12.419831
v 79.743088 27.808739 13.014813
v 80.471748 18.849688 2.813145
v 80.471748 -18.849688 2.813145
v 84.411217 -0.000000 13.370659
v -66.786758 -24.549995 33.087132
v -84.655510 -19.689674 32.212833
v -85.105598 0.000000 32.862263
v -66.786758 24.549995 33.087132
v -83.914917 25.965975 31.119993
v -84.655510 19.689674 32.212833
v -83.914917 -25.965975 31.119993
v -84.890160 -23.983038 5.681257
v -85.923401 0.000000 5.488214
v -84.890160 23.983038 5.681257
v -87.820969 23.637882 13.506794
v -88.756096 0.000000 13.620466
v -87.820969 -23.637882 13.506794
vn 0.1827 -0.1781 0.9669
vn 0.0312 0.0325 0.9990
vn -0.1221 0.8733 0.4716
vn 0.0232 -0.0000 0.9997
vn 0.0787 -0.0000 0.9969
vn 0.3129 -0.0885 0.9456
vn -0.9694 0.1484 0.1954
vn 0.1243 0.9850 -0.1198
vn 0.1760 0.9824 -0.0631
vn 0.0074 0.9141 0.4053
vn 0.1513 0.7210 0.6762
vn 0.1278 -0.8445 0.5201
vn 0.9861 -0.0000 -0.1661
vn 0.7393 -0.0000 -0.6734
vn -0.1223 -0.8746 0.4691
vn 0.0048 -0.9007 0.4344
vn 0.0145 -0.9466 0.3221
vn 0.2430 -0.0116 0.9700
vn 0.0048 0.9007 0.4344
vn -0.9821 0.0286 0.1863
vn -0.1277 0.0979 -0.9870
vn -0.1070 0.0126 -0.9942
vn -0.0581 0.0342 0.9977
vn 0.3053 -0.0298 0.9518
vn 0.0236 0.0061 -0.9997
vn -0.0041 0.0003 -1.0000
vn -0.0004 0.0025 -1.0000
vn 0.0236 -0.0061 -0.9997
vn 0.9554 0.0743 -0.2860
vn 0.2430 0.0116 0.9700
vn -0.7553 -0.6297 0.1819
vn -0.0010 -0.0000 -1.0000
vn -0.0933 -0.0000 -0.9956
vn -0.1070 -0.0126 -0.9942
vn -0.1277 -0.0979 -0.9870
vn 0.0061 -0.4146 0.9100
vn 0.4870 0.8308 0.2693
vn 0.1243 -0.9850 -0.1198
vn 0.1760 -0.9824 -0.0631
vn -0.0004 -0.0025 -1.0000
vn -0.0041 -0.0003 -1.0000
vn -0.8990 -0.4134 0.1447
vn -0.0950 -0.9349 0.3419
vn 0.2496 -0.9322 0.2622
vn -0.0973 -0.1819 0.9785
vn -0.0581 -0.0342 0.9977
vn -0.0579 0.5003 0.8639
vn -0.0579 -0.5003 0.8639
vn -0.7607 0.6234 0.1809
vn -0.1185 -0.9912 0.0597
vn -0.0983 -0.9840 -0.1485
vn -0.0855 -0.9801 -0.1792
vn -0.1089 -0.9895 0.0948
vn 0.0005 -0.9954 -0.0962
vn -0.0099 -0.9840 -0.1780
vn -0.0004 -0.9984 0.0564
vn -0.0855 0.9801 -0.1792
vn -0.0983 0.9840 -0.1485
vn 0.8900 0.0735 0.4501
vn 0.8791 0.0574 0.4732
vn 0.8791 -0.0574 0.4732
vn 0.8900 -0.0735 0.4501
vn -0.0099 0.9840 -0.1780
vn 0.0005 0.9954 -0.0962
vn 0.0312 -0.0325 0.9990
vn 0.1827 0.1781 0.9669
vn -0.9694 -0.1484 0.1954
vn 0.2496 0.9322 0.2622
vn 0.0061 0.4146 0.9100
vn -0.0973 0.1819 0.9785
vn -0.8990 0.4134 0.1447
vn -0.1193 0.9906 0.0665
vn -0.0956 0.9351 0.3414
vn 0.3129 0.0885 0.9456
vn -0.1112 0.9892 0.0956
vn 0.2172 0.9157 0.3380
vn -0.0004 0.9984 0.0564
vn 0.0012 0.9962 0.0866
vn 0.4870 -0.8308 0.2693
vn 0.5411 -0.8374 -0.0775
vn 0.9554 -0.0743 -0.2860
vn 0.8756 -0.3922 -0.2819
vn 0.1433 -0.0489 0.9885
vn 0.8665 0.2646 0.4233
vn -0.9362 0.0431 -0.3487
vn -0.7955 0.4649 -0.3886
vn 0.9246 0.3166 -0.2120
vn -0.9437 -0.0358 -0.3287
vn -0.9838 -0.0398 0.1749
vn 0.8146 -0.3228 0.4819
vn -0.7955 -0.4649 -0.3886
vn 0.1433 0.0489 0.9885
vn 0.3053 0.0298 0.9518
vn 0.5411 0.8374 -0.0775
vn -0.9838 0.0398 0.1749
vn 0.9246 -0.3166 -0.2120
vn 0.8146 0.3228 0.4819
vn -0.9437 0.0358 -0.3287
vn -0.8764 0.3667 -0.3121
vn 0.8756 0.3922 -0.2819
vn -0.9362 -0.0431 -0.3487
vn -0.9821 -0.0286 0.1863
vn 0.8665 -0.2646 0.4233
vn -0.8764 -0.3667 -0.3121
vt 0.193490 0.298546
vt 0.441424 0.537332
vt 0.655843 0.441387
vt 0.202436 0.790780
vt 0.041147 0.932021
vt 0.016949 0.015073
vt 0.421236 0.418899
vt 0.355007 0.410934
vt 0.418753 0.297575
vt 0.000000 0.000000
vt 0.305661 0.482390
vt 0.355583 0.535523
vt 0.370570 0.549378
vt 0.709061 0.886588
vt 0.903126 0.120706
vt 0.403572 0.077133
vt 0.144467 0.137759
vt 0.429898 0.327482
vt 0.433706 0.003906
vt 0.460426 0.010253
vt 0.153912 0.378569
vt 0.055511 0.202230
vt 0.336783 0.245520
vt 0.074737 0.322239
vt 0.044655 0.303799
vt 0.035718 0.142103
vt 0.025820 0.237120
vt 0.106838 0.366120
vt 0.907411 0.340421
vt 0.818582 0.185170
vt 0.907411 0.340421
vt 0.818582 0.353183
vt 0.418559 0.286752
vt 0.750933 0.210275
vt 0.337608 0.247703
vt 0.369106 0.734959
vt 0.836626 0.888146
vt 0.991878 0.120413
vt 0.708337 0.750719
vt 0.683750 0.749518
vt 0.749736 0.023837
vt 0.113193 0.001569
vt 0.836626 0.747050
vt 0.058298 0.795155
vt 0.438125 0.564476
vt 0.976481 0.185851
vt 0.920597 0.186135
vt 0.677295 0.877023
vt 0.824773 0.120706
vt 0.749736 0.023837
vt 0.104490 0.104865
vt 0.683750 0.749517
vt 0.003906 0.986920
vt 0.398448 0.452863
vt 0.970169 0.346303
vt 0.986186 0.337151
vt 0.145292 0.089428
vt 0.152200 0.096183
vt 0.460426 0.010253
vt 0.709061 0.886588
vt 0.273976 0.372869
vt 0.664003 0.293489
vt 0.058298 0.795155
vt 0.021891 0.801170
vt 0.841567 0.153991
vt 0.350395 0.075294
vt 0.191205 0.111312
vt 0.778156 0.481551
vt 0.801736 0.090301
vt 0.442715 0.174974
vt 0.336842 0.223486
vt 0.432374 0.003799
vt 0.123860 0.157725
vt 0.810177 0.347052
vt 0.316323 0.128472
vt 0.801736 0.090301
vt 0.737570 0.972887
vt 0.212709 0.300818
vt 0.460406 0.009680
vt 0.095490 0.117783
vt 0.506500 0.434807
vt 0.879943 0.170410
vt 0.374910 0.562476
vt 0.370570 0.549378
vt 0.057713 0.171327
vt 0.334791 0.094174
vt 0.970169 0.346303
vt 0.976481 0.185851
vt 0.969979 0.298097
vt 0.512611 0.734959
vt 0.965635 0.298097
vt 0.907411 0.310578
vt 0.708337 0.750719
vt 0.401851 0.594228
vt 0.383295 0.116984
s 0
f 1/1/1 19/2/1 9/3/1
f 44/4/2 42/5/2 9/6/2
f 46/7/3 5/8/3 4/9/3
f 7/6/4 44/10/4 9/6/4
f 20/11/5 7/6/5 9/6/5
f 17/12/6 19/2/6 1/13/6
f 52/14/7 47/15/7 46/16/7
f 10/17/8 29/18/8 28/19/8
f 23/20/9 10/17/9 28/19/9
f 7/21/10 6/22/10 2/23/10
f 7/24/11 8/25/11 6/22/11
f 12/26/12 1/27/12 9/28/12
f 35/29/13 36/30/13 37/31/13
f 41/32/14 35/29/14 37/31/14
f 3/33/15 11/8/15 48/34/15
f 14/35/16 9/28/16 11/8/16
f 9/28/17 14/35/17 12/26/17
f 18/2/18 20/11/18 16/36/18
f 2/23/19 5/8/19 7/21/19
f 47/15/20 53/37/20 44/38/20
f 51/39/21 24/40/21 25/41/21
f 51/39/22 25/42/22 50/43/22
f 47/44/23 44/4/23 45/5/23
f 19/45/24 17/12/24 16/36/24
f 28/46/25 39/47/25 36/30/25
f 23/20/26 28/19/26 36/10/26
f 25/42/27 23/10/27 36/10/27
f 40/47/28 27/10/28 36/30/28
f 37/31/29 36/30/29 39/47/29
f 16/36/30 20/11/30 19/45/30
f 33/48/31 3/49/31 48/34/31
f 25/42/32 36/10/32 30/50/32
f 50/43/33 25/42/33 30/50/33
f 49/51/34 50/43/34 30/50/34
f 21/52/35 49/51/35 30/50/35
f 9/28/36 42/5/36 11/53/36
f 8/54/37 38/55/37 29/56/37
f 27/19/38 26/57/38 12/58/38
f 22/59/39 27/19/39 12/58/39
f 30/50/40 36/10/40 22/59/40
f 36/10/41 27/19/41 22/59/41
f 48/34/42 54/60/42 33/48/42
f 11/8/43 3/10/43 14/35/43
f 26/57/44 1/61/44 12/58/44
f 48/62/45 42/5/45 43/63/45
f 44/4/46 43/63/46 42/5/46
f 5/53/47 46/64/47 45/5/47
f 11/53/48 42/5/48 48/62/48
f 4/49/49 32/48/49 46/65/49
f 13/66/50 3/67/50 33/68/50
f 21/69/51 30/50/51 13/70/51
f 33/68/52 21/10/52 13/70/52
f 3/67/53 13/66/53 14/71/53
f 22/72/54 12/58/54 13/70/54
f 30/50/55 22/72/55 13/70/55
f 12/73/56 14/71/56 13/70/56
f 32/74/57 31/75/57 24/40/57
f 31/75/58 25/41/58 24/76/58
f 15/77/59 41/32/59 37/31/59
f 15/78/60 16/36/60 41/32/60
f 16/36/61 17/12/61 41/32/61
f 17/77/62 35/29/62 41/32/62
f 25/41/63 31/75/63 23/79/63
f 31/75/64 10/80/64 23/79/64
f 45/5/65 44/4/65 7/6/65
f 18/2/66 8/81/66 7/6/66
f 43/82/67 54/60/67 48/34/67
f 10/80/68 8/10/68 29/18/68
f 5/53/69 45/5/69 7/21/69
f 46/64/70 47/44/70 45/5/70
f 52/14/71 46/16/71 32/48/71
f 4/9/72 31/10/72 32/48/72
f 2/23/73 4/9/73 5/8/73
f 15/83/74 8/84/74 18/2/74
f 2/23/75 31/10/75 4/9/75
f 8/10/76 10/80/76 6/85/76
f 2/71/77 10/10/77 31/86/77
f 2/23/78 6/85/78 10/80/78
f 1/61/79 26/57/79 34/87/79
f 27/88/80 34/89/80 26/57/80
f 35/29/81 40/47/81 36/30/81
f 40/47/82 34/10/82 27/88/82
f 20/90/83 9/6/83 19/2/83
f 38/55/84 15/10/84 37/31/84
f 50/43/85 52/14/85 51/39/85
f 51/39/86 32/48/86 24/40/86
f 39/47/87 38/91/87 37/92/87
f 50/43/88 54/60/88 53/37/88
f 43/82/89 53/37/89 54/60/89
f 34/10/90 17/12/90 1/10/90
f 33/48/91 49/93/91 21/52/91
f 18/2/92 7/10/92 20/11/92
f 15/83/93 18/94/93 16/36/93
f 29/56/94 38/95/94 28/46/94
f 47/15/95 52/14/95 53/37/95
f 40/47/96 35/92/96 34/10/96
f 38/55/97 8/84/97 15/10/97
f 50/43/98 53/37/98 52/14/98
f 51/39/99 52/14/99 32/48/99
f 39/47/100 28/46/100 38/91/100
f 50/43/101 49/51/101 54/60/101
f 43/82/102 44/38/102 53/37/102
f 34/10/103 35/29/103 17/12/103
f 33/48/104 54/60/104 49/93/104
