# Blender 5.0.0
# www.blender.org
o shape15_timezone_b0.005
v 22.919062 31.140137 29.515207
v 25.127638 31.312706 31.771618
v 22.228012 37.838959 33.193401
v 18.980116 39.110462 35.410332
v 20.120306 39.250874 29.710587
v 21.725048 30.838730 35.179344
vn 0.6888 0.1516 0.7089
vn 0.8354 0.4423 -0.3263
vn 0.6819 0.2518 -0.6867
vn 0.1083 -0.9937 -0.0300
vn -0.9327 -0.3041 -0.1941
vn -0.9254 -0.3142 -0.2118
vn 0.6013 0.1778 0.7790
vn 0.4250 0.8988 0.1072
vt 0.812039 0.945150
vt 0.095378 0.120652
vt 0.756389 0.933452
vt 0.004851 0.005482
vt 0.758313 0.924698
vt 0.079831 0.094853
vt 0.882462 0.434480
vt 0.879534 0.358974
vt 0.942063 0.418292
vt 0.941436 0.360755
vt 0.811038 0.949208
s 0
f 3/1/1 6/2/1 2/3/1
f 5/4/2 3/1/2 2/5/2
f 1/6/3 5/4/3 2/5/3
f 6/2/4 1/6/4 2/3/4
f 4/7/5 5/8/5 6/9/5
f 5/8/6 1/10/6 6/9/6
f 3/11/7 4/7/7 6/2/7
f 5/8/8 4/7/8 3/1/8
