# Blender 5.0.0
# www.blender.org
o shape15_timezone_b0.001
v 72.518463 29.345758 20.418304
v 73.032059 29.043835 20.953789
v 72.817787 29.577240 18.819227
v 74.147591 28.377943 21.404982
v 74.950905 28.556498 18.807005
v 75.342041 27.348169 21.624607
v 76.510818 27.157440 18.779915
v 77.084686 27.103621 16.514494
v 75.320465 28.643513 16.514494
v 73.261314 29.685669 16.514494
v 77.528442 25.930662 16.514494
v 76.959061 25.939240 18.779915
v 75.848206 26.037493 21.624607
v 72.518463 -29.345758 20.418304
v 73.032059 -29.043835 20.953789
v 72.817787 -29.577240 18.819227
v 74.147591 -28.377943 21.404982
v 74.950905 -28.556498 18.807005
v 75.342041 -27.348169 21.624607
v 76.510818 -27.157440 18.779915
v 77.084686 -27.103621 16.514494
v 75.320465 -28.643513 16.514494
v 73.261314 -29.685669 16.514494
v 77.528442 -25.930662 16.514494
v 76.959061 -25.939240 18.779915
v 75.848206 -26.037493 21.624607
vn 0.4194 0.8897 0.1802
vn 0.4213 0.8884 0.1823
vn 0.4212 0.8923 0.1623
vn 0.7755 0.5590 0.2934
vn 0.5266 0.8353 0.1577
vn 0.4862 0.8477 0.2123
vn 0.5573 0.8209 0.1247
vn 0.4389 0.8911 0.1154
vn 0.8911 0.3296 0.3120
vn 0.8020 0.5442 0.2461
vn 0.8059 0.5602 0.1917
vn 0.8997 0.3374 0.2770
vn 0.9086 0.3509 0.2265
vn 0.4194 -0.8897 0.1802
vn 0.4212 -0.8923 0.1623
vn 0.4213 -0.8884 0.1822
vn 0.7755 -0.5590 0.2934
vn 0.5266 -0.8353 0.1577
vn 0.8003 -0.5502 0.2383
vn 0.4389 -0.8911 0.1154
vn 0.5573 -0.8209 0.1247
vn 0.4862 -0.8477 0.2123
vn 0.8911 -0.3296 0.3120
vn 0.8997 -0.3374 0.2770
vn 0.8059 -0.5602 0.1917
vn 0.9086 -0.3509 0.2265
vt 0.700851 0.726049
vt 0.678378 0.752946
vt 0.717081 0.641700
vt 0.556027 0.786634
vt 0.643421 0.640917
vt 0.630936 0.775666
vt 0.649663 0.514533
vt 0.725820 0.514533
vt 0.461183 0.786634
vt 0.542294 0.639611
vt 0.538548 0.514533
vt 0.454230 0.639611
vt 0.453720 0.514533
s 1
f 1/1/1 2/2/2 3/3/3
f 6/4/4 5/5/5 4/6/6
f 5/5/5 9/7/7 10/8/8
f 3/3/3 5/5/5 10/8/8
f 5/5/5 2/2/2 4/6/6
f 13/9/9 7/10/10 6/4/4
f 8/11/11 12/12/12 11/13/13
f 9/7/7 7/10/10 8/11/11
f 14/1/14 16/3/15 15/2/16
f 19/4/17 18/5/18 20/10/19
f 18/5/18 23/8/20 22/7/21
f 16/3/15 23/8/20 18/5/18
f 15/2/16 18/5/18 17/6/22
f 26/9/23 20/10/19 25/12/24
f 21/11/25 25/12/24 20/10/19
f 22/7/21 20/10/19 18/5/18
f 6/4/4 7/10/10 5/5/5
f 5/5/5 3/3/3 2/2/2
f 13/9/9 12/12/12 7/10/10
f 8/11/11 7/10/10 12/12/12
f 9/7/7 5/5/5 7/10/10
f 19/4/17 17/6/22 18/5/18
f 15/2/16 16/3/15 18/5/18
f 26/9/23 19/4/17 20/10/19
f 21/11/25 24/13/26 25/12/24
f 22/7/21 21/11/25 20/10/19
