# Blender 5.0.0
# www.blender.org
o shape33_timezone_b1
v -84.536392 27.824566 24.080147
v -83.642647 28.150417 20.075672
v -85.679886 22.672298 24.080147
v -84.813080 22.734957 20.075672
v -86.421341 14.010881 24.080147
v -85.703674 12.156035 20.075672
v -83.642647 -28.150417 20.075672
v -84.536392 -27.824566 24.080147
v -84.813080 -22.734957 20.075672
v -85.679886 -22.672298 24.080147
v -84.813080 -22.734957 20.075672
v -85.679886 -22.672298 24.080147
v -85.703674 -12.156035 20.075672
v -86.421341 -14.010881 24.080147
vn -0.9616 0.1856 -0.2024
vn -0.9654 0.1334 -0.2241
vn -0.9661 0.0807 -0.2452
vn -0.9616 -0.1856 -0.2024
vn -0.9654 -0.1334 -0.2241
vn -0.9654 -0.1334 -0.2242
vn -0.9661 -0.0807 -0.2452
vt 0.688032 0.702728
vt 0.702728 0.002930
vt 0.462697 0.702728
vt 0.465496 0.002930
vt 0.083406 0.702728
vt 0.002930 0.002930
s 1
f 1/1/1 2/2/1 3/3/2
f 4/4/2 3/3/2 2/2/1
f 3/3/2 4/4/2 5/5/3
f 6/6/3 5/5/3 4/4/2
f 7/2/4 8/1/4 9/4/5
f 10/3/6 9/4/5 8/1/4
f 11/4/6 12/3/5 13/6/7
f 14/5/7 13/6/7 12/3/5
