# Blender 5.0.0
# www.blender.org
o shape29.001
v -48.062096 -23.059429 40.974140
v -39.866230 -20.740183 45.737530
v -51.680435 -18.172094 41.047573
v -41.487923 -16.054405 46.325073
v -54.751274 -10.039254 40.974140
v -42.485992 -9.169346 46.718513
v -56.038620 0.000000 40.974144
v -43.266254 0.000000 46.831055
v -54.751282 10.039254 40.974140
v -42.485992 9.169347 46.718517
v -41.487923 16.054405 46.325073
v 31.237743 30.313631 28.757984
v -57.817719 29.198343 30.790915
v 18.723612 25.493252 39.037262
v -45.022991 24.613464 40.970005
v 9.092417 22.208916 44.825821
v -36.970722 22.208084 45.317425
v 4.488560 21.600811 45.762184
v -31.852711 21.030325 46.640537
v -57.817719 -29.220234 30.790915
v 31.237743 -30.335520 28.757984
v -45.022991 -24.635353 40.970005
v 18.723612 -25.515139 39.037258
v -36.970722 -22.229971 45.317425
v 9.092417 -22.230803 44.825821
v 4.488560 -21.622698 45.762184
v -31.852711 -21.052214 46.640537
v -51.680435 18.172094 41.047573
v -39.866230 20.740183 45.737530
v -48.062096 23.059429 40.974140
v -60.961555 -25.893942 33.183273
v -58.959274 -25.687101 33.862923
v -65.010880 -21.378716 33.566399
v -68.839981 -11.400076 33.784576
v -70.229080 -0.000000 33.832115
v -68.839981 11.400076 33.784573
v -65.010880 21.378716 33.566399
v -58.959274 25.687101 33.862923
v -60.961555 25.893944 33.183277
v 34.492081 28.072514 30.358446
v 20.621925 24.656406 38.908295
v 22.926912 18.284403 39.096230
v 10.693419 16.240038 45.664391
v 24.195700 10.421364 39.225628
v 11.438455 8.975661 46.090607
v 24.538465 -0.000000 39.344543
v 11.744794 -0.000000 46.199326
v 24.195700 -10.421364 39.225628
v 11.438455 -8.975661 46.090607
v 22.926912 -18.284403 39.096233
v 10.693418 -16.240038 45.664391
v 20.621925 -24.656406 38.908298
v 9.626530 -21.380386 45.049870
v 20.621925 24.656406 38.908295
v 9.626531 21.380386 45.049870
v 10.693419 16.240038 45.664391
v 34.492081 28.072514 30.358446
v 22.926912 18.284403 39.096230
v 37.835648 21.074495 29.504709
v 24.195700 10.421364 39.225628
v 39.473515 12.284798 29.606413
v 24.538465 -0.000000 39.344543
v 40.280876 0.000000 29.738510
v 24.195700 -10.421364 39.225628
v 39.473515 -12.284798 29.606415
v 22.926912 -18.284403 39.096233
v 37.835648 -21.074495 29.504709
v 34.492081 -28.072514 30.358446
v 20.621925 -24.656406 38.908298
v 34.492081 -28.072514 30.358446
v 22.926912 -18.284403 39.096233
vn -0.4030 -0.3756 0.8346
vn -0.4064 -0.2829 0.8688
vn -0.4227 -0.2306 0.8765
vn -0.4166 -0.1722 0.8926
vn -0.4302 -0.1063 0.8965
vn -0.4166 -0.0811 0.9054
vn -0.4345 -0.0000 0.9007
vn -0.4190 -0.0000 0.9080
vn -0.4302 0.1063 0.8965
vn -0.4169 0.0811 0.9053
vn -0.4166 0.1722 0.8926
vn -0.0010 0.9086 0.4177
vn 0.0014 0.8909 0.4543
vn 0.0049 0.8491 0.5282
vn 0.0047 0.8199 0.5725
vn 0.0050 0.7910 0.6118
vn 0.0040 0.7546 0.6562
vn -0.0010 -0.9086 0.4177
vn 0.0014 -0.8909 0.4543
vn 0.0014 -0.8909 0.4542
vn 0.0046 -0.8199 0.5725
vn 0.0049 -0.8491 0.5281
vn 0.0050 -0.7910 0.6117
vn 0.0040 -0.7546 0.6562
vn -0.4227 0.2305 0.8765
vn -0.4064 0.2829 0.8688
vn -0.4030 0.3756 0.8346
vn -0.2742 -0.3227 0.9059
vn -0.3341 -0.4108 0.8483
vn -0.3821 -0.3328 0.8621
vn -0.4445 -0.1352 0.8855
vn -0.4497 0.0001 0.8932
vn -0.4445 0.1352 0.8855
vn -0.3821 0.3328 0.8621
vn -0.3341 0.4108 0.8483
vn -0.2742 0.3227 0.9059
vn 0.4977 0.1711 0.8503
vn 0.4509 0.1930 0.8715
vn 0.4846 0.1450 0.8626
vn 0.4455 0.1582 0.8812
vn 0.4957 0.0648 0.8661
vn 0.4667 0.0600 0.8824
vn 0.4988 -0.0000 0.8667
vn 0.4719 -0.0001 0.8817
vn 0.4957 -0.0648 0.8661
vn 0.4668 -0.0600 0.8823
vn 0.4846 -0.1450 0.8627
vn 0.4455 -0.1582 0.8812
vn 0.4509 -0.1930 0.8715
vn 0.4333 -0.1951 0.8799
vn 0.4333 0.1951 0.8799
vn 0.5196 0.1234 0.8454
vn 0.5241 0.0695 0.8488
vn 0.5252 -0.0000 0.8510
vn 0.5241 -0.0695 0.8488
vn 0.4846 -0.1450 0.8626
vn 0.5196 -0.1233 0.8455
vn 0.4977 -0.1711 0.8503
vt 0.352326 0.038180
vt 0.005859 0.038180
vt 0.349541 0.227052
vt 0.005859 0.287148
vt 0.352326 0.404815
vt 0.005859 0.421480
vt 0.352326 0.600757
vt 0.005859 0.600757
vt 0.316120 0.334619
vt 0.304980 0.337649
vt 0.314449 0.350274
vt 0.306651 0.353304
vt 0.313335 0.359364
vt 0.307765 0.360374
vt 0.312778 0.360879
vt 0.308322 0.362394
vt 0.600757 0.005859
vt 0.600757 0.281088
vt 0.182435 0.005859
vt 0.182435 0.281088
vt 0.600757 0.378049
vt 0.182435 0.404815
vt 0.600757 0.600757
vt 0.182435 0.600757
vt 0.975725 0.005859
vt 0.768103 0.005859
vt 0.785074 0.253862
vt 0.612476 0.212162
vt 0.783991 0.277063
vt 0.612476 0.293366
vt 0.781463 0.387524
vt 0.612476 0.387524
vt 0.612476 0.005859
vt 0.994141 0.298696
vt 0.991974 0.256370
vt 0.989085 0.387524
s 1
f 1/1/1 2/2/2 3/3/3
f 4/4/4 3/3/3 2/2/2
f 3/3/3 4/4/4 5/5/5
f 6/6/6 5/5/5 4/4/4
f 5/5/5 6/6/6 7/7/7
f 8/8/8 7/7/7 6/6/6
f 7/7/7 8/8/8 9/5/9
f 10/6/10 9/5/9 8/8/8
f 9/5/9 10/6/10 11/4/11
f 12/9/12 13/10/12 14/11/13
f 15/12/13 14/11/13 13/10/12
f 14/11/13 15/12/13 16/13/14
f 17/14/15 16/13/14 15/12/13
f 16/13/14 17/14/15 18/15/16
f 19/16/17 18/15/16 17/14/15
f 20/10/18 21/9/18 22/12/19
f 23/11/20 22/12/19 21/9/18
f 22/12/19 23/11/20 24/14/21
f 25/13/22 24/14/21 23/11/20
f 24/14/21 25/13/22 26/15/23
f 27/16/24 24/14/21 26/15/23
f 9/5/9 11/4/11 28/3/25
f 29/2/26 28/3/25 11/4/11
f 28/3/25 29/2/26 30/1/27
f 31/17/28 32/17/29 33/18/30
f 1/19/1 33/18/30 32/17/29
f 33/18/30 1/19/1 3/20/3
f 33/18/30 3/20/3 34/21/31
f 5/22/5 34/21/31 3/20/3
f 34/21/31 5/22/5 35/23/32
f 7/24/7 35/23/32 5/22/5
f 35/23/32 7/24/7 36/21/33
f 9/22/9 36/21/33 7/24/7
f 36/21/33 9/22/9 28/20/25
f 36/21/33 28/20/25 37/18/34
f 30/19/27 37/18/34 28/20/25
f 37/18/34 30/19/27 38/17/35
f 39/17/36 37/18/34 38/17/35
f 40/25/37 41/26/38 42/27/39
f 43/28/40 42/27/39 41/26/38
f 42/27/39 43/28/40 44/29/41
f 45/30/42 44/29/41 43/28/40
f 44/29/41 45/30/42 46/31/43
f 47/32/44 46/31/43 45/30/42
f 46/31/43 47/32/44 48/29/45
f 49/30/46 48/29/45 47/32/44
f 48/29/45 49/30/46 50/27/47
f 51/28/48 50/27/47 49/30/46
f 50/27/47 51/28/48 52/26/49
f 53/33/50 52/26/49 51/28/48
f 54/26/38 55/33/51 56/28/40
f 57/25/37 58/27/39 59/34/52
f 60/29/41 59/34/52 58/27/39
f 59/34/52 60/29/41 61/35/53
f 62/31/43 61/35/53 60/29/41
f 61/35/53 62/31/43 63/36/54
f 64/29/45 63/36/54 62/31/43
f 63/36/54 64/29/45 65/35/55
f 66/27/56 65/35/55 64/29/45
f 65/35/55 66/27/56 67/34/57
f 68/25/58 67/34/57 66/27/56
f 69/26/49 70/25/58 71/27/56
