# Blender 5.0.0
# www.blender.org
o shape9_sidetrims
v -52.225529 -22.979542 13.169467
v -49.836048 -24.272247 13.169469
v -39.990627 -19.474339 29.368980
v -38.958790 -20.210577 28.762115
v -37.812649 -20.014143 29.523663
v 10.346158 -20.868490 27.789528
v -24.908857 -20.072605 29.766083
v 7.912398 -20.598637 28.592972
v -6.413312 -20.297029 29.542938
v 4.880628 -20.462053 29.010689
v 10.346158 -20.868490 27.789528
v -38.958790 -20.210577 28.762115
v 24.392239 -25.103302 11.709939
v -49.836048 -24.272247 13.169469
v 24.392239 25.103334 11.709939
v -49.836048 24.272282 13.169469
v 10.346158 20.868523 27.789528
v -38.958790 20.210611 28.762115
v 7.912398 20.598667 28.592972
v -37.812649 20.014175 29.523663
v 4.880628 20.462086 29.010689
v -24.908857 20.072636 29.766083
v -6.413312 20.297062 29.542938
v -49.836048 24.272282 13.169469
v -52.225529 22.979574 13.169467
v -38.958790 20.210611 28.762115
v -39.990627 19.474371 29.368980
v -37.812649 20.014175 29.523663
v 24.392239 -25.089975 11.709939
v 10.346158 -20.857414 27.789528
v 27.715313 -20.204361 12.431396
v 12.889519 -17.803656 28.719246
v 30.019659 0.000000 12.995124
v 14.270603 0.000000 29.173801
v 27.715313 20.204361 12.431396
v 12.889519 17.803656 28.719246
v 24.392239 25.089975 11.709939
v 10.346158 20.857414 27.789528
v -52.225529 -22.967342 13.169467
v -39.990627 -19.464005 29.368980
v -53.346905 -21.584370 13.169467
v -40.598793 -18.429855 29.629925
v -54.356529 -17.986843 13.169467
v -41.142757 -16.587542 29.796108
v -54.808720 -13.394103 13.169467
v -41.475819 -12.701802 29.907345
v -55.206890 0.000000 13.169469
v -41.808884 0.000000 30.044350
v -54.808720 13.394103 13.169467
v -41.475819 12.701802 29.907345
v -54.356529 17.986843 13.169467
v -41.142757 16.587542 29.796108
v -53.346905 21.584370 13.169467
v -40.598793 18.429855 29.629925
v -52.225529 22.967342 13.169467
v -39.990627 19.464005 29.368980
vn -0.5175 -0.6656 0.5378
vn -0.2027 -0.9058 0.3720
vn -0.4170 -0.7188 0.5562
vn -0.1638 -0.9042 0.3944
vn -0.1293 -0.8628 0.4887
vn 0.1521 -0.8769 0.4559
vn -0.0064 -0.8218 0.5697
vn 0.0755 -0.8199 0.5675
vn 0.0071 -0.8082 0.5889
vn 0.0318 -0.8090 0.5869
vn -0.1636 -0.9043 0.3942
vn 0.2293 -0.8757 0.4249
vn -0.2024 -0.9060 0.3719
vn 0.2293 0.8757 0.4249
vn -0.2024 0.9060 0.3718
vn 0.1521 0.8769 0.4559
vn -0.1636 0.9044 0.3942
vn 0.0755 0.8199 0.5675
vn -0.1293 0.8629 0.4886
vn 0.0318 0.8090 0.5869
vn -0.0064 0.8219 0.5696
vn 0.0071 0.8082 0.5889
vn -0.2027 0.9058 0.3720
vn -0.5175 0.6655 0.5379
vn -0.1638 0.9042 0.3944
vn -0.4170 0.7188 0.5562
vn -0.1294 0.8627 0.4889
vn -0.2987 0.8331 -0.4655
vn -0.1955 0.8149 -0.5457
vn -0.6642 0.3274 -0.6721
vn -0.4546 0.2981 -0.8393
vn -0.7215 -0.0884 -0.6867
vn -0.5015 -0.0681 -0.8625
vn -0.6642 -0.3274 -0.6721
vn -0.4546 -0.2981 -0.8393
vn -0.2988 -0.8331 -0.4655
vn -0.1955 -0.8149 -0.5457
vn -0.5174 -0.6656 0.5378
vn -0.4170 -0.7189 0.5561
vn -0.6970 -0.3773 0.6098
vn -0.6487 -0.3848 0.6566
vn -0.7657 -0.1570 0.6237
vn -0.7216 -0.1650 0.6723
vn -0.7802 -0.0527 0.6234
vn -0.7438 -0.0550 0.6662
vn -0.7825 -0.0001 0.6227
vn -0.7527 -0.0000 0.6583
vn -0.7802 0.0527 0.6233
vn -0.7437 0.0550 0.6662
vn -0.7657 0.1570 0.6237
vn -0.7216 0.1650 0.6723
vn -0.6970 0.3773 0.6098
vn -0.6487 0.3848 0.6566
vn -0.5174 0.6657 0.5378
vn -0.4169 0.7189 0.5561
vt 0.583990 0.051577
vt 0.569827 0.051577
vt 0.490005 0.561999
vt 0.483810 0.542901
vt 0.477171 0.566628
vt 0.108146 0.512230
vt 0.425994 0.583990
vt 0.122308 0.537114
vt 0.205068 0.567207
vt 0.139568 0.550424
vt 0.005859 0.005859
vt 0.994141 0.005859
vt 0.926102 0.372417
vt 0.915635 0.022195
vt 0.871752 0.393534
vt 0.595708 0.034945
vt 0.595708 0.404292
vt 0.005859 0.595708
vt 0.063000 0.949718
vt 0.028415 0.595708
vt 0.079917 0.955624
vt 0.087060 0.595708
vt 0.109991 0.959315
vt 0.162245 0.595708
vt 0.173523 0.961530
vt 0.375004 0.595708
vt 0.375004 0.964853
s 1
f 1/1/1 2/2/2 3/3/3
f 4/4/4 3/3/3 2/2/2
f 3/3/3 4/4/4 5/5/5
f 6/6/6 5/5/5 4/4/4
f 5/5/5 6/6/6 7/7/7
f 8/8/8 7/7/7 6/6/6
f 7/7/7 8/8/8 9/9/9
f 10/10/10 9/9/9 8/8/8
f 11/6/6 12/4/11 13/11/12
f 14/2/13 13/11/12 12/4/11
f 15/11/14 16/2/15 17/6/16
f 18/4/17 17/6/16 16/2/15
f 17/6/16 18/4/17 19/8/18
f 20/5/19 19/8/18 18/4/17
f 19/8/18 20/5/19 21/10/20
f 22/7/21 21/10/20 20/5/19
f 21/10/20 22/7/21 23/9/22
f 24/2/23 25/1/24 26/4/25
f 27/3/26 26/4/25 25/1/24
f 26/4/25 27/3/26 28/5/27
f 29/12/28 30/13/29 31/14/30
f 32/15/31 31/14/30 30/13/29
f 31/14/30 32/15/31 33/16/32
f 34/17/33 33/16/32 32/15/31
f 33/16/32 34/17/33 35/14/34
f 36/15/35 35/14/34 34/17/33
f 35/14/34 36/15/35 37/12/36
f 38/13/37 37/12/36 36/15/35
f 39/18/38 40/19/39 41/20/40
f 42/21/41 41/20/40 40/19/39
f 41/20/40 42/21/41 43/22/42
f 44/23/43 43/22/42 42/21/41
f 43/22/42 44/23/43 45/24/44
f 46/25/45 45/24/44 44/23/43
f 45/24/44 46/25/45 47/26/46
f 48/27/47 47/26/46 46/25/45
f 47/26/46 48/27/47 49/24/48
f 50/25/49 49/24/48 48/27/47
f 49/24/48 50/25/49 51/22/50
f 52/23/51 51/22/50 50/25/49
f 51/22/50 52/23/51 53/20/52
f 54/21/53 53/20/52 52/23/51
f 53/20/52 54/21/53 55/18/54
f 56/19/55 55/18/54 54/21/53
