# Blender 5.0.0
# www.blender.org
o shape7.008
v 24.392239 -25.089975 11.709939
v 10.346158 -20.857414 27.789528
v 27.715313 -20.204361 12.431396
v 12.889519 -17.803656 28.719246
v 30.019659 0.000000 12.995124
v 14.270603 0.000000 29.173801
v 27.715313 20.204361 12.431396
v 12.889519 17.803656 28.719246
v 24.392239 25.089975 11.709939
v 10.346158 20.857414 27.789528
v 4.880629 -20.451193 29.010689
v 10.346158 -20.857414 27.789528
v -39.990627 -19.464005 29.368980
v 24.392239 -25.089975 11.709939
v -52.225529 -22.967342 13.169467
v -52.225529 22.967342 13.169467
v 24.392239 25.089975 11.709939
v -39.990627 19.464005 29.368980
v 10.346158 20.857414 27.789528
v 4.880629 20.451193 29.010689
v -39.990627 19.464005 29.368980
v 10.346158 20.857414 27.789528
v -51.990253 22.866676 12.970004
v -39.759228 19.346052 29.174530
v -54.109440 17.931189 12.966687
v -40.897026 16.519506 29.595463
v -54.952953 -0.000248 12.967507
v -41.554955 -0.000274 29.842381
v -54.108326 -17.931597 12.967935
v -40.898346 -16.521152 29.593307
v -51.989304 -22.864170 12.972423
v -39.763306 -19.343592 29.171253
v -52.225529 -22.953590 13.169467
v -49.836048 -24.244844 13.169469
v -39.990627 -19.452333 29.368980
v -38.958790 -20.187742 28.762115
v -37.812649 -19.991531 29.523663
v 10.346158 -20.844915 27.789528
v -24.908857 -20.049925 29.766083
v 7.912398 -20.575367 28.592972
v -6.413312 -20.274099 29.542938
v 4.880628 -20.438936 29.010689
v 10.346158 -20.844915 27.789528
v -38.958790 -20.187742 28.762115
v 24.392239 -25.074961 11.709939
v -49.836048 -24.244844 13.169469
v 24.392239 25.075184 11.709939
v -49.836048 24.245064 13.169469
v 10.346158 20.845137 27.789528
v -38.958790 20.187965 28.762115
v 7.912398 20.575584 28.592972
v -37.812649 19.991751 29.523663
v 4.880628 20.439154 29.010689
v -24.908857 20.050146 29.766083
v -6.413312 20.274319 29.542938
v -49.836048 24.245064 13.169469
v -52.225529 22.953815 13.169467
v -38.958790 20.187965 28.762115
v -39.990627 19.452553 29.368980
v -37.812649 19.991751 29.523663
v -52.258339 -22.967342 13.169467
v -40.023438 -19.464005 29.368980
v -53.379715 -21.584370 13.169467
v -40.631603 -18.429855 29.629925
v -54.389339 -17.986843 13.169467
v -41.175568 -16.587542 29.796108
v -54.841534 -13.394103 13.169467
v -41.508629 -12.701802 29.907345
v -55.239700 0.000000 13.169469
v -41.841698 0.000000 30.044350
v -54.841534 13.394103 13.169467
v -41.508629 12.701802 29.907345
v -54.389339 17.986843 13.169467
v -41.175568 16.587542 29.796108
v -53.379715 21.584370 13.169467
v -40.631603 18.429855 29.629925
v -52.258339 22.967342 13.169467
v -40.023438 19.464005 29.368980
vn -0.2987 0.8331 -0.4655
vn -0.1955 0.8149 -0.5457
vn -0.6642 0.3274 -0.6721
vn -0.4546 0.2981 -0.8393
vn -0.7215 -0.0884 -0.6867
vn -0.5015 -0.0681 -0.8625
vn -0.6642 -0.3274 -0.6721
vn -0.4546 -0.2981 -0.8393
vn -0.2988 -0.8331 -0.4655
vn -0.1955 -0.8149 -0.5457
vn -0.0589 0.6596 -0.7493
vn -0.1954 0.8149 -0.5457
vn 0.3263 0.7059 -0.6286
vn 0.4308 0.7591 -0.4881
vn 0.4308 -0.7591 -0.4881
vn -0.2987 -0.8331 -0.4655
vn 0.3264 -0.7059 -0.6286
vn -0.1954 -0.8149 -0.5457
vn -0.0589 -0.6596 -0.7493
vn 0.4300 -0.7594 -0.4883
vn 0.3252 -0.7067 -0.6283
vn 0.7596 -0.1887 -0.6224
vn 0.7219 -0.1962 -0.6636
vn 0.7817 -0.0387 -0.6225
vn 0.7475 -0.0407 -0.6630
vn 0.7596 0.1887 -0.6225
vn 0.7219 0.1962 -0.6636
vn 0.4299 0.7593 -0.4885
vn 0.3252 0.7069 -0.6282
vn -0.5172 -0.6660 0.5376
vn -0.2024 -0.9061 0.3716
vn -0.4167 -0.7192 0.5559
vn -0.1636 -0.9044 0.3940
vn -0.1292 -0.8630 0.4883
vn 0.1521 -0.8771 0.4557
vn -0.0064 -0.8220 0.5695
vn 0.0754 -0.8201 0.5672
vn 0.0071 -0.8083 0.5888
vn 0.0318 -0.8092 0.5867
vn 0.1521 -0.8771 0.4556
vn -0.1636 -0.9045 0.3940
vn 0.2293 -0.8759 0.4246
vn 0.2293 0.8759 0.4246
vn -0.2024 0.9061 0.3716
vn 0.1521 0.8771 0.4557
vn -0.1636 0.9045 0.3939
vn 0.0755 0.8201 0.5672
vn -0.1292 0.8630 0.4884
vn 0.0318 0.8092 0.5867
vn -0.0064 0.8220 0.5695
vn 0.0071 0.8082 0.5888
vn -0.5172 0.6659 0.5376
vn -0.1636 0.9044 0.3940
vn -0.4167 0.7192 0.5559
vn -0.5174 -0.6656 0.5378
vn -0.4170 -0.7189 0.5561
vn -0.6970 -0.3773 0.6098
vn -0.6487 -0.3848 0.6566
vn -0.7657 -0.1570 0.6237
vn -0.7216 -0.1650 0.6723
vn -0.7802 -0.0527 0.6234
vn -0.7438 -0.0550 0.6662
vn -0.7825 -0.0001 0.6227
vn -0.7527 -0.0000 0.6583
vn -0.7802 0.0527 0.6233
vn -0.7437 0.0550 0.6662
vn -0.7657 0.1570 0.6237
vn -0.7216 0.1650 0.6723
vn -0.6970 0.3773 0.6098
vn -0.6487 0.3848 0.6566
vn -0.5174 0.6657 0.5378
vn -0.4169 0.7189 0.5561
vt 0.346974 0.506194
vt 0.288223 0.822714
vt 0.279185 0.520300
vt 0.241292 0.840949
vt 0.002930 0.531309
vt 0.002930 0.850238
vt 0.621195 0.483590
vt 0.594366 0.449878
vt 0.918900 0.493806
vt 0.506194 0.002930
vt 0.997070 0.043283
vt 0.677751 0.506194
vt 0.726951 0.810499
vt 0.747667 0.506194
vt 0.767412 0.818750
vt 0.995066 0.506194
vt 0.995066 0.823509
vt 0.500334 0.042264
vt 0.488150 0.042264
vt 0.419473 0.481414
vt 0.414143 0.464983
vt 0.408431 0.485397
vt 0.090934 0.438595
vt 0.364400 0.500334
vt 0.103118 0.460004
vt 0.174322 0.485895
vt 0.117968 0.471456
vt 0.002930 0.002930
vt 0.352833 0.506194
vt 0.401874 0.812171
vt 0.372191 0.506194
vt 0.416393 0.817276
vt 0.422523 0.506194
vt 0.442204 0.820466
vt 0.487050 0.506194
vt 0.496729 0.822381
vt 0.671891 0.506194
vt 0.671891 0.825252
s 1
f 1/1/1 2/2/2 3/3/3
f 4/4/4 3/3/3 2/2/2
f 3/3/3 4/4/4 5/5/5
f 6/6/6 5/5/5 4/4/4
f 5/5/5 6/6/6 7/3/7
f 8/4/8 7/3/7 6/6/6
f 7/3/7 8/4/8 9/1/9
f 10/2/10 9/1/9 8/4/8
f 11/7/11 12/8/12 13/9/13
f 14/10/1 13/9/13 12/8/12
f 13/9/13 14/10/1 15/11/14
f 16/11/15 17/10/16 18/9/17
f 19/8/18 18/9/17 17/10/16
f 20/7/19 21/9/17 22/8/18
f 23/12/20 24/13/21 25/14/22
f 26/15/23 25/14/22 24/13/21
f 25/14/22 26/15/23 27/16/24
f 28/17/25 27/16/24 26/15/23
f 27/16/24 28/17/25 29/14/26
f 30/15/27 29/14/26 28/17/25
f 29/14/26 30/15/27 31/12/28
f 32/13/29 31/12/28 30/15/27
f 33/18/30 34/19/31 35/20/32
f 36/21/33 35/20/32 34/19/31
f 35/20/32 36/21/33 37/22/34
f 38/23/35 37/22/34 36/21/33
f 37/22/34 38/23/35 39/24/36
f 40/25/37 39/24/36 38/23/35
f 39/24/36 40/25/37 41/26/38
f 42/27/39 41/26/38 40/25/37
f 43/23/40 44/21/41 45/28/42
f 46/19/31 45/28/42 44/21/41
f 47/28/43 48/19/44 49/23/45
f 50/21/46 49/23/45 48/19/44
f 49/23/45 50/21/46 51/25/47
f 52/22/48 51/25/47 50/21/46
f 51/25/47 52/22/48 53/27/49
f 54/24/50 53/27/49 52/22/48
f 53/27/49 54/24/50 55/26/51
f 56/19/44 57/18/52 58/21/53
f 59/20/54 58/21/53 57/18/52
f 58/21/53 59/20/54 60/22/48
f 61/29/55 62/30/56 63/31/57
f 64/32/58 63/31/57 62/30/56
f 63/31/57 64/32/58 65/33/59
f 66/34/60 65/33/59 64/32/58
f 65/33/59 66/34/60 67/35/61
f 68/36/62 67/35/61 66/34/60
f 67/35/61 68/36/62 69/37/63
f 70/38/64 69/37/63 68/36/62
f 69/37/63 70/38/64 71/35/65
f 72/36/66 71/35/65 70/38/64
f 71/35/65 72/36/66 73/33/67
f 74/34/68 73/33/67 72/36/66
f 73/33/67 74/34/68 75/31/69
f 76/32/70 75/31/69 74/34/68
f 75/31/69 76/32/70 77/29/71
f 78/30/72 77/29/71 76/32/70
