# Blender 5.0.0
# www.blender.org
o shape0.001
v -10.741888 -0.878867 0.000001
v -10.741888 -6.443996 0.000001
v -10.507153 -0.878867 2.233365
v -10.507153 -6.443996 2.233365
v -9.813204 -0.878867 4.369121
v -9.813204 -6.443996 4.369121
v -8.690371 -0.878867 6.313924
v -8.690371 -6.443996 6.313924
v -7.187726 -0.878867 7.982780
v -7.187726 -6.443996 7.982780
v -5.370944 -0.878867 9.302748
v -5.370944 -6.443996 9.302748
v -3.319426 -0.878867 10.216143
v -3.319426 -6.443996 10.216143
v -1.122832 -0.878867 10.683043
v -1.122832 -6.443996 10.683043
v 1.122834 -0.878867 10.683043
v 1.122834 -6.443996 10.683043
v 3.319427 -0.878867 10.216143
v 3.319427 -6.443996 10.216143
v 5.370944 -0.878867 9.302748
v 5.370944 -6.443996 9.302748
v 7.187726 -0.878867 7.982779
v 7.187726 -6.443996 7.982779
v 8.690371 -0.878867 6.313923
v 8.690371 -6.443996 6.313923
v 9.813204 -0.878867 4.369119
v 9.813204 -6.443996 4.369119
v 10.507153 -0.878867 2.233363
v 10.507153 -6.443996 2.233363
v 10.741888 -0.878867 -0.000001
v 10.741888 -6.443996 -0.000001
v 10.507153 -0.878867 -2.233365
v 10.507153 -6.443996 -2.233365
v 9.813204 -0.878867 -4.369121
v 9.813204 -6.443996 -4.369121
v 8.690371 -0.878867 -6.313924
v 8.690371 -6.443996 -6.313924
v 7.187726 -0.878867 -7.982780
v 7.187726 -6.443996 -7.982780
v 5.370944 -0.878867 -9.302748
v 5.370944 -6.443996 -9.302748
v 3.319426 -0.878867 -10.216143
v 3.319426 -6.443996 -10.216143
v 1.122832 -0.878867 -10.683043
v 1.122832 -6.443996 -10.683043
v -1.122834 -0.878867 -10.683043
v -1.122834 -6.443996 -10.683043
v -3.319427 -0.878867 -10.216143
v -3.319427 -6.443996 -10.216143
v -5.370944 -0.878867 -9.302748
v -5.370944 -6.443996 -9.302748
v -7.187726 -0.878867 -7.982779
v -7.187726 -6.443996 -7.982779
v -8.690371 -0.878867 -6.313923
v -8.690371 -6.443996 -6.313923
v -9.813204 -0.878867 -4.369119
v -9.813204 -6.443996 -4.369119
v -10.507153 -0.878867 -2.233363
v -10.507153 -6.443996 -2.233363
v -9.629668 0.000000 0.000001
v -7.034488 0.000000 0.000001
v -9.419237 0.000000 -2.002120
v -6.880767 0.000000 -1.462552
v -8.797140 0.000000 -3.916738
v -6.426324 0.000000 -2.861184
v -7.790566 0.000000 -5.660177
v -5.691020 0.000000 -4.134768
v -6.443506 0.000000 -7.156238
v -4.706992 0.000000 -5.227643
v -4.814835 0.000000 -8.339538
v -3.517245 0.000000 -6.092045
v -2.975732 0.000000 -9.158359
v -2.173777 0.000000 -6.690196
v -1.006575 0.000000 -9.576916
v -0.735305 0.000000 -6.995952
v 1.006574 0.000000 -9.576916
v 0.735304 0.000000 -6.995952
v 2.975730 0.000000 -9.158359
v 2.173776 0.000000 -6.690196
v 4.814834 0.000000 -8.339538
v 3.517244 0.000000 -6.092046
v 6.443505 0.000000 -7.156239
v 4.706991 0.000000 -5.227644
v 7.790565 0.000000 -5.660178
v 5.691020 0.000000 -4.134769
v 8.797140 0.000000 -3.916740
v 6.426324 0.000000 -2.861185
v 9.419237 0.000000 -2.002121
v 6.880767 0.000000 -1.462553
v 9.629668 0.000000 -0.000001
v 7.034488 0.000000 -0.000001
v 9.419237 0.000000 2.002120
v 6.880767 0.000000 1.462552
v 8.797140 0.000000 3.916738
v 6.426324 0.000000 2.861184
v 7.790566 0.000000 5.660177
v 5.691020 0.000000 4.134768
v 6.443506 0.000000 7.156238
v 4.706992 0.000000 5.227643
v 4.814835 0.000000 8.339538
v 3.517245 0.000000 6.092045
v 2.975732 0.000000 9.158359
v 2.173777 0.000000 6.690196
v 1.006575 0.000000 9.576916
v 0.735305 0.000000 6.995952
v -1.006574 0.000000 9.576916
v -0.735304 0.000000 6.995952
v -2.975730 0.000000 9.158359
v -2.173776 0.000000 6.690196
v -4.814834 0.000000 8.339538
v -3.517244 0.000000 6.092046
v -6.443505 0.000000 7.156239
v -4.706991 0.000000 5.227644
v -7.790565 0.000000 5.660178
v -5.691020 0.000000 4.134769
v -8.797140 0.000000 3.916740
v -6.426324 0.000000 2.861185
v -9.419237 0.000000 2.002121
v -6.880767 0.000000 1.462553
vn 0.2640 0.3025 0.9158
vn 0.0026 -1.0000 -0.0080
vn 0.0011 -0.9999 -0.0103
vn 0.8573 0.3025 0.4166
vn -0.0057 -0.9999 -0.0093
vn -0.0011 -1.0000 -0.0010
vn 0.6137 0.3025 0.7293
vn -0.0012 -0.9999 -0.0116
vn -0.0039 -0.9999 -0.0111
vn 0.8832 0.3025 -0.3583
vn 0.9747 0.0839 0.2072
vn 0.9970 0.0776 -0.0000
vn 0.9526 0.3025 0.0319
vn 0.0025 -1.0000 0.0018
vn -0.0006 -1.0000 -0.0003
vn -0.4487 0.3025 -0.8409
vn -0.0011 -0.9999 0.0103
vn 0.0012 -0.9999 0.0116
vn 0.7894 0.3025 -0.5341
vn -0.0027 -1.0000 0.0005
vn 0.3247 0.3025 -0.8961
vn 0.0040 -1.0000 -0.0029
vn 0.0005 -1.0000 -0.0006
vn -0.0678 0.3025 -0.9507
vn -0.0029 -1.0000 0.0050
vn -0.0026 -1.0000 0.0080
vn -0.7894 0.3025 0.5341
vn -0.9970 0.0776 0.0002
vn 0.0027 -1.0000 -0.0005
vn -0.6137 0.3025 -0.7293
vn 0.0039 -0.9999 0.0111
vn -0.0439 0.9495 0.3108
vn 0.0952 0.4384 0.8937
vn 0.7293 0.0150 0.6841
vn -0.6611 0.3025 0.6866
vn -0.0011 -1.0000 0.0006
vn 0.2278 0.0150 -0.9736
vn -0.3247 0.3025 0.8961
vn -0.0040 -1.0000 0.0029
vn -0.0005 -1.0000 0.0006
vn 0.3880 0.0150 0.9215
vn -0.8759 0.0150 0.4822
vn -0.9921 0.0150 -0.1248
vn -0.9747 0.0839 -0.2072
vn -0.0204 0.0150 0.9997
vn 0.6041 0.0150 -0.7968
vn 0.8759 0.0150 -0.4822
vn 0.0011 -1.0000 -0.0005
vn -0.9252 0.3025 -0.2293
vn 0.0011 -1.0000 0.0009
vn -0.0026 -1.0000 -0.0018
vn 0.0029 -1.0000 -0.0050
vn 0.9445 0.0150 0.3283
vn -0.6041 0.0150 0.7968
vn -0.5711 0.0150 -0.8207
vn 0.0057 -0.9999 0.0093
vn -0.3880 0.0150 -0.9215
vn 0.9570 0.0150 -0.2895
vn -0.9526 0.3025 -0.0319
vn 0.0006 -1.0000 0.0003
vn -0.9445 0.0150 -0.3283
vn -0.3183 0.9479 -0.0160
vn -0.0000 1.0000 -0.0000
vn -0.2833 0.9507 0.1261
vn 0.2833 0.9507 0.1261
vn -0.2669 0.9479 0.1741
vn 0.2972 0.9479 -0.1147
vn 0.1453 0.9479 0.2836
vn 0.0958 0.9507 -0.2949
vn 0.2167 0.9497 0.2259
vn 0.2248 0.9479 -0.2258
vn -0.1453 0.9479 -0.2836
vn -0.2167 0.9497 -0.2259
vn -0.0831 0.9479 -0.3076
vn -0.3080 0.9479 -0.0818
vn -0.2841 0.9479 -0.1441
vn 0.2473 0.9497 -0.1919
vn 0.0174 0.9479 0.3182
vn -0.1166 0.9381 0.3262
vn 0.1061 0.9497 0.2945
vn 0.0229 0.9497 -0.3122
vn -0.2020 0.9497 0.2391
vn 0.3081 0.9497 0.0554
vn 0.3129 0.9497 -0.0099
vn 0.3377 0.9379 -0.0798
vn -0.0425 0.9497 -0.3102
vn 0.1666 0.9379 -0.3043
vn -0.2641 0.9407 -0.2129
vn -0.3349 0.9407 0.0538
vn -0.1841 0.9407 0.2849
vn 0.2853 0.9379 0.1975
vt 0.473694 0.387039
vt 0.494589 0.617504
vt 0.473694 0.617504
vt 0.391955 0.387039
vt 0.412236 0.617504
vt 0.391955 0.617504
vt 0.432517 0.387039
vt 0.453413 0.617504
vt 0.432517 0.617504
vt 0.310217 0.387039
vt 0.330498 0.617504
vt 0.310217 0.617504
vt 0.350779 0.387039
vt 0.371675 0.617504
vt 0.350779 0.617504
vt 0.146126 0.387039
vt 0.166407 0.617504
vt 0.146126 0.617504
vt 0.289322 0.387039
vt 0.289322 0.617504
vt 0.227864 0.387039
vt 0.248760 0.617504
vt 0.227864 0.617504
vt 0.187302 0.387039
vt 0.207583 0.617504
vt 0.187302 0.617504
vt 0.596609 0.387039
vt 0.617504 0.617504
vt 0.596609 0.617504
vt 0.125845 0.387039
vt 0.125845 0.617504
vt 0.473694 0.310217
vt 0.494589 0.387039
vt 0.371675 0.387039
vt 0.576328 0.387039
vt 0.576328 0.617504
vt 0.166407 0.387039
vt 0.535151 0.387039
vt 0.555432 0.617504
vt 0.535151 0.617504
vt 0.412236 0.387039
vt 0.555432 0.387039
vt 0.002930 0.387039
vt 0.023211 0.617504
vt 0.002930 0.617504
vt 0.453413 0.387039
vt 0.207583 0.387039
vt 0.248760 0.387039
vt 0.269041 0.617504
vt 0.064387 0.387039
vt 0.084668 0.617504
vt 0.064387 0.617504
vt 0.514870 0.617504
vt 0.330498 0.387039
vt 0.514870 0.387039
vt 0.084668 0.387039
vt 0.104949 0.617504
vt 0.104949 0.387039
vt 0.269041 0.387039
vt 0.043492 0.387039
vt 0.043492 0.617504
vt 0.002930 0.002930
vt 0.023211 0.387039
vt 0.617504 0.310217
vt 0.596609 0.002930
vt 0.617504 0.002930
vt 0.576328 0.310217
vt 0.576328 0.002930
vt 0.371675 0.002930
vt 0.350779 0.310217
vt 0.350779 0.002930
vt 0.555432 0.310217
vt 0.535151 0.002930
vt 0.555432 0.002930
vt 0.269041 0.310217
vt 0.248760 0.002930
vt 0.269041 0.002930
vt 0.412236 0.310217
vt 0.391955 0.002930
vt 0.412236 0.002930
vt 0.207583 0.002930
vt 0.187302 0.310217
vt 0.187302 0.002930
vt 0.391955 0.310217
vt 0.227864 0.310217
vt 0.227864 0.002930
vt 0.166407 0.002930
vt 0.104949 0.310217
vt 0.084668 0.002930
vt 0.104949 0.002930
vt 0.084668 0.310217
vt 0.064387 0.002930
vt 0.125845 0.310217
vt 0.125845 0.002930
vt 0.330498 0.002930
vt 0.289322 0.002930
vt 0.023211 0.310217
vt 0.023211 0.002930
vt 0.043492 0.310217
vt 0.043492 0.002930
vt 0.248760 0.310217
vt 0.453413 0.310217
vt 0.432517 0.002930
vt 0.453413 0.002930
vt 0.494589 0.310217
vt 0.473694 0.002930
vt 0.494589 0.002930
vt 0.432517 0.310217
vt 0.166407 0.310217
vt 0.146126 0.002930
vt 0.535151 0.310217
vt 0.514870 0.002930
vt 0.330498 0.310217
vt 0.310217 0.002930
vt 0.310217 0.310217
vt 0.289322 0.310217
vt 0.146126 0.310217
vt 0.207583 0.310217
vt 0.064387 0.310217
vt 0.596609 0.310217
vt 0.617504 0.387039
vt 0.514870 0.310217
vt 0.371675 0.310217
vt 0.002930 0.310217
s 1
f 15/1/1 14/2/2 16/3/3
f 23/4/4 22/5/5 24/6/6
f 19/7/7 18/8/8 20/9/9
f 31/10/10 30/11/11 32/12/12
f 27/13/13 26/14/14 28/15/15
f 47/16/16 46/17/17 48/18/18
f 33/19/19 32/12/12 34/20/20
f 39/21/21 38/22/22 40/23/23
f 43/24/24 42/25/25 44/26/26
f 3/27/27 2/28/28 4/29/29
f 49/30/30 48/18/18 50/31/31
f 107/32/32 13/33/33 15/1/1
f 25/34/34 24/6/6 26/14/14
f 5/35/35 4/29/29 6/36/36
f 45/37/37 44/26/26 46/17/17
f 9/38/38 8/39/39 10/40/40
f 21/41/41 20/9/9 22/5/5
f 7/42/42 6/36/36 8/39/39
f 1/43/43 60/44/44 2/45/28
f 17/46/45 16/3/3 18/8/8
f 41/47/46 40/23/23 42/25/25
f 37/48/47 36/49/48 38/22/22
f 55/50/49 54/51/50 56/52/51
f 13/33/33 12/53/52 14/2/2
f 29/54/53 28/15/15 30/11/11
f 11/55/54 10/40/40 12/53/52
f 53/56/55 52/57/56 54/51/50
f 51/58/57 50/31/31 52/57/56
f 35/59/58 34/20/20 36/49/48
f 57/60/59 56/52/51 58/61/60
f 32/62/12 30/62/11 34/62/20
f 28/62/15 34/62/20 30/62/11
f 34/62/20 28/62/15 36/62/48
f 26/62/14 36/62/48 28/62/15
f 36/62/48 26/62/14 38/62/22
f 24/62/6 38/62/22 26/62/14
f 38/62/22 24/62/6 40/62/23
f 54/62/50 12/62/52 10/62/40
f 42/62/25 24/62/6 22/62/5
f 50/62/31 16/62/3 14/62/2
f 59/63/61 58/61/60 60/44/44
f 52/62/56 14/62/2 12/62/52
f 44/62/26 22/62/5 20/62/9
f 8/62/39 54/62/50 10/62/40
f 54/62/50 8/62/39 56/62/51
f 6/62/36 56/62/51 8/62/39
f 56/62/51 6/62/36 58/62/60
f 4/62/29 58/62/60 6/62/36
f 58/62/60 4/62/29 60/62/44
f 2/62/28 60/62/44 4/62/29
f 61/64/62 120/65/63 62/66/63
f 120/65/63 117/67/64 118/68/63
f 98/69/63 95/70/65 96/71/63
f 115/72/66 114/73/63 116/74/63
f 87/75/67 86/76/63 88/77/63
f 101/78/68 100/79/63 102/80/63
f 82/81/63 79/82/69 80/83/63
f 99/84/70 98/69/63 100/79/63
f 83/85/71 82/81/63 84/86/63
f 79/82/69 78/87/63 80/83/63
f 71/88/72 70/89/63 72/90/63
f 69/91/73 68/92/63 70/89/63
f 73/93/74 72/90/63 74/94/63
f 95/70/65 94/95/63 96/71/63
f 90/96/63 87/75/67 88/77/63
f 63/97/75 62/62/63 64/98/63
f 65/99/76 64/98/63 66/100/63
f 46/62/17 20/62/9 18/62/8
f 85/101/77 84/86/63 86/76/63
f 105/102/78 104/103/63 106/104/63
f 109/105/79 108/106/63 110/107/63
f 103/108/80 102/80/63 104/103/63
f 77/109/81 76/110/63 78/87/63
f 113/111/82 112/112/63 114/73/63
f 117/67/64 116/74/63 118/68/63
f 112/112/63 109/105/79 110/107/63
f 93/113/83 92/114/63 94/95/63
f 107/32/32 106/104/63 108/106/63
f 68/92/63 65/99/76 66/100/63
f 91/115/84 90/96/63 92/114/63
f 89/116/85 31/10/10 33/19/19
f 87/75/67 33/19/19 35/59/58
f 85/101/77 35/59/58 37/48/47
f 75/117/86 74/94/63 76/110/63
f 81/118/87 39/21/21 41/47/46
f 79/82/69 41/47/46 43/24/24
f 103/108/80 17/46/45 19/7/7
f 65/99/76 55/50/49 57/60/59
f 73/93/74 47/16/16 49/30/30
f 109/105/79 11/55/54 13/33/33
f 67/119/88 53/56/55 55/50/49
f 113/111/82 7/42/42 9/38/38
f 71/88/72 49/30/30 51/58/57
f 117/67/64 3/27/27 5/35/35
f 119/120/89 1/121/43 3/27/27
f 111/122/90 9/38/38 11/55/54
f 69/91/73 51/58/57 53/56/55
f 63/97/75 57/60/59 59/63/61
f 97/123/91 23/4/4 25/34/34
f 115/72/66 5/35/35 7/42/42
f 61/124/62 59/63/61 1/43/43
f 75/117/86 45/37/37 47/16/16
f 105/102/78 15/1/1 17/46/45
f 77/109/81 43/24/24 45/37/37
f 101/78/68 19/7/7 21/41/41
f 99/84/70 21/41/41 23/4/4
f 83/85/71 37/48/47 39/21/21
f 95/70/65 25/34/34 27/13/13
f 93/113/83 27/13/13 29/54/53
f 91/115/84 29/54/53 31/10/10
f 48/62/18 18/62/8 16/62/3
f 15/1/1 13/33/33 14/2/2
f 23/4/4 21/41/41 22/5/5
f 19/7/7 17/46/45 18/8/8
f 31/10/10 29/54/53 30/11/11
f 27/13/13 25/34/34 26/14/14
f 47/16/16 45/37/37 46/17/17
f 33/19/19 31/10/10 32/12/12
f 39/21/21 37/48/47 38/22/22
f 43/24/24 41/47/46 42/25/25
f 3/27/27 1/121/43 2/28/28
f 49/30/30 47/16/16 48/18/18
f 107/32/32 109/105/79 13/33/33
f 25/34/34 23/4/4 24/6/6
f 5/35/35 3/27/27 4/29/29
f 45/37/37 43/24/24 44/26/26
f 9/38/38 7/42/42 8/39/39
f 21/41/41 19/7/7 20/9/9
f 7/42/42 5/35/35 6/36/36
f 1/43/43 59/63/61 60/44/44
f 17/46/45 15/1/1 16/3/3
f 41/47/46 39/21/21 40/23/23
f 37/48/47 35/59/58 36/49/48
f 55/50/49 53/56/55 54/51/50
f 13/33/33 11/55/54 12/53/52
f 29/54/53 27/13/13 28/15/15
f 11/55/54 9/38/38 10/40/40
f 53/56/55 51/58/57 52/57/56
f 51/58/57 49/30/30 50/31/31
f 35/59/58 33/19/19 34/20/20
f 57/60/59 55/50/49 56/52/51
f 54/62/50 52/62/56 12/62/52
f 42/62/25 40/62/23 24/62/6
f 50/62/31 48/62/18 16/62/3
f 59/63/61 57/60/59 58/61/60
f 52/62/56 50/62/31 14/62/2
f 44/62/26 42/62/25 22/62/5
f 61/64/62 119/120/89 120/65/63
f 120/65/63 119/120/89 117/67/64
f 98/69/63 97/123/91 95/70/65
f 115/72/66 113/111/82 114/73/63
f 87/75/67 85/101/77 86/76/63
f 101/78/68 99/84/70 100/79/63
f 82/81/63 81/118/87 79/82/69
f 99/84/70 97/123/91 98/69/63
f 83/85/71 81/118/87 82/81/63
f 79/82/69 77/109/81 78/87/63
f 71/88/72 69/91/73 70/89/63
f 69/91/73 67/119/88 68/92/63
f 73/93/74 71/88/72 72/90/63
f 95/70/65 93/113/83 94/95/63
f 90/96/63 89/116/85 87/75/67
f 63/97/75 61/124/62 62/62/63
f 65/99/76 63/97/75 64/98/63
f 46/62/17 44/62/26 20/62/9
f 85/101/77 83/85/71 84/86/63
f 105/102/78 103/108/80 104/103/63
f 109/105/79 107/32/32 108/106/63
f 103/108/80 101/78/68 102/80/63
f 77/109/81 75/117/86 76/110/63
f 113/111/82 111/122/90 112/112/63
f 117/67/64 115/72/66 116/74/63
f 112/112/63 111/122/90 109/105/79
f 93/113/83 91/115/84 92/114/63
f 107/32/32 105/102/78 106/104/63
f 68/92/63 67/119/88 65/99/76
f 91/115/84 89/116/85 90/96/63
f 89/116/85 91/115/84 31/10/10
f 87/75/67 89/116/85 33/19/19
f 85/101/77 87/75/67 35/59/58
f 75/117/86 73/93/74 74/94/63
f 81/118/87 83/85/71 39/21/21
f 79/82/69 81/118/87 41/47/46
f 103/108/80 105/102/78 17/46/45
f 65/99/76 67/119/88 55/50/49
f 73/93/74 75/117/86 47/16/16
f 109/105/79 111/122/90 11/55/54
f 67/119/88 69/91/73 53/56/55
f 113/111/82 115/72/66 7/42/42
f 71/88/72 73/93/74 49/30/30
f 117/67/64 119/120/89 3/27/27
f 119/120/89 61/64/62 1/121/43
f 111/122/90 113/111/82 9/38/38
f 69/91/73 71/88/72 51/58/57
f 63/97/75 65/99/76 57/60/59
f 97/123/91 99/84/70 23/4/4
f 115/72/66 117/67/64 5/35/35
f 61/124/62 63/97/75 59/63/61
f 75/117/86 77/109/81 45/37/37
f 105/102/78 107/32/32 15/1/1
f 77/109/81 79/82/69 43/24/24
f 101/78/68 103/108/80 19/7/7
f 99/84/70 101/78/68 21/41/41
f 83/85/71 85/101/77 37/48/47
f 95/70/65 97/123/91 25/34/34
f 93/113/83 95/70/65 27/13/13
f 91/115/84 93/113/83 29/54/53
f 48/62/18 46/62/17 18/62/8
