# Blender 5.0.0
# www.blender.org
o shape9.frontwindow
v 25.905426 -23.569674 12.011357
v 26.895906 -22.143005 12.224469
v 11.486685 -20.082918 28.335968
v 27.759895 -20.204361 12.431396
v 12.934102 -17.803656 28.719246
v 29.011881 -14.108805 12.808347
v 13.875188 -12.701802 28.941975
v 30.064241 0.000000 12.995124
v 14.606996 0.000000 29.173801
v 29.011881 14.108805 12.808347
v 13.875188 12.701802 28.941975
v 27.759895 20.204361 12.431396
v 12.934102 17.803656 28.719246
v 26.895906 22.143005 12.224469
v 11.486685 20.082918 28.335968
v 25.905426 23.569674 12.011357
v 10.390741 20.857414 27.789528
v 24.436821 25.089975 11.709939
v 25.905426 -23.569674 12.011357
v 11.486685 -20.082918 28.335968
v 24.436821 -25.089975 11.709939
v 10.390741 -20.857414 27.789528
v -52.278202 -22.967342 13.169467
v -40.043304 -19.464005 29.368980
v -53.399582 -21.584370 13.169467
v -40.651466 -18.429855 29.629925
v -54.409206 -17.986843 13.169467
v -41.195431 -16.587542 29.796108
v -54.861397 -13.394103 13.169467
v -41.528496 -12.701802 29.907345
v -55.259563 0.000000 13.169469
v -41.861561 0.000000 30.044350
v -54.861397 13.394103 13.169467
v -41.528496 12.701802 29.907345
v -54.409206 17.986843 13.169467
v -41.195431 16.587542 29.796108
v -53.399582 21.584370 13.169467
v -40.651466 18.429855 29.629925
v -52.278202 22.967342 13.169467
v -40.043304 19.464005 29.368980
v -52.225525 -22.998302 13.169467
v -49.836048 -24.292068 13.169469
v -39.990627 -19.490236 29.368980
v -38.958790 -20.227077 28.762115
v -37.812649 -20.030483 29.523663
v 10.346159 -20.885527 27.789528
v -24.908859 -20.088989 29.766083
v 7.912398 -20.615452 28.592972
v -6.413312 -20.313599 29.542938
v 4.880629 -20.478756 29.010689
v 10.346159 -20.885527 27.789528
v -38.958790 -20.227077 28.762115
v 24.392237 -25.123800 11.709939
v -49.836048 -24.292068 13.169469
v 24.392237 25.123884 11.709939
v -49.836048 24.292150 13.169469
v 10.346159 20.885609 27.789528
v -38.958790 20.227160 28.762115
v 7.912398 20.615534 28.592972
v -37.812649 20.030565 29.523663
v 4.880629 20.478838 29.010689
v -24.908859 20.089071 29.766083
v -6.413312 20.313683 29.542938
v -49.836048 24.292150 13.169469
v -52.225525 22.998386 13.169467
v -38.958790 20.227160 28.762115
v -39.990627 19.490318 29.368980
v -37.812649 20.030565 29.523663
vn 0.5217 -0.6081 0.5983
vn 0.6099 -0.4697 0.6382
vn 0.4339 -0.5548 0.7099
vn 0.6766 -0.3081 0.6688
vn 0.5033 -0.2710 0.8205
vn 0.7193 -0.1176 0.6846
vn 0.5424 -0.0995 0.8342
vn 0.7249 -0.0000 0.6889
vn 0.5489 -0.0000 0.8359
vn 0.7193 0.1176 0.6846
vn 0.5423 0.0995 0.8342
vn 0.6766 0.3081 0.6688
vn 0.5033 0.2710 0.8205
vn 0.6099 0.4697 0.6382
vn 0.4338 0.5548 0.7099
vn 0.5217 0.6081 0.5983
vn 0.1522 0.8769 0.4559
vn 0.2293 0.8758 0.4248
vn 0.4338 -0.5548 0.7099
vn 0.2294 -0.8757 0.4248
vn 0.1522 -0.8769 0.4559
vn -0.5174 -0.6656 0.5378
vn -0.4170 -0.7189 0.5561
vn -0.6970 -0.3773 0.6098
vn -0.6487 -0.3848 0.6566
vn -0.7657 -0.1570 0.6237
vn -0.7216 -0.1650 0.6723
vn -0.7802 -0.0527 0.6234
vn -0.7438 -0.0550 0.6662
vn -0.7825 -0.0001 0.6227
vn -0.7527 -0.0000 0.6583
vn -0.7802 0.0527 0.6233
vn -0.7437 0.0550 0.6662
vn -0.7657 0.1570 0.6237
vn -0.7216 0.1650 0.6723
vn -0.6970 0.3773 0.6098
vn -0.6487 0.3848 0.6566
vn -0.5174 0.6657 0.5378
vn -0.4169 0.7189 0.5561
vn -0.5176 -0.6653 0.5380
vn -0.2030 -0.9057 0.3723
vn -0.4171 -0.7186 0.5565
vn -0.1639 -0.9041 0.3947
vn -0.1293 -0.8627 0.4889
vn 0.1521 -0.8768 0.4561
vn -0.0064 -0.8217 0.5698
vn 0.0755 -0.8198 0.5677
vn 0.0071 -0.8081 0.5890
vn 0.0318 -0.8089 0.5871
vn 0.1521 -0.8769 0.4561
vn -0.1636 -0.9043 0.3944
vn 0.2293 -0.8757 0.4250
vn -0.2024 -0.9059 0.3720
vn 0.2293 0.8757 0.4250
vn -0.2024 0.9059 0.3720
vn 0.1521 0.8768 0.4561
vn -0.1636 0.9043 0.3944
vn 0.0755 0.8198 0.5676
vn -0.1293 0.8628 0.4888
vn 0.0318 0.8089 0.5871
vn -0.0064 0.8218 0.5698
vn 0.0071 0.8081 0.5890
vn -0.2029 0.9057 0.3723
vn -0.5176 0.6652 0.5381
vn -0.1640 0.9041 0.3947
vn -0.4171 0.7186 0.5565
vn -0.1296 0.8625 0.4892
vt 0.972185 0.009808
vt 0.945667 0.014663
vt 0.912215 0.388096
vt 0.917518 0.019518
vt 0.873051 0.396593
vt 0.818384 0.028014
vt 0.795538 0.401852
vt 0.592483 0.032465
vt 0.592483 0.407517
vt 0.928125 0.375150
vt 0.997070 0.002930
vt 0.002930 0.592483
vt 0.060539 0.951918
vt 0.025670 0.592483
vt 0.077594 0.957915
vt 0.084795 0.592483
vt 0.107914 0.961663
vt 0.160596 0.592483
vt 0.171966 0.963911
vt 0.377731 0.592483
vt 0.377731 0.967285
vt 0.586624 0.049088
vt 0.572326 0.049088
vt 0.491735 0.564421
vt 0.485480 0.545140
vt 0.478777 0.569096
vt 0.106201 0.514174
vt 0.427108 0.586624
vt 0.120499 0.539297
vt 0.204055 0.569680
vt 0.137925 0.552736
vt 0.002930 0.002930
s 1
f 1/1/1 2/2/2 3/3/3
f 4/4/4 3/3/3 2/2/2
f 3/3/3 4/4/4 5/5/5
f 6/6/6 5/5/5 4/4/4
f 5/5/5 6/6/6 7/7/7
f 8/8/8 7/7/7 6/6/6
f 7/7/7 8/8/8 9/9/9
f 10/6/10 9/9/9 8/8/8
f 9/9/9 10/6/10 11/7/11
f 12/4/12 11/7/11 10/6/10
f 11/7/11 12/4/12 13/5/13
f 14/2/14 13/5/13 12/4/12
f 13/5/13 14/2/14 15/3/15
f 16/1/16 15/3/15 14/2/14
f 15/3/15 16/1/16 17/10/17
f 18/11/18 17/10/17 16/1/16
f 19/1/1 20/3/19 21/11/20
f 22/10/21 21/11/20 20/3/19
f 23/12/22 24/13/23 25/14/24
f 26/15/25 25/14/24 24/13/23
f 25/14/24 26/15/25 27/16/26
f 28/17/27 27/16/26 26/15/25
f 27/16/26 28/17/27 29/18/28
f 30/19/29 29/18/28 28/17/27
f 29/18/28 30/19/29 31/20/30
f 32/21/31 31/20/30 30/19/29
f 31/20/30 32/21/31 33/18/32
f 34/19/33 33/18/32 32/21/31
f 33/18/32 34/19/33 35/16/34
f 36/17/35 35/16/34 34/19/33
f 35/16/34 36/17/35 37/14/36
f 38/15/37 37/14/36 36/17/35
f 37/14/36 38/15/37 39/12/38
f 40/13/39 39/12/38 38/15/37
f 41/22/40 42/23/41 43/24/42
f 44/25/43 43/24/42 42/23/41
f 43/24/42 44/25/43 45/26/44
f 46/27/45 45/26/44 44/25/43
f 45/26/44 46/27/45 47/28/46
f 48/29/47 47/28/46 46/27/45
f 47/28/46 48/29/47 49/30/48
f 50/31/49 49/30/48 48/29/47
f 51/27/50 52/25/51 53/32/52
f 54/23/53 53/32/52 52/25/51
f 55/32/54 56/23/55 57/27/56
f 58/25/57 57/27/56 56/23/55
f 57/27/56 58/25/57 59/29/58
f 60/26/59 59/29/58 58/25/57
f 59/29/58 60/26/59 61/31/60
f 62/28/61 61/31/60 60/26/59
f 61/31/60 62/28/61 63/30/62
f 64/23/63 65/22/64 66/25/65
f 67/24/66 66/25/65 65/22/64
f 66/25/65 67/24/66 68/26/67
